<?xml version="1.0" encoding="UTF-8"?><svg xmlns="http://www.w3.org/2000/svg" width="590" height="320" xmlns:xlink="http://www.w3.org/1999/xlink" viewBox="0 0 590 320"><defs><style>.p{mask:url(#m);}.q{mask:url(#j);}.r{fill:lime;}.s{fill:#24b0bf;}.t{fill:#76ff3b;}.u{filter:url(#o);}.v{filter:url(#h);}.w{filter:url(#i);}.x{filter:url(#l);}</style><filter id="h"><feGaussianBlur stdDeviation="7"/></filter><filter id="i"><feGaussianBlur stdDeviation="4"/></filter><filter id="l" x="94.57" y="80.09" width="104.43" height="176.59" color-interpolation-filters="sRGB" filterUnits="userSpaceOnUse"><feFlood flood-color="#fff" result="bg"/><feBlend in="SourceGraphic" in2="bg"/></filter><mask id="j" x="94.57" y="80.09" width="104.43" height="176.59" maskUnits="userSpaceOnUse"><g class="x"><path d="M128.5,145.5s1-6.19,0-7.6-4-2.4-3-3.4,3.89-2.26,3.44-5.63c-.44-3.37-7.44-7.37-8.44-9.37s.49-7.15,4.25-9.08c3.75-1.92,15.99,1.92,22.37,0,6.38-1.92,10.38-3.92,14.38-4.92s13-4,14-2-1,4.09,0,6.55c1,2.45-4,7.45-5,10.45s0,11-3,13-12.73,11-15.87,12-8.95,1-10.54,0-2.59-3-5.59-2-7,2-7,2Z"/></g></mask><filter id="o" x="262.5" y="75.38" width="138.55" height="172.12" color-interpolation-filters="sRGB" filterUnits="userSpaceOnUse"><feFlood flood-color="#fff" result="bg"/><feBlend in="SourceGraphic" in2="bg"/></filter><mask id="m" x="262.5" y="75.38" width="138.55" height="172.12" maskUnits="userSpaceOnUse"><g class="u"><path d="M308.5,142.5s-6-5-6-7,0-7,1-8,9-4,10-5,0-17,4-18,12-3,11,3-4,7-3,9,0,5,1,7,2.17-1.16,2.09,2.92c-.09,4.08-.91,5.97,0,6.02s10.91,4.05,8.91,7.05-9,1-10,1,0,2-4,1-6-4-8-2-7,3-7,3Z"/></g></mask></defs><g id="a"/><g id="b"/><g id="c"/><g id="d"/><g id="e"/><g id="f"/><g id="g"><g class="v"><rect class="r" x="52.5" y="32.5" width="485" height="255" rx="51.66" ry="51.66"/></g><g class="w"><rect class="s" x="67.5" y="45.5" width="453" height="229" rx="51.66" ry="51.66"/></g><g><g class="q"><g><path class="t" d="M112.5,81.5s9,1,13,2,14,0,15,2,4,2,7,3,13.62,2,17.31,0c3.69-2,10.42-2.85,13.55-2.92s3.43-6.08,8.28-4.08,6.86,9,6.86,11,5,7,3,10-6,4-6,7,6.94,8.42,6.47,10.71c-.47,2.29,2.52,9.05,.02,11.67-2.5,2.62-4.5,14.62-7.5,17.62s-18,12-23,12-7.5-2-11.25-1.5-7.75,4.5-10.75,5.5-9,2-9,2c0,0,4,3,2,8s-8,10-8,13-2,12,1,14,4,9,3,14,2,8,2,11,2,13-1,15,2,7-1,9-15,4-15,4v-7s-7,3.17-6,.09c1-3.09,3-7.09,5-8.09s7-7,5-10-8-6-7-8,3-2,3-4-5-3-4-6,2-4,2-7,3-12-2-12-5,0-6-2-3-24-2-26-2.6-2-2.3-5.5c.3-3.5,2.3-8.5,2.3-11.5s-4-4-6-8,2-12.8,0-16.9-7-21.1-4-23.1,12-3,13-5-2-15,3-14Z"/><path d="M117.5,256.68v-6.68c-1.98,.76-4.45,1.4-5.54,.42-.32-.29-.8-.95-.41-2.15,1.06-3.26,3.13-7.49,5.5-8.67,1.21-.6,4.05-3.72,4.76-6.4,.24-.92,.2-1.64-.14-2.15-.74-1.1-2.15-2.27-3.51-3.39-2.31-1.91-4.5-3.71-3.55-5.61,.54-1.08,1.3-1.68,1.92-2.16,.73-.57,.98-.79,.98-1.4,0-.34-.83-.97-1.44-1.42-1.32-.99-3.31-2.47-2.5-4.89,.33-.98,.65-1.75,.94-2.43,.61-1.44,1.01-2.4,1.01-4.25,0-.79,.17-1.86,.37-3.1,.39-2.44,.99-6.13-.1-7.41-.18-.21-.5-.48-1.27-.48-5.09,0-5.62,0-6.89-2.55-1.13-2.26-3.18-24.53-2-26.89,.12-.24,.13-.26-.53-.88-.83-.76-2.07-1.91-1.87-4.26,.15-1.73,.68-3.76,1.19-5.72,.54-2.08,1.1-4.23,1.1-5.69,0-1.11-.8-1.88-2.21-3.14-1.19-1.07-2.68-2.4-3.69-4.41-1.14-2.28-.63-5.55-.1-9,.47-3.02,.96-6.14,.09-7.91-1.14-2.34-7.88-21.55-3.66-24.37,1.5-1,4.18-1.72,6.77-2.42,2.07-.56,5.54-1.5,5.89-2.19,.2-.44,.1-2.5,.02-3.99-.2-3.88-.42-8.27,1.52-9.94,.47-.41,1.28-.83,2.51-.6,.74,.08,9.17,1.04,13.09,2.02,1.5,.37,4.04,.45,6.51,.53,5.13,.16,8.32,.34,9.14,1.99,.48,.96,1.75,1.3,3.79,1.79,.85,.2,1.72,.41,2.63,.71,2.82,.94,13.13,1.9,16.52,.07,3.8-2.06,10.61-2.96,14-3.04,.77-.02,1.33-.67,2.17-1.73,1.25-1.58,2.95-3.74,6.52-2.27,5.25,2.16,7.47,9.41,7.47,11.92,0,.45,.69,1.62,1.24,2.57,1.44,2.47,3.23,5.54,1.6,7.99-.91,1.37-2.17,2.34-3.28,3.2-1.58,1.22-2.55,2.03-2.55,3.25s1.8,3.32,3.24,5.06c1.98,2.38,3.54,4.25,3.21,5.86-.13,.62,.15,2.01,.41,3.37,.59,3,1.32,6.73-.64,8.79-1.02,1.08-2.1,4.45-3.14,7.71-1.29,4.02-2.62,8.18-4.37,9.93-3.08,3.08-18.23,12.29-23.71,12.29-2.54,0-4.47-.49-6.17-.92-1.72-.44-3.2-.82-4.95-.58-1.98,.26-4.12,1.67-6.2,3.03-1.55,1.01-3.01,1.97-4.37,2.43-2.01,.67-5.27,1.33-7.31,1.71,1.25,1.7,2.24,4.43,.92,7.71-1,2.5-2.92,4.96-4.61,7.14-1.63,2.09-3.32,4.26-3.32,5.49,0,.78-.12,1.88-.26,3.15-.36,3.31-.96,8.84,.81,10.02,3.39,2.26,4.51,9.6,3.43,15.03-.56,2.79,.24,4.85,1.01,6.85,.52,1.34,1.01,2.6,1.01,3.95,0,.66,.11,1.74,.24,2.99,.47,4.63,1.11,10.98-1.68,12.84-.8,.54-.64,1.49-.09,3.39,.51,1.77,1.2,4.2-.91,5.61-3.09,2.06-14.14,3.95-15.39,4.15l-1.16,.19Zm2-9.73v7.36c3.88-.7,11.37-2.26,13.45-3.64,.8-.54,.64-1.49,.09-3.39-.51-1.77-1.2-4.2,.91-5.61,1.79-1.2,1.15-7.56,.8-10.98-.13-1.3-.25-2.43-.25-3.19,0-.97-.4-2.02-.87-3.23-.79-2.06-1.78-4.61-1.11-7.97,1.02-5.1-.23-11.41-2.57-12.97-2.78-1.85-2.18-7.43-1.69-11.9,.13-1.21,.25-2.26,.25-2.93,0-1.92,1.73-4.15,3.74-6.72,1.61-2.07,3.44-4.41,4.33-6.65,1.68-4.2-1.54-6.73-1.67-6.83l-1.83-1.4,2.27-.38c.06,0,5.96-1,8.85-1.96,1.11-.37,2.47-1.26,3.91-2.2,2.16-1.41,4.6-3.02,7.03-3.34,2.12-.28,3.87,.16,5.71,.63,1.66,.42,3.38,.86,5.67,.86,4.46,0,19.24-8.66,22.29-11.71,1.41-1.41,2.72-5.51,3.88-9.13,1.21-3.79,2.26-7.07,3.6-8.48,1.25-1.31,.63-4.48,.13-7.03-.33-1.69-.62-3.14-.41-4.15,.14-.66-1.69-2.86-2.79-4.17-1.91-2.29-3.71-4.46-3.71-6.34,0-2.26,1.69-3.57,3.33-4.83,1.04-.8,2.11-1.63,2.84-2.72,.94-1.41-.5-3.88-1.66-5.87-.84-1.45-1.51-2.59-1.51-3.57,0-1.81-1.88-8.28-6.24-10.08-2.07-.86-2.86-.02-4.19,1.66-.91,1.15-1.94,2.45-3.69,2.49-3.45,.08-9.79,1.01-13.1,2.8-3.96,2.14-14.88,1.15-18.1,.07-.82-.27-1.65-.47-2.46-.66-2.16-.51-4.2-1-5.12-2.84-.56-.67-4.85-.81-7.42-.89-2.69-.08-5.23-.16-6.93-.59-3.89-.97-12.78-1.97-12.87-1.98h-.09c-.49-.11-.72,.01-.86,.13-1.2,1.03-.97,5.42-.83,8.33,.14,2.7,.19,4.15-.23,4.99-.71,1.42-3.18,2.15-7.16,3.23-2.44,.66-4.96,1.34-6.18,2.16-1.89,1.26,1.7,16.42,4.34,21.83,1.14,2.33,.6,5.77,.09,9.09-.47,2.99-.95,6.09-.09,7.8,.84,1.68,2.06,2.77,3.23,3.82,1.48,1.32,2.87,2.57,2.87,4.63,0,1.72-.57,3.89-1.17,6.2-.49,1.88-1,3.83-1.14,5.39-.12,1.37,.51,1.95,1.24,2.62,.7,.65,1.77,1.63,.96,3.24-.84,2.13,1.14,23.33,2,25.11q.72,1.45,5.11,1.45c1.18,0,2.12,.4,2.79,1.19,1.69,1.98,1.06,5.89,.56,9.03-.18,1.11-.35,2.15-.35,2.79,0,2.26-.54,3.54-1.17,5.03-.27,.65-.58,1.38-.88,2.29-.31,.95,.34,1.56,1.8,2.66,1.1,.83,2.25,1.68,2.25,3.02,0,1.61-.97,2.37-1.75,2.97-.53,.41-1.02,.8-1.36,1.47-.24,.47,2.06,2.36,3.04,3.17,1.48,1.22,3,2.48,3.9,3.83,.67,1.01,.81,2.28,.41,3.77-.85,3.2-4.05,6.8-5.8,7.68-1.6,.8-3.51,4.46-4.5,7.5v.05c.73,.08,2.81-.53,4.64-1.35l1.41-.64Z"/></g></g><g><path class="t" d="M219.5,84.5s-9-8-12,5-2,12-1,12,5,2,4,4-8,20-7,21,7.9-1.27,7.95,.86-1.95,12.14-2.95,13.14,1,6,0,7-14,15-13,18,12,13,11,21-4,14-4,16,1,5,0,6-8,17-6,21,5,5,6,6,1,6,4,6,9-2,10-2,3,3,6,3h8c3,0,6,1,8,1h7.06c2.94,0,4.94,2,7.94,1s5-8,12-8,9,2,11,2,2.29-4,6.14-6c3.86-2,8.86-3,8.86-5s-4-9-7-7-7,6-13,6-8-3-12-2-8,8-18,7-12,2-11-3,4-8,1-9-8,3-10-1,7-23,6-28-3-11-3-14,5-15,3-18-2-2-2-5,0-31-1-33-5-3-5-7,5-11,6-14-4-14-6-15Z"/><path d="M251.81,245.78c-1.22,0-2.29-.34-3.29-.66-.99-.32-1.92-.61-2.96-.61h-7.06c-.99,0-2.16-.21-3.39-.44-1.43-.26-3.04-.56-4.6-.56h-8c-2.25,0-3.98-1.39-5.13-2.31-.31-.25-.74-.59-.93-.69-.36,.04-1.44,.32-2.41,.57-2.32,.6-5.51,1.42-7.54,1.42-2.77,0-3.61-2.87-4.16-4.77-.16-.54-.39-1.35-.55-1.53-.19-.19-.56-.43-.99-.71-1.43-.94-3.6-2.36-5.19-5.54-2.26-4.52,4.84-20.81,6.19-22.15,.31-.31,.07-2.01-.06-2.93-.11-.8-.23-1.63-.23-2.36,0-.94,.44-2.29,1.12-4.34,.97-2.95,2.29-6.99,2.89-11.79,.65-5.17-4.42-11.62-7.77-15.88-1.65-2.09-2.83-3.61-3.19-4.68-1.32-3.95,13.09-18.88,13.24-19.02,.11-.29-.13-1.76-.28-2.63-.31-1.88-.58-3.51,.28-4.37,.72-.95,2.64-9.83,2.66-12.28-.56-.22-2.41-.03-3.43,.08-2.02,.21-3.48,.37-4.23-.39-.54-.54-1.1-1.1,2.52-11.17,1.69-4.7,3.73-9.85,4.3-10.98,.04-.09,.12-.25-.07-.59-.59-1.01-2.56-1.93-3.04-1.96h-.13c-.31,.03-.94,.07-1.42-.49-.67-.78-.89-2.03,1.58-12.74,1.02-4.43,2.87-7.1,5.49-7.94,3.69-1.18,7.44,1.81,8.07,2.34,2.64,1.61,7.48,12.81,6.37,16.14-.38,1.14-1.23,2.69-2.21,4.49-1.67,3.05-3.74,6.85-3.74,9.19,0,2.1,1.33,3.17,2.74,4.29,.87,.7,1.7,1.35,2.15,2.26,.91,1.83,1.11,19.2,1.11,33.45q0,1.92,.64,2.78c.29,.38,.67,.9,1.19,1.67,1.44,2.16,.28,6.77-1.52,13.06-.67,2.35-1.31,4.57-1.31,5.5,0,1.74,.76,4.73,1.57,7.89,.5,1.97,1.02,4,1.41,5.91,.52,2.61-1.23,8.07-3.08,13.85-1.73,5.41-3.89,12.14-3.01,13.9,.79,1.59,2.07,1.46,4.82,.8,1.56-.38,3.18-.77,4.6-.3,.86,.29,1.45,.76,1.75,1.41,.56,1.2,0,2.62-.7,4.41-.49,1.25-1.05,2.67-1.39,4.33-.23,1.17-.23,1.6-.2,1.76,.32,.09,1.27,.03,2.12-.03,1.77-.12,4.44-.3,8.2,.08,6.37,.63,10.15-2.16,13.19-4.41,1.59-1.18,2.97-2.19,4.47-2.57,2.36-.59,4.12,.04,5.99,.71,1.65,.59,3.52,1.26,6.25,1.26,4.55,0,7.92-2.5,10.62-4.52,.65-.48,1.26-.94,1.83-1.32,1.02-.68,2.24-.69,3.46-.04,2.63,1.41,5.1,5.94,5.1,7.88s-2.45,2.99-5.54,4.21c-1.29,.51-2.63,1.04-3.85,1.67-1.81,.94-2.73,2.37-3.54,3.63-.82,1.27-1.58,2.48-3.07,2.48-.87,0-1.64-.27-2.63-.61-1.68-.58-3.98-1.39-8.37-1.39-4.04,0-6.21,2.59-8.13,4.87-1.19,1.41-2.21,2.63-3.55,3.08-.71,.24-1.38,.33-2,.33Zm-35.31-7.28c.72,0,1.34,.5,2.13,1.13,1.04,.83,2.32,1.87,3.87,1.87h8c1.74,0,3.45,.31,4.96,.59,1.14,.21,2.22,.41,3.03,.41h7.06c1.36,0,2.54,.38,3.57,.71,1.39,.44,2.58,.83,4.05,.34,.8-.27,1.66-1.29,2.66-2.47,1.98-2.36,4.7-5.58,9.66-5.58s7.32,.9,9.03,1.5c.84,.29,1.45,.5,1.97,.5,.39,0,.85-.72,1.38-1.55,.85-1.33,2.01-3.15,4.3-4.33,1.31-.68,2.76-1.25,4.04-1.76,1.7-.67,4.28-1.69,4.28-2.35,0-1.08-1.97-5-4.04-6.11-.73-.39-1.13-.23-1.4-.05-.54,.36-1.12,.79-1.74,1.26-2.78,2.07-6.6,4.91-11.81,4.91-3.08,0-5.21-.76-6.92-1.38-1.78-.64-3.07-1.09-4.83-.66-1.11,.28-2.34,1.19-3.76,2.24-3.15,2.32-7.46,5.5-14.58,4.79-3.59-.36-6.16-.19-7.87-.08-1.9,.13-3.04,.2-3.77-.63-.65-.74-.58-1.79-.25-3.49,.37-1.83,.99-3.41,1.49-4.67,.47-1.18,.95-2.41,.75-2.83-.08-.17-.39-.29-.57-.36-.87-.29-2.21,.03-3.49,.34-2.32,.56-5.49,1.33-7.08-1.85-1.16-2.31,.32-7.36,2.89-15.4,1.61-5.04,3.44-10.75,3.02-12.85-.37-1.86-.89-3.87-1.38-5.81-.84-3.29-1.64-6.39-1.64-8.39,0-1.2,.61-3.34,1.39-6.05,1.05-3.68,2.82-9.85,1.78-11.4-.49-.73-.85-1.21-1.12-1.58-1.01-1.35-1.04-1.61-1.04-3.97,0-18.14-.36-31.22-.9-32.57-.25-.49-.91-1.02-1.6-1.58-1.48-1.18-3.5-2.79-3.5-5.86,0-2.85,2.12-6.73,3.98-10.15,.9-1.65,1.75-3.2,2.07-4.17,.86-2.59-4.05-13.06-5.5-13.79l-.22-.15s-3.36-2.93-6.22-2c-1.89,.61-3.29,2.79-4.14,6.48-1.64,7.12-2.02,9.84-1.98,10.78h0c1.03,0,3.67,1.18,4.71,2.87,.53,.85,.59,1.77,.19,2.58-1.26,2.53-6.64,16.82-6.98,19.82,.56,.04,1.64-.08,2.4-.16,2.08-.22,4.05-.43,5.04,.45,.38,.33,.58,.78,.59,1.29,.04,1.89-1.86,12.48-3.24,13.87-.11,.29,.13,1.76,.28,2.63,.31,1.88,.58,3.51-.28,4.37-3.5,3.5-13.27,14.92-12.76,16.98,.25,.74,1.52,2.36,2.86,4.07,3.56,4.53,8.93,11.36,8.18,17.37-.62,4.99-1.98,9.13-2.98,12.16-.54,1.66-1.02,3.1-1.02,3.71s.11,1.35,.21,2.08c.27,1.85,.52,3.61-.5,4.63-1.12,1.35-7.45,16.56-5.81,19.85,1.35,2.7,3.17,3.89,4.5,4.76,.52,.34,.98,.64,1.31,.98,.51,.51,.75,1.33,1.05,2.38,.55,1.89,1.06,3.33,2.24,3.33,1.77,0,4.81-.79,7.03-1.36,1.67-.43,2.49-.64,2.97-.64Z"/></g><g class="p"><g><path class="t" d="M263.5,226.5s6-12,7-15-3-7-1-11,13-13,12-16-8.94-6.66-8.97-10.83,.97-36.17,5.97-39.17,14-3.16,15.5-8.08c1.5-4.92,2.5-17.92,9.5-23.92s18-15,20-18,5-9,7-8,8,7,7,12-3,7-2,9,7,1,7,6-3,10.13,0,11.06,14-.06,15,2.94,4,20,4,24,4,8,6,11,4.62,3,5.31,7.5c.69,4.5,3.69,10.5,8.69,11.5s8,3,9,10,0,16,1,19,10.45,27,8.23,32c-2.23,5-5.23,14-9.23,14s-8-7-7-8,1.09-4,1.54-6c.46-2-2.54-13-2.54-13,0,0-8-1-9-2s0-5,1-6,3-3,2-6-7-3-10-7-20.35-35.11-21.17-37.06c-1.65,2.11-2.83,12.06-4.83,9.06s-5-12-6-12-12.69,4.89-16.84,2.94c-4.16-1.94-4.16-5.94-9.16-3.94s-9.58-2.11-9.29,3.94c.29,6.06-5.71,17.95-5.21,19s2.5,4.05,1.5,8.05,0,14.73-4,18.86c-4,4.14,2,13.6,0,14.87s-6,4.27-8,4.27-20,7-20,0Z"/><path d="M390.5,247.5c-3.41,0-6.57-3.92-7.72-6.7-.59-1.43-.59-2.41,0-3.01,.47-.47,.73-2.2,.92-3.46,.11-.7,.21-1.42,.36-2.05,.24-1.05-.99-6.74-2.36-11.87-3.16-.42-7.91-1.19-8.92-2.2-.9-.9-.78-2.62-.52-3.9,.24-1.2,.77-2.75,1.52-3.51,1.24-1.24,2.5-2.75,1.76-4.98-.35-1.06-1.87-1.72-3.63-2.49-2.13-.93-4.54-1.99-6.22-4.22-2.6-3.46-16.48-28.13-20.34-35.39-.27,.79-.55,1.73-.8,2.6-1.02,3.51-1.67,5.51-3.1,5.73-.47,.08-1.16-.04-1.79-.99-.97-1.45-2.09-4.08-3.18-6.63-.75-1.75-1.74-4.07-2.26-4.85-.38,.11-1.06,.34-1.72,.56-4.11,1.35-11.75,3.86-15.27,2.22-1.67-.78-2.74-1.87-3.6-2.74-1.46-1.47-2.18-2.21-4.76-1.18-2.14,.86-4.15,.71-5.78,.59-1.1-.08-2.14-.16-2.51,.2-.17,.17-.45,.67-.38,2.18,.19,4.01-2.11,10.13-3.8,14.6-.63,1.68-1.34,3.57-1.43,4.18,.04,.08,.09,.17,.14,.26,.76,1.43,2.33,4.41,1.35,8.31-.29,1.15-.4,2.96-.53,5.07-.31,4.96-.7,11.13-3.72,14.25-1.99,2.06-.92,6.05-.06,9.27,.76,2.82,1.3,4.85-.13,5.75-.38,.24-.83,.54-1.32,.87-2.9,1.94-5.44,3.55-7.21,3.55-.33,0-1.76,.41-3.02,.76-6.74,1.88-13.58,3.53-16.57,1.26-.93-.7-1.42-1.74-1.42-3.01v-.24l.11-.21c.06-.12,5.98-11.97,6.95-14.87,.33-.99-.14-2.34-.63-3.78-.72-2.1-1.63-4.72-.31-7.35,.87-1.74,3.17-4.2,5.6-6.8,2.52-2.7,6.75-7.21,6.34-8.44-.33-.99-1.95-2.35-3.52-3.66-2.57-2.15-5.48-4.59-5.5-7.48-.02-2.11,.22-11.16,1.1-20.13,1.56-15.9,3.8-18.98,5.35-19.91,1.93-1.16,4.38-1.9,6.75-2.62,3.86-1.17,7.51-2.28,8.31-4.89,.32-1.06,.63-2.56,.99-4.29,1.25-6.06,3.13-15.23,8.82-20.1,1.35-1.16,2.85-2.43,4.4-3.74,6.18-5.24,13.88-11.75,15.42-14.06,.4-.6,.84-1.32,1.3-2.08,2.24-3.67,4.56-7.48,6.98-6.26,2.37,1.19,8.65,7.53,7.53,13.09-.43,2.16-1.04,3.76-1.52,5.05-.66,1.75-.94,2.56-.56,3.31,.18,.36,1.14,.66,1.99,.93,2.04,.65,5.12,1.62,5.12,5.52,0,1.95-.42,3.88-.8,5.58-.64,2.92-.83,4.24,.09,4.52,.9,.28,2.84,.37,4.9,.47,4.85,.23,9.87,.47,10.75,3.1,.98,2.95,4.05,20.05,4.05,24.32,0,2.72,2.19,5.58,4.12,8.11,.63,.82,1.22,1.6,1.71,2.33,.65,.98,1.37,1.59,2.13,2.24,1.4,1.2,2.84,2.43,3.34,5.66,.58,3.77,3.16,9.72,7.9,10.67,5.24,1.05,8.71,3.23,9.79,10.84,.51,3.57,.51,7.59,.51,11.14,0,3.26,0,6.34,.45,7.68,.13,.4,.43,1.19,.82,2.27,4.4,12,9.22,26.3,7.37,30.45-.35,.79-.72,1.67-1.11,2.6-2.34,5.62-5,11.99-9.03,11.99Zm-6.16-8.44c.02,.58,.77,2.35,2.26,4.06,1.32,1.51,2.74,2.38,3.9,2.38,2.7,0,5.4-6.47,7.19-10.76,.4-.95,.77-1.85,1.13-2.65,1.17-2.62-1.33-12.36-7.42-28.95-.41-1.1-.7-1.91-.84-2.33-.55-1.65-.55-4.59-.55-8.32,0-3.48,0-7.43-.49-10.86-.93-6.51-3.6-8.24-8.21-9.16-5.14-1.03-8.66-6.98-9.48-12.33-.38-2.49-1.39-3.35-2.66-4.44-.79-.68-1.69-1.44-2.49-2.65-.45-.68-1.03-1.43-1.63-2.23-2.12-2.78-4.53-5.93-4.53-9.33,0-4.01-3.02-20.89-3.95-23.68-.44-1.33-5.98-1.59-8.95-1.74-2.28-.11-4.25-.2-5.4-.56-2.77-.86-2.1-3.91-1.45-6.86,.35-1.6,.75-3.42,.75-5.16,0-2.27-1.41-2.88-3.72-3.61-1.34-.43-2.62-.83-3.17-1.94-.78-1.56-.22-3.04,.48-4.91,.46-1.22,1.03-2.74,1.43-4.74,.89-4.44-4.78-10.07-6.47-10.91-.51-.25-1.98,1.59-4.38,5.52-.48,.78-.93,1.53-1.34,2.14-1.69,2.54-9.18,8.88-15.79,14.47-1.55,1.31-3.05,2.58-4.39,3.73-5.16,4.43-6.97,13.19-8.16,18.98-.37,1.78-.68,3.32-1.03,4.47-1.11,3.63-5.45,4.95-9.64,6.22-2.25,.68-4.58,1.39-6.3,2.42-3.96,2.38-5.54,30.19-5.48,38.3,.01,1.96,2.55,4.08,4.79,5.96,1.94,1.63,3.62,3.04,4.13,4.56,.73,2.2-2.07,5.41-6.78,10.44-2.23,2.38-4.53,4.84-5.27,6.33-.94,1.88-.28,3.79,.42,5.81,.58,1.69,1.18,3.43,.64,5.06-.95,2.84-6.08,13.18-6.94,14.9,.05,.7,.37,1.02,.62,1.2,2.45,1.86,10.81-.47,14.82-1.59,2.01-.56,3-.83,3.55-.83,1.31,0,4.31-2.01,6.1-3.21,.48-.32,.92-.62,1.3-.86,.16-.5-.32-2.28-.67-3.59-.94-3.5-2.23-8.3,.55-11.17,2.51-2.59,2.87-8.36,3.16-12.99,.14-2.2,.26-4.1,.59-5.42,.79-3.16-.49-5.59-1.18-6.89-.1-.19-.19-.36-.25-.49-.35-.75,0-1.77,1.44-5.58,1.53-4.06,3.84-10.2,3.67-13.8-.09-1.79,.22-2.97,.98-3.7,1.01-.99,2.49-.88,4.05-.76,1.49,.11,3.18,.23,4.89-.45,3.8-1.52,5.39,.08,6.93,1.64,.83,.84,1.68,1.7,3.02,2.33,2.8,1.31,10.51-1.22,13.8-2.31,1.69-.56,2.24-.73,2.62-.73,1.1,0,1.67,1.08,3.83,6.14,.97,2.26,2.06,4.82,2.91,6.16,.46-.82,1.03-2.79,1.4-4.05,.6-2.05,1.16-3.98,1.9-4.93l1.04-1.33,.66,1.56c.58,1.37,17.98,32.75,21.05,36.85,1.36,1.81,3.52,2.76,5.42,3.59,2.1,.92,4.09,1.79,4.73,3.69,1.2,3.59-1.21,6-2.24,7.02-.76,.76-1.45,3.98-.99,4.59,.63,.47,4.86,1.26,8.41,1.71l.66,.08,.18,.65c.51,1.88,3.04,11.35,2.55,13.49-.13,.56-.23,1.21-.33,1.91-.27,1.78-.52,3.46-1.35,4.43Zm-.13,.15h0Zm-89.24-58.94h0Z"/></g></g><g><path class="t" d="M397.5,97.5s7-14-9-9c-10,3-8,11-8,12s12,8,11,9-8,7-6,9,17,3,18,3,0,3,5,4,7,0,7,1,2,15,4,16,14,2,16,3,0,4,1,5,10-1,10,3,2,7.63,0,9.82c-2,2.18-11,4.18-11,8.18s0,10-2,11-9,6-9,9,3,5,3,11-1,7-1,9,1,6,0,8-15,12-16,18,2,5,0,7-5,6-8,7-7,2-5,3-1,3,4,2,10.73-4.19,12.36-6.6c1.64-2.4,5.01-4.4,7.32-3.4s7.31-3,8.31-6,1.45-6,2.23-8,6.77-6,7.77-11-5-14-3-18c0,0,15-13,17-16s7-14,6-19c3-4,10-2,11-5s9-14,9-18,5-15,7-16,7-10,7-11-4-3-4-7,4-10,2-12,4-6,5-7,4-4,4-7,8-10-5-18c-5-1-11,4-8,13,1,4,5,6,1,7s-7,0-9,0-3,.81-1.5,2.4c1.5,1.6,3.5,4.6,2.5,7.6s-3.78,4.8-3.39,6.9,8.39,7.1,6.39,10.1-10,3-12,5-3,5-3,8-4,5-5,6-1,4-1,5-6-1-8,0-1,5-4,4-4.73-15.03-8.86-15.51-10.14,7.51-12.14,4.51-9-7-9-11,0-6-1-8-20-6-21-7-1-8-1-8Z"/><path d="M399.42,257.77c-.66,0-1.1-.13-1.44-.4-.58-.44-.62-1.08-.64-1.45-.03-.38-.03-.41-.28-.53-.96-.48-1.12-1.11-1.09-1.56,.1-1.28,1.66-1.83,4.9-2.86,.44-.14,.89-.28,1.31-.42,2.06-.69,4.27-3.13,6.05-5.09,.57-.62,1.09-1.2,1.56-1.67,.23-.23,.34-.37,.39-.45-.03-.07-.08-.16-.12-.23-.43-.83-1.14-2.23-.55-5.78,.74-4.44,7.4-10.33,12.26-14.63,1.68-1.49,3.59-3.18,3.84-3.65,.56-1.13,.3-3.38,.09-5.18-.1-.88-.2-1.71-.2-2.37,0-.84,.15-1.52,.33-2.31,.28-1.27,.67-3,.67-6.69,0-3.29-.95-5.26-1.78-7-.63-1.3-1.22-2.53-1.22-4,0-3.79,7.87-9.05,9.55-9.89,1.45-.72,1.45-7.3,1.45-10.11,0-3.2,3.97-5.07,7.47-6.71,1.58-.74,3.21-1.51,3.79-2.15,.91-.99,.68-2.49,.24-4.87-.24-1.29-.51-2.75-.51-4.27s-2.95-1.67-5.96-1.67c-2.11,0-3.14-.03-3.74-.63-.78-.78-.61-1.9-.47-2.88,.19-1.34,.14-1.72-.27-1.93-.85-.43-4.65-.97-7.69-1.4-4.46-.64-7.24-1.06-8.31-1.6-2.55-1.28-4.19-13.71-4.5-16.39-.2,0-.45,0-.68,0-1.11,0-2.97,0-5.57-.52-3.95-.79-4.72-2.8-5.13-3.88-.02-.04-.03-.08-.05-.12-2.45-.13-16.07-1.01-18.33-3.27-.44-.44-.66-1.01-.65-1.67,.04-2.29,3.1-5.44,6.1-8.22,.03-.03,.05-.05,.08-.07-.96-.96-3.83-2.95-5.64-4.2-4.4-3.04-5.18-3.65-5.18-4.54,0-.07-.02-.19-.04-.35-.73-6.4,2.21-10.65,8.75-12.61,5.39-1.68,8.88-1.49,10.67,.61,2.51,2.95,.22,8.3-.38,9.58,.01,2.9,.29,6.3,.7,7.04,.71,.37,4,1.25,6.92,2.04,9.94,2.68,13.59,3.88,14.28,5.25,1.11,2.21,1.11,4.29,1.11,8.45,0,2.13,2.74,4.56,5.17,6.71,1.48,1.32,2.88,2.56,3.67,3.73,.13,.19,.23,.21,.28,.22,.78,.14,2.59-1.11,4.04-2.12,2.36-1.63,4.79-3.32,7.1-3.05,2.89,.34,4.51,4.91,6.08,9.34,.84,2.36,2.1,5.92,2.98,6.22,.73,.24,.81,.27,1.3-1.16,.33-.98,.74-2.19,1.94-2.79,1.34-.67,3.64-.34,5.67-.05,.57,.08,1.3,.19,1.79,.22,.04-1.89,.27-3.97,1.29-4.99,.29-.29,.7-.58,1.21-.96,1.39-1.01,3.5-2.54,3.5-4.33,0-3.44,1.2-6.61,3.29-8.71,1.07-1.07,3.14-1.58,5.53-2.16,2.55-.62,5.44-1.33,6.35-2.69,.8-1.21-1.84-3.83-3.6-5.56-1.7-1.68-2.75-2.77-2.94-3.8-.3-1.6,.64-2.9,1.64-4.29,.69-.95,1.4-1.94,1.79-3.11,.95-2.86-1.5-5.77-2.28-6.59-1.15-1.22-1.1-2.15-.85-2.72,.27-.63,1.02-1.37,3.08-1.37,.65,0,1.33,.09,2.13,.19,1.77,.22,3.98,.5,6.63-.16,.84-.21,1.01-.4,1.01-.41-.02-.17-.49-.89-.83-1.42-.67-1.04-1.5-2.32-1.91-3.96-1.5-4.49-.95-8.72,1.53-11.53,1.96-2.21,4.89-3.25,7.64-2.7l.18,.04,.15,.09c10.85,6.68,7.98,12.95,6.26,16.7-.4,.88-.78,1.71-.78,2.16,0,3.41-3.23,6.65-4.29,7.71-.23,.23-.59,.52-1.09,.92-1.18,.96-3.96,3.19-4.02,4.39,0,.1,.01,.17,.11,.27,1.61,1.61,.63,4.43-.4,7.42-.64,1.86-1.31,3.79-1.31,5.29,0,2.25,1.54,3.8,2.67,4.92,.77,.77,1.33,1.33,1.33,2.08,0,1.54-5.35,10.79-7.55,11.89-1.48,.75-6.45,11.23-6.45,15.11,0,2.81-3.17,8.08-5.96,12.74-1.42,2.36-2.76,4.59-3.09,5.58-.66,1.99-2.86,2.35-5.18,2.74-2.14,.35-4.34,.71-5.71,2.23,.73,5.73-4.47,16.63-6.23,19.27-1.96,2.94-15.28,14.55-17.01,16.06-.72,1.78,.38,5.07,1.44,8.26,1.1,3.3,2.24,6.7,1.72,9.33-.7,3.51-3.59,6.49-5.69,8.66-.95,.98-1.93,1.99-2.13,2.51-.37,.96-.68,2.22-1,3.56-.33,1.35-.7,2.88-1.21,4.39-.76,2.28-3.53,5.1-6.18,6.29-1.35,.6-2.55,.71-3.48,.31-1.78-.77-4.69,.98-6.1,3.05-1.85,2.72-7.92,6-12.99,7.01-.98,.2-1.71,.29-2.28,.29Zm-.09-2c.26,0,.83-.02,1.98-.25,4.91-.98,10.34-4.13,11.73-6.18,1.88-2.77,5.69-4.99,8.54-3.76,.38,.17,1.07,.06,1.87-.3,2.13-.95,4.51-3.33,5.1-5.09,.48-1.44,.83-2.86,1.16-4.23,.34-1.41,.67-2.74,1.08-3.81,.35-.9,1.32-1.91,2.56-3.18,1.93-1.99,4.58-4.72,5.17-7.66,.42-2.1-.63-5.25-1.65-8.3-1.29-3.84-2.5-7.47-1.26-9.95l.09-.18,.15-.13c4.14-3.59,15.24-13.43,16.82-15.8,2.17-3.25,6.74-13.79,5.85-18.25l-.09-.44,.27-.36c1.82-2.43,4.83-2.92,7.24-3.32,1.78-.29,3.33-.55,3.61-1.4,.4-1.2,1.67-3.31,3.27-5.98,2.4-3.99,5.68-9.45,5.68-11.71,0-4.29,5.08-15.66,7.55-16.89,1.5-.75,5.87-8.35,6.41-10.02-.15-.19-.46-.5-.71-.75-1.22-1.22-3.26-3.26-3.26-6.34,0-1.84,.72-3.93,1.42-5.94,.71-2.06,1.6-4.63,.88-5.35-.49-.49-.73-1.11-.69-1.79,.1-1.93,2.41-3.94,4.77-5.84,.4-.32,.78-.63,.93-.78,.92-.92,3.71-3.71,3.71-6.29,0-.89,.45-1.86,.96-2.99,1.62-3.53,3.83-8.35-5.33-14.06-2.01-.33-4.13,.46-5.58,2.09-1.17,1.33-2.88,4.35-1.11,9.64,.35,1.39,1.05,2.47,1.67,3.43,.76,1.18,1.42,2.2,1,3.27-.39,.98-1.47,1.36-2.37,1.58-3.02,.75-5.53,.44-7.37,.2-.73-.09-1.36-.17-1.87-.17-.68,0-1.03,.1-1.18,.17,.05,.1,.16,.29,.41,.55,1.24,1.32,3.99,4.79,2.72,8.6-.49,1.46-1.32,2.62-2.06,3.65-.8,1.11-1.43,1.99-1.29,2.75,.09,.47,1.47,1.84,2.38,2.74,2.48,2.46,5.57,5.52,3.85,8.09-1.34,2.01-4.49,2.78-7.54,3.52-1.92,.47-3.91,.95-4.59,1.63-1.72,1.72-2.71,4.38-2.71,7.29s-2.7,4.78-4.32,5.95c-.41,.3-.8,.58-.97,.75-.21,.21-.71,1.06-.71,4.29,0,.36-.15,.68-.42,.91-.62,.53-1.56,.42-3.65,.12-1.48-.21-3.71-.53-4.49-.14-.46,.23-.69,.92-.94,1.64-.39,1.16-1.12,3.32-3.83,2.41-1.72-.57-2.73-3.21-4.24-7.45-1.17-3.3-2.77-7.82-4.43-8.02-1.55-.19-3.77,1.35-5.72,2.71-2.12,1.47-3.94,2.75-5.56,2.44-.64-.12-1.18-.49-1.57-1.08-.64-.96-1.95-2.12-3.33-3.35-2.74-2.43-5.84-5.18-5.84-8.21,0-3.96,0-5.76-.89-7.55-.83-.93-8.75-3.06-13.01-4.21-5.76-1.55-7.28-2-7.8-2.53-1.12-1.12-1.29-5.94-1.29-8.71v-.24l.11-.21c.74-1.49,2.32-5.76,.75-7.61-1.18-1.38-4.13-1.38-8.56,0-8.26,2.48-7.57,8.49-7.35,10.47,.01,.11,.02,.2,.03,.28,.54,.56,2.72,2.07,4.34,3.19,5.13,3.55,6.64,4.75,6.74,5.84,.03,.36-.09,.72-.35,.97-.12,.12-.33,.32-.61,.57-3.6,3.35-5.44,5.64-5.46,6.8,0,.15,.04,.19,.06,.22,1.48,1.48,15.1,2.71,17.29,2.71,1.01,0,1.34,.87,1.54,1.39,.33,.87,.79,2.06,3.66,2.63,2.4,.48,4.07,.48,5.18,.48s2.62,0,2.62,1.5c.03,1.88,2.1,14.03,3.48,15.13,.82,.41,4.61,.95,7.66,1.38,4.46,.64,7.24,1.06,8.31,1.6,1.8,.9,1.52,2.84,1.35,4-.05,.34-.13,.89-.09,1.13,.43,.09,1.52,.09,2.33,.09,3.17,0,7.96,0,7.96,3.67,0,1.33,.24,2.64,.47,3.91,.46,2.47,.89,4.81-.74,6.58-.85,.93-2.5,1.7-4.42,2.6-2.82,1.32-6.32,2.97-6.32,4.9,0,5.81-.19,10.71-2.55,11.89-2.45,1.22-8.45,5.9-8.45,8.11,0,1.01,.45,1.95,1.02,3.14,.88,1.84,1.98,4.12,1.98,7.86s-.42,5.77-.72,7.13c-.16,.72-.28,1.25-.28,1.87,0,.55,.09,1.32,.19,2.14,.25,2.18,.54,4.65-.29,6.31-.39,.78-1.67,1.93-4.3,4.26-4.11,3.64-10.99,9.72-11.61,13.46-.48,2.9,.02,3.89,.36,4.54,.53,1.04,.58,1.79-.64,3-.45,.45-.95,1-1.49,1.6-1.93,2.13-4.34,4.79-6.9,5.64-.43,.14-.89,.29-1.34,.43-.89,.28-2.21,.7-3.01,1.06,.76,.62,.83,1.41,.85,1.83Zm37.76-106.07h0Zm-22.59-23.2s0,.05,0,.08c0-.04,0-.07,0-.08Zm-11.04-4s.03,0,.04,0h-.04Z"/></g></g><g><path d="M126.75,147.04l.83-1.93c.11-.27,2.54-6.18-2.53-8.71l-1.24-.62,.98-.98c2.01-2.01,3.73-4.52,3.54-5.16-.67-1.56-5.84-6.73-7.54-8.43-2-2-3.58-3.58-1.12-7.26,2.24-3.37,8.74-8.6,17.28-4.34,5.59,2.8,19.09-2.72,25.58-5.36,3.04-1.24,4.3-1.74,4.97-1.74,.55,0,1.91-.38,3.1-.71,3.2-.89,5.23-1.37,6.28-.57,.4,.3,.62,.76,.62,1.27,0,1.32-.37,2.58-.67,3.59-.16,.56-.33,1.13-.33,1.41,0,.15,.07,.38,.15,.65,.25,.82,.62,2.05-.25,3.8-.4,.81-1.17,1.69-1.98,2.61-1.37,1.57-2.92,3.36-2.92,4.94,0,5.64-.27,11.69-2.29,13.71-7.43,7.43-12.63,11.55-15.46,12.26-.1,.03-10.41,2.54-13.12,.88-.67-.41-1.34-1.05-1.98-1.67-.46-.44-1.2-1.16-1.58-1.34-1.33,1.06-6.19,2.53-8.28,3.12l-2.02,.58Zm10.19-5.77c1.05,0,2.15,1.06,3.08,1.97,.57,.55,1.15,1.11,1.63,1.41,1.07,.65,6.7,.11,11.6-1.12,1.12-.28,4.78-1.99,14.54-11.74,1.13-1.13,1.71-5.27,1.71-12.29,0-2.33,1.81-4.41,3.41-6.25,.72-.83,1.4-1.62,1.7-2.2,.52-1.04,.34-1.64,.13-2.33-.12-.38-.23-.77-.23-1.23,0-.56,.19-1.21,.41-1.97,.25-.85,.53-1.8,.58-2.73-.87-.08-3.1,.56-4.36,.92-1.51,.42-2.81,.78-3.63,.78-.41,.04-2.34,.83-4.21,1.59-7.28,2.97-20.83,8.5-27.23,5.3-7.28-3.64-12.81,.8-14.72,3.66-1.54,2.32-1.08,2.78,.88,4.74,3.53,3.53,7.23,7.36,7.96,9.06,.76,1.78-1.45,4.65-3.08,6.43,3.28,2.3,3.5,6.02,2.92,8.72,2.7-.83,5.33-1.79,5.78-2.22,.37-.37,.75-.52,1.15-.52Z"/><path d="M308.68,143.71c-1.91,0-3.6-2.07-5.12-3.94-.27-.33-.54-.67-.82-.99-2.35-2.77-1.24-9.51-.13-11.73,.66-1.32,2.9-2.32,5.49-3.47,1.66-.74,4.17-1.85,4.51-2.53,.44-.87,.7-4.32,.93-7.37,.24-3.17,.49-6.45,.99-8.43,1.2-4.79,11.05-2.96,12.17-2.74l.25,.09c.1,.05,2.55,1.32,2.55,4.76,0,1.82-.96,3.92-1.81,5.77-.42,.92-1,2.19-.98,2.56,.12,.76,.07,1.27,.02,1.68-.04,.38-.07,.61,.04,1.04,.18,.72,.11,1.51,.04,2.34-.08,.83-.15,1.68-.02,2.61h0c.18-.05,.45-.19,.71-.36v-.39h2v2.89c0,1.73-.12,2.66-.19,3.27-.11,.85-.11,.88,.96,3.03,6.65,4.24,8.08,5.46,8,6.83-.05,1.03-.99,1.5-1.89,1.95-.41,.21-.88,.44-1.33,.74-2.06,1.37-3.09,1.18-4.54,.69-.74-.25-1.57-.52-3.01-.52-.96,0-1.39,.06-1.56,.1-.43,.75-1.2,.9-2.44,.9-1.87,0-3.33-.66-4.62-1.24-.91-.41-1.69-.76-2.38-.76-1.27,0-3.32,1.13-4.96,2.04-.57,.32-1.11,.61-1.59,.86-.43,.22-.86,.31-1.27,.31Zm12.72-39.71c-2.38,0-4.59,.41-4.93,1.74-.45,1.82-.7,5.01-.94,8.1-.33,4.27-.56,6.94-1.14,8.11-.66,1.32-2.9,2.32-5.49,3.47-1.66,.74-4.17,1.85-4.51,2.53-.88,1.77-1.79,7.59-.13,9.55,.28,.33,.56,.67,.84,1.01,1.38,1.69,2.94,3.6,3.95,3.1,.46-.23,.98-.52,1.52-.82,1.94-1.07,4.14-2.29,5.93-2.29,1.11,0,2.13,.46,3.2,.94,1.16,.52,2.37,1.06,3.8,1.06,.42,0,.66-.02,.79-.04,.44-.74,1.25-.96,3.21-.96,1.76,0,2.85,.36,3.64,.63,1.05,.35,1.41,.47,2.8-.46,.55-.37,1.1-.64,1.54-.86,.22-.11,.49-.24,.67-.35-.86-1.08-5.25-3.87-7.2-5.11l-.23-.15-.12-.25c-1.36-2.72-1.47-2.94-1.28-4.42,.07-.57,.18-1.42,.18-3.02v-.27c-.49,.17-1.03,.23-1.53,.04-.36-.14-1-.54-1.16-1.62-.17-1.16-.08-2.23,0-3.08,.06-.68,.12-1.27,.02-1.66-.2-.78-.14-1.3-.1-1.75,.04-.35,.07-.66,0-1.16-.13-.85,.32-1.9,1.14-3.69,.73-1.58,1.63-3.56,1.63-4.94,0-1.86-1.03-2.7-1.36-2.92-1.26-.24-3.04-.45-4.74-.45Z"/></g></g></svg>