<?xml version="1.0" encoding="UTF-8"?><svg xmlns="http://www.w3.org/2000/svg" width="1920" height="1080" xmlns:xlink="http://www.w3.org/1999/xlink" viewBox="0 0 1920 1080"><defs><style>.m{opacity:.61;}.m,.n{mix-blend-mode:overlay;}.n{opacity:.49;}.o{fill:#f2e2ce;}.p{fill:#f2dd72;}.q{fill:#faaf3b;}.r{fill:#f288e0;}.s{fill:#f2913d;}.t{fill:#eae6bb;}.u{fill:#ff3d00;}.v{fill:#f05a24;}.w{fill:#fff;}.x{fill:#e8e8e8;}.y{fill:#f2ccb6;}.a`{fill:#ffb41f;}.aa{fill:#728c6d;}.ab{fill:#988575;}.ac{fill:#933f00;}.ad{fill:#8fbf60;}.ae{fill:#c2c9d1;}.af{fill:#b56a33;}.ag{fill:#666;}.ah{fill:#333;}.ai{fill:#8f7f6f;}.aj{fill:#a67c58;}.ak{fill:#bfba6f;}.al{fill:#db5531;}.am{fill:#afafaf;}.an{fill:#acb2b7;}.ao{fill:#c6b198;}.ap{fill:#c69c6d;}.aq{fill:#dbaf9a;}.ar{fill:#0d0d0d;}.as{fill:#364233;}.at{fill:#373740;}.au{fill:#443f3d;}.av{fill:#3f372d;}.aw{fill:#a2a6aa;}.ax{fill:#959ba0;}.ay{fill:#483ac9;}.b`{fill:#2d2a29;}.ba{fill:#3a332b;}.bb{fill:#3a2c2a;}.bc{fill:#567bf4;}.bd{fill:#534741;}.be{fill:#7a6b5e;}.bf{fill:#4d4d4d;}.bg{filter:url(#g);}.bg,.bh{opacity:.66;}.bh{filter:url(#f);}.bi{filter:url(#c);}.bi,.bj{opacity:.34;}.bj{filter:url(#d);}.bk{isolation:isolate;}</style><filter id="c"><feGaussianBlur stdDeviation="7"/></filter><filter id="d"><feGaussianBlur stdDeviation="7"/></filter><filter id="f"><feGaussianBlur stdDeviation="4"/></filter><filter id="g"><feGaussianBlur stdDeviation="4"/></filter></defs><g class="bk"><g id="a"/><g id="b"><polygon class="ba" points="599.79 665.75 1473 665.75 1508.67 711.75 599.79 711.5 599.79 665.75"/><g><polygon class="aw" points="1318.11 625.75 1318 711.75 1529.35 696.18 1318.11 625.75"/><polygon class="aw" points="785.54 577.25 414.04 704.56 785.54 701.77 785.54 577.25"/></g><g><polygon class="ae" points="1 675.25 588.5 577.25 785.54 577.25 2 845.75 1 675.25"/><polygon class="ae" points="1921 665.75 1678 625.75 1318.11 625.75 1921 826.75 1921 665.75"/><polygon class="ae" points="388 704.75 1586 695.75 1921 826.75 1921 1080.75 1 1080.75 1 828.75 388 704.75"/></g><g><polygon class="ag" points="0 675.25 587.5 577.25 587.5 248.99 219.12 .75 0 .75 0 675.25"/><polygon class="ag" points="1435.93 625.75 1436 243.75 1872.78 .75 1920 .75 1920 665.75 1677 625.75 1435.93 625.75"/><polygon class="bf" points="587.5 248.99 1436 243.75 1872.78 .75 219.12 .75 587.5 248.99"/></g><polygon class="bd" points="587.5 248.99 587.5 577.25 784.54 577.25 784.54 665.75 869.31 665.75 1318 665.75 1319 625.75 1435.93 625.75 1436 243.75 587.5 248.99"/><g><ellipse class="bd" cx="679" cy="845.75" rx="90" ry="50"/><ellipse class="bd" cx="749" cy="755.75" rx="62" ry="23"/><ellipse class="bd" cx="982" cy="760.75" rx="62" ry="23"/><ellipse class="bd" cx="1198" cy="760.75" rx="62" ry="23"/><ellipse class="bd" cx="982" cy="845.75" rx="90" ry="50"/><ellipse class="bd" cx="1268" cy="845.75" rx="90" ry="50"/><ellipse class="bd" cx="1364.5" cy="966.25" rx="124.5" ry="58.5"/><ellipse class="bd" cx="972.5" cy="974.25" rx="124.5" ry="58.5"/><ellipse class="bd" cx="563.5" cy="974.25" rx="124.5" ry="58.5"/></g><polygon class="ai" points="700.27 577.25 700 358.75 843.45 358.75 843.45 665.75 785.54 665.75 785.54 577.25 700.27 577.25"/><rect class="av" x="588.5" y="248.99" width="19.35" height="328.27"/><polygon class="av" points="588.5 248.99 588.5 266.05 1436.93 266.05 1437 243.75 588.5 248.99"/><rect class="av" x="607.85" y="461.76" width="75.93" height="22.84"/><polygon class="av" points="683.78 272.11 683.78 577.25 700.27 577.25 697.53 272.65 683.78 272.11"/><rect class="av" x="698.14" y="341.2" width="145.3" height="17.55"/><polygon class="av" points="750.37 272.65 750.37 341.2 776.66 341.2 776.66 272.11 750.37 272.65"/><polygon class="av" points="843.45 270.82 843.45 665.75 863.1 665.75 863.1 270.67 843.45 270.82"/><rect class="av" x="863.1" y="464.75" width="180.9" height="22.76"/><polygon class="av" points="1046.95 272.7 1071.96 272.75 1071.96 665.75 1046.95 665.75 1046.95 272.7"/><rect class="av" x="1071.96" y="398.37" width="109.41" height="22.86"/><polygon class="av" points="1181.37 272.75 1182.29 665.75 1211.28 665.75 1211.28 272.75 1181.37 272.75"/><polygon class="av" points="1331.84 272.74 1331.84 625.75 1354.17 625.75 1354.17 272.7 1331.84 272.74"/><polygon class="av" points="1423.68 625.75 1423.68 272.7 1437 272.75 1436.93 625.75 1423.68 625.75"/><rect class="av" x="1354.17" y="409.75" width="63.83" height="20.94"/><polygon class="av" points="823 514.75 835.24 514.75 835.24 549.26 823.83 549.26 823 514.75"/><g><polygon class="bb" points="607.85 266.05 607.85 461.76 616.32 461.76 616.32 272.65 607.85 266.05"/><polygon class="bb" points="607.85 266.05 616.32 272.65 1437 272.75 1437 265.75 607.85 266.05"/><rect class="bb" x="607.85" y="484.6" width="75.93" height="4.26"/><rect class="bb" x="607.85" y="488.85" width="8.47" height="88.4"/><polygon class="bb" points="708.45 272.65 708.45 341.2 698.14 341.2 697.53 272.65 708.45 272.65"/><polygon class="bb" points="782.24 341.2 782.24 271.32 776.66 272.11 776.66 341.2 782.24 341.2"/><polygon class="bb" points="870.31 271.32 870.31 464.75 863.1 464.75 863.1 270.67 870.31 271.32"/><rect class="bb" x="863.1" y="487.52" width="7.2" height="178.24"/><polygon class="bb" points="1044 487.52 1040 491.75 870.31 491.75 870.31 487.52 1044 487.52"/><polygon class="bb" points="1042.29 272.7 1042.33 464.75 1046.95 464.75 1046.95 272.7 1042.29 272.7"/><polygon class="bb" points="1040 491.75 1046.95 491.75 1046.95 464.75 1044 464.75 1044 487.52 1040 491.75"/><rect class="bb" x="1042.29" y="491.75" width="4.66" height="174"/><polygon class="bb" points="1071.96 421.23 1071.96 425.49 1175.23 425.49 1181.37 421.23 1071.96 421.23"/><polygon class="bb" points="1174.95 272.7 1174.95 398.37 1181.37 398.37 1181.37 272.75 1174.95 272.7"/><polygon class="bb" points="1181.37 421.23 1175.23 425.49 1175.23 665.75 1182.29 665.75 1181.37 421.23"/><polygon class="bb" points="1322.76 272.75 1322.76 379.1 1331.84 379.1 1331.84 272.74 1322.76 272.75"/><rect class="bb" x="1321" y="536.75" width="10.84" height="89"/><polygon class="bb" points="1354.17 434.17 1412.4 434.17 1418 430.7 1354.17 430.7 1354.17 434.17"/><polygon class="bb" points="1409.12 272.75 1409.12 409.75 1418 409.78 1423.68 409.8 1423.68 272.7 1409.12 272.75"/><polygon class="bb" points="1410.24 434.17 1412.4 434.17 1418 430.7 1418 409.78 1423.68 409.8 1423.68 625.75 1410.24 625.75 1410.24 434.17"/><polygon class="bb" points="1331.84 536.75 1322.76 526.91 1322.76 388.64 1331.84 379.1 1331.84 536.75"/></g><g><polygon class="bb" points="1211.28 379.1 1331.84 379.1 1322.76 388.64 1211.28 388.64 1211.28 379.1"/><polygon class="bb" points="1211.28 536.75 1331.84 536.75 1322.76 526.91 1217.43 526.91 1217.79 388.64 1211.28 388.64 1211.28 536.75"/><rect class="bb" x="1217.59" y="452.09" width="105.17" height="12.67"/></g><polygon class="ax" points="566.17 38.91 1423.68 38.91 1358 111 626 110.81 566.17 38.91"/><rect class="ae" x="547.14" y="16.75" width="905.86" height="22.15"/><polygon class="an" points="1358 131.75 1453 38.91 1423.68 38.91 1358 111 1358 131.75"/><polygon class="an" points="547.14 38.91 626 134.75 626 110.81 566.17 38.91 547.14 38.91"/><polygon class="ae" points="1358 111 626 110.81 626 134.75 1358 131.75 1358 111"/><polygon class="o" points="567 55.75 584 73.75 1401 74.75 1418.72 55.75 567 55.75"/><polygon class="o" points="598.18 87.8 616.32 103.81 1367.11 103.81 1384 86.75 598.18 87.8"/><rect class="ae" x="681" y="170.38" width="622.8" height="13.37"/><polygon class="ax" points="692.02 183.75 715 214.75 1263 213.62 1292.66 183.75 692.02 183.75"/><polygon class="an" points="1263 227.75 1263 213.62 1292.66 183.75 1303.8 183.75 1263 227.75"/><polygon class="an" points="714.79 227.75 715 214.75 692.02 183.75 681 183.75 714.79 227.75"/><polygon class="ae" points="1263 227.75 714.79 227.75 715 214.75 1263 213.62 1263 227.75"/><polygon class="o" points="692.02 192.2 700.27 202.93 1280.38 202.93 1290.38 192.2 692.02 192.2"/><polygon class="o" points="705 207.75 711 216.75 1267 216.75 1274 209.75 705 207.75"/><g class="bi"><ellipse class="q" cx="960.5" cy="76.25" rx="508.5" ry="86.5"/></g><g class="bj"><ellipse class="q" cx="981.5" cy="201.25" rx="407.5" ry="33.5"/></g></g><g id="e"><g class="bh"><ellipse class="at" cx="1690" cy="950.29" rx="158.05" ry="39.18" transform="translate(-117.3 248.28) rotate(-8.12)"/></g><g class="bg"><ellipse class="at" cx="249.62" cy="936.34" rx="42.99" ry="178.26" transform="translate(-710.31 1068.91) rotate(-82.94)"/></g></g><g id="h"/><g id="i"><path class="y" d="M358.92,365.83s15.88-5.75,27.25,10.79c8.27,17.57,42.38,94.07,42.38,94.07l34.11-37.22s-10.34-13.44-8.27-18.61c2.07-5.17,1.03-4.14,4.14-6.2,1.03-2.07,1.03-9.3,3.1-10.34,2.07-1.03,4.14-1.03,6.2,2.07,1.03-2.07,2.07-5.17,3.1-5.17s4.14,1.03,5.17,1.03,2.07-42.38,2.07-42.38c0,0,1.03-5.17,4.14-5.17s4.14,5.17,4.14,6.2,2.07,26.88,2.07,39.28c2.07,0,3.1-1.03,5.17,0s2.07,2.07,3.1,3.1,3.1-5.17,4.14-5.17,5.17-1.03,8.27,3.1c1.03,6.2,0,18.61-1.03,21.71-1.03,3.1-63,101.26-73.88,103.87s-21.22,4.68-26.39-11.86c-7.24-13.44-18.61-38.25-18.61-38.25,0,0-13.44-41.35-13.44-42.38s-16.91-62.48-16.91-62.48Z"/><path class="r" d="M212.64,367.54s21.57,3.92,15.37,45.27c-6.2,41.35-20.68,35.15-20.68,35.15l5.17,165.4s52.72,35.15,171.6-2.07c0,0,4.14-123.02,7.24-135.42-3.1-12.41-11.37-69.26-9.3-73.4-2.07-11.37-2.07-32.05-7.24-38.25-8.27-3.1-33.08,0-33.08,0,0,0-9.3,27.91-50.65,38.25-22.74-3.1-28.95-16.54-51.69-28.95-12.41-8.27-26.74-5.98-26.74-5.98Z"/><g><path class="y" d="M280.72,152.82c-63.09,0-114.23,51.14-114.23,114.23,0,6.41,.54,12.69,1.55,18.81-9.01,3.16-15.51,12.05-15.51,22.54,0,13.13,10.18,23.78,22.74,23.78,3.58,0,6.96-.87,9.97-2.4,20.42,31.02,55.55,51.51,95.47,51.51,63.09,0,114.23-51.14,114.23-114.23s-51.14-114.23-114.23-114.23Z"/><path class="y" d="M341.72,366.29c5.3-13.25-24.51-17.57-52.2-17.57s-47.04,11.57-47.04,25.84,23.78,29.98,48.59,29.98c25.84-4.14,44.45-22.74,50.65-38.25Z"/></g><g><rect class="w" x="259.33" y="478.56" width="107.74" height="64.34" rx="6.73" ry="6.73" transform="translate(-31.13 20.45) rotate(-3.56)"/><rect class="v" x="260.21" y="506.68" width="107.74" height="36.19" rx="6.73" ry="6.73" transform="translate(-32 20.53) rotate(-3.56)"/><polygon class="bc" points="260 526.33 367.49 518.19 366.24 495.65 258.75 503.84 260 526.33"/></g><path class="y" d="M221.8,371.46c-2.72-1.81-15.51-13.44-28.95,14.47-3.1,15.51-10.34,21.71,12.41,60.99,22.74,39.28,33.08,90.97,44.45,98.21,4.14,5.17,9.3,9.3,12.41,9.3s70.3-82.7,71.33-83.73,16.54-9.3,17.57-12.41c1.03-3.1,4.14-13.44-4.14-18.61-3.1,1.03-5.17,2.07-5.17,6.2,0,0,0-6.2-5.17-6.2s-6.2,6.2-6.2,6.2l1.03-47.55s0-5.17-4.14-5.17c-9.3,0-7.24,50.65-7.24,50.65,0,0-1.03-6.2-4.14-6.2s-6.2,3.1-5.17,8.27c0,0-2.07-6.2-5.17-5.17-3.1,1.03-5.17,3.1-5.17,7.24-1.03,0-11.39,2.65-9.83,12.18,2.59,6.43,9.83,10.56,9.83,10.56,0,0-25.84,32.05-32.05,34.11-2.07-3.1-38.25-86.84-39.28-92,1.03-9.3,1.03-20.68,1.03-20.68,0,0-5.17-18.61-8.27-20.68Z"/><g><path class="ar" d="M344.82,884.2s-19.64,9.3-17.57,19.64c2.07,10.34,7.24,20.14,17.57,26.09s28.95,26.63,36.18,27.66c7.24,1.03,13.44-4.14,14.47-9.3,1.03-5.17-5.61-37.36-18.61-56.86-4.14-6.2-7.24,1.03-10.34-2.07s-21.71-5.17-21.71-5.17Z"/><path class="ar" d="M162.89,705.26c.09-.66,.57-4.46,.79-8.31,.29-5.07-3.53-9.5-8.6-9.83-5.45-.35-12.82,.2-19.03,4.32-2.64,1.75-4.2,4.73-4.18,7.89,.07,15.45,.83,42.01,9.12,64.47,.12,.32,.29,.63,.52,.88,3.4,3.74,7.51,.99,8.8-.05,.26-.21,.48-.47,.64-.76,1.44-2.54,8.93-16.19,9.86-26.46,.99-10.91,1.98-30.37,2.06-31.94,0-.07,0-.13,.02-.2Z"/></g><path class="ao" d="M216.09,638.44s8.81,21.43,8.81,30.74-5.26,53.84-15.04,75.51c-5.07,11.28-9.77,24.77-9.77,24.77,0,0-33.08-63.06-36.18-67.19-3.1-4.14-13.44-3.1-14.47,5.17,2.07,7.24,11.37,41.35,14.47,47.55,3.1,6.2,19.64,47.55,29.98,55.82,6.2,3.1,9.3,2.14,18.61-1.51,0,0,33.08-46.04,35.15-70.85,7.24-22.74,14.47-44.45,19.64-47.55,5.17-3.1,14.47-13.44,62.03-9.3,8.27,4.14,18.61,19.64,19.64,25.84,1.03,6.2,14.47,66.16,16.54,77.53,2.07,11.37-4.14,50.65-23.78,100.27,1.03,8.27,5.17,9.3,12.41,11.37s14.47-3.1,15.51-4.14,32.05-93.04,31.01-104.41-17.57-116.81-19.64-125.08c-1.03-10.34,3.1-24.81,3.1-24.81,0,0-158.22,4.69-168.01,.28Z"/><path class="ab" d="M212.5,613.36s1.03,21.71,5.17,28.95c6.2,3.1,48.59,15.51,78.57,14.47,29.98-1.03,87.87-18.61,87.87-18.61,0,0,4.14-17.57,0-26.88-9.3,3.1-69.04,16.3-92.41,16.94-23.37,.64-61.62-2.46-79.19-14.87Z"/><g><path class="s" d="M180.45,285.66s13.44-63.06,80.63-48.59c67.19,14.47,121.98-18.58,121.98-87.87-5.17,5.17-10.34,18.61-13.44,19.64-1.03-4.14-1.82-14.99-1.82-14.99,0,0-7.48,13.96-11.61,16.02-5.17-4.14-82.7-40.32-147.83-10.34-65.13,29.98-47.55,132.32-47.55,132.32,0,0,4.14-4.14,9.3-5.17,4.18-.84,10.34-1.03,10.34-1.03Z"/><path class="s" d="M358.92,213.46s23.11,19.48,28.28,32.91c2.07,3.1,6.2,3.1,6.2,3.1,0,0,.17-6.41-2.07-17.57-3.1-15.51-7.09-27.36-17.5-38.49-10.48-.55-14.92,20.05-14.92,20.05Z"/></g><path class="aq" d="M268.24,278.28s-6.13,7.38-8.19,9.45-3.2,10.57-2.12,12.52c1.08,1.95,4.67,6.92,4.95,10.12,.27,3.2-2.34,13.85,0,15.76,2.34,1.91,5.35,7.45,7.98,7.78,2.63,.33,5.39-1.37,7.11,0s8.52,4.99,10.29,3.7,13.14-7.5,15.21-6.47,11.37-8.27,12.41-10.34c1.03-2.07,4.14-8.27,6.2-10.34,2.07-2.07,3.1-12.41,2.07-15.51-1.03-3.1-1.03-12.41-3.1-13.44s-8.27-5.17-8.27-6.2-3.34-7.24-5.81-7.24-36.73,3.85-38.72,10.2Z"/><path class="w" d="M371.69,291.86c-1.03,7.24-8.27,14.47-15.51,15.51-8.48,1.21-15.51-6.94-15.51-15.51s6.94-15.51,15.51-15.51,16.72,7.03,15.51,15.51Z"/><path class="w" d="M311.74,301.16c0,11.42-10.34,20.68-21.71,20.68-13.79,0-19.64-9.26-19.64-20.68s7.65-20.68,19.64-20.68,21.71,7.24,21.71,20.68Z"/><path class="ap" d="M270.39,304.82s13.44,1.51,21.71-1.59c8.27-3.1,18-9.09,18-10.8,0-4.7-9.23-15.73-25.65-11.21-16.13,4.44-14.06,22.09-14.06,23.6Z"/><g><path class="s" d="M336.55,266.02s8.27,9.3,20.68,7.24c12.41-3.1,17.57-9.3,17.57-9.3,0,0,4.14-7.24,2.07-10.34-2.07-3.1-6.2-3.1-7.24-1.03s-2.52,9.2-12.63,9.77c-3.91,.57-9.08,1.6-12.18-.46s-6.2-7.24-8.27-5.95c-1.88,1.17-2.07,8.02,0,10.09Z"/><path class="s" d="M295.2,259.81s12.41-5.17,16.54-5.17c5.17,.45,12.41,6.2,0,13.44-10.34,3.1-25.84,4.14-28.95,4.14s-18.45,8.27-19.56,8.27-12.48-1.03,1.99-15.51c8.27-3.1,20.68-4.14,29.98-5.17Z"/></g><path class="u" d="M316.89,331.15s.56,3.66-.49,6.74c-1.05,3.08-.78,6.11,.64,6.15s2.45-2.03,2.45-4.1v-8.78h-2.6Z"/><g><g><line class="w" x1="359.08" y1="292.89" x2="359.6" y2="288.76"/><path d="M359.46,292.89l.45-3.62,.06-.51c.03-.2-.19-.38-.38-.38-.22,0-.35,.17-.38,.38l-.45,3.62-.06,.51c-.03,.2,.19,.38,.38,.38,.22,0,.35-.17,.38-.38h0Z"/></g><g><line class="w" x1="357.02" y1="290.31" x2="361.67" y2="291.37"/><path d="M356.92,290.67l4.07,.93,.58,.13c.47,.11,.67-.62,.2-.72l-4.07-.93-.58-.13c-.47-.11-.67,.62-.2,.72h0Z"/></g><g><line class="w" x1="358.31" y1="288.76" x2="360.63" y2="292.89"/><path d="M357.99,288.95l2.04,3.62,.29,.51c.24,.42,.88,.04,.65-.38l-2.04-3.62-.29-.51c-.24-.42-.88-.04-.65,.38h0Z"/></g><g><line class="w" x1="360.89" y1="289.53" x2="357.79" y2="292.12"/><path d="M360.63,289.27l-2.72,2.27-.38,.32c-.16,.13-.13,.4,0,.53,.15,.15,.37,.13,.53,0l2.72-2.27,.38-.32c.16-.13,.13-.4,0-.53-.15-.15-.37-.13-.53,0h0Z"/></g><g><line class="w" x1="361.14" y1="292.45" x2="358.08" y2="289.61"/><path d="M361.4,292.18l-2.68-2.48-.38-.35c-.35-.33-.89,.2-.53,.53l2.68,2.48,.38,.35c.35,.33,.89-.2,.53-.53h0Z"/></g><g><line class="w" x1="360.22" y1="289.36" x2="357.96" y2="292.7"/><path d="M359.9,289.17l-1.98,2.93-.28,.41c-.11,.17-.03,.42,.13,.51,.18,.11,.4,.03,.51-.13l1.98-2.93,.28-.41c.11-.17,.03-.42-.13-.51-.18-.11-.4-.03-.51,.13h0Z"/></g><g><line class="w" x1="356.81" y1="291.72" x2="361.38" y2="290.34"/><path d="M356.91,292.08l3.98-1.21,.58-.18c.46-.14,.26-.86-.2-.72l-3.98,1.21-.58,.18c-.46,.14-.26,.86,.2,.72h0Z"/></g></g><g><g><line class="w" x1="299.13" y1="309.43" x2="299.64" y2="305.3"/><path d="M299.5,309.43l.45-3.62,.06-.51c.03-.2-.19-.38-.38-.38-.22,0-.35,.17-.38,.38l-.45,3.62-.06,.51c-.03,.2,.19,.38,.38,.38,.22,0,.35-.17,.38-.38h0Z"/></g><g><line class="w" x1="297.06" y1="306.85" x2="301.71" y2="307.91"/><path d="M296.96,307.21l4.07,.93,.58,.13c.47,.11,.67-.62,.2-.72l-4.07-.93-.58-.13c-.47-.11-.67,.62-.2,.72h0Z"/></g><g><line class="w" x1="298.35" y1="305.3" x2="300.68" y2="309.43"/><path d="M298.03,305.49l2.04,3.62,.29,.51c.24,.42,.88,.04,.65-.38l-2.04-3.62-.29-.51c-.24-.42-.88-.04-.65,.38h0Z"/></g><g><line class="w" x1="300.94" y1="306.07" x2="297.83" y2="308.66"/><path d="M300.67,305.81l-2.72,2.27-.38,.32c-.16,.13-.13,.4,0,.53,.15,.15,.37,.13,.53,0l2.72-2.27,.38-.32c.16-.13,.13-.4,0-.53-.15-.15-.37-.13-.53,0h0Z"/></g><g><line class="w" x1="301.18" y1="308.99" x2="298.12" y2="306.15"/><path d="M301.45,308.72l-2.68-2.48-.38-.35c-.35-.33-.89,.2-.53,.53l2.68,2.48,.38,.35c.35,.33,.89-.2,.53-.53h0Z"/></g><g><line class="w" x1="300.27" y1="305.9" x2="298" y2="309.24"/><path d="M299.94,305.71l-1.98,2.93-.28,.41c-.11,.17-.03,.42,.13,.51,.18,.11,.4,.03,.51-.13l1.98-2.93,.28-.41c.11-.17,.03-.42-.13-.51-.18-.11-.4-.03-.51,.13h0Z"/></g><g><line class="w" x1="296.85" y1="308.26" x2="301.42" y2="306.88"/><path d="M296.95,308.62l3.98-1.21,.58-.18c.46-.14,.26-.86-.2-.72l-3.98,1.21-.58,.18c-.46,.14-.26,.86,.2,.72h0Z"/></g></g><path class="u" d="M306.57,416.94s-5.17,3.1-4.14,5.17c1.03,2.07,1.03,4.14,1.03,4.14,0,0,1.03,1.03,2.07,0,1.03-1.03,3.1-1.03,5.17-2.07s4.14-3.1,4.14-4.14-.9-2.07-.97-3.1,3.03-3.1,3.03-4.14-2.07-7.24-6.2-6.2c-2.07,1.03-5.17,2.07-4.14,10.34Z"/><path class="u" d="M317.94,400.4c0,.86-.46,2.07-1.03,2.07s-1.03-.18-1.03-1.03,.46-2.07,1.03-2.07,1.03,.18,1.03,1.03Z"/><path class="u" d="M302.43,414.88c0,1.14-.69,1.03-1.55,1.03s-1.55,0-1.55-2.07c0-1.46,.69-2.07,1.55-2.07,.52,0,1.55,1.96,1.55,3.1Z"/><path class="u" d="M315.87,427.73c.06,.85-.5,1.23-.92,1.62-1.14,1.04-.68-.75-1.14-1.48-1.04-1.62,0-2.66,.92-1.62,.38,.43,1.08,.62,1.14,1.48Z"/><g><path d="M314.54,331.66c-.4,0-.66,0-.74,0l.02-1.03c.18,0,18.57,.32,20.76-5.84,.98-2.74-.28-5.91-1.5-8.98-.41-1.03-.83-2.09-1.16-3.12-1.96-6.13-3.35-11.34-3.37-11.4l1-.27c.01,.05,1.4,5.24,3.35,11.35,.32,.99,.71,1.99,1.13,3.05,1.29,3.25,2.62,6.6,1.52,9.71-2.2,6.16-17.4,6.53-21.02,6.53Z"/><path d="M303.98,353.37s2.07,1.03,4.14,1.03,27.91-8.27,27.91-8.27c0,0,3.1-2.07,2.07-3.1-1.03-1.03-33.08,8.27-34.11,10.34Z"/><path d="M338.52,350.39l-.42-.94c2.56-1.15,9.05-4.79,8.29-7.84-.94-3.76-8.08-4.89-8.15-4.9l.16-1.02c.32,.05,7.9,1.25,9,5.67,1.13,4.5-8.46,8.85-8.87,9.03Z"/><path d="M299.4,360.85c-3.22,0-6.97-.59-7.5-3.24-.84-4.19,3.08-11.13,6.14-12.12l.32,.98c-2.43,.79-6.23,6.98-5.44,10.94,.6,2.99,8.14,2.51,10.99,2.07l.16,1.02c-.47,.07-2.44,.35-4.66,.35Z"/><g><path d="M169.19,314.4c-.1-.12-2.34-3.05-2.73-6.78-.4-3.78,1.31-7.06,4.92-9.47l.57,.86c-3.32,2.22-4.83,5.08-4.47,8.5,.36,3.43,2.5,6.23,2.52,6.26l-.82,.63Z"/><path d="M174.25,311s-.24-3.21-7.26-2.92l-.04-1.03c3.38-.14,5.81,.46,7.21,1.77,1.09,1.02,1.12,2.11,1.12,2.15l-1.03,.02h0Z"/></g></g><g><path class="a`" d="M297.26,639.2v3.98h-8.37v-5.14s1.14-13.31,11.47-14.35c10.34-1.03,18.61,9.3,18.61,18.61-2.07,9.3-7.24,18.61-20.68,17.57,0-3.1,10.34-8.27,10.34-8.27,0,0,4.14-4.14,4.14-6.2s3.31-7.16-4.03-13.92c-3.31-2.14-8.37-4.69-12.51-.55-3.1,3.1-3.1,7.24-3.1,7.24h4.14v1.03Z"/><path class="a`" d="M300.37,623.69s-17.33-1.03-20.04,17.57c-2.71,18.61,19.07,18.67,19.07,18.67l8.21-4.2v-11.37h-8.27v4.14h4.14s-2.02,5.91-7.24,5.17c-7.24-1.03-10.34-3.1-10.34-9.3s-3.1-12.41,14.47-20.68Z"/></g><g><path class="af" d="M316.2,201.28l-.66-.79c1.06-.89,25.95-21.78,29.11-22.84,2.98-.99,19.88-13.41,22.65-23.93l1,.26c-2.91,11.07-20.15,23.59-23.32,24.65-2.47,.82-21.61,16.63-28.78,22.65Z"/><path class="af" d="M365.49,175.05s17.57-22.74,17.57-25.84"/><path class="af" d="M292.48,205.37l-.77-.69c.68-.76,16.74-18.75,28.08-23.9,11.28-5.13,36.02-11.34,36.27-11.4l.25,1c-.25,.06-24.89,6.25-36.09,11.34-11.14,5.06-27.57,23.46-27.74,23.65Z"/><path class="af" d="M298.55,188.88l-.53-.89c.35-.21,8.72-5.11,16.45-4.58l-.07,1.03c-7.4-.51-15.77,4.39-15.85,4.44Z"/><path class="af" d="M303.45,186.41c-.08-.04-8.46-3.62-16.52-3.62v-1.03c8.28,0,16.58,3.55,16.93,3.7l-.41,.95Z"/></g><g id="j" class="n"><path d="M323.95,157.99s-188.14-64.09-163.33,134.39c0,0,10.34-8.27,19.64-6.2,1.72-5.17-7.41-51.33,19.64-84.77,21.6-26.71,72.64-42.5,124.05-43.42Z"/><path d="M180.26,286.17s-35.64-2.71-26.6,30.69c3.59,14.08,20.7,21.36,31.41,13.43-8.57-1.4-26.88-5.83-26.7-18.77,.37-7.27,.19-21.21,21.9-25.35Z"/><path d="M180.26,309.5s-3.15,22.94,28.4,46.84c11.42,8.52,21.22,14.6,33.62,18.73,12.41,4.14,48.59,6.2,48.59,6.2,0,0-18.43-2.83-37.22-9.3s-37.92-16.6-43.88-22.78c-11.94-12.37-23.31-18.43-29.51-39.69Z"/><path d="M275.21,262.86l-10.18,2.64s-8.61,7.54-6.89,13.08c1.37,2.79,5.41,2.1,7.92,1.4l5.34-2.78s-6.37,1.75-8.44,1.75-4.14-1.03-3.1-3.1c1.03-2.07,1.76-8.38,15.35-12.98Z"/><path d="M338.63,256.89s-2.14-2.72-3.76,2.43c-1.62,5.15,3.19,10.23,8.54,12.34-1.89-2.02-4.99-4.09-6.02-6.16-1.03-2.07-2.2-3.77-1.61-5.5,.58-1.73,1-2.41,2.86-3.11Z"/><path d="M286.69,281.17s-18.57,1.98-16.5,24.16c5.17,.48,19.64,.48,21.71-1.59,0,0-15.81-.41-16.69-2.79-.88-2.38-2-14.45,11.48-19.79Z"/><path d="M270.19,305.33s-1.91,33.67,33.68,11.91c0,0-14.03,7.18-21.27,.98-7.24-6.2-12.41-12.88-12.41-12.88Z"/><path d="M297.64,346.59s-12.87,14.2,.52,14.11c4.08-.09,5.55-.71,5.55-.71,0,0-7.67-1.45-8.71-2.49s-.93-6.32,2.64-10.91Z"/><path d="M303.79,353.88s2.58,2.58,3.62,2.58,23.78-6.2,28.43-9.82c1.55-1.55-17.78,4.26-17.78,4.26l-14.27,2.98Z"/><path d="M340.49,293.38s-3.08,12.95,8.8,15.79c5.67,.78,9.5,.63,14.82-4.98,5.32-5.61-4.96-3.82-4.96-3.82l-18.66-6.99Z"/><path d="M335.36,325.65s-1.07,7.04-12.45,8.08h-13.61l4.32-2.58s17.64,.9,21.74-5.49Z"/><path d="M315.57,333.72s.11,5.17-.93,6.2-1.03,4.84,0,5.01,1.44,.9,2.79-.5c-.72,.67-2.79-.37-1.76-3.47,1.03-4.14,1.29-6.2,1.16-7.24s-1.27,0-1.27,0Z"/><path d="M313.45,184.93s-13.28-1.1-25.68,11.31c6.2-3.1,16.22-10.21,25.68-11.31Z"/><path d="M328.01,179.12s-16.59,2.53-36.17,26.36c9.36-6.15,24.87-19.59,32.11-22.69,7.24-3.1,30.05-11.36,30.05-11.36,0,0-11.18,2.06-16.48,4.12-5.3,2.07-9.5,3.56-9.5,3.56Z"/><path d="M366.91,155.64s-1.1,10.36-19.96,22.38c-19.12,12.66-30.94,23.78-30.94,23.78l-3.43,3.74s28.82-22.74,30.44-23.26,23.44-12.44,23.9-26.64Z"/><path d="M380.02,175.56s-3.98,33.35-38.3,52.86c-12.82,5.93-28.13,10.37-28.13,10.37,0,0,28.06-13.54,40.4-25.98,12.34-12.44,24.22-26.91,26.03-37.25Z"/><path d="M211.03,368.08s-9.07-1.27-18.37,18.37c-3.1,18.61-6.2,13.27-1.03,33s18.6,29.03,39.18,87.08c0,0,9.6,28.36,13.12,32.19,1.45,1.76,2.49,5.9,5.59,6.93,0,0,6.2,8.27,12.41,9.3-6.2-6.2-20.68-21.71-32.05-62.03-11.37-40.32-31.01-69.26-32.05-73.4s-13.91-26.4,13.2-51.45Z"/><path d="M284.39,489.86s-8,11.34-16.27,15.47c-8.27,4.14-15.51,7.24-15.51,7.24,0,0,13.44-1.03,21.71-7.24,8.27-6.2,27.77-33.13,27.77-33.13l-1.93-.98-15.78,18.64Z"/><path d="M376.54,368.27s5.3,23.35,5.3,34.72,3.1,43.42,9.3,73.4l16.54,33.08s2.59,15.62,17.83,13.49c6.98-1.09,10.2-1.02,15.31-7.26-6.26,2.03-10.4,4.1-15.57,3.06s-5.8,.98-11.17-7.26c-5.37-8.24-18.81-31.27-22.94-54.39-4.14-23.11-7.27-71.7-8.29-75.32s-6.31-13.53-6.31-13.53Z"/><path d="M462.47,434l-46.52,50.65s23.27-16.54,30.24-25.33c6.97-8.79,20.14-25.33,20.14-25.33h-3.86Z"/><path d="M242.28,375.07s0,26.88,48.59,29.98c-13.44-2.07-20.68-5.57-28.95-11.57-8.27-6-11.37-7.04-19.64-18.41Z"/><path d="M305.82,441.13s-6.17,1.19-5.91,7.36c.26,4.11,1.29,10.31,1.29,10.31,0,0-1.11-15.71,4.61-17.67Z"/><path d="M314.43,438.3s-4.95,.86-3.92,8.1l1.03,9.3s-.43-17.23,2.89-17.4Z"/><path d="M326.64,393.72s-6.7,.56-6.76,26.62c-.01,5.37-.06,9.78-.07,13.66-.02,14.95,0,20.68,0,20.68,0,0,1.03-29.98,2.07-39.28,1.03-9.3,1.25-18.54,4.76-21.67Z"/><path d="M335.71,440.24s-4.53-.04-5.56,6.17c-1.03,6.2,0,7.24,0,7.24,0,0,2.85-13.36,5.56-13.4Z"/><path d="M346.69,440.2s-5.31,1.38-5.24,5.34c.07,3.96,.07,7.07,.07,7.07,0,0,2.07-9.3,3.1-10.34l2.07-2.07Z"/><path d="M463,398.3s-2.6-.48-3.59,5.84c-1.12,7.01-1.08,11.26-1.08,12.29s1.3-11.24,2.07-13.44,1.06-3.58,2.6-3.86,3.18-.02,2.87-.15-.23-.29-1.82-.73l-1.06,.05Z"/><path d="M470.74,395.75s-4.68,2.58-4.41,15.25c1.31-5.94,1.02-6.99,2.2-9.05,1.18-2.06,2.21-6.2,2.21-6.2Z"/><path d="M482.11,349.23s-3.1,0-4.14,5.17c0,6.2-1.03,36.18-2.07,42.38-1.03,6.2-2.72,14.21-2.72,14.21,0,0,5.82-17.31,5.82-33.85s0-21.71,1.03-23.78l2.07-4.14Z"/><path d="M492.67,394.4s-7.11-2.01-7.8,8.98c-.69,10.98,0,4,0,4,0,0,.35-6.45,2.41-8.52,2.07-2.07,3.54-4.77,5.39-4.45Z"/><path d="M504.09,392.65s-4.27-1.03-4.34,0c-.07,1.03-5.24,11.37-6.27,15.5,0,0,4.85-11.37,6.56-12.41s4.32-3.1,4.05-3.1Z"/><path d="M235.52,430.39s-11.05-27.57-11.45-32.14c-.4-4.57-1.09,2.13,1.32,9.12,2.41,6.99,11.81,30.94,11.81,30.94l4.15,5.98-5.83-13.9Z"/><path d="M211.03,368.08s22.39-3.34,17.52,44.21c3.69,9.3,3.96,10.45,3.96,10.45,0,0,8.65-17.67,3.01-34.22-5.64-16.55-8.72-19.65-8.72-19.65,0,0-8.76-2.62-15.76-.79Z"/><path d="M207.13,451.74l5.17,162.13s7.15,4.63,14.47,7.24c6.69,2.38,13.52,2.75,15.51,3.1-3.07-7.54-13.45-18.43-13.44-26.88,0-3.56-2.84-26.77-4.14-53.76-1.78-36.99-11.48-79.87-11.48-79.87l-6.09-11.97Z"/><path d="M254.37,550.79s-4.85,5.19-8.99,1.05-29.14-52.72-31.11-67.19c-1.97-14.47-2.85-25.33-2.85-25.33l12.24,21.82,15.58,45.7,11.87,19.49,3.25,4.46Z"/><path d="M212.3,613.87s-1.03,22.74,5.17,28.95c7.24,2.07,18.09,5.79,18.09,5.79,0,0-8.53-4.76-13.82-9.93s-1.62-20.43-1.62-20.43l-7.82-4.38Z"/><path d="M299.57,624.14s-20.29,.04-19.67,22.8c1.66,10.35,13.01,13.58,21.81,13.52,0,0-18.08-2.13-20.15-13.5,0,0-1.2-20.82,18.01-22.81Z"/><path d="M299.14,644.88v4.14h5.78s-3.72,0-4.75-1.03-1.03-3.1-1.03-3.1Z"/><path d="M303.27,649.02s.32,4.98-5.01,5.07c1.91-.94,5.01-3.01,5.01-5.07Z"/><path d="M313.24,642.32s-1.72,12.16-11.53,13.56c6.23-1.33,9.1-.61,11.53-13.56Z"/><path d="M284.45,631.24s-20.27,15.87,2.38,29.23c8.09,3.98,16.57,3.55,24.78-3.95,0,0-10.76,9.33-26.6-.63-6.54-4.8-5.51-18.24-.55-24.64Z"/><path d="M292.42,628.55s-5.69,7.03-5.69,14.27v2.66l4.14,.44h3.69l.05-2.22s-4.3-1.1-2.99-5.64c.28-.41-.82,.63-.82,.63v5.01s1.3-10.76,2.86-14.08c5.89-8.03,17.95-1.64,17.95-1.64,0,0-1.1-1.7-7.87-3.68-16.07-1.98-15.04,19.4-15.04,19.4l3.72-15.15Z"/><path d="M299.14,645.57h-1.37v4.43h3.94s-.8,4.24-8.41,3.7c0,0,8.93,2.56,9.97-4.68h-4.14v-3.45Z"/><path d="M300.07,629.32s19.88,5.2,7.4,23.31c0,0,4.37-1.49,5.77-10.3,.73-6.25-3.97-13.07-13.17-13.01Z"/><path d="M217.47,642.82c14.47,33.08,3.1,50.65,1.03,69.26-2.07,18.61-24.81,72.36-24.81,72.36,47.55-76.5,33.79-138.52,33.79-138.52"/><path d="M149.24,707.94s25.15,90.49,43.59,102.62c6.89,2.54,5.49,3.38,18.68,0-12.9-2.63-11.62,6.96-26.09-19.92-14.47-26.88-36.18-82.7-36.18-82.7Z"/><path d="M329.12,682.1s11.14,5.82,19.01,23.58c4.37,20.03,15.7,74.63,17.47,82.38-.59,10.33-3.09,34.37-8.41,51.04-5.32,16.67-15.66,46.64-15.66,46.64,0,0-.74,7.98,5.83,9.68l6.57,1.7s-8.27-4.14-9.3-8.27c0-4.14,29.98-71.33,27.91-94.07-2.07-22.74-8.27-109.58-43.42-112.68Z"/></g></g><g id="k"><g><path class="aj" d="M1654.89,277.97c0,52-15.7,91.24-54.94,91.24s-51.01-40.85-51.01-91.24-8.83-91.24,51.01-91.24c54.94,0,54.94,40.85,54.94,91.24Z"/><circle class="aj" cx="1655.87" cy="304.46" r="13.73"/><path class="aj" d="M1555.81,309.36s-4.43,.37-7.85,1.78c-2.16,.89-3.92,2.2-3.92,4.1,0,4.91,2.49,15.51,15.96,21.98,13.47,6.47-4.19-27.87-4.19-27.87Z"/></g><path class="at" d="M1558.75,215.18s.98,15.7-11.77,15.7c-9.81-2.94-15.7-12.75-5.89-26.49-.98-4.91-4.61-19.62,12.9-17.66-.29-5.89-.15-16.68,11.63-15.7,0-2.94,7.85-17.66,19.62-12.75,.98-1.96,10.79-10.79,17.66-3.92,2.94-.98,13.73-8.83,20.6,3.92,3.92,.98,10.79-1.96,16.68,9.81,5.89,3.92,11.77,9.81,9.81,20.6,1.96,.98,16.68,6.87,9.81,23.54,1.96,1.96,8.35,7.85,3.19,18.64,1.46,2.94,3.67,9.81-3.19,14.72-5.89,0-9.81-1.96-11.77-3.92-1.96-1.96-9.81-9.81-4.91-22.56-2.94-1.96-11.77-5.89-9.81-17.66-.98-1.96-5.89-2.94-5.89-3.92s-5.89-.98-6.87-1.96-10.79,2.94-13.73-3.92c-1.96,1.96-4.91,9.81-14.72,9.81-.98,2.94-5.89,12.75-17.66,7.85-1.96,2.94-3.92,10.79-15.7,5.89Z"/><g><g><path class="aa" d="M1604.43,369.02s-24.1,13.92-31.95,31.58c-3.92,20.6-25.44,85.09-24,91.11-2.03-1.7-49.57-47.94-50.56-50.88-4.91-.98-29.43,15.7-25.51,24.53,3.92,5.89,4.91,2.94,4.91,2.94,0,0,55.98,62.63,71.16,60.25,11.71-.82,13.21-1.39,15.17-4.33,1.96-2.94,26.49-48.07,35.32-82.41,2.94-16.68,14.72-21.58,14.72-21.58l-9.26-51.2Z"/><path class="aa" d="M1596.03,435.92s27.47,83.39,25.51,103.99c-2.94,9.81-4.91,16.68-4.91,16.68l5.01,6.03,3.82,1.82s22.56,3.92,44.15,1.96c21.58-1.96,46.11-10.79,46.11-10.79,0,0,6.87-4.91,6.87-5.89s3.92-6.87,3.92-8.83-3.92-10.79-5.89-14.72-32.37-136.36-31.39-148.14c-19.62-8.83-85.35,32.37-85.35,32.37l-7.85,25.51Z"/></g><path class="aa" d="M1604.43,369.02s30.02-12.83,37.79-10.74c7.77,2.09,22.48-4.38,27.39-9.97,4.91-5.59,77.5-82.11,81.43-91.92s44.09-117.73,45.13-135.38c1.96-4.91,17.66-21.58,33.36,1.96-1.96,13.73-32.37,111.84-48.07,134.4-15.7,22.56-45.13,66.71-52.98,74.56-7.85,7.85-40.22,39.24-39.24,46.11,.98,6.87-8.83,12.75-8.83,12.75l-60.82,22.56-15.7-2.94,.55-41.39Z"/></g><path class="aj" d="M1608.78,366.26s6.87,11.77,10.79,14.72,19.62-1.96,22.56-11.77c.98-6.87-7.41-15.33-7.41-15.33l-20.06,5.52-5.89,6.87Z"/><path class="aj" d="M1818.73,123.95s0-20.6,2.94-23.54c2.94-2.94,15.7-15.7,16.68-20.6,.98-4.91,3.92-18.64,4.91-20.6,.98-1.96,1.96-14.72-2.94-14.72s-6.87,20.6-6.87,20.6c0,0,6.69-28.23-2.05-29.32-3.83-1.09-7.76,32.26-7.76,32.26,0,0,3.92-51.01,0-51.01s-7.85-6.87-10.79,50.03c0,0,2.94-40.22-.98-40.22s-10.4,4.65-9.12,43.53c-.4-.72,1.27-37.64-5.59-37.64s-7.85,39.89,0,49.87c-4.91-3.59-17.66-14.55-27.47-4.74-1.96,3.92,1.96,5.89,1.96,5.89,0,0,4.91,0,11.77,2.94,4.91,4.91,6.87,8.83,8.83,9.81s7.85,.98,8.83,4.91,0,17.66-.98,19.62c.98,.98,6.14,1.96,8.47,2.94s4.29,3.92,7.23,1.96l2.94-1.96Z"/><path class="aj" d="M1494.98,452.6s-11.77-13.73-11.77-14.72-.98-17.66-3.92-19.62c-2.94-1.96-9.81-1.96-9.81-1.96,0,0-4.91-4.91-6.87-4.91s-6.87,1.96-6.87,1.96c0,0-10.79-1.96-12.75,.98-1.96,2.94-1.96,3.92-1.96,4.91s-4.91,1.96-5.89,4.91c-.98,2.94,0,5.65,0,5.65,0,0-1.96,6.12-.98,9.06,0,.98-2.94,2.94-1.96,6.87,.98,2.94,2.94,5.89,4.91,5.89s6.87-.98,6.87-.98c0,0,8.83,3.92,11.77,3.92s9.81-4.91,9.81-4.91l5.89,.98s9.81,12.75,10.79,12.75h2.51"/><g><path class="ar" d="M1823.63,704.72s-1.96-10.91,0-13.3c1.96-2.4,15.7-10.24,22.56-7.3,5.89,4.91,12.27,44.33-6.62,69.74-6.39,1.78-12.02-9.9-12.02-9.9,0,0-5.67-29.83-4.8-34.54l.87-4.7Z"/><path class="ar" d="M1569.54,940.35s-26.49,31.21-40.22,37.1c-3.92,6.87-5.89,12.75-4.91,15.7s3.92,8.83,32.37,3.92c22.56-12.75,43.17-22.56,46.11-34.34,2.94-12.75,0-20.24-.98-22.38-.98-2.14-6.71-11.36-8.75-12.64s-9.26,0-9.26,0l-14.37,12.64Z"/></g><path class="at" d="M1620.56,574.24s2.94,38.26,3.92,40.22c-.98,3.92-16.68,48.64-28.45,69.94-7.85,21.02-25.51,66.43-26.49,72.31-.98,5.89-8.83,171.06,0,183.63,6.87,5.53,17.66,2.76,22.56-4.1,1.96-6.87,11.77-154.02,9.81-166.78,3.92-7.85,50.03-91.24,61.81-140.29,0,0,.45-4.56,6.6-4.24,6.15,.32,18.91,14.05,26.76,57.22,9.81,41.2,31.39,107.91,37.28,109.88,5.89,1.96,42.87-7.08,99.09-84.37,.98-5.89,.98-12.75-7.85-11.77-7.85,5.89-68.67,54.94-71.62,54.94-1.96-1.96-21.58-91.24-22.56-99.09-.98-7.85-7.85-54.94-6.87-57.88,.98-2.94-1.96-29.43-1.96-29.43l-58.86,6.87-43.17,2.94Z"/><path class="ak" d="M1621.64,562.62s36.2,1.82,46.99,.84c10.79-.98,50.08-9.55,52.02-11.64,.93,2.68,2.92,11.64,1.94,12.62-.98,.98-44.15,11.77-52.98,11.77s-49.05-1.96-49.05-1.96c0,0-1.76-7.56,1.08-11.63Z"/><rect class="au" x="1658.73" y="562.32" width="23.19" height="13.84" rx="2.71" ry="2.71" transform="translate(-36.95 122.88) rotate(-4.17)"/><g><g><path class="am" d="M1602.47,229.9s23.98-1.96,22.01,28.45c-.98,12.75-8.83,17.66-20.11,16.68,.49-4.91,4.41-7.85,4.41-7.85l2.94-12.75-.98-12.75s-2.94-5.89-3.92-6.87c-.98-.98-4.36-4.91-4.36-4.91Z"/><path class="am" d="M1567.31,236.75s12.99-1.33,10.06,13.57c-2.93,14.9-4.82,9.95-4.82,9.95l-3.02-16.64-2.23-6.89Z"/></g><g><ellipse class="x" cx="1604.37" cy="252.46" rx="17.17" ry="22.56"/><path class="x" d="M1576.41,256.39c-.68,10.29-4.81,18.06-11.57,17.61s-11.68-9.15-11-19.44c.68-10.29,6.72-18.26,13.48-17.81,6.76,.45,9.78,9.35,9.1,19.64Z"/></g></g><g><g><line class="w" x1="1603.98" y1="253.44" x2="1604.69" y2="247.8"/><path d="M1604.36,253.44l.62-4.95,.09-.7c.03-.2-.19-.37-.38-.38-.22,0-.35,.17-.38,.38l-.62,4.95-.09,.7c-.03,.2,.19,.37,.38,.38,.22,0,.35-.17,.38-.38h0Z"/></g><g><line class="w" x1="1601.16" y1="249.91" x2="1607.51" y2="251.37"/><path d="M1601.06,250.28l5.56,1.27,.79,.18c.47,.11,.67-.62,.2-.72l-5.56-1.27-.79-.18c-.47-.11-.67,.62-.2,.72h0Z"/></g><g><line class="w" x1="1602.92" y1="247.8" x2="1606.1" y2="253.44"/><path d="M1602.6,247.99l2.78,4.95,.39,.7c.24,.42,.88,.04,.65-.38l-2.78-4.95-.39-.7c-.24-.42-.88-.04-.65,.38h0Z"/></g><g><line class="w" x1="1606.45" y1="248.86" x2="1602.22" y2="252.39"/><path d="M1606.19,248.59l-3.71,3.09-.52,.44c-.16,.13-.13,.4,0,.53,.15,.15,.37,.13,.53,0l3.71-3.09,.52-.44c.16-.13,.13-.4,0-.53-.15-.15-.37-.13-.53,0h0Z"/></g><g><line class="w" x1="1606.79" y1="252.83" x2="1602.61" y2="248.97"/><path d="M1607.05,252.57l-3.66-3.39-.52-.48c-.35-.33-.89,.2-.53,.53l3.66,3.39,.52,.48c.35,.33,.89-.2,.53-.53h0Z"/></g><g><line class="w" x1="1605.54" y1="248.62" x2="1602.45" y2="253.18"/><path d="M1605.22,248.43l-2.71,4-.38,.56c-.27,.4,.38,.78,.65,.38l2.71-4,.38-.56c.27-.4-.38-.78-.65-.38h0Z"/></g><g><line class="w" x1="1600.88" y1="251.85" x2="1607.11" y2="249.95"/><path d="M1600.98,252.21l5.44-1.65,.79-.24c.46-.14,.26-.86-.2-.72l-5.44,1.65-.79,.24c-.46,.14-.26,.86,.2,.72h0Z"/></g></g><g><g><line class="w" x1="1560.78" y1="264.36" x2="1561.49" y2="258.71"/><path d="M1561.16,264.36l.62-4.95,.09-.7c.03-.2-.19-.37-.38-.38-.22,0-.35,.17-.38,.38l-.62,4.95-.09,.7c-.03,.2,.19,.37,.38,.38,.22,0,.35-.17,.38-.38h0Z"/></g><g><line class="w" x1="1557.96" y1="260.83" x2="1564.31" y2="262.28"/><path d="M1557.86,261.19l5.56,1.27,.79,.18c.47,.11,.67-.62,.2-.72l-5.56-1.27-.79-.18c-.47-.11-.67,.62-.2,.72h0Z"/></g><g><line class="w" x1="1559.73" y1="258.71" x2="1562.9" y2="264.36"/><path d="M1559.4,258.9l2.78,4.95,.39,.7c.24,.42,.88,.04,.65-.38l-2.78-4.95-.39-.7c-.24-.42-.88-.04-.65,.38h0Z"/></g><g><line class="w" x1="1563.26" y1="259.77" x2="1559.02" y2="263.3"/><path d="M1562.99,259.5l-3.71,3.09-.52,.44c-.16,.13-.13,.4,0,.53,.15,.15,.37,.13,.53,0l3.71-3.09,.52-.44c.16-.13,.13-.4,0-.53-.15-.15-.37-.13-.53,0h0Z"/></g><g><line class="w" x1="1563.59" y1="263.74" x2="1559.41" y2="259.88"/><path d="M1563.86,263.48l-3.66-3.39-.52-.48c-.35-.33-.89,.2-.53,.53l3.66,3.39,.52,.48c.35,.33,.89-.2,.53-.53h0Z"/></g><g><line class="w" x1="1562.34" y1="259.53" x2="1559.25" y2="264.09"/><path d="M1562.02,259.34l-2.71,4-.38,.56c-.27,.4,.38,.78,.65,.38l2.71-4,.38-.56c.27-.4-.38-.78-.65-.38h0Z"/></g><g><line class="w" x1="1557.68" y1="262.76" x2="1563.91" y2="260.86"/><path d="M1557.78,263.12l5.44-1.65,.79-.24c.46-.14,.26-.86-.2-.72l-5.44,1.65-.79,.24c-.46,.14-.26,.86,.2,.72h0Z"/></g></g><g><path class="at" d="M1622.52,258.35v2.06c0,.88-.48,1.61-.48,1.61l32.85,24.89s.98-.51,.98-1.29v-1.66l-33.36-25.61Z"/><path class="at" d="M1576.67,254.73s8.57-1.41,10.53,1.6c1.96,3,.95,3.55,.95,3.55,0,0-6.84-5.45-11.74-3.49"/><path class="at" d="M1554.66,263.3l-6.7,7.81v2.51l7.31-8.4-.61-1.92Z"/></g><path class="ad" d="M1601.26,340.34s1.1,7.26,2.84,8.25,3.7-2.93,3.7-4.89c0,1.96,4.91,15.7,6.87,14.72s1.62-4.98-1.15-15.74c0,0,.17,2.98,3.11,2s3.65-4.35,3.65-4.35l-1.72-8.63-17.31,8.63Z"/><g><path class="be" d="M1608.78,298.57s30.44-.71,13.26,29.57c-9.33,11.64-28.95,14.58-41.71,12.62-12.75-1.96-24.56-17.24-24.54-20.88s1.98-5.6,3.94-5.6,11.77,2.94,13.73,2.94c1.55,0,6.76,.61,12.26-1.54,1.47-.58,2.97-1.35,4.41-2.38,6.01-4.29,11.27-10.09,16.43-13.44,.74-.48,1.47-.91,2.21-1.28Z"/><g><path class="al" d="M1608.78,326.92s-2.94-6.77-6.87-6.77-7.86,5.17-7.85,6.51c0,1.34,6.41,.45,7.62-1.07,1.21,1.42,1.46,3.8,2.8,4.58"/><g><g><path class="t" d="M1608.78,311.33c-1.96,1.96-5.79,2.68-10.74-4.55,4.86-4.28,5.84-4.99,5.84-4.99,0,0,9.81,4.63,4.91,9.53Z"/><path class="t" d="M1600.87,317.18c-2.35,1.47-6.55,3.28-9.75-4.87,4.91-3.92,7.12-5.52,7.12-5.52,0,0,8.51,6.72,2.63,10.39Z"/><path class="t" d="M1595.05,315.25s.98,5.89-1.96,6.87-6.87-3.08-7.36-6.45c.49-.42,6.9-4.02,6.9-4.02l2.42,3.59Z"/><path class="t" d="M1577.46,317.28s.91,7.78,5.81,6.8,4.51-5.63,4.51-5.63l-.89-3.52s-1.33,1.05-4.6,1.3-4.83,1.04-4.83,1.04Z"/><path class="t" d="M1578.92,319.94s-.55,6.1-3.49,6.1-5.89-1.96-5.89-3.92,.35-5.57,.35-5.57c0,0,2.59,.66,3.57,.66s4.83,.12,4.83,.12l.62,2.61Z"/><path class="t" d="M1564.33,315.18s-.96,8.15,2.13,8.53,4.56-1.44,4.56-1.44l.49-4.07-.49-1.64-4.05-.72-2.63-.65Z"/></g><g><path class="t" d="M1567.85,334.94s3.66-4.97,6.6-3.99,4.07,6.52,3.02,9.14c-2.11-.63-.77,.14-4.84-2.05s-4.78-3.1-4.78-3.1Z"/><path class="t" d="M1588.45,341.32s-.34-7.43-4.27-7.43-6.79,4.15-6.79,4.15v2.05s1.96,.67,5.17,.96c3.64,.33,5.9,.27,5.9,.27Z"/><path class="t" d="M1587.2,338.79s4.91-5.89,8.83-6.87c3.92-.98,8.09,4.49,8.46,5.68l.37,1.19s-.98,1.96-10.15,2.15c-3.67,.08-4.03,.93-6.26,.37s-1.25-2.52-1.25-2.52Z"/><path class="t" d="M1615.98,333.68s-5.27-8.87-9.17-6.29-2.93,7.82-2.93,9.12,.98,2.28,.98,2.28c0,0,3.99-.42,5.92-1.19,1.93-.77,5.2-3.93,5.2-3.93Z"/><path class="t" d="M1623.6,325.22s-5.35-6.58-8.39-2.96c-3.04,3.63-1,8.42-1.26,8.55s2.03,2.86,2.03,2.86c0,0,3.55-2.05,5.04-4.35,2.47-2.3,2.67-1.98,2.57-4.1Z"/></g></g></g></g><g><g><path d="M1572.02,305.21c-.81,0-1.49-.14-1.96-.28-3.94-1.18-3.33-10.15-2.42-14.31,.01-.06,.04-.11,.07-.16,4.35-6.7,9.84-44.55,9.9-44.93,.04-.27,.28-.45,.56-.42,.27,.04,.45,.29,.42,.56-.23,1.56-5.54,38.18-10,45.25-1.05,4.85-1.02,12.24,1.76,13.07,.96,.29,2.89,.57,5.04-.75,2.39-1.47,5.62-5.37,7.42-15.54,1.93-16.39,1.95-20.48,1.95-20.52,0-.27,.22-.49,.49-.49h0c.27,0,.49,.22,.49,.49,0,.16-.02,4.14-1.97,20.66-1.5,8.48-4.14,13.94-7.87,16.24-1.42,.88-2.77,1.14-3.87,1.14Z"/><g><path d="M1655.21,309.23c-.5,0-.86-.11-.89-.12-.13-.04-.2-.18-.15-.31,.04-.13,.18-.2,.31-.16,.01,0,1.2,.38,2.27-.39,1.19-.86,1.82-2.85,1.82-5.75,0-.91-.14-1.74-.41-2.46-1.78-4.8-6.45-3.72-6.65-3.68-.14,.03-.26-.05-.3-.18s.05-.26,.18-.3c.05-.01,5.29-1.23,7.22,3.98,.29,.78,.44,1.67,.44,2.63,0,3.11-.68,5.18-2.03,6.15-.64,.46-1.31,.58-1.82,.58Z"/><path d="M1652.44,302.25c-.06,0-.13-.02-.17-.07-.1-.1-.1-.25,0-.35,3.56-3.55,6.57-.94,6.6-.92,.1,.09,.11,.24,.02,.35-.09,.1-.24,.11-.35,.02-.11-.1-2.7-2.32-5.93,.9-.05,.05-.11,.07-.17,.07Z"/></g><path d="M1630.37,327.39c-.07,0-.14-.02-.21-.07-.17-.12-.21-.34-.09-.51,.09-.13,8.62-12.74,1.94-26.11-6.65-13.3-26.84-7.72-27.04-7.66-.2,.06-.4-.06-.45-.25-.06-.2,.06-.4,.25-.45,.21-.06,20.97-5.81,27.9,8.04,6.89,13.77-1.9,26.73-1.99,26.86-.07,.1-.19,.16-.3,.16Z"/><path d="M1570.52,343.21c-.06,0-.13-.01-.19-.04l-5.38-2.25c-14.26-6.47-21.23-16.13-21.82-22.83-.24-2.75,.59-4.93,2.35-6.14,5.81-4,14.11-.2,14.46-.04,.25,.11,.35,.41,.24,.65-.11,.25-.41,.35-.65,.24-.08-.04-8.14-3.72-13.49-.04-1.45,1-2.14,2.86-1.93,5.24,.57,6.42,7.36,15.72,21.24,22.02l5.37,2.25c.25,.1,.37,.39,.26,.64-.08,.19-.26,.3-.45,.3Z"/></g><g><path d="M1456.57,436.02c-1.34,0-2.76-.31-3.7-1.26-1.53-1.53-1.37-4.19,.48-7.89,4.98-9.97,22.74-10.14,23.49-10.14,.21,.03,3.27,.59,4.36,3.8l-.93,.32c-.9-2.65-3.41-3.12-3.52-3.14-.09,0-17.82,.18-22.53,9.61-1.62,3.24-1.85,5.57-.66,6.76,1.48,1.48,4.8,.97,5.89,.43,.61-.3,2-1.31,3.61-2.49,3.64-2.65,8.16-5.94,10.29-6.13l.09,.98c-1.86,.17-6.63,3.64-9.8,5.94-1.71,1.25-3.07,2.23-3.75,2.57-.62,.31-1.93,.65-3.32,.65Z"/><path d="M1453.16,428.88c-4.17-.17-8.85-4.69-9.04-4.88l.69-.7s4.6,4.44,8.4,4.6l-.04,.98Z"/><path d="M1457.46,423.04c-2.68-1.14-4.06-5.5-4.12-5.68l.94-.29s1.3,4.11,3.56,5.07l-.38,.9Z"/><path d="M1441.52,439.84v-.98c.11,0,10.72-.02,16.45-1.9,.62-.73,.39-1.54,.37-1.58l.94-.29c.02,.06,.44,1.46-.68,2.63l-.08,.09-.12,.04c-5.85,1.96-16.43,1.99-16.88,1.99Z"/><path d="M1449.56,431.45c-2.25,0-4.76-.38-5.18-.44l.15-.97c1.69,.27,6.38,.79,7.72,.06l.47,.86c-.68,.38-1.88,.5-3.17,.5Z"/><path d="M1441.57,446.68h-.05v-.98h0c.45,0,19.48-.04,23.19-3.75,.65-.65,1.37-1.57,1.08-2.26-.46-1.11-3.36-1.81-7.56-1.81v-.98c3.41,0,7.64,.42,8.46,2.41,.4,.95-.04,2.07-1.3,3.33-3.96,3.96-22.5,4.03-23.84,4.03Z"/><path d="M1456.49,455.1c-.27,0-.55-.02-.82-.06-3-.43-9.5-2.99-11.38-3.75l-3.26-.66,.98-.98,2.15,.53c.08,.03,8.32,3.42,11.66,3.89,3.18,.46,7.14-2.41,7.96-3.75,.73-1.19-.3-3.41-1.12-4.52-.45-.6-3.9-.51-6.84-.05l-.15-.97c1.57-.25,6.76-.95,7.78,.43,.87,1.18,2.24,3.88,1.17,5.62-.88,1.43-4.68,4.26-8.12,4.26Z"/></g></g><g><g><path class="ac" d="M1477.26,336.66l-21.67,83.25,1.87,3.13,1.91-2.17,21.83-82.83s-.07-2.54-3.93-1.38Z"/><path class="ac" d="M1447.67,452.6l-7.62,38.25s.98,1.96,2.94,.98c.98-1.96,8.83-37.78,8.83-37.78"/></g><g><path class="ay" d="M1481.2,338.04s10.85,2.71,14.77,8.6,9.81,21.58,17.66,25.51,20.6,6.37,30.41,3.68c.98,14.47,0,17.89,0,29.18s.44,21.09,.44,21.09c-7.3,4.92-26.92,14.73-39.68,6.88-12.75-7.85-17.78-24.48-39.79-34.8,5.03-17.71,16.2-60.13,16.2-60.13Z"/><path class="p" d="M1472,372.96s10.78,9.23,12.47,14.02c1.69,4.79,1.69,11.66,6.59,17.55,6.22,7.46,17.57,13.73,37.73,6.87,20.16-6.87,15.25-6.39,15.25-6.39l.44,21.09s-18.7,13.54-30.66,9.72c-5.09-.88-13.06-1.17-25.75-19.66-10.68-9.52-9.88-10.6-23.06-17.98,2.09-8.88,7-25.22,7-25.22Z"/></g></g><g><g><g><path class="as" d="M1638.25,358.16s11.74,1.24,10.76,15.96c-1.96,9.81-3.92,15.7-3.92,15.7l-13.84-9.94s10.89-6.73,10.89-10.66-2.88-10.33-3.89-11.05Z"/><path class="as" d="M1626.21,381.83l-7.61,15.83s-15.7-4.93-9.81-30.42c2.94,2.95,9.34,15.44,17.42,14.59Z"/></g><g><path class="as" d="M1654.39,562.58l-.96-.22c3.86-16.39-26.08-179.46-26.39-181.1l.96-.18c1.24,6.73,30.28,164.92,26.38,181.5Z"/><g><ellipse class="as" cx="1629.39" cy="391.77" rx="1.96" ry="2.94"/><ellipse class="as" cx="1632.33" cy="407.47" rx="1.96" ry="3.92"/><circle class="as" cx="1636.25" cy="429.05" r="2.94"/><circle class="as" cx="1639.2" cy="450.63" r="2.94"/><ellipse class="as" cx="1643.12" cy="473.2" rx="2.94" ry="3.92"/><ellipse class="as" cx="1647.04" cy="495.76" rx="1.96" ry="4.91"/><circle class="as" cx="1649.01" cy="514.4" r="2.94"/><ellipse class="as" cx="1652.93" cy="535" rx="1.96" ry="2.94"/><ellipse class="as" cx="1653.91" cy="549.72" rx="2.94" ry="3.92"/></g></g></g><g><path class="as" d="M1627.08,549.86c-1.92-4.61-4.48-9.68-5.26-9.81l-.62-.31c.19-.38,.49-.43,.64-.42,1.5,.05,4.63,7.19,5.91,10.26l-.68,.28Z"/><path class="as" d="M1718.32,553.11c-.12,0-.22-.09-.24-.21-.02-.13,.07-.26,.2-.28,.01,0,1.28-.22,3.1-1.79,1.26-1.08-1.72-5.98-3.9-8.81-.08-.11-.06-.26,.05-.34,.11-.08,.26-.06,.34,.05,.61,.79,5.85,7.74,3.83,9.48-1.93,1.67-3.29,1.89-3.35,1.9-.01,0-.03,0-.04,0Z"/></g></g><path class="b`" d="M1703.55,569.61s2.36,19.35,8.25,24.25c5.89,4.91,9.9,5.2,12.8,4.07-.05-2.11-.05-27.62-2.01-33.5-3.92,.98-19.04,5.18-19.04,5.18Z"/><path class="b`" d="M1622.11,593.17s15.8-3.61,15.46-18.13c-5.58-.61-17.02-.79-17.02-.79l1.56,18.93Z"/><g><line class="b`" x1="1666.35" y1="576.46" x2="1668.63" y2="599.75"/><rect class="ah" x="1665.53" y="576.41" width="3.92" height="23.4" transform="translate(-49.24 164.76) rotate(-5.57)"/></g><g id="l" class="m"><path d="M1576.12,158.13s-15.77,4.93-10.26,24.55c.05,.19,.33,.15,.33-.04,0-4.28,.74-18.51,9.93-24.51Z"/><path d="M1582.02,168.17s.28-13.68,12.84-16.15c0,0-5.1,3.7-8.05,8.95-2.94,5.26-3.69,8.83-4.79,12.93s0-5.72,0-5.72Z"/><path d="M1557.36,173.07s-5.57,3.95-3.76,13.76l1.67,6.87s-1.07-9,.03-11.86c1.1-2.86,4.36-10.59,6.65-10.65"/><path d="M1548.1,186.83s-11.31-.98-7.39,17.66c-3.92,5.89-11.44,19.09,5.07,26.22,2.78,.26,7.68,.26,11.6-7.58-7.85,6.87-13.73,4.91-16.68,0-2.94-4.91,4.95-18.76,4.95-18.76,0,0-4.31-6.75-2.67-10.67,1.64-3.92,5.11-6.87,5.11-6.87Z"/><path d="M1556.4,211.35s.02,5.11,8.35,5.5c6.84-1.18,5.65-2.01,5.65-2.01,0,0-4.86,1.03-8.45-.74s-6.97-6.15-7.24-7.88c-.27-1.73,1.69,5.13,1.69,5.13Z"/><path d="M1570.48,202.33s-.11,9.59,11.05,8.33c4.67-1.56,5.77-2.31,6.02-2.77s-4.56,2.28-8.54,.91c-3.98-1.37-9.86-10.2-9.86-12.16l1.33,5.7Z"/><path d="M1586.33,208.8s6.47-4.32,4.95-12.16c0,0-3.47,9.47-4.95,10.13,.49,1.64-4.79,2.42-4.79,2.42l4.79-.38Z"/><path d="M1604.3,185.16s.33,8.71,7.61,10.59c4.74,.8,7.7-.25,7.7-.25,0,0-6.62,.16-9.41-1.8-2.79-1.96-6.51-12.57-6.61-13.15s.71,4.62,.71,4.62Z"/><path d="M1633.84,196.64s-2.33,10.87,.34,14.76,6.24,6.37,6.24,6.37c0,0-5.54-6.41-5.54-9.35s0-17.66,.98-18.64l-2.02,6.87Z"/><path d="M1616.25,161.32s15.7-8.83,23.54,6.87c1.96,5.89,.64,5.71,.64,5.71,0,0-3.36-10.21-10.45-12.58-5.89-1.96-10.08-.63-15.34,2.14l1.61-2.14Z"/><path d="M1645.68,214.29s-8.27,10.86-2.66,21.12c5.33,9.75,11.07,9.29,15.2,10.27-7.42-3.92-11.56-5.89-13.52-11.77s-1.96-12.75,.98-19.62Z"/><path d="M1548.64,229.97s-2.05,59.42,1.88,80.25c0,0,2.04-.14,3.93,.22,1.98,.39,3.92,.98,4.19,1.18,.3,.22-1.79-20.92-1.79-42.45-2.41-2.87-3.24-9.22-3.39-13.67,.21-3.64,1.73-6.61,1.96-9.81,.82-11.45,.43-20.02,1.24-21.07"/><path d="M1553.68,311.37s-10.03-1.43-10.03,5.68c0,5.41,4.93,14.36,19.15,22.02-4.93-5.28-16.02-15.13-16.11-19.43-.18-4.68-.63-6.36,7-8.27Z"/><path d="M1557.38,337.12s11.78,40.01,51.02,30.21c9.81-2.93,15.7-8.77,15.7-8.77,0,0-23.55,11.33-38.76,3.19-15.21-8.14-22.55-22.67-22.55-22.67l-5.41-1.96Z"/><path d="M1608.4,367.33s7.85,12.76,14.72,14.73c4.81,1.37,7.8-1.98,9.79-3.44s4.34-3.28,4.34-3.28c0,0-8.17,3.83-12.13,3.31-2.24-.29-9.81-10.22-13.77-13.27-3.06-2.36-2.94,1.95-2.94,1.95Z"/><path d="M1569.16,311.75s12.31,2.61,18.91-2.29c6.6-4.91,8.58-6.87,8.58-6.87,0,0-7.87,9.82-12.78,10.8s-14.72-1.63-14.72-1.63Z"/><path d="M1580.93,343.79s12.85,2.77,16.73,1.38c0,0-7.34,1.82-11.05,1.2s-9.52-3.07-9.52-3.07l3.85,.49Z"/><path d="M1562.51,237.76s-13.51,1.26-11.29,22.75c2.23,21.48,17.77,18.65,21.28,12.22,1.55-4.47,.92-4.6,.92-4.6,0,0-4.13,5.95-7.63,5.99s-10.52-1.54-12.41-14.49c.14-12.17,2.49-19,9.13-21.86Z"/><path d="M1571.12,273.71s-3.2,12.86-4.54,14.5-3.44,13.97-1.9,15.65,5.21,4.27,7.79,3.46c2.58-.8,5-4.75,5-4.75,0,0-4.38,3.45-6.35,2.72s-4.46-2.7-4.19-6.62-.18-7.32,.53-8.08,4.81-12.12,5-14.3c.62-7.06-1.34-2.59-1.34-2.59Z"/><path d="M1600.49,229.97s-19.21,5.86-15.95,24.52c3.26,18.67,6.58,20.63,20.61,23.57,11.4-2.94,13.03-6.36,13.03-6.36,0,0-5.44,4.64-13.99,3.54-8.55-1.1-15.42-6.06-17.38-20.75,0-10.74,2.82-18.66,13.68-24.52Z"/><path d="M1576.35,256.36s2.34-1.49,7.52,1.1c1.96,.98,2.18,1.45,3.9,2.49l-1.25,1.67s-2.65-1.22-5.59-2.2c-2.94-.98-4.91,0-4.91,0l.33-3.06Z"/><polygon points="1621.65 262.11 1621.65 263.92 1654.51 288.85 1654.51 287 1621.65 262.11"/><path d="M1650.83,296.27s5.11-.48,5.86,3.9,.9,6.86-2.61,8.56c0,0,1.39,.72,2.38-.26,.98-.98,1.96-2.94,1.96-4.91s0-5.29-2.94-6.57c-2.94-1.28-4.65-.73-4.65-.73Z"/><path d="M1652.23,302.27s.69-.81,2.96-.74,2.43,.74,2.43,.74l-.17-1.64s-2.6-1.62-5.22,1.64Z"/><path d="M1650.83,312.71s-1.84,25-15.27,39.81l-4.29,3.14s17.84-26.94,19.56-42.95Z"/><path d="M1558.33,217.57s-.35,1.13,4.26,1.87c4.61,.74,9.42-6.52,9.42-6.52,0,0-1.81,4.52-8.71,3.93-4.97-1.18-4.78-1.63-4.78-1.63l-.19,2.36Z"/><path d="M1573.26,210.77s13.28,6.81,15.38-4.15c-.84,.81-5.14,6.28-14.76,2.56l-.61,1.4v.2Z"/><path d="M1639.67,217.19s-5.18,14.49,1.39,21.99c6.57,7.49,13.44,5.53,13.44,5.53l-.51,.14s-9.7-1.18-12.93-14.88c.39-7.8,1.67-10.77,1.67-10.77l-3.06-2.01Z"/><path d="M1637.73,215.78s-8.51-.78-6.66-15.85c.76,.27,1.83,1.74,1.83,1.74,0,0-2.13,7.74,4.83,14.1Z"/><path d="M1604.79,193.94s5.39,6.51,15.29,1.66c-.81,.12-7.42,1.06-9.55,.07-2.13-.99-4.03-3.79-4.03-3.79,0,0-1.38,1.33-1.7,2.07Z"/><path d="M1608.4,367.33s-28.45,13.75-36.3,33.37c-5.89,22.56-24.46,82.14-24,91.11-1.05,10.07-1.42,8.96-1.42,8.96,0,0,15.61-52,29.55-93.2,0,0,5.95-14.49,13.67-20.49l17.52-14.29,.98-5.46Z"/><path d="M1591.16,432.08s11.98,10.6,30.31,107.33c-2.59,5.1-4.5,18.13-4.5,18.13l4.29,5.17,23.44,.9s-19.7-40.57-23.54-59.91c-.22-1.1-.98-3.92-1.96-7.85-4.31-17.24-12.11-53.97-12.11-53.97l-16.34-18.48h-5.65l6.07,8.69Z"/><path d="M1497.54,440.91s-9.31,1.91-9.56,3.9c1.46,2.02,6.62,7.88,6.62,7.88,0,0,7.85-8.83,2.94-11.77Z"/><path d="M1475.07,455.84s-9.33,12.2,2.16,12.86l7.28-5.54-3.69,.32-5.74-7.64Z"/><path d="M1494.6,452.69s-12.18,13.39-17.37,16.01c2.37,2.31,50.91,57.49,69.46,59.98,5.17,.53,9.5-1.45,12.93-4.24,6.27-5.1,9.55-12.89,9.55-12.89,0,0-11.77,14.72-23.54,11.77-5.13-1.28-49.15-45.96-52.04-48.98-2.89-3.02-7.3-5.33-5.59-8.59,1.71-3.26,6.62-13.07,6.62-13.07Z"/><path d="M1607.08,375.46s-6.48,17.54,9.17,24.25c-.04-2.11,1.96-1.96,1.96-1.96h0s-12.45-4.36-11.13-22.29Z"/><polygon points="1627.89 381.92 1639.79 388.92 1644.7 389.9 1630.75 379.89 1627.89 381.92"/><path d="M1627.44,390.08s-2.85,3.45,1.81,5.56l-.15-.83s-3.21-.63-1.66-4.73Z"/><path d="M1629.98,406.59s-3.33,4.94,2.26,5.9l-.18-1s-.81,.2-1.44-.88c-.64-1.08-.64-3.03-.64-4.02Z"/><path d="M1632.92,428.74s-2.07,3.26,2.89,4.28l-.16-.94s-2.73,.19-2.73-3.34Z"/><path d="M1635.89,450.35s-1.57,3.71,3.62,4.5l-.2-1.18s-3.39,.23-3.42-3.32Z"/><path d="M1639.89,472.27s-2.81,5.12,3.45,6.02l-.17-1.07s-4.16-.08-3.28-4.94Z"/><path d="M1644.99,493.29s-3.48,6.11,2.04,8.75l-.19-1.28s-2.54,.76-1.84-7.47Z"/><path d="M1645.73,513.95s-1.46,4.51,3.66,4.49l-.15-1.07s-3.46,.94-3.51-3.42Z"/><polygon points="1479.14 336.48 1456.27 421.78 1455.21 420 1476.88 336.75 1479.14 336.48"/><polygon points="1449.26 453.41 1441.13 492.2 1439.66 490.95 1447.28 452.69 1449.26 453.41"/><path d="M1451.43,412.94s-9.81-2.44-10.79,6.39c0,5.89,0,4.06,0,4.06,0,0,0-10.95,10.79-10.45Z"/><path d="M1436.19,422.29s-3.4,2.46-1.43,7.6c1.96,4.39,1.96,4.16,1.96,4.16,0,0-1.59-5.12-1.29-6.98s2.29-5.83,2.29-5.83l-1.53,1.04Z"/><path d="M1433.76,434.05s-1.56,5.67,2.17,8.72c2.55,2.18,1.79,1.2,1.79,1.2,0,0-3.11-3.7-3.04-4.85,.07-2.13-.92-5.07-.92-5.07Z"/><path d="M1432.13,441.88s-1.3,12.69,9,9.3c0,0-2.45,1.51-6.38-3.39-.98-2.94-2.52-6.02-1.75-7.42l-.87,1.52Z"/><path d="M1470.15,417.38s-21.88,5.99-17.74,17.65c1.43,1.74,4.05,.35,5.89,0s3.58-2.35,3.58-2.35c0,0-5.55,2.35-7.51,.39-1.96-1.96,1.13-9.8,15.77-15.69Z"/><path d="M1452.95,426.96s-8.54-3.81-8.96-5.72,.16,2.42,.16,2.42c0,0,6.23,5.09,7.73,4.79s1.36-.81,1.36-.81l-.29-.69Z"/><path d="M1439.66,447.85s6.69,5.13,14.14,5.97c1.16,.69,2.82,.62,2.82,.62l2.74-1.02s-7.8-.88-10.81-2.28c-3-1.4-9.53-4.38-9.53-4.38l.64,1.08Z"/><polygon points="1480.81 463.48 1469.09 447.78 1470.15 447.78 1484.5 463.16 1480.81 463.48"/><path d="M1472.66,427.02s-5.66,5.07-8.05,7.03-2.51,2.53-2.51,2.53l1,.9-4.35-.48-.46-1.97,1.77-.57,6.05-4.33,4.1-3.11h2.44Z"/><path d="M1658.43,355.56c2.94-1.96,3.92-1.96,6.14-3.34,9.08-7.26,70.38-74.17,84.98-93.79,15.81-34.34,46.22-136.36,46.22-137.35s4.92-6.03,4.92-6.03c0,0-.59,6.31,3.5,7.72-4.33,35.05-31.52,101.57-48.11,139.33-19.08,37.03-78.02,92.45-81.96,96.39l-22.15-.72,6.45-2.23Z"/><path d="M1770.88,76.54s-5.52,3.36,.37,7.28c4.91,.98,10.79,1.96,11.77,2.94s8.83,9.81,8.83,9.81c0,0,7.35,1.89,8.09,3.4-.24-2.41-5.15-4.38-5.15-4.38l-5.89-5.89s-2.47-4.49-4.67-5.19-14.71-.54-13.36-7.98Z"/><path d="M1796.4,32.84s-7.66,6.22-5.12,25.16c2.14,19.25,2.8,22.92,5.12,26.33,0,0-4.55-27-3.57-31.91s1.25-15.47,3.57-16.57c2.32-1.09,3.17-.22,3.17-.22,0,0-.58-2.76-3.17-2.8Z"/><path d="M1811.47,26.92s-12.44,.81-9.17,42.1c0,0,.34-37.19,9.17-42.1Z"/><path d="M1819.81,17.12s-7.73,11.36-7.05,45.41c0,0,2.4-25.04,3.5-27.87,1.1-2.84,2.08-14.61,4.04-15.59,1.96-.98,2.94-1.96,2.94-1.96l-3.44,.02Z"/><path d="M1831,35.86s-3.83-8.94-7.76,32.26c0,0,2.74-15.78,4.31-20.15,1.57-4.37,2.59-8.77,3.45-9.43,1.07-.83,3.03,.15,3.03,.15,0,0,.8-.76-3.03-2.83Z"/><path d="M1839.92,44.57s-5.89,1.96-7.85,22.56c0,0,3.92-13.73,4.91-15.7,.98-1.96,1.96-3.92,2.94-4.41s2.26-1.13,2.26-1.13l-2.26-1.32Z"/><path d="M1823.24,74.36s-9.29,1.95-10.53,15.51l.46-.34s4.18-11.88,10.07-15.17Z"/><path d="M1815.13,81.25s-8.56-2.34-11.51,2.57c0,0,10.24-2.14,11-1.56s.5-1.01,.5-1.01Z"/><path d="M1621.25,562.71s-3.04,3.78-1.08,11.63c1.96,0,23.54,.98,23.54,.98,0,0-23.54-1.96-16.34-12.33l-6.13-.28Z"/><path d="M1661.67,562.99s-1.28,.55-1.28,2.52-.98,8.27,.49,9.53c1.47,1.26,3.84,1.61,3.84,1.61,0,0-3.99,.35-4.66,0s-1.61-.8-1.63-5.48c-.03-4.45-2.36-7.75,3.23-8.17Z"/><path d="M1657.95,565.75s-.5-.25-1.48,.73,.01,10.31,1.48,11.04,18.14,.73,19.12-.25,2.79-1.79,2.79-1.79c0,0-18.14,1.5-19.78,1.15s-1.64-8.2-2.12-10.89Z"/><path d="M1620.17,574.34s1.96,38.26,3.92,40.22c-.98,3.92-24.53,66.3-28.45,69.94-2.94,8.26-26.49,67.41-26.49,72.31s-8.83,166.15,0,183.63c0,0,6.49,4.1,12.57,2.94-14.53-8.03-1.32-178.34,.42-184.42s55.4-138.02,55.05-146.12c-.34-8.1-2.35-37.92-2.35-37.92l-14.68-.59Z"/><path d="M1665.97,625.72s15.66-11.48,31.04,57.84c18.99,66.05,28.89,100.91,35.87,107.68,8.07-.19,6.74,3.34,19.61-4.26,12.87-7.61,10.44-6.16,10.44-6.16,0,0-18.17,5.43-22.09,4.44s-38.88-176.83-74.87-159.54Z"/><path d="M1746.72,725.42s7.85,34.34,10.79,36.3l2.94,1.96s-12.7,16.03-13.73-38.26Z"/><path d="M1825.21,695.98s6.44-1.07,5.67,.94-76.28,58.34-76.28,58.34l-1.42-4.59s28.86-19.37,72.02-54.68Z"/></g></g></g></svg>