<?xml version="1.0" encoding="UTF-8"?><svg xmlns="http://www.w3.org/2000/svg" width="1110" height="400" viewBox="0 0 1110 400"><defs><style>.g{fill:#8fbf60;}.h{fill:#8f7f6f;}.i{fill:#8bc53f;}.j{fill:#603813;}</style></defs><g id="a"/><g id="b"><g><g><path class="h" d="M74.88,388.41c23.91,0,49.16-3.94,50.35-35.45,1.19-31.52-6.7-279.71-6.7-279.71,0,0,1.81-12.78,6.83-19.19s20.52-17.57,19.67-30.71S108.21,.91,74.88,1.62,5.81,9.99,4.94,31.77c5.05,17.84,14.91,11.93,18.86,19.81,3.95,7.88,15.79,25.61,15.79,53.18s-1.97,181.22-1.97,189.1-2.43,94.55,37.27,94.55Z"/><g><path class="g" d="M45.51,86.45s1.97,94.04,0,122.02-2.19,118.95,.88,131.68,4.59,37.7,28.5,40.02c23.91,2.32,39.7-7.55,41.67-29.26s-3.32-265.01-3.32-265.01l-67.73,.54Z"/><path class="i" d="M114.58,86.45s-13.82-7.89-37.5-7.89c-19.83,0-33.55,11.84-33.55,11.84,0,0,11.61,4.74,27.63,5.92,16.02,1.18,43.42-9.87,43.42-9.87Z"/></g><path class="j" d="M69.19,36.12c-9.06,0-54.27-.43-54.27-8.88,0-6.43,5.76-9.66,6.01-9.79l.95,1.73c-.05,.03-4.98,2.82-4.98,8.06,0,3.81,23.46,6.91,52.3,6.91,26.53,0,64.52-4.95,66.14-13.02,.27-1.34-.02-2.52-.87-3.6-4.2-5.33-19.76-6.01-19.92-6.01l.08-1.97c.68,.03,16.63,.72,21.39,6.76,1.21,1.54,1.63,3.29,1.25,5.21-.97,4.84-10.04,8.67-26.96,11.39-14.79,2.38-31.39,3.22-41.11,3.22Z"/></g><g><path class="h" d="M1034.88,387.41c23.91,0,49.16-3.94,50.35-35.45,1.19-31.52-6.7-279.71-6.7-279.71,0,0,1.81-12.78,6.83-19.19s20.52-17.57,19.67-30.71S1068.21-.09,1034.88,.62s-69.07,8.36-69.95,30.15c5.05,17.84,14.91,11.93,18.86,19.81,3.95,7.88,15.79,25.61,15.79,53.18s-1.97,181.22-1.97,189.1-2.43,94.55,37.27,94.55Z"/><path class="j" d="M1029.19,35.12c-9.06,0-54.27-.43-54.27-8.88,0-6.43,5.76-9.66,6.01-9.79l.95,1.73c-.05,.03-4.98,2.82-4.98,8.06,0,3.81,23.46,6.91,52.3,6.91,26.53,0,64.52-4.95,66.14-13.02,.27-1.34-.02-2.52-.87-3.6-4.2-5.33-19.76-6.01-19.92-6.01l.08-1.97c.68,.03,16.63,.72,21.39,6.76,1.21,1.54,1.63,3.29,1.25,5.21-.97,4.84-10.04,8.67-26.96,11.39-14.79,2.38-31.39,3.22-41.11,3.22Z"/></g><g><path class="h" d="M392.88,399.41c23.91,0,49.16-3.94,50.35-35.45,1.19-31.52-6.7-279.71-6.7-279.71,0,0,1.81-12.78,6.83-19.19s20.52-17.57,19.67-30.71-36.82-22.44-70.15-21.73-69.07,8.36-69.95,30.15c5.05,17.84,14.91,11.93,18.86,19.81,3.95,7.88,15.79,25.61,15.79,53.18s-1.97,181.22-1.97,189.1-2.43,94.55,37.27,94.55Z"/><g><path class="g" d="M363.51,207.36s1.97,58.89,0,76.41c-1.97,17.52-2.19,74.49,.88,82.46,3.07,7.98,4.59,23.61,28.5,25.06,23.91,1.45,39.7-4.73,41.67-18.32,1.97-13.6-3.32-165.96-3.32-165.96l-67.73,.34Z"/><path class="i" d="M432.58,207.36s-13.82-4.94-37.5-4.94c-19.83,0-33.55,7.42-33.55,7.42,0,0,11.61,2.97,27.63,3.71s43.42-6.18,43.42-6.18Z"/></g><path class="j" d="M387.19,47.12c-9.06,0-54.27-.43-54.27-8.88,0-6.43,5.76-9.66,6.01-9.79l.95,1.73c-.05,.03-4.98,2.82-4.98,8.06,0,3.81,23.46,6.91,52.3,6.91,26.53,0,64.52-4.95,66.14-13.02,.27-1.34-.02-2.52-.87-3.6-4.2-5.33-19.76-6.01-19.92-6.01l.08-1.97c.68,.03,16.63,.72,21.39,6.76,1.21,1.54,1.63,3.29,1.25,5.21-.97,4.84-10.04,8.67-26.96,11.39-14.79,2.38-31.39,3.22-41.11,3.22Z"/></g><g><path class="h" d="M705.88,390.41c23.91,0,49.16-3.94,50.35-35.45,1.19-31.52-6.7-279.71-6.7-279.71,0,0,1.81-12.78,6.83-19.19s20.52-17.57,19.67-30.71-36.82-22.44-70.15-21.73-69.07,8.36-69.95,30.15c5.05,17.84,14.91,11.93,18.86,19.81,3.95,7.88,15.79,25.61,15.79,53.18s-1.97,181.22-1.97,189.1-2.43,94.55,37.27,94.55Z"/><g><path class="g" d="M676.51,289.9s1.97,29.62,0,38.43,4.06,35.91,7.13,39.93-1.67,13.42,22.24,14.15c23.91,.73,39.7-2.38,41.67-9.21,1.97-6.84-3.32-83.46-3.32-83.46l-67.73,.17Z"/><path class="i" d="M745.58,289.9s-13.82-2.49-37.5-2.49c-19.83,0-33.55,3.73-33.55,3.73,0,0,11.61,1.49,27.63,1.86,16.02,.37,43.42-3.11,43.42-3.11Z"/></g><path class="j" d="M700.19,38.12c-9.06,0-54.27-.43-54.27-8.88,0-6.43,5.76-9.66,6.01-9.79l.95,1.73c-.05,.03-4.98,2.82-4.98,8.06,0,3.81,23.46,6.91,52.3,6.91,26.53,0,64.52-4.95,66.14-13.02,.27-1.34-.02-2.52-.87-3.6-4.2-5.33-19.76-6.01-19.92-6.01l.08-1.97c.68,.03,16.63,.72,21.39,6.76,1.21,1.54,1.63,3.29,1.25,5.21-.97,4.84-10.04,8.67-26.96,11.39-14.79,2.38-31.39,3.22-41.11,3.22Z"/></g></g></g><g id="c"/><g id="d"/><g id="e"/><g id="f"/></svg>