<svg xmlns="http://www.w3.org/2000/svg" width="150" height="400" viewBox="0 0 150 400"><defs><style>.cls-1{fill:#8f7f6f;}.cls-2{fill:#8fbf60;}.cls-3{fill:#8bc53f;}.cls-4{fill:#603813;}</style></defs><g id="Layer_2" data-name="Layer 2"><path class="cls-1" d="M74.88,395c24.74,0,50.87-4,52.1-35.75s-6.94-282-6.94-282,1.88-12.88,7.07-19.35,21.23-17.72,20.36-31S109.36,4.32,74.88,5,3.41,13.47,2.5,35.43c5.22,18,15.43,12,19.52,20S38.35,81.23,38.35,109s-2,182.7-2,190.65S33.8,395,74.88,395Z"/><path class="cls-2" d="M44.48,90.56s2,94.82,0,123-2.27,119.92.91,132.76,4.75,38,29.49,40.35S116,379.08,118,357.19,114.56,90,114.56,90Z"/><path class="cls-3" d="M116,90.56s-14.3-8-38.8-8A58.43,58.43,0,0,0,42.44,94.54a105.69,105.69,0,0,0,28.59,6C87.6,101.7,116,90.56,116,90.56Z"/><path class="cls-4" d="M69,39.82c-9.38,0-56.16-.43-56.16-8.95,0-6.49,6-9.74,6.21-9.87l1,1.74c-.06,0-5.16,2.84-5.16,8.13,0,3.84,24.28,7,54.12,7,27.45,0,66.76-5,68.43-13.13a4.14,4.14,0,0,0-.89-3.63C132.18,15.7,116.08,15,115.92,15l.08-2c.7,0,17.2.73,22.13,6.82a6.08,6.08,0,0,1,1.3,5.25c-1,4.88-10.39,8.74-27.9,11.49A303.25,303.25,0,0,1,69,39.82Z"/></g></svg>