<?xml version="1.0" encoding="UTF-8"?><svg xmlns="http://www.w3.org/2000/svg" width="140" height="130" viewBox="0 0 140 130"><defs><style>.g{fill:#ec1c24;}</style></defs><g id="a"/><g id="b"/><g id="c"/><g id="d"><g><path class="g" d="M57.64,12.13c-8.2-26.78-27.6,3.46-27.6,3.46h0S10.65-14.65,2.45,12.13C-3.73,32.31,30.05,62.62,30.05,62.62h0S63.82,32.31,57.64,12.13Z"/><path class="g" d="M137.55,12.13c-8.2-26.78-27.6,3.46-27.6,3.46h0s-19.4-30.24-27.6-3.46c-6.18,20.18,27.6,50.5,27.6,50.5h0s33.77-30.31,27.6-50.49Z"/><path class="g" d="M96.77,78.44c-8.2-26.78-27.6,3.46-27.6,3.46h0s-19.4-30.24-27.6-3.46c-6.18,20.18,27.6,50.5,27.6,50.5h0s33.77-30.31,27.6-50.49Z"/></g></g><g id="e"/><g id="f"/></svg>