<?xml version="1.0" encoding="UTF-8"?><svg xmlns="http://www.w3.org/2000/svg" width="1920" height="1080" viewBox="0 0 1920 1080"><defs><style>.k{mix-blend-mode:overlay;opacity:.49;}.l{fill:#f288e0;}.m{fill:#f2913d;}.n{fill:#ff3d00;}.o{fill:#e6fae6;}.p{fill:#fff;}.q{fill:#f2ccb6;}.r{fill:#ffb41f;}.s{fill:#efeddf;}.t{fill:#ff7d6c;}.u{fill:#b82a1d;}.v{fill:#b56a33;}.w{fill:#c69c6d;}.x{fill:#dbaf9a;}.y{fill:#d6c9c0;}.a`{fill:#0d0d0d;}.aa{fill:#19d413;}.ab{fill:#1d44b8;}.ac{fill:#2d852d;}.ad{fill:#567bf4;}.ae{isolation:isolate;}</style></defs><g class="ae"><g id="a"><rect class="p" width="1920" height="334"/><rect class="ab" y="334" width="1920" height="366"/><rect class="u" y="700" width="1920" height="380"/></g><g id="b"/><g id="c"/><g id="d"/><g id="e"><g><path class="aa" d="M869.32,103.01c-15.43,4.63-43.94,9.07-59.15,32.92s-47.15,39.6-64.8,48.34-19.26,15.94-26.23,29.32-25.25,27.46-38.06,29.83-25.66,12.42-33.94,52.97-2.77,41.54-7.71,60.69-17,20.73-12.34,46.29,25.73,19.77,19.03,42.17-15.43,10.28-15.43,40.12-14.4,47.83,4.11,60.17,31.89,7.71,27.26,29.83-21.6,.46-21.6,21.6-11.83,32.92,10.29,49.37,24.17-2.06,28.29,30.86,1.54,28.29,16.46,55.03,45.54,39.68,34.46,61.2c-9.27,17.99-6.42,14.22,3.09,27.26s2.76-14.71,14.91,0-9.15,17.19-1.54,28.29,25.19-2.07,37.03,16.97,7.62,31.94,20.06,40.63,23.39-1.42,34.46,4.63,4.2,4.93,12.8,14.15,13.21,3.52,23.09,3.17,11.32,2.42,16.08,6.79,4.96,1.46,12.68,2.04,.54-1.31,6.34,8.15,12.74,17.43,21.74,17.43,9.46,14.37,25.58,9.28,15.85-5.43,24-4.3,6.57,3.85,15.85,.23,3.85-20.09,16.75-2.49,5.84,23.55,18.79,28.98,16.25-1.91,25.08,5.41,6.74,14.93,18.45,20.37,21.81,11.5,34.99,10.31,10.78-5.75,24.45-6.23,13.66,6.47,28.76,.96,21.81-11.5,34.03-14.62,45.9-1.27,59.44,3,12.67,13.56,25.65,11.03,35.73-19.63,49.38-22.29,14.62,4.79,29.01-4.79,22.06-37.4,40.99-38.6,7.67,5.99,22.29,4.55,18.22-12.23,29.01-8.87,12.47,12.23,23.73-.96,35.11-11.89,41.11-42.55,35.27-66.91,51.78-71.68,41.05-3.02,53.7-17.5,33.87-28.58,41.71-44.83-5.05-17.12-1.44-30.45-3.6-23.53,18.39-50.05,34.49-20.63,32.95-56.35-13.24-38.8-11.7-70.21,38.12-89.11,32.03-106.7-23.4-19.71-28.95-32.95-16.01-11.7-12.93-24.02,12.63-16.63,.31-26.18-16.01-1.54-9.85-19.09,4.26-12.51,6.13-30.58,6.54-29.47,9.35-47.04,8.72-15.27-12.77-27.73-28.66-21.81-43.62-25.24-46.73,6.85-55.15-11.22,0-22.43-12.15-31.78-29.91-7.79-34.89-25.24-2.26-55.2-25.83-69.68-73.72-2.02-88.19-9.09-16.83-10.43-29.96-12.79-48.47,16.49-62.94,8.08-12.45-21.88-29.28-23.56-39.08,3.14-57.15,7.19-47.58-2.21-66.76-2.95-37.62-3.32-58.64,9.59-22.13,55.32-37.99,42.41-3.69-40.94-21.76-42.41-30.61-16.6-42.41,7.01-18.44,41.31-33.56,23.6,5.16-27.29-14.02-29.14-40.2-20.28-44.26,12.17-11.43,14.02-25.45,17.7-8.85-12.54-18.81-15.12-14.6,17.18-14.6,17.18Z"/><g><path class="ac" d="M824.25,493.1s-47.16,74.76-49.66,102.71,5.65,76.77,12.92,78.68,5.9-3.17,5.9-3.17c0,0-7.03-7.71-8.16-17.91s.45-34.71,1.81-46.48,4.99-5.67,4.99-5.67c0,0,8.14-1.43,7.71-10.2s.91-26.3,.91-26.3c0,0,.45-5.9,4.76-16.1s18.82-55.55,18.82-55.55Z"/><path class="ac" d="M811.89,690.48s7.58,34.06,12.47,32.2,.45-42.17,.45-42.17c0,0,10.66,30.37,13.6,35.6s7.71,19.27,7.71,19.27l9.3-4.08s1.92-.07,4.31,12.24,9.64,17.71,16.55,20.18,8.97,13.84,14.06,17.46,9.3-.91,14.28,10.88,10.48,42.55,11.42,50.07,.47,18.33,7.29,27.73,9.17,17.16,22.09,22.8,10.58,4.7,18.1,13.16,10.81,7.29,23.03,11.99c2.36,.91,4.55,1.81,6.54,2.67,8.31,3.59,13.2,6.5,13.2,6.5,0,0-6.7,9.99-12.22,4.47s-3.29-11.28-16.45-10.34-33.14,14.34-52.64-7.05-30.08-14.1-35.25-42.3-8.7-38.54-8.7-38.54c0,0,.24,.47-4.23-14.81s-1.18-21.39-12.93-25.15-26.79,3.29-34.08-8.93-21.15-35.25-19.74-54.52,1.84-39.31,1.84-39.31Z"/><path class="ac" d="M963.91,176.54s-70.13-.28-94.83,20.16-26.97,33.5-49.12,64.17-29.81,23-53.38,49.69-39.18,42.02-44.29,71.55-7.67,80.92-4.83,103.92,7.67,62.18,13.06,75.53,3.41-14.2,1.42-20.73,7.1-9.09,7.1-9.09l2.27-34.64s3.98,1.99-3.41-24.42-8.23-31.23-1.42-56.22,17.89-49.4,17.89-49.4c0,0,10.22-28.68,29.53-34.36s32.08-14.48,32.08-14.48c0,0,8.23-2.84,10.51-18.17s3.12-17.6,10.51-24.13,12.49,8.23,23.57-5.39,55.37-44.58,70.98-46c4.88-.44,8.48-1.53,11.13-2.8,5.83-2.81,7.04-6.57,7.04-6.57l-21.86,3.41s-34.64,18.17-43.44,15.05,16.47-23.85,16.47-23.85c0,0-5.96-2.84,3.98-11.36s41.07-24.82,59.06-21.86Z"/><path class="ac" d="M1037.95,344.31s-61.52,93.58-67.48,135.71-10.63,52.01-3.73,58.91,8.2,11.56,6.34,23.12-9.32,15.29-5.22,35.05,12.68,34.67,15.66,41.76-8.04,6.96-19.76-20.88c-11.72-27.84-11.56-43.62-11.56-61.52s2.61-33.93-8.2-48.1-30.2-21.25-22-52.57,26.84-62.26,42.88-66.74,19.39-20.88,30.95-26.84,19.76-19.39,19.76-19.39l27.22-12.68,15.29-4.85,12.3,3.73-32.44,15.29Z"/><path class="ac" d="M1095.02,174.12s12.13-17.34,30-14.95,19.73,5.42,25.46,4.84,27.59-2.69,42.77,2.04,36.92,8.66,38.95,16.29,35.79,2.54,43.87,4.01,23.51,8.33,30.37,13.22,23.51,7.59,28.9,6.12-18.61-15.43-25.96-20.82-26.45-19.1-35.02-21.55-9.8,2.45-18.12-1.96-30.61-6.12-41.14-7.35-23.75,2.2-34.53,0-15.24-6.77-25.22-7.84c-46.28-4.95-60.33,27.93-60.33,27.93Z"/><path class="ac" d="M1318.85,156.48s51.2,8.75,58.98,24.3,2.59,26.57,21.71,43.75,11.99,21.39,23.98,38.24,7.13,23.66,17.18,25.93,20.09,17.82,22.68,29.49-2.27,30.46,7.45,31.43,19.44-5.19,19.44-5.19c0,0-3.24,10.05-.65,24.3s.65,46.67,.65,46.67c0,0-11.02,26.9,4.54,29.49s30.79,6.16,30.79,6.16l6.16-15.56,4.86,12.31,11.02,12.64s5.83-2.92,3.24,9.07,2.59,18.15,2.59,18.15c0,0,7.78,7.45,9.72-8.1s0-32.73,0-32.73l-10.69-19.77s-2.92,5.19-5.19,12.96-16.07-30.02-16.07-30.02l-12.77-5.95s-11.99,21.06-4.86-6.48,11.99-46.99,11.99-46.99c0,0,15.43-16.03,.97-27.87s-23.33-6.81-23.33-6.81c0,0-10.37,1.3-19.12-11.34s-20.09-34.03-20.09-34.03l-4.86-18.47s-2.59-19.12-14.58-23.01-21.06-10.69-21.06-10.69l-15.23-11.99s-9.4-20.42-11.99-29.49-13.29-14.58-13.29-14.58l-64.16-5.83Z"/><path class="ac" d="M1186.78,276.13l-18.77-3.98s9.81-16.78,30.71-16.78,36.64-3.89,52.89,4.55,24.45,13.65,24.45,13.65c0,0,6.26-2.27-.28-9.38s-16.49-10.24-16.49-10.24c0,0,30.14,5.69,38.1,11.94s9.95,10.24,18.77,15.64,21.9,5.4,21.9,5.4l-16.49,9.1s-9.89-.39,1.14,8.81,17.35,15.07,25.59,27.01,15.07,27.87,15.92,36.68,7.96,20.47,7.96,20.47l-2.56,13.08-7.39-15.36s-3.41,5.4-4.27,14.79,1.99,23.03-7.96,20.19-9.1-16.21-9.1-16.21c0,0,9.95-9.38,4.27-26.16s-11.09-32.13-17.35-39.81-9.95-3.7-18.77-22.75-4.83-20.47-14.79-25.88-10.81-14.79-27.87-11.66-36.4,13.65-48.34,13.65-34.41-.28-31.28-16.78Z"/><path class="ac" d="M1188.89,455.17s4.91-2.19,14.46,7.37,10.64,16.1,10.64,16.1l5.46,.27s4.49-9.95,2.46,2.18-1.36,36.57-1.36,36.57l6.55,6.28s4.37,16.65,9.55-8.73,10.64-45.85,10.64-45.85c0,0,3-17.74-12.28-20.19s-21.83-5.18-21.83-5.18l-15.01,.55-9.28,10.64Z"/><path class="ac" d="M1161.32,475.09s-23.47,39.84-19.92,51.3,1.39,28.87,27.02,38.2-6.74,12.4-.27,19.65,15.83,3.55,15.83,3.55l9.01-3.55-9.01,22.38,31.66,8.73s27.83-4.91,45.85-27.02,15.96-28.45,39.02-44.75c9.65-6.82,1.64-17.47,1.64-17.47,0,0-2.33-.94-9.82,7.91s-27.56,24.29-27.56,24.29l-24.29,14.46s-19.1,20.19-22.1,6.55-7.91-18.01-7.91-18.01c0,0-13.64,6.82-20.47,3.55s-7.1-17.47-7.1-17.47l4.91-12.55-5.46-11.19s2.91-1.29-2.73-6c-16.65-13.92-18.28-42.57-18.28-42.57Z"/><path class="ac" d="M1483.75,558.74s-20.87,52.87-52.68,70.79-5.04,6.27-13.58,14.82,1.23,4.53-20.58,13.17-26.34,21.4-45.27,16.46-16.05-13.17-30.04-19.34-15.11,2.88-24.69,2.88-1.65-9.88-13.99-10.7-48.97,18.93-48.97,18.93c0,0-24.3,12.19-40.74,14.82s25.52,7,25.52,7c0,0-5.35-.41,16.46,3.7s43.62,2.88,57.62-5.76,8.64-10.7,25.52-7,12.75,21.81,32.51,21.81,48.56,1.65,55.97-21.81,7.82-12.76,18.11-22.22,13.58,2.06,28.4-25.93,30.45-71.61,30.45-71.61Z"/><path class="ac" d="M1502.68,709.77s18.94,.44,7.41,16.46c-9.6,13.34,1.65,42.8-13.58,56.79s-41.16,17.7-41.16,17.7c0,0-13.58-.82-26.34,4.53s-20.17,21.81-41.16,27.57-43.62,17.29-61.32-.41-15.23-7.82-23.05-7-78.61-11.52-99.18-22.22-28.81-4.94-48.97-7-48.97-31.69-54.32-41.57,12.19,4.53,24.28,5.76,25.52-2.76,32.92,5.35c17.29,18.93,33.34,28.4,44.45,21.4s13.17,0,22.64-4.94c2.19-1.14,4.58-1.18,6.96-.57,7.9,2.04,15.67,11.27,15.67,11.27,0,0,12.71-5.39-5.35-23.46-11.48-11.48,27.16,7.41,27.16,7.41,0,0,43.36-8.29,52.27,4.94s7,20.58,18.52,21.81,32.51-5.76,47.74-8.23,40.33-4.12,52.68-12.35,30.45-18.93,30.45-18.93l5.37-24.44s14.23-26.98,25.91-29.88Z"/><path class="ac" d="M1432.88,885.05s-30.76,28.53-31.64,38.42,.12,19.93-6.61,20.89-9.17-1.71-13.96-1.39-24.72,9.06-29.41,11.08-12.47,7.99-12.47,1.6,6.61-6.82,4.48-11.72-3.67-4.88-15.57-4.88-27.58-2.12-41.35-2.12-27.03,1.47-37.36,.16-12.71,.1-24.48-3.08-59.49-14-72.53-25.45c-13.04-11.45-21.32-18.77-27.68-32.77h0c-6.36-14,3.5-17.18-10.82-21.63s21,17.82,21,17.82c0,0,3.5-2.55-.95-9.86s9.86,6.36,9.86,6.36c0,0,8.59,5.63,12.41,15.27s9.23,21.95,9.23,21.95c0,0,10.82,13.04,17.18,4.14s0-15.91,0-15.91l16.54,13.36,5.41,7.95s5.09,6.36,15.59,5.41,21.63-4.45,28.63-3.5,22.91,0,33.4,.64,13.36-4.14,20.36-7.95,10.5-3.82,19.72-3.5,23.54-2.55,26.41,4.77-3.82,12.09,1.59,14.95,13.23,.5,13.23,.5"/></g><g><path class="o" d="M803.12,383.61l-7.25,16.24-7.31,16.37,.58,32.62,12.81-9.9s-21.81-5.99,5.24-20.97,8.74-20.97,8.74-20.97l15.14-14.56-18.64-15.73-9.32,16.89Z"/><path class="o" d="M857.87,544.95l-13.98,19.22s-13.98,26.21-2.33,29.12,8.13-5.51,8.13-5.51l-.73-8.26s-1.38-10.19,2.2-13.77,9.91-14.69,9.91-14.69l-3.21-6.12Z"/><path class="o" d="M1025.69,451.87l-1,2-4.33,26.77s2.16,27.04,9.2,15.96,11.9-21.09,11.9-21.09l-11.63,6.22s-8.98-8.98,2.97-25.96,1.35-17.58,1.35-17.58c3.35,8.83-8.47,13.69-8.47,13.69Z"/><path class="o" d="M1464.61,396.55s11.82,18.75,1.77,22.99-14.92,2.54-14.92,2.54c0,0,7.11-1.22,9.84-5.64s-4.97-5.86-4.97-5.86c0,0,1.66,4.52,3.98-2.54s1.22-11.28,1.22-11.28c0,0,1.17-2.79,3.1-.22Z"/><path class="o" d="M1460.52,471.17s-25.32,22.66-28.63,15.15-6.41-9.06-1.66-10.39,11.73,4.1,11.73,4.1l18.56-8.85Z"/><path class="o" d="M1047.69,205.65s-4.68-.3-10.27-.12c-9.5,.3-21.61,1.96-17.76,8.74,6.11,10.78,11.24,2.47,11.24,2.47l16.78-11.09Z"/><path class="o" d="M1500.01,649.47c7.54,.77,4.6,38.46-3.76,30.1s-12.27,.49-12.27,.49l5.07-13.25s-.87,.87,2.94,1.15,3.27,4.09,3.27,4.09c0,0-.33-8.02,.82-11.12s.92-11.76,3.93-11.45Z"/><path class="o" d="M1292.91,719.32s-.16-9.49,6.05-15.05,8.83,1.64,8.83,1.64c0,0,1.47,12.11-1.47,8.51s-7.03-1.8-7.03-1.8l-6.38,6.71Z"/><path class="o" d="M1021.6,896.77s.02,.95,.11,2.54c.43,7.81,2.4,30.99,10.63,30.99,9.9,0,7.74-11.6,7.74-11.6l-9.46-5.16-9.03-16.76Z"/><path class="o" d="M969.34,681.48s8.7,33.85,11.52,22.37c2.49-10.15,24.74-2.03,24.74-2.03l-20.33-16.27s2.37-4.07-7.79-12.88-17.28-3.05-17.28-3.05l9.15,11.86Z"/></g></g></g><g id="f"/><g id="g"><path class="q" d="M358.17,337.87s18.6-6.73,31.92,12.64c9.69,20.58,49.64,110.19,49.64,110.19l39.96-43.59s-12.11-15.74-9.69-21.8c2.42-6.05,1.21-4.84,4.84-7.27,1.21-2.42,1.21-10.9,3.63-12.11,2.42-1.21,4.84-1.21,7.27,2.42,1.21-2.42,2.42-6.05,3.63-6.05s4.84,1.21,6.05,1.21,2.42-49.64,2.42-49.64c0,0,1.21-6.05,4.84-6.05s4.84,6.05,4.84,7.27,2.42,31.48,2.42,46.01c2.42,0,3.63-1.21,6.05,0s2.42,2.42,3.63,3.63,3.63-6.05,4.84-6.05,6.05-1.21,9.69,3.63c1.21,7.27,0,21.8-1.21,25.43-1.21,3.63-73.79,118.61-86.54,121.66-12.75,3.05-24.86,5.48-30.91-13.9-8.48-15.74-21.8-44.8-21.8-44.8,0,0-15.74-48.43-15.74-49.64s-19.81-73.18-19.81-73.18Z"/><path class="l" d="M186.83,339.87s25.27,4.59,18,53.02c-7.27,48.43-24.22,41.17-24.22,41.17l6.05,193.73s61.75,41.17,201-2.42c0,0,4.84-144.09,8.48-158.62-3.63-14.53-13.32-81.13-10.9-85.97-2.42-13.32-2.42-37.54-8.48-44.8-9.69-3.63-38.75,0-38.75,0,0,0-10.9,32.69-59.33,44.8-26.64-3.63-33.9-19.37-60.54-33.9-14.53-9.69-31.32-7.01-31.32-7.01Z"/><g><path class="q" d="M266.58,88.37c-73.89,0-133.8,59.9-133.8,133.8,0,7.51,.63,14.86,1.82,22.03-10.55,3.7-18.16,14.12-18.16,26.4,0,15.38,11.93,27.85,26.64,27.85,4.19,0,8.15-1.01,11.68-2.81,23.92,36.34,65.07,60.33,111.83,60.33,73.89,0,133.8-59.9,133.8-133.8s-59.9-133.8-133.8-133.8Z"/><path class="q" d="M338.02,338.41c6.21-15.52-28.71-20.58-61.15-20.58s-55.09,13.55-55.09,30.27,27.85,35.11,56.91,35.11c30.27-4.84,52.07-26.64,59.33-44.8Z"/></g><g><rect class="p" x="241.53" y="469.91" width="126.19" height="75.36" rx="6.73" ry="6.73" transform="translate(-30.95 19.91) rotate(-3.56)"/><rect class="t" x="242.55" y="502.85" width="126.19" height="42.39" rx="6.73" ry="6.73" transform="translate(-31.97 20) rotate(-3.56)"/><polygon class="ad" points="242.31 525.86 368.21 516.33 366.74 489.93 240.84 499.52 242.31 525.86"/></g><path class="q" d="M197.56,344.46c-3.19-2.12-18.16-15.74-33.9,16.95-3.63,18.16-12.11,25.43,14.53,71.44,26.64,46.01,38.75,106.55,52.07,115.03,4.84,6.05,10.9,10.9,14.53,10.9s82.34-96.87,83.55-98.08,19.37-10.9,20.58-14.53c1.21-3.63,4.84-15.74-4.84-21.8-3.63,1.21-6.05,2.42-6.05,7.27,0,0,0-7.27-6.05-7.27s-7.27,7.27-7.27,7.27l1.21-55.7s0-6.05-4.84-6.05c-10.9,0-8.48,59.33-8.48,59.33,0,0-1.21-7.27-4.84-7.27s-7.27,3.63-6.05,9.69c0,0-2.42-7.27-6.05-6.05-3.63,1.21-6.05,3.63-6.05,8.48-1.21,0-13.34,3.1-11.51,14.26,3.04,7.53,11.51,12.37,11.51,12.37,0,0-30.27,37.54-37.54,39.96-2.42-3.63-44.8-101.71-46.01-107.77,1.21-10.9,1.21-24.22,1.21-24.22,0,0-6.05-21.8-9.69-24.22Z"/><g><path class="a`" d="M341.65,945.04s-23.01,10.9-20.58,23.01c2.42,12.11,8.48,23.59,20.58,30.56,12.11,6.97,33.9,31.19,42.38,32.4,8.48,1.21,15.74-4.84,16.95-10.9,1.21-6.05-6.57-43.76-21.8-66.6-4.84-7.27-8.48,1.21-12.11-2.42s-25.43-6.05-25.43-6.05Z"/><path class="a`" d="M128.56,735.44c.1-.78,.67-5.23,.93-9.73,.34-5.94-4.13-11.13-10.08-11.51-6.38-.41-15.02,.24-22.29,5.06-3.09,2.05-4.92,5.54-4.9,9.24,.08,18.1,.97,49.21,10.68,75.52,.14,.37,.34,.73,.6,1.03,3.98,4.38,8.8,1.15,10.31-.06,.31-.25,.56-.55,.75-.9,1.68-2.98,10.46-18.96,11.55-30.99,1.16-12.77,2.32-35.57,2.42-37.42,0-.09,.01-.15,.02-.24Z"/></g><path class="s" d="M190.87,657.18s10.32,25.11,10.32,36-6.17,63.07-17.61,88.44c-5.94,13.22-11.45,29.01-11.45,29.01,0,0-38.75-73.86-42.38-78.7s-15.74-3.63-16.95,6.05c2.42,8.48,13.32,48.43,16.95,55.7,3.63,7.27,23.01,55.7,35.11,65.39,7.27,3.63,10.9,2.51,21.8-1.77,0,0,38.75-53.93,41.17-82.99,8.48-26.64,16.95-52.07,23.01-55.7s16.95-15.74,72.65-10.9c9.69,4.84,21.8,23.01,23.01,30.27,1.21,7.27,16.95,77.49,19.37,90.81,2.42,13.32-4.84,59.33-27.85,117.45,1.21,9.69,6.05,10.9,14.53,13.32,8.48,2.42,16.95-3.63,18.16-4.84s37.54-108.98,36.33-122.3c-1.21-13.32-20.58-136.83-23.01-146.51-1.21-12.11,3.63-29.06,3.63-29.06,0,0-185.32,5.49-196.79,.32Z"/><path class="y" d="M186.66,627.8s1.21,25.43,6.05,33.9c7.27,3.63,56.91,18.16,92.02,16.95s102.92-21.8,102.92-21.8c0,0,4.84-20.58,0-31.48-10.9,3.63-80.87,19.09-108.24,19.84-27.37,.75-72.17-2.89-92.76-17.42Z"/><g><path class="m" d="M149.13,243.96s15.74-73.86,94.45-56.91,142.88-21.76,142.88-102.92c-6.05,6.05-12.11,21.8-15.74,23.01-1.21-4.84-2.14-17.56-2.14-17.56,0,0-8.76,16.35-13.6,18.77-6.05-4.84-96.87-47.22-173.15-12.11-76.28,35.11-55.7,154.99-55.7,154.99,0,0,4.84-4.84,10.9-6.05,4.9-.98,12.11-1.21,12.11-1.21Z"/><path class="m" d="M358.17,159.4s27.07,22.81,33.13,38.55c2.42,3.63,7.27,3.63,7.27,3.63,0,0,.19-7.51-2.42-20.59-3.63-18.16-8.3-32.05-20.5-45.08-12.28-.64-17.47,23.48-17.47,23.48Z"/></g><path class="x" d="M251.96,235.32s-7.18,8.64-9.6,11.06c-2.42,2.42-3.74,12.38-2.48,14.67,1.27,2.28,5.48,8.1,5.79,11.85,.32,3.75-2.74,16.22,0,18.46,2.74,2.24,6.26,8.73,9.35,9.12,3.08,.39,6.32-1.6,8.33,0s9.98,5.85,12.05,4.33,15.39-8.78,17.81-7.57c2.42,1.21,13.32-9.69,14.53-12.11,1.21-2.42,4.84-9.69,7.27-12.11,2.42-2.42,3.63-14.53,2.42-18.16-1.21-3.63-1.21-14.53-3.63-15.74s-9.69-6.05-9.69-7.27-3.92-8.48-6.8-8.48-43.02,4.51-45.35,11.94Z"/><path class="p" d="M373.13,251.23c-1.21,8.48-9.69,16.95-18.16,18.16-9.93,1.42-18.16-8.13-18.16-18.16s8.13-18.16,18.16-18.16,19.58,8.23,18.16,18.16Z"/><path class="p" d="M302.9,262.12c0,13.37-12.11,24.22-25.43,24.22-16.15,0-23.01-10.84-23.01-24.22s8.96-24.22,23.01-24.22,25.43,8.48,25.43,24.22Z"/><path class="w" d="M254.47,266.41s15.74,1.77,25.43-1.86c9.69-3.63,21.09-10.65,21.09-12.65,0-5.51-10.81-18.42-30.05-13.13-18.89,5.2-16.47,25.87-16.47,27.64Z"/><g><path class="m" d="M331.96,220.96s9.69,10.9,24.22,8.48c14.53-3.63,20.58-10.9,20.58-10.9,0,0,4.84-8.48,2.42-12.11-2.42-3.63-7.27-3.63-8.48-1.21s-2.95,10.77-14.8,11.44c-4.58,.67-10.63,1.88-14.26-.54s-7.27-8.48-9.69-6.97c-2.2,1.37-2.42,9.39,0,11.81Z"/><path class="m" d="M283.53,213.69s14.53-6.05,19.37-6.05c6.05,.53,14.53,7.27,0,15.74-12.11,3.63-30.27,4.84-33.9,4.84s-21.61,9.69-22.91,9.69-14.62-1.21,2.33-18.16c9.69-3.63,24.22-4.84,35.11-6.05Z"/></g><path class="n" d="M308.94,297.24s.66,4.28-.57,7.89c-1.23,3.61-.92,7.16,.75,7.2s2.87-2.38,2.87-4.8v-10.29h-3.05Z"/><g><g><line class="p" x1="358.36" y1="252.44" x2="358.97" y2="247.59"/><path d="M358.74,252.44l.53-4.24,.08-.6c.03-.2-.19-.38-.38-.38-.22,0-.35,.17-.38,.38l-.53,4.24-.08,.6c-.03,.2,.19,.38,.38,.38,.22,0,.35-.17,.38-.38h0Z"/></g><g><line class="p" x1="355.94" y1="249.41" x2="361.39" y2="250.66"/><path d="M355.84,249.77l4.77,1.09,.68,.16c.47,.11,.67-.62,.2-.72l-4.77-1.09-.68-.16c-.47-.11-.67,.62-.2,.72h0Z"/></g><g><line class="p" x1="357.46" y1="247.59" x2="360.18" y2="252.44"/><path d="M357.13,247.78l2.39,4.24,.34,.6c.24,.42,.88,.04,.65-.38l-2.39-4.24-.34-.6c-.24-.42-.88-.04-.65,.38h0Z"/></g><g><line class="p" x1="360.48" y1="248.5" x2="356.85" y2="251.53"/><path d="M360.22,248.24l-3.18,2.65-.45,.37c-.16,.13-.13,.4,0,.53,.15,.15,.37,.13,.53,0l3.18-2.65,.45-.37c.16-.13,.13-.4,0-.53-.15-.15-.37-.13-.53,0h0Z"/></g><g><line class="p" x1="360.77" y1="251.91" x2="357.19" y2="248.6"/><path d="M361.04,251.65l-3.14-2.91-.44-.41c-.35-.33-.89,.2-.53,.53l3.14,2.91,.44,.41c.35,.33,.89-.2,.53-.53h0Z"/></g><g><line class="p" x1="359.7" y1="248.3" x2="357.05" y2="252.21"/><path d="M359.38,248.11l-2.32,3.43-.33,.48c-.27,.4,.38,.78,.65,.38l2.32-3.43,.33-.48c.27-.4-.38-.78-.65-.38h0Z"/></g><g><line class="p" x1="355.7" y1="251.07" x2="361.05" y2="249.44"/><path d="M355.8,251.43l4.67-1.42,.68-.21c.46-.14,.26-.86-.2-.72l-4.67,1.42-.68,.21c-.46,.14-.26,.86,.2,.72h0Z"/></g></g><g><g><line class="p" x1="288.13" y1="271.81" x2="288.74" y2="266.97"/><path d="M288.51,271.81l.53-4.24,.08-.6c.03-.2-.19-.38-.38-.38-.22,0-.35,.17-.38,.38l-.53,4.24-.08,.6c-.03,.2,.19,.38,.38,.38,.22,0,.35-.17,.38-.38h0Z"/></g><g><line class="p" x1="285.71" y1="268.78" x2="291.16" y2="270.03"/><path d="M285.61,269.15l4.77,1.09,.68,.16c.47,.11,.67-.62,.2-.72l-4.77-1.09-.68-.16c-.47-.11-.67,.62-.2,.72h0Z"/></g><g><line class="p" x1="287.23" y1="266.97" x2="289.95" y2="271.81"/><path d="M286.9,267.16l2.39,4.24,.34,.6c.24,.42,.88,.04,.65-.38l-2.39-4.24-.34-.6c-.24-.42-.88-.04-.65,.38h0Z"/></g><g><line class="p" x1="290.25" y1="267.88" x2="286.62" y2="270.9"/><path d="M289.99,267.61l-3.18,2.65-.45,.37c-.16,.13-.13,.4,0,.53,.15,.15,.37,.13,.53,0l3.18-2.65,.45-.37c.16-.13,.13-.4,0-.53-.15-.15-.37-.13-.53,0h0Z"/></g><g><line class="p" x1="290.54" y1="271.29" x2="286.96" y2="267.97"/><path d="M290.81,271.02l-3.14-2.91-.44-.41c-.35-.33-.89,.2-.53,.53l3.14,2.91,.44,.41c.35,.33,.89-.2,.53-.53h0Z"/></g><g><line class="p" x1="289.47" y1="267.67" x2="286.82" y2="271.59"/><path d="M289.15,267.48l-2.32,3.43-.33,.48c-.27,.4,.38,.78,.65,.38l2.32-3.43,.33-.48c.27-.4-.38-.78-.65-.38h0Z"/></g><g><line class="p" x1="285.47" y1="270.44" x2="290.82" y2="268.82"/><path d="M285.57,270.8l4.67-1.42,.68-.21c.46-.14,.26-.86-.2-.72l-4.67,1.42-.68,.21c-.46,.14-.26,.86,.2,.72h0Z"/></g></g><path class="n" d="M296.85,397.74s-6.05,3.63-4.84,6.05c1.21,2.42,1.21,4.84,1.21,4.84,0,0,1.21,1.21,2.42,0,1.21-1.21,3.63-1.21,6.05-2.42s4.84-3.63,4.84-4.84-1.05-2.42-1.13-3.63,3.55-3.63,3.55-4.84-2.42-8.48-7.27-7.27c-2.42,1.21-6.05,2.42-4.84,12.11Z"/><path class="n" d="M310.17,378.36c0,1-.54,2.42-1.21,2.42s-1.21-.21-1.21-1.21,.54-2.42,1.21-2.42,1.21,.21,1.21,1.21Z"/><path class="n" d="M292.01,395.32c0,1.34-.81,1.21-1.82,1.21s-1.82,0-1.82-2.42c0-1.71,.81-2.42,1.82-2.42,.61,0,1.82,2.3,1.82,3.63Z"/><path class="n" d="M307.75,410.37c.07,1-.59,1.45-1.08,1.9-1.34,1.22-.79-.88-1.33-1.73-1.21-1.9,0-3.11,1.08-1.9,.45,.5,1.26,.73,1.33,1.73Z"/><g><path d="M306.18,297.85c-.47,0-.78,0-.87,0l.03-1.21c.21,0,21.75,.37,24.32-6.84,1.14-3.21-.33-6.92-1.76-10.52-.48-1.2-.97-2.45-1.36-3.65-2.3-7.18-3.93-13.29-3.95-13.35l1.17-.31c.02,.06,1.64,6.14,3.93,13.29,.37,1.16,.84,2.33,1.33,3.57,1.51,3.8,3.07,7.73,1.77,11.37-2.58,7.22-20.39,7.65-24.62,7.65Z"/><path d="M293.82,323.27s2.42,1.21,4.84,1.21,32.69-9.69,32.69-9.69c0,0,3.63-2.42,2.42-3.63-1.21-1.21-38.75,9.69-39.96,12.11Z"/><path d="M334.28,319.78l-.49-1.11c3-1.34,10.6-5.61,9.7-9.18-1.1-4.4-9.46-5.72-9.55-5.74l.18-1.2c.38,.06,9.25,1.46,10.54,6.64,1.32,5.27-9.91,10.37-10.39,10.58Z"/><path d="M288.45,332.03c-3.77,0-8.17-.69-8.79-3.8-.98-4.91,3.61-13.03,7.19-14.2l.38,1.15c-2.84,.93-7.3,8.17-6.38,12.81,.7,3.51,9.53,2.94,12.88,2.43l.18,1.2c-.55,.08-2.86,.41-5.46,.41Z"/><g><path d="M135.94,277.63c-.11-.14-2.74-3.57-3.2-7.95-.46-4.43,1.53-8.27,5.76-11.09l.67,1.01c-3.89,2.59-5.65,5.95-5.23,9.96,.42,4.02,2.93,7.3,2.95,7.33l-.96,.74Z"/><path d="M141.86,273.65s-.28-3.76-8.5-3.42l-.05-1.21c3.96-.16,6.8,.54,8.45,2.08,1.27,1.19,1.31,2.47,1.32,2.52l-1.21,.03h0Z"/></g></g><g><path class="r" d="M285.95,658.07v4.66h-9.81v-6.02s1.33-15.59,13.44-16.8c12.11-1.21,21.8,10.9,21.8,21.8-2.42,10.9-8.48,21.8-24.22,20.58,0-3.63,12.11-9.69,12.11-9.69,0,0,4.84-4.84,4.84-7.27s3.88-8.39-4.72-16.3c-3.88-2.51-9.81-5.49-14.65-.65-3.63,3.63-3.63,8.48-3.63,8.48h4.84v1.21Z"/><path class="r" d="M289.59,639.91s-20.3-1.21-23.47,20.58c-3.17,21.8,22.33,21.87,22.33,21.87l9.61-4.91v-13.32h-9.69v4.84h4.84s-2.36,6.93-8.48,6.05c-8.48-1.21-12.11-3.63-12.11-10.9s-3.63-14.53,16.95-24.22Z"/></g><g><path class="v" d="M308.14,145.14l-.78-.93c1.24-1.04,30.4-25.52,34.1-26.75,3.49-1.16,23.28-15.71,26.53-28.04l1.17,.31c-3.41,12.96-23.6,27.63-27.32,28.87-2.89,.96-25.31,19.48-33.71,26.53Z"/><path class="v" d="M365.87,114.4s20.58-26.64,20.58-30.27"/><path class="v" d="M280.35,149.92l-.91-.8c.79-.89,19.61-21.96,32.89-28,13.22-6.01,42.19-13.28,42.48-13.36l.29,1.17c-.29,.07-29.16,7.32-42.28,13.28-13.05,5.93-32.3,27.48-32.49,27.7Z"/><path class="v" d="M287.46,130.61l-.62-1.04c.41-.24,10.21-5.99,19.27-5.37l-.08,1.21c-8.67-.59-18.47,5.14-18.57,5.2Z"/><path class="v" d="M293.2,127.72c-.1-.04-9.91-4.23-19.35-4.23v-1.21c9.7,0,19.42,4.16,19.83,4.33l-.48,1.11Z"/></g><g id="h" class="k"><path d="M317.21,94.42S96.83,19.35,125.89,251.83c0,0,12.11-9.69,23.01-7.27,2.02-6.06-8.67-60.12,23.01-99.29,25.3-31.28,85.08-49.78,145.3-50.86Z"/><path d="M148.9,244.56s-41.74-3.18-31.16,35.95c4.2,16.5,24.25,25.02,36.79,15.73-10.03-1.64-31.49-6.83-31.27-21.99,.44-8.52,.22-24.84,25.65-29.69Z"/><path d="M148.9,271.89s-3.69,26.87,33.27,54.87c13.38,9.98,24.85,17.1,39.38,21.94,14.53,4.84,56.91,7.27,56.91,7.27,0,0-21.59-3.31-43.59-10.9s-44.41-19.44-51.4-26.69c-13.98-14.48-27.3-21.59-34.57-46.49Z"/><path d="M260.12,217.26l-11.93,3.09s-10.08,8.84-8.07,15.32c1.61,3.27,6.34,2.46,9.28,1.64l6.25-3.25s-7.46,2.04-9.88,2.04-4.84-1.21-3.63-3.63c1.21-2.42,2.06-9.81,17.98-15.2Z"/><path d="M334.41,210.27s-2.5-3.19-4.4,2.84,3.73,11.98,10,14.45c-2.21-2.37-5.84-4.79-7.05-7.21-1.21-2.42-2.57-4.41-1.89-6.44,.68-2.03,1.17-2.82,3.35-3.64Z"/><path d="M273.57,238.71s-21.75,2.31-19.32,28.3c6.05,.56,23.01,.56,25.43-1.86,0,0-18.52-.48-19.55-3.27-1.03-2.79-2.34-16.92,13.45-23.17Z"/><path d="M254.24,267.01s-2.24,39.44,39.44,13.94c0,0-16.44,8.41-24.91,1.15-8.48-7.27-14.53-15.09-14.53-15.09Z"/><path d="M286.39,315.33s-15.07,16.63,.61,16.52c4.78-.11,6.5-.83,6.5-.83,0,0-8.99-1.7-10.2-2.91s-1.09-7.4,3.09-12.78Z"/><path d="M293.6,323.88s3.03,3.03,4.24,3.03,27.85-7.27,33.3-11.5c1.82-1.82-20.83,4.98-20.83,4.98l-16.71,3.49Z"/><path d="M336.58,253.01s-3.6,15.17,10.31,18.49c6.64,.91,11.12,.74,17.36-5.84s-5.81-4.47-5.81-4.47l-21.86-8.19Z"/><path d="M330.57,290.8s-1.26,8.25-14.58,9.46h-15.95l5.06-3.03s20.67,1.06,25.46-6.43Z"/><path d="M307.39,300.26s.13,6.05-1.09,7.27-1.21,5.67,0,5.86,1.69,1.05,3.27-.59c-.85,.78-3.27-.43-2.06-4.06,1.21-4.84,1.51-7.27,1.36-8.48s-1.49,0-1.49,0Z"/><path d="M304.91,125.98s-15.55-1.28-30.08,13.25c7.27-3.63,19-11.96,30.08-13.25Z"/><path d="M321.97,119.18s-19.43,2.97-42.36,30.88c10.97-7.2,29.13-22.94,37.61-26.58,8.48-3.63,35.2-13.3,35.2-13.3,0,0-13.1,2.41-19.31,4.83-6.2,2.42-11.13,4.17-11.13,4.17Z"/><path d="M367.53,91.67s-1.28,12.14-23.38,26.21c-22.4,14.83-36.24,27.86-36.24,27.86l-4.02,4.38s33.76-26.64,35.65-27.24,27.45-14.58,27.99-31.2Z"/><path d="M382.89,115s-4.66,39.06-44.86,61.91c-15.01,6.95-32.95,12.15-32.95,12.15,0,0,32.87-15.86,47.32-30.43,14.45-14.57,28.36-31.52,30.49-43.63Z"/><path d="M184.95,340.5s-10.62-1.49-21.52,21.52c-3.63,21.8-7.26,15.54-1.21,38.65,6.05,23.1,21.79,34,45.89,101.99,0,0,11.24,33.22,15.37,37.71,1.7,2.07,2.91,6.91,6.54,8.12,0,0,7.27,9.69,14.53,10.9-7.27-7.27-24.22-25.43-37.54-72.65-13.32-47.22-36.33-81.13-37.54-85.97s-16.3-30.92,15.46-60.26Z"/><path d="M270.87,483.14s-9.37,13.28-19.05,18.12c-9.69,4.84-18.16,8.48-18.16,8.48,0,0,15.74-1.21,25.43-8.48,9.69-7.27,32.53-38.81,32.53-38.81l-2.26-1.15-18.48,21.84Z"/><path d="M378.81,340.73s6.2,27.35,6.2,40.66,3.63,50.86,10.9,85.97l19.37,38.75s3.03,18.29,20.89,15.81c8.17-1.28,11.95-1.19,17.93-8.5-7.34,2.38-12.18,4.8-18.23,3.59s-6.79,1.15-13.08-8.51c-6.29-9.66-22.03-36.63-26.87-63.71-4.84-27.07-8.52-83.98-9.71-88.22-1.19-4.24-7.39-15.84-7.39-15.84Z"/><path d="M479.46,417.72l-54.49,59.33s27.25-19.37,35.42-29.67c8.17-10.29,23.59-29.67,23.59-29.67h-4.52Z"/><path d="M221.55,348.7s0,31.48,56.91,35.11c-15.74-2.42-24.22-6.52-33.9-13.55-9.69-7.03-13.32-8.24-23.01-21.56Z"/><path d="M295.97,426.07s-7.22,1.39-6.92,8.63c.3,4.81,1.52,12.08,1.52,12.08,0,0-1.3-18.4,5.4-20.7Z"/><path d="M306.06,422.76s-5.8,1.01-4.59,9.49l1.21,10.9s-.5-20.18,3.38-20.38Z"/><path d="M320.36,370.53s-7.84,.65-7.92,31.18c-.02,6.29-.07,11.46-.08,16-.02,17.51,0,24.22,0,24.22,0,0,1.21-35.11,2.42-46.01s1.46-21.71,5.58-25.39Z"/><path d="M330.99,425.02s-5.3-.04-6.52,7.22c-1.21,7.27,0,8.48,0,8.48,0,0,3.34-15.65,6.52-15.7Z"/><path d="M343.85,424.98s-6.21,1.61-6.13,6.25c.08,4.64,.08,8.28,.08,8.28,0,0,2.42-10.9,3.63-12.11l2.42-2.42Z"/><path d="M480.08,375.9s-3.04-.56-4.2,6.84c-1.31,8.21-1.26,13.18-1.26,14.39s1.52-13.17,2.42-15.74,1.25-4.2,3.04-4.52,3.72-.02,3.37-.17-.27-.35-2.13-.85l-1.24,.06Z"/><path d="M489.15,372.91s-5.48,3.02-5.16,17.86c1.53-6.96,1.2-8.18,2.58-10.6,1.38-2.42,2.59-7.26,2.59-7.26Z"/><path d="M502.47,318.43s-3.63,0-4.84,6.05c0,7.27-1.21,42.38-2.42,49.64-1.21,7.27-3.18,16.65-3.18,16.65,0,0,6.82-20.28,6.82-39.65s0-25.43,1.21-27.85l2.42-4.84Z"/><path d="M514.83,371.33s-8.33-2.35-9.14,10.51c-.81,12.87,0,4.68,0,4.68,0,0,.41-7.56,2.83-9.98,2.42-2.42,4.14-5.59,6.31-5.22Z"/><path d="M528.21,369.29s-5.01-1.21-5.08,0c-.08,1.21-6.13,13.32-7.34,18.16,0,0,5.68-13.32,7.69-14.53s5.06-3.63,4.74-3.63Z"/><path d="M213.63,413.49s-12.95-32.29-13.41-37.64c-.46-5.35-1.28,2.49,1.55,10.68,2.83,8.19,13.83,36.24,13.83,36.24l4.86,7.01-6.83-16.28Z"/><path d="M184.95,340.5s26.23-3.91,20.52,51.79c4.32,10.9,4.64,12.24,4.64,12.24,0,0,10.13-20.7,3.53-40.08-6.61-19.38-10.22-23.02-10.22-23.02,0,0-10.27-3.07-18.46-.93Z"/><path d="M180.38,438.5l6.05,189.91s8.37,5.42,16.95,8.48c7.84,2.79,15.83,3.22,18.16,3.63-3.6-8.83-15.76-21.59-15.74-31.48,0-4.17-3.32-31.36-4.84-62.96-2.08-43.32-13.45-93.55-13.45-93.55l-7.14-14.02Z"/><path d="M235.71,554.52s-5.68,6.08-10.53,1.23c-4.84-4.84-34.13-61.75-36.44-78.7-2.31-16.95-3.34-29.67-3.34-29.67l14.34,25.56,18.25,53.52,13.9,22.83,3.81,5.22Z"/><path d="M186.44,628.4s-1.21,26.64,6.05,33.9c8.48,2.42,21.19,6.79,21.19,6.79,0,0-9.99-5.58-16.19-11.63-6.2-6.05-1.89-23.94-1.89-23.94l-9.16-5.12Z"/><path d="M288.65,640.43s-23.77,.04-23.04,26.7c1.95,12.13,15.24,15.9,25.54,15.83,0,0-21.18-2.49-23.6-15.81,0,0-1.41-24.38,21.09-26.72Z"/><path d="M288.15,664.73v4.84h6.77s-4.35,0-5.56-1.21-1.21-3.63-1.21-3.63Z"/><path d="M292.99,669.57s.38,5.83-5.86,5.94c2.23-1.1,5.86-3.52,5.86-5.94Z"/><path d="M304.67,661.73s-2.02,14.24-13.51,15.88c7.29-1.55,10.66-.72,13.51-15.88Z"/><path d="M270.94,648.75s-23.75,18.59,2.78,34.24c9.47,4.66,19.41,4.16,29.03-4.63,0,0-12.6,10.93-31.16-.74-7.66-5.62-6.45-21.36-.65-28.87Z"/><path d="M280.28,645.59s-6.66,8.24-6.66,16.72v3.11l4.84,.52h4.32l.06-2.6s-5.04-1.29-3.5-6.61c.33-.47-.96,.74-.96,.74v5.87s1.53-12.6,3.34-16.49c6.9-9.41,21.02-1.92,21.02-1.92,0,0-1.28-1.99-9.21-4.31-18.83-2.32-17.62,22.72-17.62,22.72l4.36-17.75Z"/><path d="M288.15,665.53h-1.6v5.19h4.62s-.94,4.97-9.85,4.33c0,0,10.46,2.99,11.68-5.48h-4.84v-4.04Z"/><path d="M289.24,646.49s23.28,6.09,8.67,27.3c0,0,5.11-1.74,6.75-12.06,.86-7.32-4.65-15.31-15.43-15.24Z"/><path d="M192.49,662.31c16.95,38.75,3.63,59.33,1.21,81.13-2.42,21.8-29.06,84.76-29.06,84.76,55.7-89.6,39.58-162.25,39.58-162.25"/><path d="M112.58,738.59s29.46,106,51.06,120.2c8.07,2.98,6.43,3.96,21.88,0-15.1-3.08-13.61,8.15-30.56-23.33-16.95-31.48-42.38-96.87-42.38-96.87Z"/><path d="M323.26,708.32s13.05,6.81,22.27,27.62c5.11,23.46,18.39,87.42,20.46,96.49-.7,12.1-3.62,40.26-9.85,59.78-6.23,19.52-18.34,54.64-18.34,54.64,0,0-.86,9.35,6.83,11.33l7.7,1.99s-9.69-4.84-10.9-9.69c0-4.84,35.11-83.55,32.69-110.19-2.42-26.64-9.69-128.35-50.86-131.98Z"/></g></g><g id="i"/><g id="j"/></g></svg>