<?xml version="1.0" encoding="UTF-8"?><svg xmlns="http://www.w3.org/2000/svg" width="320" height="680" viewBox="0 0 320 680"><defs><style>.d{mix-blend-mode:overlay;opacity:.49;}.e{fill:#f288e0;}.f{fill:#f2913d;}.g{fill:#ff3d00;}.h{fill:#fff;}.i{fill:#f2ccb6;}.j{fill:#ffb41f;}.k{fill:#efeddf;}.l{fill:#ff7d6c;}.m{fill:#b56a33;}.n{fill:#c69c6d;}.o{fill:#dbaf9a;}.p{fill:#d6c9c0;}.q{fill:#0d0d0d;}.r{fill:#567bf4;}.s{isolation:isolate;}</style></defs><g class="s"><g id="a"><path class="i" d="M191.64,185.08s13.16-4.76,22.58,8.95c6.85,14.57,35.13,77.97,35.13,77.97l28.28-30.85s-8.57-11.14-6.85-15.42c1.71-4.28,.86-3.43,3.43-5.14,.86-1.71,.86-7.71,2.57-8.57s3.43-.86,5.14,1.71c.86-1.71,1.71-4.28,2.57-4.28s3.43,.86,4.28,.86,1.71-35.13,1.71-35.13c0,0,.86-4.28,3.43-4.28s3.43,4.28,3.43,5.14,1.71,22.28,1.71,32.56c1.71,0,2.57-.86,4.28,0s1.71,1.71,2.57,2.57,2.57-4.28,3.43-4.28,4.28-.86,6.85,2.57c.86,5.14,0,15.42-.86,17.99-.86,2.57-52.22,83.93-61.24,86.09s-17.59,3.87-21.87-9.83c-6-11.14-15.42-31.7-15.42-31.7,0,0-11.14-34.27-11.14-35.13s-14.02-51.79-14.02-51.79Z"/><path class="e" d="M70.39,186.49s17.88,3.25,12.74,37.52c-5.14,34.27-17.14,29.13-17.14,29.13l4.28,137.09s43.7,29.13,142.24-1.71c0,0,3.43-101.96,6-112.25-2.57-10.28-9.43-57.41-7.71-60.84-1.71-9.43-1.71-26.56-6-31.7-6.85-2.57-27.42,0-27.42,0,0,0-7.71,23.13-41.99,31.7-18.85-2.57-23.99-13.71-42.84-23.99-10.28-6.85-22.16-4.96-22.16-4.96Z"/><g><path class="i" d="M126.83,8.52c-52.29,0-94.68,42.39-94.68,94.68,0,5.31,.44,10.52,1.29,15.59-7.47,2.62-12.85,9.99-12.85,18.68,0,10.88,8.44,19.71,18.85,19.71,2.96,0,5.77-.72,8.26-1.99,16.93,25.71,46.05,42.69,79.13,42.69,52.29,0,94.68-42.39,94.68-94.68S179.12,8.52,126.83,8.52Z"/><path class="i" d="M177.38,185.46c4.39-10.98-20.32-14.57-43.27-14.57s-38.99,9.59-38.99,21.42,19.71,24.85,40.27,24.85c21.42-3.43,36.84-18.85,41.99-31.7Z"/></g><g><rect class="h" x="109.1" y="278.51" width="89.3" height="53.33" rx="6.73" ry="6.73" transform="translate(-18.66 10.14) rotate(-3.56)"/><rect class="l" x="109.83" y="301.82" width="89.3" height="30" rx="6.73" ry="6.73" transform="translate(-19.39 10.21) rotate(-3.56)"/><polygon class="r" points="109.65 318.11 198.75 311.36 197.71 292.68 108.62 299.47 109.65 318.11"/></g><path class="i" d="M77.99,189.74c-2.25-1.5-12.85-11.14-23.99,12-2.57,12.85-8.57,17.99,10.28,50.55,18.85,32.56,27.42,75.4,36.84,81.4,3.43,4.28,7.71,7.71,10.28,7.71s58.27-68.55,59.12-69.4,13.71-7.71,14.57-10.28c.86-2.57,3.43-11.14-3.43-15.42-2.57,.86-4.28,1.71-4.28,5.14,0,0,0-5.14-4.28-5.14s-5.14,5.14-5.14,5.14l.86-39.41s0-4.28-3.43-4.28c-7.71,0-6,41.99-6,41.99,0,0-.86-5.14-3.43-5.14s-5.14,2.57-4.28,6.85c0,0-1.71-5.14-4.28-4.28s-4.28,2.57-4.28,6c-.86,0-9.44,2.19-8.15,10.09,2.15,5.33,8.15,8.76,8.15,8.76,0,0-21.42,26.56-26.56,28.28-1.71-2.57-31.7-71.97-32.56-76.26,.86-7.71,.86-17.14,.86-17.14,0,0-4.28-15.42-6.85-17.14Z"/><g><path class="q" d="M179.96,614.73s-16.28,7.71-14.57,16.28c1.71,8.57,6,16.69,14.57,21.63s23.99,22.07,29.99,22.93c6,.86,11.14-3.43,12-7.71,.86-4.28-4.65-30.96-15.42-47.13-3.43-5.14-6,.86-8.57-1.71s-17.99-4.28-17.99-4.28Z"/><path class="q" d="M29.16,466.42c.07-.55,.47-3.7,.66-6.89,.24-4.21-2.93-7.88-7.13-8.15-4.51-.29-10.63,.17-15.77,3.58-2.19,1.45-3.48,3.92-3.47,6.54,.06,12.81,.69,34.82,7.56,53.44,.1,.26,.24,.52,.43,.73,2.82,3.1,6.22,.82,7.29-.04,.22-.18,.4-.39,.53-.63,1.19-2.11,7.4-13.42,8.17-21.93,.82-9.04,1.64-25.17,1.71-26.48,0-.06,0-.11,.02-.17Z"/></g><path class="k" d="M73.26,411.03s7.31,17.77,7.31,25.48-4.36,44.63-12.46,62.59c-4.2,9.35-8.1,20.53-8.1,20.53,0,0-27.42-52.27-29.99-55.69s-11.14-2.57-12,4.28c1.71,6,9.43,34.27,12,39.41s16.28,39.41,24.85,46.27c5.14,2.57,7.71,1.78,15.42-1.25,0,0,27.42-38.16,29.13-58.72,6-18.85,12-36.84,16.28-39.41,4.28-2.57,12-11.14,51.41-7.71,6.85,3.43,15.42,16.28,16.28,21.42,.86,5.14,12,54.84,13.71,64.26,1.71,9.43-3.43,41.99-19.71,83.11,.86,6.85,4.28,7.71,10.28,9.43s12-2.57,12.85-3.43,26.56-77.12,25.71-86.54-14.57-96.82-16.28-103.68c-.86-8.57,2.57-20.56,2.57-20.56,0,0-131.14,3.88-139.26,.23Z"/><path class="p" d="M70.28,390.24s.86,17.99,4.28,23.99c5.14,2.57,40.27,12.85,65.12,12s72.83-15.42,72.83-15.42c0,0,3.43-14.57,0-22.28-7.71,2.57-57.23,13.51-76.6,14.04-19.37,.53-51.07-2.04-65.64-12.32Z"/><g><path class="f" d="M43.72,118.62s11.14-52.27,66.83-40.27c55.69,12,101.11-15.4,101.11-72.83-4.28,4.28-8.57,15.42-11.14,16.28-.86-3.43-1.51-12.42-1.51-12.42,0,0-6.2,11.57-9.63,13.28-4.28-3.43-68.55-33.42-122.53-8.57C12.87,38.94,27.44,123.76,27.44,123.76c0,0,3.43-3.43,7.71-4.28,3.46-.69,8.57-.86,8.57-.86Z"/><path class="f" d="M191.64,58.78s19.16,16.14,23.44,27.28c1.71,2.57,5.14,2.57,5.14,2.57,0,0,.14-5.31-1.71-14.57-2.57-12.85-5.88-22.68-14.51-31.9-8.69-.46-12.36,16.62-12.36,16.62Z"/></g><path class="o" d="M116.49,112.51s-5.08,6.12-6.79,7.83-2.65,8.76-1.75,10.38c.9,1.62,3.87,5.73,4.1,8.39,.22,2.65-1.94,11.48,0,13.06,1.94,1.59,4.43,6.18,6.61,6.45s4.47-1.13,5.9,0,7.06,4.14,8.53,3.06,10.89-6.22,12.6-5.36,9.43-6.85,10.28-8.57c.86-1.71,3.43-6.85,5.14-8.57,1.71-1.71,2.57-10.28,1.71-12.85-.86-2.57-.86-10.28-2.57-11.14s-6.85-4.28-6.85-5.14-2.77-6-4.81-6-30.44,3.19-32.09,8.45Z"/><path class="h" d="M202.23,123.76c-.86,6-6.85,12-12.85,12.85-7.03,1-12.85-5.75-12.85-12.85s5.75-12.85,12.85-12.85,13.86,5.83,12.85,12.85Z"/><path class="h" d="M152.54,131.48c0,9.46-8.57,17.14-17.99,17.14-11.43,0-16.28-7.67-16.28-17.14s6.34-17.14,16.28-17.14,17.99,6,17.99,17.14Z"/><path class="n" d="M118.26,134.51s11.14,1.25,17.99-1.32c6.85-2.57,14.92-7.53,14.92-8.95,0-3.9-7.65-13.04-21.26-9.29-13.37,3.68-11.65,18.31-11.65,19.56Z"/><g><path class="f" d="M173.1,102.34s6.85,7.71,17.14,6c10.28-2.57,14.57-7.71,14.57-7.71,0,0,3.43-6,1.71-8.57s-5.14-2.57-6-.86-2.09,7.62-10.47,8.1c-3.24,.47-7.52,1.33-10.09-.38s-5.14-6-6.85-4.93c-1.56,.97-1.71,6.65,0,8.36Z"/><path class="f" d="M138.83,97.2s10.28-4.28,13.71-4.28c4.28,.38,10.28,5.14,0,11.14-8.57,2.57-21.42,3.43-23.99,3.43s-15.29,6.85-16.21,6.85-10.35-.86,1.65-12.85c6.85-2.57,17.14-3.43,24.85-4.28Z"/></g><path class="g" d="M156.81,156.33s.46,3.03-.4,5.58c-.87,2.55-.65,5.07,.53,5.09s2.03-1.68,2.03-3.4v-7.28h-2.16Z"/><g><g><line class="h" x1="191.78" y1="124.62" x2="192.21" y2="121.19"/><path d="M192.16,124.62l.38-3,.05-.43c.03-.2-.19-.38-.38-.38-.22,0-.35,.17-.38,.38l-.38,3-.05,.43c-.03,.2,.19,.38,.38,.38,.22,0,.35-.17,.38-.38h0Z"/></g><g><line class="h" x1="190.07" y1="122.48" x2="193.92" y2="123.36"/><path d="M189.97,122.84l3.37,.77,.48,.11c.47,.11,.67-.62,.2-.72l-3.37-.77-.48-.11c-.47-.11-.67,.62-.2,.72h0Z"/></g><g><line class="h" x1="191.14" y1="121.19" x2="193.07" y2="124.62"/><path d="M190.82,121.38l1.69,3,.24,.42c.24,.42,.88,.04,.65-.38l-1.69-3-.24-.42c-.24-.42-.88-.04-.65,.38h0Z"/></g><g><line class="h" x1="193.28" y1="121.84" x2="190.71" y2="123.98"/><path d="M193.02,121.57l-2.25,1.88-.32,.26c-.16,.13-.13,.4,0,.53,.15,.15,.37,.13,.53,0l2.25-1.88,.32-.26c.16-.13,.13-.4,0-.53-.15-.15-.37-.13-.53,0h0Z"/></g><g><line class="h" x1="193.48" y1="124.25" x2="190.95" y2="121.9"/><path d="M193.75,123.99l-2.22-2.06-.31-.29c-.15-.14-.38-.15-.53,0-.14,.14-.15,.39,0,.53l2.22,2.06,.31,.29c.15,.14,.38,.15,.53,0,.14-.14,.15-.39,0-.53h0Z"/></g><g><line class="h" x1="192.73" y1="121.69" x2="190.85" y2="124.46"/><path d="M192.4,121.5l-1.64,2.43-.23,.34c-.11,.17-.03,.42,.13,.51,.18,.11,.4,.03,.51-.13l1.64-2.43,.23-.34c.11-.17,.03-.42-.13-.51-.18-.11-.4-.03-.51,.13h0Z"/></g><g><line class="h" x1="189.9" y1="123.65" x2="193.68" y2="122.5"/><path d="M190,124.01l3.3-1,.48-.15c.46-.14,.26-.86-.2-.72l-3.3,1-.48,.15c-.46,.14-.26,.86,.2,.72h0Z"/></g></g><g><g><line class="h" x1="142.08" y1="138.33" x2="142.51" y2="134.9"/><path d="M142.46,138.33l.38-3,.05-.43c.03-.2-.19-.38-.38-.38-.22,0-.35,.17-.38,.38l-.38,3-.05,.43c-.03,.2,.19,.38,.38,.38,.22,0,.35-.17,.38-.38h0Z"/></g><g><line class="h" x1="140.37" y1="136.19" x2="144.22" y2="137.07"/><path d="M140.27,136.55l3.37,.77,.48,.11c.47,.11,.67-.62,.2-.72l-3.37-.77-.48-.11c-.47-.11-.67,.62-.2,.72h0Z"/></g><g><line class="h" x1="141.44" y1="134.9" x2="143.37" y2="138.33"/><path d="M141.12,135.09l1.69,3,.24,.42c.24,.42,.88,.04,.65-.38l-1.69-3-.24-.42c-.24-.42-.88-.04-.65,.38h0Z"/></g><g><line class="h" x1="143.58" y1="135.55" x2="141.01" y2="137.69"/><path d="M143.32,135.28l-2.25,1.88-.32,.26c-.16,.13-.13,.4,0,.53,.15,.15,.37,.13,.53,0l2.25-1.88,.32-.26c.16-.13,.13-.4,0-.53-.15-.15-.37-.13-.53,0h0Z"/></g><g><line class="h" x1="143.79" y1="137.96" x2="141.25" y2="135.61"/><path d="M144.05,137.69l-2.22-2.06-.31-.29c-.15-.14-.38-.15-.53,0-.14,.14-.15,.39,0,.53l2.22,2.06,.31,.29c.15,.14,.38,.15,.53,0,.14-.14,.15-.39,0-.53h0Z"/></g><g><line class="h" x1="143.03" y1="135.4" x2="141.15" y2="138.17"/><path d="M142.71,135.21l-1.64,2.43-.23,.34c-.11,.17-.03,.42,.13,.51,.18,.11,.4,.03,.51-.13l1.64-2.43,.23-.34c.11-.17,.03-.42-.13-.51-.18-.11-.4-.03-.51,.13h0Z"/></g><g><line class="h" x1="140.2" y1="137.36" x2="143.98" y2="136.21"/><path d="M140.3,137.72l3.3-1,.48-.15c.46-.14,.26-.86-.2-.72l-3.3,1-.48,.15c-.46,.14-.26,.86,.2,.72h0Z"/></g></g><path class="g" d="M148.25,227.44s-4.28,2.57-3.43,4.28c.86,1.71,.86,3.43,.86,3.43,0,0,.86,.86,1.71,0s2.57-.86,4.28-1.71,3.43-2.57,3.43-3.43-.74-1.71-.8-2.57,2.51-2.57,2.51-3.43-1.71-6-5.14-5.14c-1.71,.86-4.28,1.71-3.43,8.57Z"/><path class="g" d="M157.68,213.73c0,.71-.38,1.71-.86,1.71s-.86-.15-.86-.86,.38-1.71,.86-1.71,.86,.15,.86,.86Z"/><path class="g" d="M144.83,225.73c0,.95-.58,.86-1.29,.86s-1.29,0-1.29-1.71c0-1.21,.58-1.71,1.29-1.71,.43,0,1.29,1.62,1.29,2.57Z"/><path class="g" d="M155.96,236.38c.05,.71-.42,1.02-.77,1.34-.95,.86-.56-.63-.94-1.22-.86-1.34,0-2.2,.77-1.34,.32,.35,.89,.52,.94,1.22Z"/><g><path d="M154.86,156.76c-.34,0-.55,0-.62,0l.02-.86c.15,0,15.39,.26,17.21-4.84,.81-2.27-.24-4.9-1.25-7.44-.34-.85-.69-1.73-.96-2.58-1.62-5.08-2.78-9.4-2.79-9.45l.83-.22s1.16,4.34,2.78,9.41c.26,.82,.59,1.65,.94,2.53,1.07,2.69,2.17,5.47,1.26,8.05-1.82,5.11-14.43,5.41-17.42,5.41Z"/><path d="M146.11,174.75s1.71,.86,3.43,.86,23.13-6.85,23.13-6.85c0,0,2.57-1.71,1.71-2.57s-27.42,6.85-28.28,8.57Z"/><path d="M174.74,172.28l-.35-.78c2.12-.95,7.5-3.97,6.87-6.5-.78-3.11-6.7-4.05-6.76-4.06l.13-.85c.27,.04,6.54,1.04,7.46,4.7,.93,3.73-7.01,7.34-7.35,7.49Z"/><path d="M142.31,180.95c-2.67,0-5.78-.49-6.22-2.69-.69-3.48,2.56-9.22,5.09-10.05l.27,.82c-2.01,.66-5.17,5.78-4.51,9.07,.5,2.48,6.75,2.08,9.11,1.72l.13,.85c-.39,.06-2.02,.29-3.86,.29Z"/><g><path d="M34.38,142.45c-.08-.1-1.94-2.53-2.27-5.62-.33-3.14,1.08-5.85,4.08-7.85l.48,.71c-2.75,1.84-4,4.21-3.7,7.05,.3,2.85,2.07,5.16,2.09,5.19l-.68,.53Z"/><path d="M38.58,139.63s-.2-2.66-6.02-2.42l-.04-.86c2.8-.11,4.81,.38,5.98,1.47,.9,.84,.93,1.75,.93,1.78l-.86,.02h0Z"/></g></g><g><path class="j" d="M140.54,411.66v3.3h-6.94v-4.26s.94-11.03,9.51-11.89c8.57-.86,15.42,7.71,15.42,15.42-1.71,7.71-6,15.42-17.14,14.57,0-2.57,8.57-6.85,8.57-6.85,0,0,3.43-3.43,3.43-5.14s2.74-5.94-3.34-11.54c-2.74-1.77-6.94-3.89-10.37-.46-2.57,2.57-2.57,6-2.57,6h3.43v.86Z"/><path class="j" d="M143.11,398.81s-14.36-.86-16.61,14.57c-2.24,15.42,15.8,15.47,15.8,15.47l6.8-3.48v-9.43h-6.85v3.43h3.43s-1.67,4.9-6,4.28c-6-.86-8.57-2.57-8.57-7.71s-2.57-10.28,12-17.14Z"/></g><g><path class="m" d="M156.24,48.69l-.55-.66c.88-.74,21.51-18.06,24.13-18.93,2.47-.82,16.48-11.12,18.77-19.84l.83,.22c-2.42,9.17-16.7,19.56-19.33,20.43-2.05,.68-17.91,13.78-23.85,18.77Z"/><path class="m" d="M197.09,26.94s14.57-18.85,14.57-21.42"/><path class="m" d="M136.58,52.07l-.64-.57c.56-.63,13.88-15.54,23.28-19.81,9.35-4.25,29.86-9.4,30.06-9.45l.21,.83c-.21,.05-20.63,5.18-29.92,9.4-9.23,4.2-22.86,19.45-22.99,19.6Z"/><path class="m" d="M141.6,38.41l-.44-.74c.29-.17,7.22-4.24,13.63-3.8l-.06,.85c-6.14-.42-13.07,3.64-13.14,3.68Z"/><path class="m" d="M145.67,36.36c-.07-.03-7.01-3-13.69-3v-.86c6.86,0,13.74,2.94,14.03,3.07l-.34,.79Z"/></g><g id="b" class="d"><path d="M162.66,12.8S6.71-40.32,27.28,124.19c0,0,8.57-6.85,16.28-5.14,1.43-4.29-6.14-42.54,16.28-70.26C77.74,26.65,120.05,13.56,162.66,12.8Z"/><path d="M43.56,119.05s-29.54-2.25-22.05,25.44c2.98,11.67,17.16,17.7,26.03,11.13-7.1-1.16-22.28-4.83-22.13-15.56,.31-6.03,.15-17.58,18.15-21.01Z"/><path d="M43.56,138.39s-2.61,19.01,23.54,38.82c9.47,7.06,17.59,12.1,27.87,15.53,10.28,3.43,40.27,5.14,40.27,5.14,0,0-15.28-2.34-30.85-7.71s-31.43-13.76-36.37-18.88c-9.89-10.25-19.32-15.27-24.46-32.9Z"/><path d="M122.26,99.73l-8.44,2.19s-7.14,6.25-5.71,10.84c1.14,2.32,4.49,1.74,6.57,1.16l4.42-2.3s-5.28,1.45-6.99,1.45-3.43-.86-2.57-2.57c.86-1.71,1.46-6.94,12.73-10.75Z"/><path d="M174.83,94.78s-1.77-2.26-3.11,2.01,2.64,8.48,7.08,10.23c-1.56-1.68-4.14-3.39-4.99-5.1-.86-1.71-1.82-3.12-1.34-4.56,.48-1.44,.83-2,2.37-2.57Z"/><path d="M131.78,114.91s-15.39,1.64-13.67,20.03c4.28,.4,16.28,.4,17.99-1.32,0,0-13.11-.34-13.84-2.31-.73-1.97-1.66-11.98,9.52-16.4Z"/><path d="M118.1,134.93s-1.58,27.91,27.91,9.87c0,0-11.63,5.95-17.63,.81-6-5.14-10.28-10.68-10.28-10.68Z"/><path d="M140.85,169.13s-10.67,11.77,.43,11.69c3.38-.08,4.6-.58,4.6-.58,0,0-6.36-1.21-7.22-2.06s-.77-5.24,2.19-9.05Z"/><path d="M145.95,175.17s2.14,2.14,3,2.14,19.71-5.14,23.56-8.14c1.29-1.29-14.74,3.53-14.74,3.53l-11.82,2.47Z"/><path d="M176.37,125.03s-2.55,10.73,7.29,13.09c4.7,.64,7.87,.52,12.28-4.13s-4.11-3.17-4.11-3.17l-15.47-5.79Z"/><path d="M172.12,151.77s-.89,5.84-10.32,6.69h-11.28l3.58-2.14s14.62,.75,18.02-4.55Z"/><path d="M155.71,158.47s.09,4.28-.77,5.14-.86,4.01,0,4.15,1.2,.74,2.31-.42c-.6,.55-2.31-.3-1.45-2.88,.86-3.43,1.07-5.14,.96-6s-1.05,0-1.05,0Z"/><path d="M153.96,35.13s-11.01-.91-21.29,9.37c5.14-2.57,13.44-8.47,21.29-9.37Z"/><path d="M166.02,30.32s-13.75,2.1-29.98,21.85c7.76-5.1,20.61-16.24,26.61-18.81s24.91-9.42,24.91-9.42c0,0-9.27,1.7-13.66,3.42s-7.88,2.95-7.88,2.95Z"/><path d="M198.27,10.86s-.91,8.59-16.54,18.55c-15.85,10.49-25.64,19.71-25.64,19.71l-2.85,3.1s23.89-18.85,25.23-19.28,19.43-10.31,19.81-22.08Z"/><path d="M209.14,27.37s-3.3,27.64-31.74,43.81c-10.62,4.92-23.31,8.6-23.31,8.6,0,0,23.26-11.23,33.48-21.54,10.22-10.31,20.07-22.3,21.57-30.87Z"/><path d="M69.07,186.94s-7.51-1.05-15.23,15.23c-2.57,15.42-5.14,11-.85,27.35s15.42,24.06,32.48,72.18c0,0,7.96,23.51,10.87,26.68,1.2,1.46,2.06,4.89,4.63,5.75,0,0,5.14,6.85,10.28,7.71-5.14-5.14-17.14-17.99-26.56-51.41-9.43-33.42-25.71-57.41-26.56-60.84s-11.53-21.88,10.94-42.64Z"/><path d="M129.87,287.88s-6.63,9.4-13.48,12.82c-6.85,3.43-12.85,6-12.85,6,0,0,11.14-.86,17.99-6,6.85-5.14,23.02-27.46,23.02-27.46l-1.6-.81-13.08,15.45Z"/><path d="M206.25,187.1s4.39,19.35,4.39,28.78,2.57,35.99,7.71,60.84l13.71,27.42s2.15,12.95,14.78,11.19c5.78-.9,8.45-.84,12.69-6.01-5.19,1.68-8.62,3.4-12.9,2.54s-4.81,.81-9.26-6.02c-4.45-6.83-15.59-25.92-19.02-45.08-3.43-19.16-6.03-59.43-6.87-62.43s-5.23-11.21-5.23-11.21Z"/><path d="M277.47,241.58l-38.56,41.99s19.28-13.71,25.07-20.99c5.78-7.28,16.69-20.99,16.69-20.99h-3.2Z"/><path d="M94.97,192.74s0,22.28,40.27,24.85c-11.14-1.71-17.14-4.61-23.99-9.59-6.85-4.98-9.43-5.83-16.28-15.26Z"/><path d="M147.63,247.49s-5.11,.98-4.9,6.1c.22,3.41,1.07,8.55,1.07,8.55,0,0-.92-13.02,3.82-14.65Z"/><path d="M154.77,245.15s-4.11,.71-3.25,6.71l.86,7.71s-.35-14.28,2.39-14.42Z"/><path d="M164.89,208.19s-5.55,.46-5.6,22.07c-.01,4.45-.05,8.11-.05,11.32-.01,12.39,0,17.14,0,17.14,0,0,.86-24.85,1.71-32.56s1.04-15.37,3.95-17.96Z"/><path d="M172.41,246.75s-3.75-.03-4.61,5.11c-.86,5.14,0,6,0,6,0,0,2.37-11.08,4.61-11.11Z"/><path d="M181.51,246.72s-4.4,1.14-4.34,4.43c.06,3.29,.06,5.86,.06,5.86,0,0,1.71-7.71,2.57-8.57l1.71-1.71Z"/><path d="M277.92,211.99s-2.15-.4-2.98,4.84c-.93,5.81-.89,9.33-.89,10.19s1.08-9.32,1.71-11.14,.88-2.97,2.15-3.2,2.64-.01,2.38-.12-.19-.24-1.51-.6l-.88,.04Z"/><path d="M284.33,209.88s-3.88,2.14-3.65,12.64c1.08-4.93,.85-5.79,1.82-7.5,.97-1.71,1.83-5.14,1.83-5.14Z"/><path d="M293.75,171.32s-2.57,0-3.43,4.28c0,5.14-.86,29.99-1.71,35.13-.86,5.14-2.25,11.78-2.25,11.78,0,0,4.82-14.35,4.82-28.06s0-17.99,.86-19.71l1.71-3.43Z"/><path d="M302.5,208.75s-5.9-1.67-6.47,7.44c-.57,9.1,0,3.31,0,3.31,0,0,.29-5.35,2-7.06,1.71-1.71,2.93-3.96,4.46-3.69Z"/><path d="M311.97,207.31s-3.54-.85-3.6,0-4.34,9.42-5.2,12.85c0,0,4.02-9.43,5.44-10.28s3.58-2.57,3.36-2.57Z"/><path d="M89.36,238.59s-9.16-22.85-9.49-26.64c-.33-3.79-.9,1.76,1.1,7.56,2,5.79,9.79,25.64,9.79,25.64l3.44,4.96-4.83-11.52Z"/><path d="M69.07,186.94s18.56-2.77,14.52,36.65c3.06,7.71,3.28,8.66,3.28,8.66,0,0,7.17-14.64,2.5-28.36-4.68-13.72-7.23-16.29-7.23-16.29,0,0-7.26-2.17-13.07-.66Z"/><path d="M65.83,256.28l4.28,134.38s5.93,3.84,12,6c5.55,1.98,11.2,2.28,12.85,2.57-2.55-6.25-11.15-15.28-11.14-22.28,0-2.95-2.35-22.19-3.43-44.56-1.47-30.66-9.52-66.2-9.52-66.2l-5.05-9.92Z"/><path d="M104.99,338.38s-4.02,4.3-7.45,.87-24.15-43.7-25.78-55.69c-1.63-12-2.36-20.99-2.36-20.99l10.15,18.09,12.92,37.88,9.84,16.15,2.7,3.7Z"/><path d="M70.12,390.67s-.86,18.85,4.28,23.99c6,1.71,14.99,4.8,14.99,4.8,0,0-7.07-3.95-11.46-8.23s-1.34-16.94-1.34-16.94l-6.48-3.63Z"/><path d="M142.45,399.18s-16.82,.03-16.3,18.9c1.38,8.58,10.78,11.25,18.08,11.2,0,0-14.99-1.76-16.7-11.19,0,0-1-17.26,14.92-18.91Z"/><path d="M142.09,416.37v3.43h4.79s-3.08,0-3.94-.86-.86-2.57-.86-2.57Z"/><path d="M145.52,419.8s.27,4.13-4.15,4.21c1.58-.78,4.15-2.49,4.15-4.21Z"/><path d="M153.79,414.25s-1.43,10.08-9.56,11.24c5.16-1.1,7.54-.51,9.56-11.24Z"/><path d="M129.92,405.07s-16.8,13.15,1.97,24.23c6.7,3.3,13.74,2.94,20.54-3.27,0,0-8.92,7.74-22.05-.52-5.42-3.98-4.56-15.12-.46-20.43Z"/><path d="M136.52,402.83s-4.71,5.83-4.71,11.83v2.2l3.43,.37h3.06l.04-1.84s-3.57-.91-2.48-4.68c.23-.34-.68,.52-.68,.52v4.16s1.08-8.92,2.37-11.67c4.88-6.66,14.88-1.36,14.88-1.36,0,0-.91-1.41-6.52-3.05-13.32-1.64-12.47,16.08-12.47,16.08l3.08-12.56Z"/><path d="M142.09,416.94h-1.13v3.67h3.27s-.66,3.52-6.97,3.07c0,0,7.41,2.12,8.26-3.88h-3.43v-2.86Z"/><path d="M142.87,403.47s16.48,4.31,6.14,19.32c0,0,3.62-1.23,4.78-8.54,.61-5.18-3.29-10.83-10.92-10.78Z"/><path d="M74.4,414.66c12,27.42,2.57,41.99,.86,57.41s-20.56,59.98-20.56,59.98c39.41-63.41,28.01-114.82,28.01-114.82"/><path d="M17.85,468.64s20.85,75.01,36.13,85.06c5.71,2.11,4.55,2.8,15.48,0-10.69-2.18-9.63,5.77-21.62-16.51-12-22.28-29.99-68.55-29.99-68.55Z"/><path d="M166.94,447.22s9.23,4.82,15.76,19.55c3.62,16.6,13.01,61.86,14.48,68.28-.49,8.56-2.56,28.49-6.97,42.31-4.41,13.81-12.98,38.66-12.98,38.66,0,0-.61,6.61,4.84,8.02l5.45,1.41s-6.85-3.43-7.71-6.85c0-3.43,24.85-59.12,23.13-77.97-1.71-18.85-6.85-90.82-35.99-93.4Z"/></g></g><g id="c"/></g></svg>