<?xml version="1.0" encoding="UTF-8"?><svg xmlns="http://www.w3.org/2000/svg" width="380" height="820" viewBox="0 0 380 820"><defs><style>.c{mix-blend-mode:overlay;opacity:.72;}.d{fill:#f6f6f6;}.e{fill:#f2e0d5;}.f{fill:#fff;}.g{fill:#eacbb9;}.h{fill:#d8c8bf;}.i{fill:#884c60;}.j{fill:#483839;}.k{fill:#31322d;}.l{fill:#35282a;}.m{stroke-linecap:round;}.m,.n{fill:none;stroke:#000;stroke-miterlimit:10;}.o{isolation:isolate;}</style></defs><g class="o"><g id="a"/><g id="b"><g><path class="j" d="M326.28,801.61s8-278-24-346c-22-27-250.33-47.33-279.67,46.33-11.67,75.33-36.33,190.67-8.33,314.67,88,4,312.89-9,312.89-9l-.89-6Z"/><path class="d" d="M125.28,508.61s-2.04,301.53-8.02,308.76l100.76-4.36s-19.74-304.4-17.74-317.4-36.52-20.79-36.52-20.79l-38.48,33.79Z"/><path class="l" d="M192.71,433.03s8.61,92.62,12.56,173.58c2,41,3,81,9,98.82,0,0,13-143.82,38-176.82-5-6-18.62-21.33-27.81-26.67,2.62-4.67,14.81-25.33,14.81-25.33,0,0-43.13-34.17-46.56-43.58Z"/><path class="l" d="M122.48,438.22s-28.21,59.39-36.21,66.39c6,6,18,15.41,19,23.7-10,8.59-24,24.3-24,27.3s14.14,20.54,24,44c10.51,25.03,16.8,54.56,17.21,57.77,.79,6.23,.79-137.77,2.79-148.77s4.55-20.09,4.55-20.09l1.96-51.35s-9.1,.66-9.3,1.05Z"/><g><path class="f" d="M193.9,437.17s15.37,16.44,6.37,58.44c-8-6-28.04-17.58-36.52-20.79-2.96-3.42-2.48-3.21-2.48-3.21,0,0,30-7,30-25,1-5,2.63-9.44,2.63-9.44Z"/><path class="f" d="M131.78,437.17s-20.51,23.44-6.51,71.44c15-15,38.48-33.79,38.48-33.79l-2.48-3.21s-29.99-16.88-29.49-34.44Z"/></g><g><g><path class="e" d="M294.28,221.61c0,118.08-29.05,201.04-135.5,206.79-96.5,5.21-128.24-101.21-125.36-218.81C37.28,51.61,103.3-.5,177.78,2.82s116.5,49.79,116.5,218.79Z"/><path class="e" d="M289.28,225.61s18-20,25-15,5,44-7,55-22.62,0-22.62,0l4.62-40Z"/><path class="e" d="M41.28,229.61s-16-15-23-12-9,51.3,23,64.15,0-52.15,0-52.15Z"/></g><path class="e" d="M133.53,427.04s-5.26,27.57-3.26,31.57,11,16,31,13,33-10,35-17-6.49-30.53-6.49-30.53l-26.03-8.6-31.48,4.12,1.26,7.43Z"/></g><path class="k" d="M278.02,81.9s-18.74,16.71-10.74,72.71,27,67,27,67c0,0,2.36-5.62,12.18-10.31-1.18-4.69-6.18-56.69-7.18-65.69s2.49-62.42-21.26-63.71Z"/><path class="k" d="M41.28,229.61s30-13,27-68-3.72-65.68-15.36-68.84-16.69,28.09-18.16,76.96-3.65,51.88-3.65,51.88l10.18,8Z"/><path class="i" d="M144.92,490.57s10.32,18.04,18.84,18.04,18.05-9.01,24.29-21.01c.24,0-24.29-12.78-24.29-12.78l-18.84,15.75Z"/><path class="i" d="M157.28,504.61s-4,5-2,10c-1,2-4.04,8.44,8.48,8.72s11.52-1.72,11.52-3.72,1.04-4,.02-4.5,1.96-4.5-1.03-10.5-16.99,0-16.99,0Z"/><path class="i" d="M156.22,521.17l-48.94,204.44s56,82,60,82,49-90,49-90c0,0-34.31-180.12-42.65-194.56s-17.41-1.88-17.41-1.88Z"/><g><path class="g" d="M179.43,221.3s-9.16,7.31-7.16,14.31c0,5-.13,8.56,3.44,11.28s5.56,5.72,8.56,5.72,10.29,3.28,15.65,1.14,19.35-5.14,24.35-12.14,2.74-10.54,2.74-10.54l-47.58-9.77Z"/><path class="g" d="M97.44,236.89s3.83,17.72,16.83,21.72c7,2,15-2,17-2s7.4-1.27,8.2-2.14,4.7-3.1,3.75-20.98c-.95-17.88-45.78,3.4-45.78,3.4Z"/></g><g><g><g><ellipse class="f" cx="202.28" cy="228.61" rx="25" ry="17"/><ellipse class="f" cx="119.28" cy="228.61" rx="25" ry="17"/></g><g><path class="h" d="M177.28,228.61s7-9,23-9,26.66,5.09,26.83,7.05-.83-15.05-24.83-15.05-25,15-25,17Z"/><path class="h" d="M94.28,228.61s7.49-9,23.25-8.5,26.75,8.5,26.75,8.5c0,0,0-16-25-17s-25,17-25,17Z"/></g></g><g><g><line class="f" x1="201.99" y1="233.49" x2="202.94" y2="225.89"/><path d="M202.36,233.49l.83-6.66,.12-.95c.06-.48-.69-.47-.75,0l-.83,6.66-.12,.95c-.06,.48,.69,.47,.75,0h0Z"/></g><g><line class="f" x1="198.19" y1="228.74" x2="206.73" y2="230.7"/><path d="M198.09,229.1l7.48,1.71,1.07,.24c.47,.11,.67-.62,.2-.72l-7.48-1.71-1.07-.24c-.47-.11-.67,.62-.2,.72h0Z"/></g><g><line class="f" x1="200.56" y1="225.89" x2="204.84" y2="233.49"/><path d="M200.24,226.08l3.75,6.66,.53,.94c.24,.42,.88,.04,.65-.38l-3.75-6.66-.53-.94c-.24-.42-.88-.04-.65,.38h0Z"/></g><g><line class="f" x1="205.31" y1="227.32" x2="199.61" y2="232.07"/><path d="M205.05,227.05l-5,4.16-.7,.59c-.37,.31,.16,.84,.53,.53l5-4.16,.7-.59c.37-.31-.16-.84-.53-.53h0Z"/></g><g><line class="f" x1="205.76" y1="232.67" x2="200.14" y2="227.47"/><path d="M206.03,232.41l-4.93-4.56-.69-.64c-.35-.33-.89,.2-.53,.53l4.93,4.56,.69,.64c.35,.33,.89-.2,.53-.53h0Z"/></g><g><line class="f" x1="204.08" y1="227" x2="199.92" y2="233.14"/><path d="M203.76,226.81l-3.65,5.39-.51,.76c-.27,.4,.38,.78,.65,.38l3.65-5.39,.51-.76c.27-.4-.38-.78-.65-.38h0Z"/></g><g><line class="f" x1="197.81" y1="231.34" x2="206.2" y2="228.8"/><path d="M197.91,231.7l7.32-2.22,1.06-.32c.46-.14,.26-.86-.2-.72l-7.32,2.22-1.06,.32c-.46,.14-.26,.86,.2,.72h0Z"/></g></g><g><g><line class="f" x1="118.99" y1="234.49" x2="119.94" y2="226.89"/><path d="M119.36,234.49l.83-6.66,.12-.95c.06-.48-.69-.47-.75,0l-.83,6.66-.12,.95c-.06,.48,.69,.47,.75,0h0Z"/></g><g><line class="f" x1="115.19" y1="229.74" x2="123.73" y2="231.7"/><path d="M115.09,230.1l7.48,1.71,1.07,.24c.47,.11,.67-.62,.2-.72l-7.48-1.71-1.07-.24c-.47-.11-.67,.62-.2,.72h0Z"/></g><g><line class="f" x1="117.56" y1="226.89" x2="121.84" y2="234.49"/><path d="M117.24,227.08l3.75,6.66,.53,.94c.24,.42,.88,.04,.65-.38l-3.75-6.66-.53-.94c-.24-.42-.88-.04-.65,.38h0Z"/></g><g><line class="f" x1="122.31" y1="228.32" x2="116.61" y2="233.07"/><path d="M122.05,228.05l-5,4.16-.7,.59c-.37,.31,.16,.84,.53,.53l5-4.16,.7-.59c.37-.31-.16-.84-.53-.53h0Z"/></g><g><line class="f" x1="122.76" y1="233.67" x2="117.14" y2="228.47"/><path d="M123.03,233.41l-4.93-4.56-.69-.64c-.35-.33-.89,.2-.53,.53l4.93,4.56,.69,.64c.35,.33,.89-.2,.53-.53h0Z"/></g><g><line class="f" x1="121.08" y1="228" x2="116.92" y2="234.14"/><path d="M120.76,227.81l-3.65,5.39-.51,.76c-.27,.4,.38,.78,.65,.38l3.65-5.39,.51-.76c.27-.4-.38-.78-.65-.38h0Z"/></g><g><line class="f" x1="114.81" y1="232.34" x2="123.2" y2="229.8"/><path d="M114.91,232.7l7.32-2.22,1.06-.32c.46-.14,.26-.86-.2-.72l-7.32,2.22-1.06,.32c-.46,.14-.26,.86,.2,.72h0Z"/></g></g></g><g><g><g><g><path class="k" d="M173.28,202.61s15.82-11.09,24.91-12.54,17.86-.54,20.48,0,7.09-.79,7.09-.79c0,0-6.47-1.67-9.47-2.67s-6.94-3.66-18.47-.83-23.53,13.83-24.53,16.83Z"/><path class="k" d="M146.28,203.61s-10.16-13.16-23.08-14.58-23.92,5.58-23.92,5.58c0,0-2.67-1.25-1.83-2.62s14.95-8.21,24.39-6.79,22.44,7.42,24.44,18.42Z"/></g><path d="M156.88,319.17c-8.53,0-10.54-6.9-11.9-11.54-.39-1.34-.73-2.49-1.14-3.2-2.02-3.47-3.12-28.88,.01-33.74,2.88-4.47,1.93-27.67,1.92-27.91l1-.04c.04,.97,.97,23.75-2.08,28.49-2.91,4.52-1.88,29.44,.01,32.7,.47,.81,.83,2.02,1.24,3.42,1.42,4.86,3.36,11.5,12.29,10.76,4.3-.36,7.68-2.05,10.06-5.03,2.83-3.56,3.65-8.29,3.2-11.41-.26-1.84-1-5.17-1.79-8.7-1.37-6.18-2.93-13.17-2.93-16.36,0-2.94-.36-12.54-.65-20.25-.21-5.54-.37-9.92-.37-10.76h1c0,.82,.17,5.4,.37,10.72,.29,7.72,.65,17.33,.65,20.29s1.54,10.02,2.91,16.14c.82,3.7,1.53,6.89,1.8,8.77,.48,3.33-.39,8.39-3.41,12.18-2.55,3.2-6.17,5.02-10.76,5.4-.5,.04-.98,.06-1.44,.06Z"/><path d="M240.79,327.71c-.04-.21-1-5.25,2.06-10.36,1.35-2.26,2.89-3.89,4.37-5.47,1.81-1.93,3.51-3.75,4.6-6.45,1.93-4.82,6.52-20.23,6.74-24.5,.07-1.39-.14-2.65-.39-4.1-.49-2.88-1.1-6.46,.4-12.87l.97,.23c-1.46,6.21-.89,9.54-.39,12.47,.25,1.45,.48,2.81,.4,4.31-.23,4.45-4.81,19.82-6.81,24.82-1.15,2.88-2.92,4.77-4.79,6.77-1.45,1.54-2.94,3.14-4.24,5.31-2.86,4.76-1.95,9.6-1.94,9.65l-.98,.2Z"/><path d="M93.79,331.19c-.02-.1-2.03-10.51-5.96-18.36-1.28-2.56-3.39-4.28-5.82-6.28-4.98-4.07-11.17-9.13-14.01-24.34l-2.21-9.49,.97-.23,2.21,9.51c2.78,14.87,8.82,19.81,13.67,23.77,2.52,2.07,4.71,3.85,6.08,6.6,3.98,7.97,6.02,18.51,6.04,18.62l-.98,.19Z"/><path d="M115.47,354.06l-.58-.82c.26-.18,6.39-4.46,14.88-5.3,4.88-.48,11.47,.57,17.28,1.5,4.32,.69,8.06,1.29,10.16,1.1,.64-.06,1.77-.16,3.27-.3,17.6-1.65,38.08-3.42,40.29-2.37,2.71,1.28,7.55,4.18,7.76,4.31l-.51,.86s-5.01-3-7.67-4.26c-2.25-1.06-30.49,1.59-39.77,2.46-1.5,.14-2.64,.25-3.28,.3-2.22,.19-6.01-.41-10.4-1.11-5.75-.92-12.27-1.96-17.02-1.49-8.21,.81-14.34,5.07-14.4,5.12Z"/><path d="M213.94,359.58l-.33-.94c.07-.02,6.8-2.47,6.74-7.78-.07-5.48-3.38-9.5-3.42-9.54l.77-.64c.15,.17,3.58,4.32,3.65,10.18,.07,6.03-7.1,8.63-7.4,8.74Z"/><path d="M106.46,365.5c-.63-.53-6.18-5.24-6.18-8.38,0-2.32,.6-10.16,8.3-13.46l.39,.92c-7.14,3.06-7.7,10.37-7.7,12.54s4.2,6.27,5.82,7.62l-.64,.77Z"/></g><path class="n" d="M123.28,393.61s17,9,32,8,29-10,31-11"/></g><g><path class="n" d="M298.56,231.34s3.71-4.47,6.21-2.6,7.71,12.59-4.89,25.73"/><path class="n" d="M297.81,242.73s6.38-6.07,10.17-4.85"/></g></g><g><path class="n" d="M33.23,235.86s-2.46-3.75-5.46-2.75-7,12,2,23"/><path class="n" d="M31.78,246.11s-3.68-2.17-7.34-1.58"/></g><g><path class="m" d="M175.03,81.9s-7.3-7.38-17.78,1.92"/><g><path class="m" d="M234.78,38.11s-83-57-138,8"/><path class="m" d="M234.78,30.55S124.24-21.89,104.01,46.11"/><path class="m" d="M237.78,52.11S157.78-.89,104.78,49.11"/><path class="m" d="M232.29,39.88s-92.51-48.76-114.51,4.24"/><path class="m" d="M232.29,60.5S101.78-6.89,98.78,63.11"/><path class="m" d="M229.78,53.11S130.78,5.11,113.78,61.11"/><path class="m" d="M222.54,63.11s-56.72-41-86.24-11"/><path class="m" d="M211.33,61.11s-91.55-42-101.55,11"/><path class="m" d="M209.78,70.11s-66-46-92,2"/><path class="m" d="M205.31,72.11s-57.53-47-72.53,3"/><path class="m" d="M197.81,72.11s-59.03-29.35-76.03,7.82"/><path class="m" d="M141.9,75.11c30.12-22,49.6,0,49.6,0"/><path class="m" d="M183.3,79.94s-16.3-17.18-31.91,0"/><path class="m" d="M185.89,75.11s-23.11-20.35-41.61,4.82"/></g></g></g><g class="c"><path d="M18.14,217.56s-2.76,.69-4,7c-2.55,13.03-1.67,38.95,21.95,54.67l7.23,4.16s-20.18-20.83-22.18-34.83-4-26-1-27,11.5,.53,11.5,.53c0,0-6.5-5.53-13.5-4.53Z"/><path d="M38.42,244.37s-14.77,159.04,94.98,182.61c17.74,3.57,17.33,1.54,17.33,1.54,0,0-66.17-23.03-82.38-69s-29.65-98.34-29.93-115.16Z"/><path d="M31.64,222.09s0-1.24,.03-3.48c.24-20.12,2.25-120.77,17.98-126.11,0,0,8.71-.23,10.6,5.41,0,0-10.08-1.37-10.6,3.64s-9.52,69.01-9.52,69.01c0,0-1.39,42.48,1,45,3.39,2.52,11.08,5.11,11.08,5.11,0,0-9.08,8.89-11.08,8.89l-10.18-8,.68,.53Z"/><path d="M136.16,7.32S77.14,24.56,54.14,89.56l-1.34,3.16s7.75,1.64,9.55,9.74c0,0,39.8-91.76,109.3-99.83,0,0-28.46,2.46-35.48,4.69Z"/><path d="M65.65,272.67s-1.51,22.89,3.49,27.89,14,9,15,14,8,24.68,8,24.68c0,0,2.36-2.61,1.18-9.65s-4.13-15.93-6.66-18.48-11.53-11.56-14.53-16.56c0,0-6.97-18.77-6.49-21.89Z"/><path d="M104.06,346.59s-10.92,1.96-9.92,10.96c.59,5.35,14.7,12.58,14.7,12.58l-2.7-5.58s-6-5-6-7,1.84-8.92,3.92-10.96Z"/><path d="M145.64,242.72l-2.4,5.08s1.07,14.6-2.1,17.76c-7,7-6,48-1,51s13.29,12.68,27.14-1.16c0,0-12.14,6.16-17.14,1.16s-9-19-8-31,6-34.67,3.5-42.83Z"/><path d="M123.14,393.56s2.09,6.16,6.55,8.08,21.41,7.65,27.43,7.28,23.57-15.36,23.57-15.36c0,0-17,9.38-28.77,7.69s-25.77-4.69-28.77-7.69Z"/><path d="M111.14,356.56s9.98-8.95,16.99-8.47,23.01,1.87,26.51,2.67,28.32-2.94,28.91-2.57,12.9,.3,12.9,.3c0,0-.43,1.47-3.87,2.27s-16.87,2.7-23.65,3.25-15.13,2.55-15.13,2.55c0,0-17.92-4.1-25.29-2.55s-17.36,2.55-17.36,2.55Z"/><path d="M143.14,234.44s-4.58,16.14-24.29,14.63c-19.71-1.51-27.68-15.14-25.2-20.33s19.06,15.41,23.77,15.11,25.71-9.42,25.71-9.42Z"/><path d="M93.65,228.74s14.33-16.14,25.91-17.16c0,0-13.65-.88-20.04,5.55s-5.87,11.61-5.87,11.61Z"/><path d="M226.88,231.01s-.38,17.63-24.06,17.58-26.68-14.04-25.68-20.04,20.53,11.69,20.53,11.69l29.2-9.23Z"/><path d="M208.29,211.97s-29.15-5.42-31.15,16.58c0,0,7-11,13-12s22.04-3.57,22.04-3.57l-3.89-1.01Z"/><path d="M120.27,184.94s-19.13,5.61-19.13,6.61,12.69-2.3,12.69-2.3l-15.02,5.13s-1.66-.86-1.67-2.34,16.26-7.71,23.13-7.1Z"/><path d="M194.98,186.53l-15.83,11.02,8.75-3.82-14.75,8.82s8.67-13.05,21.83-16.02Z"/><path d="M305.15,211.83s-14.64,6.85-14.31,20.79c.31,12.94,.31,3.94,.31,3.94,0,0,8-24,20-23,0,0,4.77,2.83,5.88,6.41,0,0,1.6-7.62-4.14-10.02-5.74,.6-7.74,1.87-7.74,1.87Z"/><path d="M298.93,230.73s2.99-3.56,5.1-2.37,4.52,5.74,3.82,9.47-2.73,10.63-7.72,16.18l-3.99,2.55s8.24-12.11,6.62-18.05-7.62-2.95-7.62-2.95c0,0,.58-2.65,3.79-4.82Z"/><path d="M305.14,237.56s-11.02,5.8-11.51,9.9c0,0,9.51-6.59,11.51-6.75s0-3.15,0-3.15Z"/><path d="M125.14,437.69s-60.06,1.57-101.03,51.72c-10.94,71.3-36.97,276.15-9.97,327.15l44.73,.76s-26.55-272.68-3.64-304.72c22.91-32.04,69.91-74.91,69.91-74.91Z"/><path d="M130.5,436.84l-5.35,.84s-34,60.87-39,66.87c6,6,19,14.41,19,23.7,0,0-24,24.6-24,25.95s34.41,51.9,41.21,103.12c0,0-6.21-49.77-18.21-72.77s-16-30-16-30l22-24s-3-19-12-25c0,0,28.71-65.42,32.35-68.71Z"/><path d="M133.4,426.98s-5.26,28.57-3.26,31.57,10.8,14.78,27.4,13.39,20.24-4.27,20.24-4.27c0,0-26.63,3.88-37.63-8.12s-.72-31.58-.72-31.58l-6.02-.99Z"/><path d="M144.78,490.51s9.27,14.62,11.81,14.83,7.55-.6,7.55-.6c0,0-8.12-3.48-10.06-5.33s-6.26-11.44-6.26-11.44l-3.04,2.54Z"/><path d="M156.59,505.34s-3.38,5.7-1.41,9.11c.53,.92,1.46,1.68,2.95,2.1,0,0-2.66-1.21-1.33-5.61s2.53-5.64,2.53-5.64l-2.75,.04Z"/><path d="M155.01,514.1s-2.87,6.45,2.13,8.45c0,0-4.29-4.3-1.64-7.65l-.49-.8Z"/><path d="M161.89,516.56s5.95,1,8.6,0c0,0-4.35,1-5.35,1s-3.25-1-3.25-1Z"/><path d="M160.54,523.3s6.76,.75,8.68,0c0,0-3.08,1.25-4.08,1.25s-4.6-1.25-4.6-1.25Z"/><path d="M155.9,521.86l-48.76,203.7,57.74,80.13s-23.74-66.13-24.74-91.13,20.4-191.25,20.4-191.25l-4.63-1.44Z"/><polygon points="198.62 505.3 159.35 478.34 163.62 474.76 196.45 492.95 198.62 505.3"/><path d="M212.72,699.82l-16.28-206.87-2.68-55.84,13.56,12.41s5.98,87.56,5.4,97.8,3.42,141.84,3.42,141.84l-3.42,10.66Z"/></g></g></g></svg>