<?xml version="1.0" encoding="UTF-8"?><svg xmlns="http://www.w3.org/2000/svg" width="490" height="200" viewBox="0 0 490 200"><defs><style>.j{fill:#0df205;}.k{fill:#24b0bf;}</style></defs><g id="a"/><g id="b"/><g id="c"/><g id="d"/><g id="e"/><g id="f"/><g id="g"/><g id="h"><path class="k" d="M155.89,10.72s-7.99,7.07-19.98,3.38c-11.99-3.69-27.66-4-27.66-4,0,0-27.66-1.23-40.57,2.46-12.91,3.69-25.51,14.44-25.51,26.12s-14.14,16.6-8.91,27.35c5.22,10.76,14.44,5.84,15.37,18.44,.92,12.6-7.68,26.43-2.15,35.04,5.53,8.61,12.29,5.84,12.29,5.84l.61,23.36s-3.07,16.29,6.15,20.9,8.91,9.22,17.21,4.3,6.15-6.76,21.21-7.68,26.43-4.92,32.27,.92c5.84,5.84,.92,4.61,13.52,7.38s24.59-2.77,33.81-1.84,7.38,8.91,25.51,9.83,29.5-9.53,37.8-7.07-2.15,11.06,14.75,7.68,13.52-11.37,26.12-9.83,4.3,6.45,19.05,5.22,14.75-10.14,27.35-7.07c12.6,3.07-1.54,8.3,25.2,5.84s30.43,1.23,39.95-7.38,2.15-8.91,14.75-15.67c12.6-6.76,32.58-5.84,36.57-12.91,4-7.07,2.77-4.92,4.61-13.22s11.99-7.99,2.77-17.83c-9.22-9.83-20.9,4.61-21.82-13.83-.92-18.44,25.51-58.09,20.59-68.54s-15.06-11.68-17.21-19.98c-2.15-8.3,8.91-8.3-8.3-4.3-17.21,4-27.35,11.68-33.19,16.6-5.84,4.92-34.11,21.82-51.63,9.22-17.52-12.6-13.22-33.19-29.2-25.51-15.98,7.68-7.68,15.98-24.28,10.76s-6.76-13.52-28.89-11.06-37.19-2.46-47.64,3.38c-10.45,5.84-21.51,11.68-32.88,7.07-11.37-4.61-27.66-3.38-27.66-3.38Z"/></g><g id="i"><path class="j" d="M100.92,70.23s13.57-4.84,9.6-11.3c-3.97-6.46-13.75-10.55-16.1-6.08s-5.65,15.89-3.2,19.19c2.45,3.3,5.65,2.56,4.8,7.14s-3.62,3.3-2.67,7.68c.96,4.37,3.84,1.17,3.2,7.36-.64,6.18-4.16,4.26-3.2,13.33,.96,9.06,2.77,4.69,3.3,8.53s-1.35,3.86-.21,6.4c3.09,6.93,4.8-2.56,4.8,2.03s-9.28,6.82-1.6,8.53,9.06,4.8,13.33,.53,11.09,.32,6.93-6.4-6.19-4.21-8.21-8.74c-3.52-7.89-5.65-3.3-5.65-8.32s7.04-6.08,5.86-11.3-4.26-2.45-3.41-7.14,7.57-4.05,3.09-9.49,2.49-4.02-10.66-11.94Z"/><path class="j" d="M193.67,87.18s3.94,.53,3.3-2.56-3.73-.11-3.2-4.58c.53-4.48,6.61-5.01,1.92-13.97s-4.26-4.58-10.66-9.06c-6.4-4.48-6.29-7.04-12.79-6.18s-3.94,5.65-7.89,5.65-3.3-6.82-9.17,.32c-5.86,7.14-11.94,6.18-10.87,13.33s1.71,6.18-1.28,10.13-6.71,7.39-4.9,13.01c1.8,5.62,7.89-3.3,8.1,1.28s1.83-1.38,1.71,2.45-12.25,9.81-11.41,23.03c.84,13.22,2.4,6,5.76,7.78s13.43,7.36,17.16,6.29,2.35-.32,6.72-.96,2.41,2.8,8.32,2.13c9.38-1.07,11.41-4.8,11.41-4.8,0,0-5.65,5.97-1.81,12.69s7.77,8.72,11.62,5.54c5.44-4.48,7.46-4.37,5.33-10.98-2.13-6.61-.96-9.17,.64-14.07,1.6-4.9,2.67-4.37,1.07-11.09-1.6-6.72-5.65-8.64-10.66-9.91s-20.04-.85-21.86,1.92-2.35,5.97,2.03,8.64,5.97,5.76,5.97,5.76l2.88-2.45s-5.12,4.9-10.02,3.52-9.38,2.77-11.73-.75c-2.35-3.52-3.3-.85-4.05-8.32s-2.88-7.46,.43-11.62,5.22-8,7.04-8.53,4.05-1.77,3.84-4.69c-.75-10.45-3.73-5.44-3.73-5.44,0,0-.21-7.36,6.4-7.36s7.46-.64,9.91,1.49,3.52,2.24,7.04,5.76l7.46,6.61Z"/><path class="j" d="M275.69,60.5s-5.15-7.69-9.22-8.86-9.75,2.3-15.19,.72,0-5.61-8.23-4.97-5.79,1.09-9.22,3.07-5.06,.18-7.78-.99-5.7-4.34-7.32,1.81c-1.63,6.15-5.61,7.69-3.8,11.85,1.81,4.16,2.13,5.98,3.62,9.4,1.49,3.42,3.62,5.88,1.45,9.13s-4.43,5.33-3.26,9.13c1.18,3.8,.9,2.89,1.36,7.05,.45,4.16-1.36,.27,.36,7.51,1.72,7.23,2.89,5.61,1.9,10.58-.99,4.97-2.17,.99-1.9,7.05s-1.81,10.76,1.9,12.93,5.33,6.33,9.22,3.53,6.96-1.09,6.96-1.09c0,0,3.07-.18,5.33,2.08s-.27,2.17,6.06,.9,5.97,1.45,8.41-2.26,.18-4.52,5.15-4.07,8.5,.18,8.5-3.98,4.15-5.42,.99-6.6c-6.78-2.53-13.56-3.71-13.56-3.71,0,0-2.26-3.98-4.52,1.45s-3.94,2.16-7.23,.45c-6.78-3.53-7.41-1.72-9.22,.09s-5.52,3.8-4.97-.54c.54-4.34,2.94-1.83,1.99-7.23-1.36-7.69-3.07-8.41-1.54-11.03s.18-5.88,1.99-5.43-.09-.36,4.16,1.27,5.15,3.26,7.05,.99,1.63-2.98,5.33-2.8,5.7-1.72,7.51,.81-.99,4.7,3.8,.72,5.7-2.26,3.71-5.79-1.27-8.05-4.79-6.6-3.31,.18-6.6-.99c-6.33-2.26-10.04-7.23-11.21-3.71-1.18,3.53,0,5.15-4.34,5.15s-3.57-.86-6.24-3.53-1.96-1.39-1.09-5.52c1.63-7.69-1.63-7.87,2.26-10.04s3.89-2.44,5.33-.45,3.79-2.05,5.88,.81c2.09,2.87,3.89,5.24,5.52,2.98s2.17-.9,6.15-2.53,3.44-3.16,6.87-1.09,5.33,.9,7.41,3.62,3.16,5.97,4.97-.36c1.81-6.33,.54-7.96,.09-10.94Z"/><path class="j" d="M297.49,52.89s-4.15-1.42-5.87,4.05-4.15,9.92-2.23,9.92,4.05,1.11,2.63,5.16c-1.42,4.05-1.11,4.76-2.43,9.51-1.32,4.76-1.52,9.61-.81,12.24s1.32,7.49-1.01,9.11-1.52,.1-4.05,5.46-3.64,6.07-.1,9.11,3.95,4.86,6.38,6.48,1.52,5.77,3.04,8.91c1.52,3.14,0,5.57,5.46,4.76s8.7,4.25,9.41-.71,5.57-8.91,1.11-12.75c-4.45-3.85-2.02-3.34-4.25-8.3-2.23-4.96-4.53-4.65-3.34-7.89,1.82-4.96,4.35-.51,4.35-.51,0,0,1.01,.3,3.14,3.74,2.13,3.44,.91,5.16,3.85,5.26s6.07,4.25,6.07,4.25c0,0,2.83-.2,1.82,3.44s-1.42,3.14,1.52,5.46,8.04,4.91,10.42,2.53,8.8-3.14,8.1-9.01,.3-3.34,1.52-5.97,2.02-2.02,3.54-3.85,4.01,2.68,1.82-4.05c-3.85-11.84-6.26-11.94-5.87-16.9,.71-9.11,1.92-11.33-.61-13.26s-4.15,1.82-3.24-3.85c.91-5.67-2.02-6.88-.2-9.01s3.66-4.36,.51-7.29c-5.46-5.06-8.8-7.79-10.12-4.35s-6.07,6.68-4.76,9.11,2.93,7.18,2.93,7.18l.1,3.74s-.91,1.21-.4,4.25-1.11,4.86,.3,6.48,2.49,1.73,1.82,4.65c-.76,3.3,1.43,4.52,.1,6.48-5.36,7.89-9.51,3.24-8.4,1.01s1.42-2.83-.1-5.26,2.92-2.82-1.21-4.76c-7.79-3.64-9.92-5.16-7.59-7.69s1.72-2.73,1.72-5.16,3.34-3.34,.3-5.36-1.42-5.57-3.34-6.68-1.82-2.23-2.13-4.76-2.73-4.76-2.73-4.76l-7.18-.2Z"/><path class="j" d="M367.31,77.62c-1.99,1.99-5.64,5.83-8.36,1.36-2.72-4.47-3.06-.73-5.64-3.31s-2.63-.68-1.26-4.76c1.36-4.08,.29-4.08,3.31-7.58,3.01-3.5,4.67-4.28,6.03-7.1s-.39-5.06,4.08-4.38,6.42,1.26,9.04,.88,5.54,.39,8.65-3.4,3.4-5.35,7.97-6.03,10.02-1.46,11.09,2.82c1.07,4.28,.78,1.36,3.89,6.61s6.13,10.99,8.75,12.06,6.13-3.99,4.67,3.7c-1.46,7.68-2.82,15.66-6.42,17.21s-5.25,11.47-9.82,12.84-2.63,6.13-7,5.15-4.67-2.72-7.49,1.85-4.57,8.17-1.65,9.43,3.7-.4,3.7,4.28c0,8.75-1.26,8.27,.58,10.89s7.61,4.02,2.43,4.38c-11.47,.78-7-5.83-13.03-3.21s-7.1,.29-7.1,.29l-5.45-1.17s-2.72-6.9-.19-7.68,4.67-1.26,3.7-3.89-2.43-6.03-4.28-8.85-.78-7,3.21-9.82c3.99-2.82,14.39-7.29,17.6-7.97s4.38-1.36,6.42-6.13c2.04-4.76,2.72-3.7,2.24-7.78s-2.24-4.86,.19-7.97c2.43-3.11,7.56-2.31,2.24-5.93-10.99-7.49-10.99-9.72-13.71-6.42-2.72,3.31-6.03-1.65-8.17,2.72s-.64,8.22-5.93,7.88c-6.03-.39-6.9-.19-5.64,2.92s1.36,6.13,1.36,6.13Z"/><path class="j" d="M382.09,146.08c-3.3,2.2-1.41-3.35-3.6-5.54s.97-8.07-4.57-3.89c-5.54,4.18-9.72,7-7.2,9.53s5.15,2.53,4.67,4.96-1.56,3.7,3.21,2.82,5.06-1.65,7.49,.97,3.09,5.02,4.86,2.43c3.79-5.54,4.47-5.74,3.21-9.14s1.13-8.18-1.94-6.71c-4.28,2.04-5.25,3.99-6.13,4.57Z"/></g></svg>