<?xml version="1.0" encoding="UTF-8"?><svg xmlns="http://www.w3.org/2000/svg" width="145" height="140" xmlns:xlink="http://www.w3.org/1999/xlink" viewBox="0 0 145 140"><defs><style>.k{mask:url(#g);}.l{fill:#3fa4f0;}.m{filter:url(#i);}</style><filter id="i" x="1.99" y=".07" width="141.02" height="139.87" color-interpolation-filters="sRGB" filterUnits="userSpaceOnUse"><feFlood flood-color="#fff" result="bg"/><feBlend in="SourceGraphic" in2="bg"/></filter><mask id="g" x="1.99" y=".07" width="141.02" height="139.87" maskUnits="userSpaceOnUse"><g class="m"><ellipse cx="73.07" cy="69.32" rx="38.19" ry="36.83" transform="translate(-4.93 5.6) rotate(-4.24)"/></g></mask></defs><g id="a"/><g id="b"/><g id="c"/><g id="d"/><g id="e"/><g id="f"><g class="k"><path class="l" d="M60.24,.19V9.76h21.03L82.86,.19s23.96,1.41,29.61,12.7l-7.06,5.65,15.53,15.53,9.88-5.65s11.29,7.06,11.29,24l-8.47,2.82s0,12.7-1.41,21.17l9.88,2.7s4.23,17.07-5.65,25.53c-5.65-1.41-12.7-4.23-12.7-4.23,0,0-5.65,14.12-9.88,15.53l7.06,8.47s-7.06,14.12-31.05,15.53l-4.23-9.88s-19.76-1.41-22.59-1.41-2.82,11.29-2.82,11.29c0,0-19.76-4.23-24-8.47l2.82-9.88s-11.29-15.53-12.7-16.94-12.7,4.23-12.7,4.23c0,0-14.12-22.59-11.29-29.64l8.47-2.82,2.82-16.94-11.67-1.49s1.78-28.15,10.25-30.98l12.7,5.65s14.12-12.7,18.35-14.12l-7.06-8.47S48.94-1.22,60.24,.19Z"/></g></g><g id="j"/></svg>