<?xml version="1.0" encoding="UTF-8"?><svg xmlns="http://www.w3.org/2000/svg" width="2566.2" height="2437.02" viewBox="0 0 2566.2 2437.02"><defs><style>.l{opacity:.61;}.l,.m{mix-blend-mode:overlay;}.m{opacity:.49;}.n{fill:#f2dd72;}.o{fill:#f288e0;}.p{fill:#f2913d;}.q{fill:#eae6bb;}.r{fill:#ff3d00;}.s{fill:#e6fae6;}.t{fill:#fff;}.u{fill:#e8e8e8;}.v{fill:#e8e54a;}.w{fill:#f2ccb6;}.x{fill:#ffb41f;}.y{fill:#efeddf;}.a`{fill:#ff7d6c;}.aa{fill:#728c6d;}.ab{fill:#933f00;}.ac{fill:#b82a1d;}.ad{fill:#8fbf60;}.ae{fill:#b56a33;}.af{fill:#333;}.ag{fill:#a67c58;}.ah{fill:#bfba6f;}.ai{fill:#db5531;}.aj{fill:#afafaf;}.ak{fill:#c69c6d;}.al{fill:#dbaf9a;}.am{fill:#d6c9c0;}.an{fill:#0df205;}.ao{fill:#0d0d0d;}.ap{fill:#19d413;}.aq{fill:#1d44b8;}.ar{fill:#364233;}.as{fill:#373740;}.at{fill:#443f3d;}.au{fill:#483ac9;}.av{fill:#2d2a29;}.aw{fill:#2d852d;}.ax{fill:#24b0bf;}.ay{fill:#567bf4;}.b`{fill:#7a6b5e;}.ba{isolation:isolate;}</style></defs><g class="ba"><g id="a"/><g id="b"><g id="c"><rect class="t" width="1920" height="334"/><rect class="ac" y="700" width="1920" height="380"/></g><g id="d"><rect class="aq" y="1360" width="1920" height="540"/><rect class="v" y="1897.02" width="1920" height="540"/></g><g id="e"><g><path class="ap" d="M869.32,103.01c-15.43,4.63-43.94,9.07-59.15,32.92s-47.15,39.6-64.8,48.34-19.26,15.94-26.23,29.32-25.25,27.46-38.06,29.83-25.66,12.42-33.94,52.97-2.77,41.54-7.71,60.69-17,20.73-12.34,46.29,25.73,19.77,19.03,42.17-15.43,10.28-15.43,40.12-14.4,47.83,4.11,60.17,31.89,7.71,27.26,29.83-21.6,.46-21.6,21.6-11.83,32.92,10.29,49.37,24.17-2.06,28.29,30.86,1.54,28.29,16.46,55.03,45.54,39.68,34.46,61.2c-9.27,17.99-6.42,14.22,3.09,27.26s2.76-14.71,14.91,0-9.15,17.19-1.54,28.29,25.19-2.07,37.03,16.97,7.62,31.94,20.06,40.63,23.39-1.42,34.46,4.63,4.2,4.93,12.8,14.15,13.21,3.52,23.09,3.17,11.32,2.42,16.08,6.79,4.96,1.46,12.68,2.04,.54-1.31,6.34,8.15,12.74,17.43,21.74,17.43,9.46,14.37,25.58,9.28,15.85-5.43,24-4.3,6.57,3.85,15.85,.23,3.85-20.09,16.75-2.49,5.84,23.55,18.79,28.98,16.25-1.91,25.08,5.41,6.74,14.93,18.45,20.37,21.81,11.5,34.99,10.31,10.78-5.75,24.45-6.23,13.66,6.47,28.76,.96,21.81-11.5,34.03-14.62,45.9-1.27,59.44,3,12.67,13.56,25.65,11.03,35.73-19.63,49.38-22.29,14.62,4.79,29.01-4.79,22.06-37.4,40.99-38.6,7.67,5.99,22.29,4.55,18.22-12.23,29.01-8.87,12.47,12.23,23.73-.96,35.11-11.89,41.11-42.55,35.27-66.91,51.78-71.68,41.05-3.02,53.7-17.5,33.87-28.58,41.71-44.83-5.05-17.12-1.44-30.45-3.6-23.53,18.39-50.05,34.49-20.63,32.95-56.35-13.24-38.8-11.7-70.21,38.12-89.11,32.03-106.7-23.4-19.71-28.95-32.95-16.01-11.7-12.93-24.02,12.63-16.63,.31-26.18-16.01-1.54-9.85-19.09,4.26-12.51,6.13-30.58,6.54-29.47,9.35-47.04,8.72-15.27-12.77-27.73-28.66-21.81-43.62-25.24-46.73,6.85-55.15-11.22,0-22.43-12.15-31.78-29.91-7.79-34.89-25.24-2.26-55.2-25.83-69.68-73.72-2.02-88.19-9.09-16.83-10.43-29.96-12.79-48.47,16.49-62.94,8.08-12.45-21.88-29.28-23.56-39.08,3.14-57.15,7.19-47.58-2.21-66.76-2.95-37.62-3.32-58.64,9.59-22.13,55.32-37.99,42.41-3.69-40.94-21.76-42.41-30.61-16.6-42.41,7.01-18.44,41.31-33.56,23.6,5.16-27.29-14.02-29.14-40.2-20.28-44.26,12.17-11.43,14.02-25.45,17.7-8.85-12.54-18.81-15.12-14.6,17.18-14.6,17.18Z"/><g><path class="aw" d="M824.25,493.1s-47.16,74.76-49.66,102.71,5.65,76.77,12.92,78.68,5.9-3.17,5.9-3.17c0,0-7.03-7.71-8.16-17.91s.45-34.71,1.81-46.48,4.99-5.67,4.99-5.67c0,0,8.14-1.43,7.71-10.2s.91-26.3,.91-26.3c0,0,.45-5.9,4.76-16.1s18.82-55.55,18.82-55.55Z"/><path class="aw" d="M811.89,690.48s7.58,34.06,12.47,32.2,.45-42.17,.45-42.17c0,0,10.66,30.37,13.6,35.6s7.71,19.27,7.71,19.27l9.3-4.08s1.92-.07,4.31,12.24,9.64,17.71,16.55,20.18,8.97,13.84,14.06,17.46,9.3-.91,14.28,10.88,10.48,42.55,11.42,50.07,.47,18.33,7.29,27.73,9.17,17.16,22.09,22.8,10.58,4.7,18.1,13.16,10.81,7.29,23.03,11.99c2.36,.91,4.55,1.81,6.54,2.67,8.31,3.59,13.2,6.5,13.2,6.5,0,0-6.7,9.99-12.22,4.47s-3.29-11.28-16.45-10.34-33.14,14.34-52.64-7.05-30.08-14.1-35.25-42.3-8.7-38.54-8.7-38.54c0,0,.24,.47-4.23-14.81s-1.18-21.39-12.93-25.15-26.79,3.29-34.08-8.93-21.15-35.25-19.74-54.52,1.84-39.31,1.84-39.31Z"/><path class="aw" d="M963.91,176.54s-70.13-.28-94.83,20.16-26.97,33.5-49.12,64.17-29.81,23-53.38,49.69-39.18,42.02-44.29,71.55-7.67,80.92-4.83,103.92,7.67,62.18,13.06,75.53,3.41-14.2,1.42-20.73,7.1-9.09,7.1-9.09l2.27-34.64s3.98,1.99-3.41-24.42-8.23-31.23-1.42-56.22,17.89-49.4,17.89-49.4c0,0,10.22-28.68,29.53-34.36s32.08-14.48,32.08-14.48c0,0,8.23-2.84,10.51-18.17s3.12-17.6,10.51-24.13,12.49,8.23,23.57-5.39,55.37-44.58,70.98-46c4.88-.44,8.48-1.53,11.13-2.8,5.83-2.81,7.04-6.57,7.04-6.57l-21.86,3.41s-34.64,18.17-43.44,15.05,16.47-23.85,16.47-23.85c0,0-5.96-2.84,3.98-11.36s41.07-24.82,59.06-21.86Z"/><path class="aw" d="M1037.95,344.31s-61.52,93.58-67.48,135.71-10.63,52.01-3.73,58.91,8.2,11.56,6.34,23.12-9.32,15.29-5.22,35.05,12.68,34.67,15.66,41.76-8.04,6.96-19.76-20.88c-11.72-27.84-11.56-43.62-11.56-61.52s2.61-33.93-8.2-48.1-30.2-21.25-22-52.57,26.84-62.26,42.88-66.74,19.39-20.88,30.95-26.84,19.76-19.39,19.76-19.39l27.22-12.68,15.29-4.85,12.3,3.73-32.44,15.29Z"/><path class="aw" d="M1095.02,174.12s12.13-17.34,30-14.95,19.73,5.42,25.46,4.84,27.59-2.69,42.77,2.04,36.92,8.66,38.95,16.29,35.79,2.54,43.87,4.01,23.51,8.33,30.37,13.22,23.51,7.59,28.9,6.12-18.61-15.43-25.96-20.82-26.45-19.1-35.02-21.55-9.8,2.45-18.12-1.96-30.61-6.12-41.14-7.35-23.75,2.2-34.53,0-15.24-6.77-25.22-7.84c-46.28-4.95-60.33,27.93-60.33,27.93Z"/><path class="aw" d="M1318.85,156.48s51.2,8.75,58.98,24.3,2.59,26.57,21.71,43.75,11.99,21.39,23.98,38.24,7.13,23.66,17.18,25.93,20.09,17.82,22.68,29.49-2.27,30.46,7.45,31.43,19.44-5.19,19.44-5.19c0,0-3.24,10.05-.65,24.3s.65,46.67,.65,46.67c0,0-11.02,26.9,4.54,29.49s30.79,6.16,30.79,6.16l6.16-15.56,4.86,12.31,11.02,12.64s5.83-2.92,3.24,9.07,2.59,18.15,2.59,18.15c0,0,7.78,7.45,9.72-8.1s0-32.73,0-32.73l-10.69-19.77s-2.92,5.19-5.19,12.96-16.07-30.02-16.07-30.02l-12.77-5.95s-11.99,21.06-4.86-6.48,11.99-46.99,11.99-46.99c0,0,15.43-16.03,.97-27.87s-23.33-6.81-23.33-6.81c0,0-10.37,1.3-19.12-11.34s-20.09-34.03-20.09-34.03l-4.86-18.47s-2.59-19.12-14.58-23.01-21.06-10.69-21.06-10.69l-15.23-11.99s-9.4-20.42-11.99-29.49-13.29-14.58-13.29-14.58l-64.16-5.83Z"/><path class="aw" d="M1186.78,276.13l-18.77-3.98s9.81-16.78,30.71-16.78,36.64-3.89,52.89,4.55,24.45,13.65,24.45,13.65c0,0,6.26-2.27-.28-9.38s-16.49-10.24-16.49-10.24c0,0,30.14,5.69,38.1,11.94s9.95,10.24,18.77,15.64,21.9,5.4,21.9,5.4l-16.49,9.1s-9.89-.39,1.14,8.81,17.35,15.07,25.59,27.01,15.07,27.87,15.92,36.68,7.96,20.47,7.96,20.47l-2.56,13.08-7.39-15.36s-3.41,5.4-4.27,14.79,1.99,23.03-7.96,20.19-9.1-16.21-9.1-16.21c0,0,9.95-9.38,4.27-26.16s-11.09-32.13-17.35-39.81-9.95-3.7-18.77-22.75-4.83-20.47-14.79-25.88-10.81-14.79-27.87-11.66-36.4,13.65-48.34,13.65-34.41-.28-31.28-16.78Z"/><path class="aw" d="M1188.89,455.17s4.91-2.19,14.46,7.37,10.64,16.1,10.64,16.1l5.46,.27s4.49-9.95,2.46,2.18-1.36,36.57-1.36,36.57l6.55,6.28s4.37,16.65,9.55-8.73,10.64-45.85,10.64-45.85c0,0,3-17.74-12.28-20.19s-21.83-5.18-21.83-5.18l-15.01,.55-9.28,10.64Z"/><path class="aw" d="M1161.32,475.09s-23.47,39.84-19.92,51.3,1.39,28.87,27.02,38.2-6.74,12.4-.27,19.65,15.83,3.55,15.83,3.55l9.01-3.55-9.01,22.38,31.66,8.73s27.83-4.91,45.85-27.02,15.96-28.45,39.02-44.75c9.65-6.82,1.64-17.47,1.64-17.47,0,0-2.33-.94-9.82,7.91s-27.56,24.29-27.56,24.29l-24.29,14.46s-19.1,20.19-22.1,6.55-7.91-18.01-7.91-18.01c0,0-13.64,6.82-20.47,3.55s-7.1-17.47-7.1-17.47l4.91-12.55-5.46-11.19s2.91-1.29-2.73-6c-16.65-13.92-18.28-42.57-18.28-42.57Z"/><path class="aw" d="M1483.75,558.74s-20.87,52.87-52.68,70.79-5.04,6.27-13.58,14.82,1.23,4.53-20.58,13.17-26.34,21.4-45.27,16.46-16.05-13.17-30.04-19.34-15.11,2.88-24.69,2.88-1.65-9.88-13.99-10.7-48.97,18.93-48.97,18.93c0,0-24.3,12.19-40.74,14.82s25.52,7,25.52,7c0,0-5.35-.41,16.46,3.7s43.62,2.88,57.62-5.76,8.64-10.7,25.52-7,12.75,21.81,32.51,21.81,48.56,1.65,55.97-21.81,7.82-12.76,18.11-22.22,13.58,2.06,28.4-25.93,30.45-71.61,30.45-71.61Z"/><path class="aw" d="M1502.68,709.77s18.94,.44,7.41,16.46c-9.6,13.34,1.65,42.8-13.58,56.79s-41.16,17.7-41.16,17.7c0,0-13.58-.82-26.34,4.53s-20.17,21.81-41.16,27.57-43.62,17.29-61.32-.41-15.23-7.82-23.05-7-78.61-11.52-99.18-22.22-28.81-4.94-48.97-7-48.97-31.69-54.32-41.57,12.19,4.53,24.28,5.76,25.52-2.76,32.92,5.35c17.29,18.93,33.34,28.4,44.45,21.4s13.17,0,22.64-4.94c2.19-1.14,4.58-1.18,6.96-.57,7.9,2.04,15.67,11.27,15.67,11.27,0,0,12.71-5.39-5.35-23.46-11.48-11.48,27.16,7.41,27.16,7.41,0,0,43.36-8.29,52.27,4.94s7,20.58,18.52,21.81,32.51-5.76,47.74-8.23,40.33-4.12,52.68-12.35,30.45-18.93,30.45-18.93l5.37-24.44s14.23-26.98,25.91-29.88Z"/><path class="aw" d="M1432.88,885.05s-30.76,28.53-31.64,38.42,.12,19.93-6.61,20.89-9.17-1.71-13.96-1.39-24.72,9.06-29.41,11.08-12.47,7.99-12.47,1.6,6.61-6.82,4.48-11.72-3.67-4.88-15.57-4.88-27.58-2.12-41.35-2.12-27.03,1.47-37.36,.16-12.71,.1-24.48-3.08-59.49-14-72.53-25.45c-13.04-11.45-21.32-18.77-27.68-32.77h0c-6.36-14,3.5-17.18-10.82-21.63s21,17.82,21,17.82c0,0,3.5-2.55-.95-9.86s9.86,6.36,9.86,6.36c0,0,8.59,5.63,12.41,15.27s9.23,21.95,9.23,21.95c0,0,10.82,13.04,17.18,4.14s0-15.91,0-15.91l16.54,13.36,5.41,7.95s5.09,6.36,15.59,5.41,21.63-4.45,28.63-3.5,22.91,0,33.4,.64,13.36-4.14,20.36-7.95,10.5-3.82,19.72-3.5,23.54-2.55,26.41,4.77-3.82,12.09,1.59,14.95,13.23,.5,13.23,.5"/></g><g><path class="s" d="M803.12,383.61l-7.25,16.24-7.31,16.37,.58,32.62,12.81-9.9s-21.81-5.99,5.24-20.97,8.74-20.97,8.74-20.97l15.14-14.56-18.64-15.73-9.32,16.89Z"/><path class="s" d="M857.87,544.95l-13.98,19.22s-13.98,26.21-2.33,29.12,8.13-5.51,8.13-5.51l-.73-8.26s-1.38-10.19,2.2-13.77,9.91-14.69,9.91-14.69l-3.21-6.12Z"/><path class="s" d="M1025.69,451.87l-1,2-4.33,26.77s2.16,27.04,9.2,15.96,11.9-21.09,11.9-21.09l-11.63,6.22s-8.98-8.98,2.97-25.96,1.35-17.58,1.35-17.58c3.35,8.83-8.47,13.69-8.47,13.69Z"/><path class="s" d="M1464.61,396.55s11.82,18.75,1.77,22.99-14.92,2.54-14.92,2.54c0,0,7.11-1.22,9.84-5.64s-4.97-5.86-4.97-5.86c0,0,1.66,4.52,3.98-2.54s1.22-11.28,1.22-11.28c0,0,1.17-2.79,3.1-.22Z"/><path class="s" d="M1460.52,471.17s-25.32,22.66-28.63,15.15-6.41-9.06-1.66-10.39,11.73,4.1,11.73,4.1l18.56-8.85Z"/><path class="s" d="M1047.69,205.65s-4.68-.3-10.27-.12c-9.5,.3-21.61,1.96-17.76,8.74,6.11,10.78,11.24,2.47,11.24,2.47l16.78-11.09Z"/><path class="s" d="M1500.01,649.47c7.54,.77,4.6,38.46-3.76,30.1s-12.27,.49-12.27,.49l5.07-13.25s-.87,.87,2.94,1.15,3.27,4.09,3.27,4.09c0,0-.33-8.02,.82-11.12s.92-11.76,3.93-11.45Z"/><path class="s" d="M1292.91,719.32s-.16-9.49,6.05-15.05,8.83,1.64,8.83,1.64c0,0,1.47,12.11-1.47,8.51s-7.03-1.8-7.03-1.8l-6.38,6.71Z"/><path class="s" d="M1021.6,896.77s.02,.95,.11,2.54c.43,7.81,2.4,30.99,10.63,30.99,9.9,0,7.74-11.6,7.74-11.6l-9.46-5.16-9.03-16.76Z"/><path class="s" d="M969.34,681.48s8.7,33.85,11.52,22.37c2.49-10.15,24.74-2.03,24.74-2.03l-20.33-16.27s2.37-4.07-7.79-12.88-17.28-3.05-17.28-3.05l9.15,11.86Z"/></g></g><g><path class="ap" d="M324.21,1445.72c-15.43,4.63-43.94,9.07-59.15,32.92s-47.15,39.6-64.8,48.34-19.26,15.94-26.23,29.32-25.25,27.46-38.06,29.83c-12.81,2.37-25.66,12.42-33.94,52.97s-2.77,41.54-7.71,60.69-17,20.73-12.34,46.29,25.73,19.77,19.03,42.17c-6.7,22.41-15.43,10.28-15.43,40.12s-14.4,47.83,4.11,60.17,31.89,7.71,27.26,29.83-21.6,.46-21.6,21.6-11.83,32.92,10.29,49.37,24.17-2.06,28.29,30.86,1.54,28.29,16.46,55.03,45.54,39.68,34.46,61.2c-9.27,17.99-6.42,14.22,3.09,27.26s2.76-14.71,14.91,0-9.15,17.19-1.54,28.29,25.19-2.07,37.03,16.97,7.62,31.94,20.06,40.63,23.39-1.42,34.46,4.63,4.2,4.93,12.8,14.15,13.21,3.52,23.09,3.17,11.32,2.42,16.08,6.79,4.96,1.46,12.68,2.04,.54-1.31,6.34,8.15,12.74,17.43,21.74,17.43,9.46,14.37,25.58,9.28,15.85-5.43,24-4.3,6.57,3.85,15.85,.23,3.85-20.09,16.75-2.49,5.84,23.55,18.79,28.98,16.25-1.91,25.08,5.41,6.74,14.93,18.45,20.37,21.81,11.5,34.99,10.31,10.78-5.75,24.45-6.23,13.66,6.47,28.76,.96,21.81-11.5,34.03-14.62,45.9-1.27,59.44,3,12.67,13.56,25.65,11.03,35.73-19.63,49.38-22.29,14.62,4.79,29.01-4.79,22.06-37.4,40.99-38.6,7.67,5.99,22.29,4.55,18.22-12.23,29.01-8.87,12.47,12.23,23.73-.96,35.11-11.89,41.11-42.55,35.27-66.91,51.78-71.68,41.05-3.02,53.7-17.5,33.87-28.58,41.71-44.83-5.05-17.12-1.44-30.45-3.6-23.53,18.39-50.05,34.49-20.63,32.95-56.35-13.24-38.8-11.7-70.21,38.12-89.11,32.03-106.7c-6.1-17.59-23.4-19.71-28.95-32.95s-16.01-11.7-12.93-24.02,12.63-16.63,.31-26.18c-12.32-9.55-16.01-1.54-9.85-19.09s4.26-12.51,6.13-30.58,6.54-29.47,9.35-47.04,8.72-15.27-12.77-27.73-28.66-21.81-43.62-25.24-46.73,6.85-55.15-11.22,0-22.43-12.15-31.78-29.91-7.79-34.89-25.24-2.26-55.2-25.83-69.68-73.72-2.02-88.19-9.09c-14.47-7.07-16.83-10.43-29.96-12.79-13.13-2.36-48.47,16.49-62.94,8.08s-12.45-21.88-29.28-23.56c-16.83-1.68-39.08,3.14-57.15,7.19s-47.58-2.21-66.76-2.95-37.62-3.32-58.64,9.59-22.13,55.32-37.99,42.41c-15.86-12.91-3.69-40.94-21.76-42.41s-30.61-16.6-42.41,7.01c-11.8,23.6-18.44,41.31-33.56,23.6-15.12-17.7,5.16-27.29-14.02-29.14s-40.2-20.28-44.26,12.17-11.43,14.02-25.45,17.7-8.85-12.54-18.81-15.12-14.6,17.18-14.6,17.18Z"/><g><path class="aw" d="M279.14,1835.81s-47.16,74.76-49.66,102.71,5.65,76.77,12.92,78.68,5.9-3.17,5.9-3.17c0,0-7.03-7.71-8.16-17.91s.45-34.71,1.81-46.48,4.99-5.67,4.99-5.67c0,0,8.14-1.43,7.71-10.2s.91-26.3,.91-26.3c0,0,.45-5.9,4.76-16.1s18.82-55.55,18.82-55.55Z"/><path class="aw" d="M266.79,2033.18s7.58,34.06,12.47,32.2,.45-42.17,.45-42.17c0,0,10.66,30.37,13.6,35.6s7.71,19.27,7.71,19.27l9.3-4.08s1.92-.07,4.31,12.24,9.64,17.71,16.55,20.18,8.97,13.84,14.06,17.46,9.3-.91,14.28,10.88,10.48,42.55,11.42,50.07,.47,18.33,7.29,27.73,9.17,17.16,22.09,22.8,10.58,4.7,18.1,13.16,10.81,7.29,23.03,11.99c2.36,.91,4.55,1.81,6.54,2.67,8.31,3.59,13.2,6.5,13.2,6.5,0,0-6.7,9.99-12.22,4.47s-3.29-11.28-16.45-10.34-33.14,14.34-52.64-7.05-30.08-14.1-35.25-42.3-8.7-38.54-8.7-38.54c0,0,.24,.47-4.23-14.81s-1.18-21.39-12.93-25.15-26.79,3.29-34.08-8.93-21.15-35.25-19.74-54.52,1.84-39.31,1.84-39.31Z"/><path class="aw" d="M418.81,1519.25s-70.13-.28-94.83,20.16-26.97,33.5-49.12,64.17-29.81,23-53.38,49.69c-23.57,26.69-39.18,42.02-44.29,71.55s-7.67,80.92-4.83,103.92,7.67,62.18,13.06,75.53,3.41-14.2,1.42-20.73,7.1-9.09,7.1-9.09l2.27-34.64s3.98,1.99-3.41-24.42c-7.38-26.41-8.23-31.23-1.42-56.22,6.81-24.99,17.89-49.4,17.89-49.4,0,0,10.22-28.68,29.53-34.36,19.31-5.68,32.08-14.48,32.08-14.48,0,0,8.23-2.84,10.51-18.17s3.12-17.6,10.51-24.13,12.49,8.23,23.57-5.39c11.07-13.63,55.37-44.58,70.98-46,4.88-.44,8.48-1.53,11.13-2.8,5.83-2.81,7.04-6.57,7.04-6.57l-21.86,3.41s-34.64,18.17-43.44,15.05,16.47-23.85,16.47-23.85c0,0-5.96-2.84,3.98-11.36,9.94-8.52,41.07-24.82,59.06-21.86Z"/><path class="aw" d="M492.85,1687.02s-61.52,93.58-67.48,135.71-10.63,52.01-3.73,58.91,8.2,11.56,6.34,23.12-9.32,15.29-5.22,35.05,12.68,34.67,15.66,41.76-8.04,6.96-19.76-20.88c-11.72-27.84-11.56-43.62-11.56-61.52s2.61-33.93-8.2-48.1-30.2-21.25-22-52.57,26.84-62.26,42.88-66.74c16.03-4.47,19.39-20.88,30.95-26.84s19.76-19.39,19.76-19.39l27.22-12.68,15.29-4.85,12.3,3.73-32.44,15.29Z"/><path class="aw" d="M549.92,1516.83s12.13-17.34,30-14.95,19.73,5.42,25.46,4.84c5.73-.59,27.59-2.69,42.77,2.04s36.92,8.66,38.95,16.29,35.79,2.54,43.87,4.01c8.08,1.47,23.51,8.33,30.37,13.22,6.86,4.9,23.51,7.59,28.9,6.12s-18.61-15.43-25.96-20.82-26.45-19.1-35.02-21.55c-8.57-2.45-9.8,2.45-18.12-1.96s-30.61-6.12-41.14-7.35-23.75,2.2-34.53,0c-10.77-2.2-15.24-6.77-25.22-7.84-46.28-4.95-60.33,27.93-60.33,27.93Z"/><path class="aw" d="M773.74,1499.19s51.2,8.75,58.98,24.3,2.59,26.57,21.71,43.75c19.12,17.18,11.99,21.39,23.98,38.24s7.13,23.66,17.18,25.93,20.09,17.82,22.68,29.49-2.27,30.46,7.45,31.43c9.72,.97,19.44-5.19,19.44-5.19,0,0-3.24,10.05-.65,24.3s.65,46.67,.65,46.67c0,0-11.02,26.9,4.54,29.49,15.56,2.59,30.79,6.16,30.79,6.16l6.16-15.56,4.86,12.31,11.02,12.64s5.83-2.92,3.24,9.07,2.59,18.15,2.59,18.15c0,0,7.78,7.45,9.72-8.1s0-32.73,0-32.73l-10.69-19.77s-2.92,5.19-5.19,12.96-16.07-30.02-16.07-30.02l-12.77-5.95s-11.99,21.06-4.86-6.48c7.13-27.55,11.99-46.99,11.99-46.99,0,0,15.43-16.03,.97-27.87-14.46-11.84-23.33-6.81-23.33-6.81,0,0-10.37,1.3-19.12-11.34s-20.09-34.03-20.09-34.03l-4.86-18.47s-2.59-19.12-14.58-23.01c-11.99-3.89-21.06-10.69-21.06-10.69l-15.23-11.99s-9.4-20.42-11.99-29.49-13.29-14.58-13.29-14.58l-64.16-5.83Z"/><path class="aw" d="M641.67,1618.84l-18.77-3.98s9.81-16.78,30.71-16.78,36.64-3.89,52.89,4.55c16.25,8.44,24.45,13.65,24.45,13.65,0,0,6.26-2.27-.28-9.38-6.54-7.11-16.49-10.24-16.49-10.24,0,0,30.14,5.69,38.1,11.94s9.95,10.24,18.77,15.64c8.81,5.4,21.9,5.4,21.9,5.4l-16.49,9.1s-9.89-.39,1.14,8.81c11.03,9.21,17.35,15.07,25.59,27.01s15.07,27.87,15.92,36.68,7.96,20.47,7.96,20.47l-2.56,13.08-7.39-15.36s-3.41,5.4-4.27,14.79,1.99,23.03-7.96,20.19c-9.95-2.84-9.1-16.21-9.1-16.21,0,0,9.95-9.38,4.27-26.16s-11.09-32.13-17.35-39.81c-6.26-7.68-9.95-3.7-18.77-22.75s-4.83-20.47-14.79-25.88c-9.95-5.4-10.81-14.79-27.87-11.66s-36.4,13.65-48.34,13.65-34.41-.28-31.28-16.78Z"/><path class="aw" d="M643.78,1797.87s4.91-2.19,14.46,7.37c9.56,9.56,10.64,16.1,10.64,16.1l5.46,.27s4.49-9.95,2.46,2.18-1.36,36.57-1.36,36.57l6.55,6.28s4.37,16.65,9.55-8.73,10.64-45.85,10.64-45.85c0,0,3-17.74-12.28-20.19s-21.83-5.18-21.83-5.18l-15.01,.55-9.28,10.64Z"/><path class="aw" d="M616.22,1817.79s-23.47,39.84-19.92,51.3,1.39,28.87,27.02,38.2-6.74,12.4-.27,19.65,15.83,3.55,15.83,3.55l9.01-3.55-9.01,22.38,31.66,8.73s27.83-4.91,45.85-27.02,15.96-28.45,39.02-44.75c9.65-6.82,1.64-17.47,1.64-17.47,0,0-2.33-.94-9.82,7.91-7.49,8.86-27.56,24.29-27.56,24.29l-24.29,14.46s-19.1,20.19-22.1,6.55-7.91-18.01-7.91-18.01c0,0-13.64,6.82-20.47,3.55s-7.1-17.47-7.1-17.47l4.91-12.55-5.46-11.19s2.91-1.29-2.73-6c-16.65-13.92-18.28-42.57-18.28-42.57Z"/><path class="aw" d="M938.65,1901.45s-20.87,52.87-52.68,70.79-5.04,6.27-13.58,14.82,1.23,4.53-20.58,13.17-26.34,21.4-45.27,16.46-16.05-13.17-30.04-19.34-15.11,2.88-24.69,2.88-1.65-9.88-13.99-10.7-48.97,18.93-48.97,18.93c0,0-24.3,12.19-40.74,14.82s25.52,7,25.52,7c0,0-5.35-.41,16.46,3.7s43.62,2.88,57.62-5.76,8.64-10.7,25.52-7,12.75,21.81,32.51,21.81,48.56,1.65,55.97-21.81,7.82-12.76,18.11-22.22,13.58,2.06,28.4-25.93,30.45-71.61,30.45-71.61Z"/><path class="aw" d="M957.58,2052.48s18.94,.44,7.41,16.46c-9.6,13.34,1.65,42.8-13.58,56.79s-41.16,17.7-41.16,17.7c0,0-13.58-.82-26.34,4.53s-20.17,21.81-41.16,27.57-43.62,17.29-61.32-.41-15.23-7.82-23.05-7-78.61-11.52-99.18-22.22-28.81-4.94-48.97-7-48.97-31.69-54.32-41.57,12.19,4.53,24.28,5.76,25.52-2.76,32.92,5.35c17.29,18.93,33.34,28.4,44.45,21.4s13.17,0,22.64-4.94c2.19-1.14,4.58-1.18,6.96-.57,7.9,2.04,15.67,11.27,15.67,11.27,0,0,12.71-5.39-5.35-23.46-11.48-11.48,27.16,7.41,27.16,7.41,0,0,43.36-8.29,52.27,4.94s7,20.58,18.52,21.81,32.51-5.76,47.74-8.23,40.33-4.12,52.68-12.35,30.45-18.93,30.45-18.93l5.37-24.44s14.23-26.98,25.91-29.88Z"/><path class="aw" d="M887.77,2227.75s-30.76,28.53-31.64,38.42,.12,19.93-6.61,20.89-9.17-1.71-13.96-1.39-24.72,9.06-29.41,11.08-12.47,7.99-12.47,1.6,6.61-6.82,4.48-11.72-3.67-4.88-15.57-4.88-27.58-2.12-41.35-2.12-27.03,1.47-37.36,.16-12.71,.1-24.48-3.08-59.49-14-72.53-25.45c-13.04-11.45-21.32-18.77-27.68-32.77h0c-6.36-14,3.5-17.18-10.82-21.63s21,17.82,21,17.82c0,0,3.5-2.55-.95-9.86s9.86,6.36,9.86,6.36c0,0,8.59,5.63,12.41,15.27s9.23,21.95,9.23,21.95c0,0,10.82,13.04,17.18,4.14s0-15.91,0-15.91l16.54,13.36,5.41,7.95s5.09,6.36,15.59,5.41,21.63-4.45,28.63-3.5,22.91,0,33.4,.64,13.36-4.14,20.36-7.95,10.5-3.82,19.72-3.5,23.54-2.55,26.41,4.77-3.82,12.09,1.59,14.95,13.23,.5,13.23,.5"/></g><g><path class="s" d="M258.01,1726.32l-7.25,16.24-7.31,16.37,.58,32.62,12.81-9.9s-21.81-5.99,5.24-20.97c27.05-14.97,8.74-20.97,8.74-20.97l15.14-14.56-18.64-15.73-9.32,16.89Z"/><path class="s" d="M312.76,1887.66l-13.98,19.22s-13.98,26.21-2.33,29.12,8.13-5.51,8.13-5.51l-.73-8.26s-1.38-10.19,2.2-13.77,9.91-14.69,9.91-14.69l-3.21-6.12Z"/><path class="s" d="M480.58,1794.58l-1,2-4.33,26.77s2.16,27.04,9.2,15.96,11.9-21.09,11.9-21.09l-11.63,6.22s-8.98-8.98,2.97-25.96,1.35-17.58,1.35-17.58c3.35,8.83-8.47,13.69-8.47,13.69Z"/><path class="s" d="M919.51,1739.26s11.82,18.75,1.77,22.99c-10.06,4.24-14.92,2.54-14.92,2.54,0,0,7.11-1.22,9.84-5.64s-4.97-5.86-4.97-5.86c0,0,1.66,4.52,3.98-2.54s1.22-11.28,1.22-11.28c0,0,1.17-2.79,3.1-.22Z"/><path class="s" d="M915.42,1813.88s-25.32,22.66-28.63,15.15-6.41-9.06-1.66-10.39,11.73,4.1,11.73,4.1l18.56-8.85Z"/><path class="s" d="M502.59,1548.36s-4.68-.3-10.27-.12c-9.5,.3-21.61,1.96-17.76,8.74,6.11,10.78,11.24,2.47,11.24,2.47l16.78-11.09Z"/><path class="s" d="M954.91,1992.18c7.54,.77,4.6,38.46-3.76,30.1s-12.27,.49-12.27,.49l5.07-13.25s-.87,.87,2.94,1.15,3.27,4.09,3.27,4.09c0,0-.33-8.02,.82-11.12s.92-11.76,3.93-11.45Z"/><path class="s" d="M747.81,2062.03s-.16-9.49,6.05-15.05,8.83,1.64,8.83,1.64c0,0,1.47,12.11-1.47,8.51s-7.03-1.8-7.03-1.8l-6.38,6.71Z"/><path class="s" d="M476.5,2239.48s.02,.95,.11,2.54c.43,7.81,2.4,30.99,10.63,30.99,9.9,0,7.74-11.6,7.74-11.6l-9.46-5.16-9.03-16.76Z"/><path class="s" d="M424.23,2024.19s8.7,33.85,11.52,22.37c2.49-10.15,24.74-2.03,24.74-2.03l-20.33-16.27s2.37-4.07-7.79-12.88-17.28-3.05-17.28-3.05l9.15,11.86Z"/></g></g></g><g id="f"><g><path class="ag" d="M1545.61,1654.27c0,54.9-16.57,96.34-58.01,96.34s-53.87-43.13-53.87-96.34-9.32-96.34,53.87-96.34c58.01,0,58.01,43.13,58.01,96.34Z"/><circle class="ag" cx="1546.64" cy="1682.24" r="14.5"/><path class="ag" d="M1440.98,1687.42s-4.67,.39-8.29,1.88c-2.28,.94-4.14,2.33-4.14,4.33,0,5.18,2.62,16.38,16.85,23.21,14.23,6.83-4.42-29.43-4.42-29.43Z"/></g><path class="as" d="M1444.09,1587.97s1.04,16.57-12.43,16.57c-10.36-3.11-16.57-13.47-6.22-27.97-1.04-5.18-4.87-20.72,13.62-18.65-.31-6.22-.15-17.61,12.28-16.57,0-3.11,8.29-18.65,20.72-13.47,1.04-2.07,11.4-11.4,18.65-4.14,3.11-1.04,14.5-9.32,21.75,4.14,4.14,1.04,11.4-2.07,17.61,10.36,6.22,4.14,12.43,10.36,10.36,21.75,2.07,1.04,17.61,7.25,10.36,24.86,2.07,2.07,8.82,8.29,3.37,19.68,1.54,3.11,3.88,10.36-3.37,15.54-6.22,0-10.36-2.07-12.43-4.14-2.07-2.07-10.36-10.36-5.18-23.83-3.11-2.07-12.43-6.22-10.36-18.65-1.04-2.07-6.22-3.11-6.22-4.14s-6.22-1.04-7.25-2.07-11.4,3.11-14.5-4.14c-2.07,2.07-5.18,10.36-15.54,10.36-1.04,3.11-6.22,13.47-18.65,8.29-2.07,3.11-4.14,11.4-16.57,6.22Z"/><g><g><path class="aa" d="M1492.32,1750.42s-25.44,14.7-33.73,33.34c-4.14,21.75-26.87,89.85-25.35,96.2-2.14-1.79-52.35-50.62-53.38-53.73-5.18-1.04-31.08,16.57-26.93,25.9,4.14,6.22,5.18,3.11,5.18,3.11,0,0,59.12,66.13,75.14,63.62,12.36-.87,13.95-1.47,16.02-4.58s27.97-50.76,37.29-87.02c3.11-17.61,15.54-22.79,15.54-22.79l-9.78-54.06Z"/><path class="aa" d="M1483.45,1821.06s29.01,88.05,26.93,109.81c-3.11,10.36-5.18,17.61-5.18,17.61l5.29,6.37,4.04,1.92s23.83,4.14,46.62,2.07,48.69-11.4,48.69-11.4c0,0,7.25-5.18,7.25-6.22s4.14-7.25,4.14-9.32-4.14-11.4-6.22-15.54c-2.07-4.14-34.19-143.99-33.15-156.42-20.72-9.32-90.13,34.19-90.13,34.19l-8.29,26.93Z"/></g><path class="aa" d="M1492.32,1750.42s31.7-13.55,39.9-11.34c8.2,2.21,23.74-4.62,28.92-10.53s81.84-86.71,85.98-97.07c4.14-10.36,46.56-124.31,47.65-142.96,2.07-5.18,18.65-22.79,35.22,2.07-2.07,14.5-34.19,118.1-50.76,141.92-16.57,23.83-47.65,70.44-55.94,78.73-8.29,8.29-42.47,41.44-41.44,48.69,1.04,7.25-9.32,13.47-9.32,13.47l-64.23,23.83-16.57-3.11,.58-43.7Z"/></g><path class="ag" d="M1496.92,1747.51s7.25,12.43,11.4,15.54c4.14,3.11,20.72-2.07,23.83-12.43,1.04-7.25-7.82-16.19-7.82-16.19l-21.18,5.83-6.22,7.25Z"/><path class="ag" d="M1718.61,1491.63s0-21.75,3.11-24.86c3.11-3.11,16.57-16.57,17.61-21.75,1.04-5.18,4.14-19.68,5.18-21.75,1.04-2.07,2.07-15.54-3.11-15.54s-7.25,21.75-7.25,21.75c0,0,7.06-29.81-2.17-30.96-4.05-1.15-8.19,34.07-8.19,34.07,0,0,4.14-53.87,0-53.87s-8.29-7.25-11.4,52.83c0,0,3.11-42.47-1.04-42.47s-10.98,4.91-9.63,45.96c-.42-.76,1.35-39.75-5.91-39.75s-8.29,42.12,0,52.66c-5.18-3.79-18.65-15.36-29.01-5-2.07,4.14,2.07,6.22,2.07,6.22,0,0,5.18,0,12.43,3.11,5.18,5.18,7.25,9.32,9.32,10.36s8.29,1.04,9.32,5.18c1.04,4.14,0,18.65-1.04,20.72,1.04,1.04,6.49,2.07,8.94,3.11,2.45,1.04,4.53,4.14,7.63,2.07l3.11-2.07Z"/><path class="ag" d="M1376.75,1838.67s-12.43-14.5-12.43-15.54-1.04-18.65-4.14-20.72-10.36-2.07-10.36-2.07c0,0-5.18-5.18-7.25-5.18s-7.25,2.07-7.25,2.07c0,0-11.4-2.07-13.47,1.04s-2.07,4.14-2.07,5.18-5.18,2.07-6.22,5.18,0,5.97,0,5.97c0,0-2.07,6.46-1.04,9.57,0,1.04-3.11,3.11-2.07,7.25,1.04,3.11,3.11,6.22,5.18,6.22s7.25-1.04,7.25-1.04c0,0,9.32,4.14,12.43,4.14s10.36-5.18,10.36-5.18l6.22,1.04s10.36,13.47,11.4,13.47h2.65"/><g><path class="ao" d="M1723.78,2104.9s-2.07-11.52,0-14.05,16.57-10.82,23.83-7.71c6.22,5.18,12.96,46.81-6.99,73.64-6.74,1.88-12.69-10.45-12.69-10.45,0,0-5.99-31.5-5.06-36.47l.92-4.97Z"/><path class="ao" d="M1455.48,2353.71s-27.97,32.96-42.47,39.18c-4.14,7.25-6.22,13.47-5.18,16.57,1.04,3.11,4.14,9.32,34.19,4.14,23.83-13.47,45.58-23.83,48.69-36.26,3.11-13.47,0-21.38-1.04-23.64s-7.09-12-9.24-13.35-9.77,0-9.77,0l-15.17,13.35Z"/></g><path class="as" d="M1509.35,1967.12s3.11,40.4,4.14,42.47c-1.04,4.14-17.61,51.36-30.04,73.85-8.29,22.19-26.93,70.14-27.97,76.36-1.04,6.22-9.32,180.63,0,193.91,7.25,5.84,18.65,2.92,23.83-4.33,2.07-7.25,12.43-162.64,10.36-176.11,4.14-8.29,52.83-96.34,65.26-148.14,0,0,.47-4.81,6.97-4.48s19.97,14.84,28.25,60.42c10.36,43.51,33.15,113.95,39.37,116.02s45.27-7.47,104.63-89.09c1.04-6.22,1.04-13.47-8.29-12.43-8.29,6.22-72.51,58.01-75.62,58.01-2.07-2.07-22.79-96.34-23.83-104.63-1.04-8.29-8.29-58.01-7.25-61.12,1.04-3.11-2.07-31.08-2.07-31.08l-62.16,7.25-45.58,3.11Z"/><path class="ah" d="M1510.49,1954.84s38.22,1.92,49.62,.88c11.4-1.04,52.88-10.08,54.93-12.29,.98,2.83,3.08,12.29,2.05,13.33-1.04,1.04-46.62,12.43-55.94,12.43s-51.8-2.07-51.8-2.07c0,0-1.86-7.98,1.14-12.28Z"/><rect class="at" x="1549.66" y="1954.53" width="24.48" height="14.62" rx="2.71" ry="2.71" transform="translate(-138.42 118.68) rotate(-4.17)"/><g><g><path class="aj" d="M1490.25,1603.51s25.32-2.07,23.25,30.04c-1.04,13.47-9.32,18.65-21.24,17.61,.52-5.18,4.66-8.29,4.66-8.29l3.11-13.47-1.04-13.47s-3.11-6.22-4.14-7.25-4.6-5.18-4.6-5.18Z"/><path class="aj" d="M1453.13,1610.75s13.72-1.4,10.63,14.33-5.09,10.51-5.09,10.51l-3.19-17.57-2.35-7.27Z"/></g><g><ellipse class="u" cx="1492.26" cy="1627.34" rx="18.13" ry="23.83"/><path class="u" d="M1462.73,1631.48c-.72,10.86-5.08,19.07-12.22,18.59-7.14-.47-12.34-9.66-11.62-20.52,.72-10.86,7.09-19.28,14.23-18.81s10.33,9.88,9.61,20.74Z"/></g></g><g><g><line class="t" x1="1491.85" y1="1628.38" x2="1492.59" y2="1622.41"/><path d="M1492.22,1628.38l.65-5.22,.09-.74c.03-.2-.19-.37-.38-.38-.22,0-.35,.17-.38,.38l-.65,5.22-.09,.74c-.03,.2,.19,.37,.38,.38,.22,0,.35-.17,.38-.38h0Z"/></g><g><line class="t" x1="1488.86" y1="1624.65" x2="1495.57" y2="1626.18"/><path d="M1488.76,1625.01l5.87,1.34,.84,.19c.47,.11,.67-.62,.2-.72l-5.87-1.34-.84-.19c-.47-.11-.67,.62-.2,.72h0Z"/></g><g><line class="t" x1="1490.73" y1="1622.41" x2="1494.08" y2="1628.38"/><path d="M1490.4,1622.6l2.94,5.23,.41,.74c.24,.42,.88,.04,.65-.38l-2.94-5.23-.41-.74c-.24-.42-.88-.04-.65,.38h0Z"/></g><g><line class="t" x1="1494.45" y1="1623.53" x2="1489.98" y2="1627.26"/><path d="M1494.19,1623.26l-3.92,3.27-.55,.46c-.16,.13-.13,.4,0,.53,.15,.15,.37,.13,.53,0l3.92-3.27,.55-.46c.16-.13,.13-.4,0-.53-.15-.15-.37-.13-.53,0h0Z"/></g><g><line class="t" x1="1494.81" y1="1627.73" x2="1490.4" y2="1623.65"/><path d="M1495.07,1627.47l-3.87-3.58-.54-.5c-.35-.33-.89,.2-.53,.53l3.87,3.58,.54,.5c.35,.33,.89-.2,.53-.53h0Z"/></g><g><line class="t" x1="1493.49" y1="1623.28" x2="1490.23" y2="1628.1"/><path d="M1493.17,1623.09l-2.86,4.23-.4,.6c-.27,.4,.38,.78,.65,.38l2.86-4.23,.4-.6c.27-.4-.38-.78-.65-.38h0Z"/></g><g><line class="t" x1="1488.57" y1="1626.69" x2="1495.15" y2="1624.69"/><path d="M1488.67,1627.05l5.75-1.74,.84-.25c.46-.14,.26-.86-.2-.72l-5.75,1.74-.84,.25c-.46,.14-.26,.86,.2,.72h0Z"/></g></g><g><g><line class="t" x1="1446.23" y1="1639.9" x2="1446.98" y2="1633.93"/><path d="M1446.61,1639.9l.65-5.22,.09-.74c.03-.2-.19-.37-.38-.38-.22,0-.35,.17-.38,.38l-.65,5.22-.09,.74c-.03,.2,.19,.37,.38,.38,.22,0,.35-.17,.38-.38h0Z"/></g><g><line class="t" x1="1443.25" y1="1636.17" x2="1449.96" y2="1637.7"/><path d="M1443.15,1636.53l5.87,1.34,.84,.19c.47,.11,.67-.62,.2-.72l-5.87-1.34-.84-.19c-.47-.11-.67,.62-.2,.72h0Z"/></g><g><line class="t" x1="1445.11" y1="1633.93" x2="1448.47" y2="1639.9"/><path d="M1444.79,1634.12l2.94,5.23,.41,.74c.24,.42,.88,.04,.65-.38l-2.94-5.23-.41-.74c-.24-.42-.88-.04-.65,.38h0Z"/></g><g><line class="t" x1="1448.84" y1="1635.05" x2="1444.37" y2="1638.78"/><path d="M1448.58,1634.79l-3.92,3.27-.55,.46c-.16,.13-.13,.4,0,.53,.15,.15,.37,.13,.53,0l3.92-3.27,.55-.46c.16-.13,.13-.4,0-.53-.15-.15-.37-.13-.53,0h0Z"/></g><g><line class="t" x1="1449.2" y1="1639.25" x2="1444.79" y2="1635.17"/><path d="M1449.46,1638.99l-3.87-3.58-.54-.5c-.35-.33-.89,.2-.53,.53l3.87,3.58,.54,.5c.35,.33,.89-.2,.53-.53h0Z"/></g><g><line class="t" x1="1447.88" y1="1634.8" x2="1444.61" y2="1639.62"/><path d="M1447.55,1634.61l-2.86,4.23-.4,.6c-.27,.4,.38,.78,.65,.38l2.86-4.23,.4-.6c.27-.4-.38-.78-.65-.38h0Z"/></g><g><line class="t" x1="1442.95" y1="1638.21" x2="1449.54" y2="1636.21"/><path d="M1443.05,1638.57l5.75-1.74,.84-.25c.46-.14,.26-.86-.2-.72l-5.75,1.74-.84,.25c-.46,.14-.26,.86,.2,.72h0Z"/></g></g><g><path class="as" d="M1511.42,1633.56v2.18c0,.93-.5,1.7-.5,1.7l34.69,26.28s1.04-.54,1.04-1.36v-1.75l-35.22-27.04Z"/><path class="as" d="M1463.01,1629.73s9.05-1.48,11.12,1.69,1,3.75,1,3.75c0,0-7.22-5.76-12.4-3.68"/><path class="as" d="M1439.77,1638.78l-7.07,8.24v2.65l7.72-8.87-.65-2.02Z"/></g><path class="ad" d="M1488.97,1720.13s1.16,7.66,3,8.72,3.91-3.09,3.91-5.16c0,2.07,5.18,16.57,7.25,15.54s1.71-5.26-1.22-16.62c0,0,.18,3.15,3.29,2.11,3.11-1.04,3.86-4.59,3.86-4.59l-1.82-9.12-18.28,9.12Z"/><g><path class="b`" d="M1496.92,1676.03s32.14-.75,14,31.22c-9.86,12.29-30.57,15.4-44.04,13.33-13.47-2.07-25.93-18.21-25.91-22.05s2.09-5.92,4.16-5.92,12.43,3.11,14.5,3.11c1.63,0,7.14,.64,12.95-1.63,1.55-.61,3.13-1.42,4.66-2.52,6.35-4.53,11.9-10.65,17.35-14.19,.78-.51,1.56-.96,2.33-1.35Z"/><g><path class="ai" d="M1496.92,1705.96s-3.11-7.14-7.25-7.14-8.3,5.46-8.29,6.87,6.77,.48,8.05-1.13c1.28,1.5,1.54,4.02,2.96,4.83"/><g><g><path class="q" d="M1496.92,1689.49c-2.07,2.07-6.11,2.83-11.34-4.8,5.13-4.52,6.16-5.27,6.16-5.27,0,0,10.36,4.89,5.18,10.07Z"/><path class="q" d="M1488.56,1695.68c-2.49,1.55-6.92,3.47-10.29-5.15,5.18-4.14,7.51-5.83,7.51-5.83,0,0,8.99,7.1,2.78,10.97Z"/><path class="q" d="M1482.42,1693.64s1.04,6.22-2.07,7.25-7.25-3.25-7.77-6.81c.52-.45,7.29-4.24,7.29-4.24l2.55,3.79Z"/><path class="q" d="M1463.85,1695.78s.96,8.22,6.14,7.18,4.76-5.94,4.76-5.94l-.94-3.71s-1.4,1.1-4.86,1.37-5.1,1.1-5.1,1.1Z"/><path class="q" d="M1465.39,1698.6s-.58,6.44-3.69,6.44-6.22-2.07-6.22-4.14,.37-5.88,.37-5.88c0,0,2.74,.7,3.77,.7s5.1,.13,5.1,.13l.66,2.76Z"/><path class="q" d="M1449.98,1693.56s-1.01,8.61,2.25,9,4.81-1.52,4.81-1.52l.52-4.3-.52-1.74-4.28-.76-2.78-.69Z"/></g><g><path class="q" d="M1453.69,1714.43s3.86-5.25,6.97-4.22,4.3,6.88,3.18,9.66c-2.23-.67-.82,.15-5.11-2.16-4.29-2.31-5.05-3.28-5.05-3.28Z"/><path class="q" d="M1475.45,1721.17s-.36-7.84-4.51-7.84-7.17,4.39-7.17,4.39v2.16s2.07,.7,5.45,1.01c3.85,.35,6.23,.29,6.23,.29Z"/><path class="q" d="M1474.13,1718.5s5.18-6.22,9.32-7.25,8.55,4.74,8.93,6l.39,1.26s-1.04,2.07-10.71,2.27c-3.88,.08-4.25,.99-6.61,.39s-1.32-2.66-1.32-2.66Z"/><path class="q" d="M1504.52,1713.1s-5.56-9.36-9.69-6.64-3.09,8.26-3.09,9.63,1.04,2.41,1.04,2.41c0,0,4.21-.44,6.25-1.26s5.5-4.15,5.5-4.15Z"/><path class="q" d="M1512.56,1704.17s-5.65-6.95-8.86-3.12c-3.21,3.83-1.05,8.9-1.33,9.03s2.14,3.02,2.14,3.02c0,0,3.75-2.17,5.33-4.6,2.61-2.43,2.82-2.09,2.72-4.33Z"/></g></g></g></g><g><g><path d="M1458.1,1683.04c-.86,0-1.57-.15-2.07-.3-4.16-1.25-3.52-10.72-2.55-15.11,.01-.06,.04-.12,.07-.17,4.6-7.07,10.39-47.04,10.45-47.44,.04-.28,.3-.48,.59-.44,.28,.04,.48,.3,.44,.59-.24,1.65-5.85,40.31-10.56,47.78-1.1,5.12-1.08,12.93,1.86,13.81,1.01,.3,3.05,.61,5.32-.79,2.53-1.56,5.94-5.67,7.83-16.41,2.03-17.31,2.06-21.62,2.06-21.66,0-.29,.23-.52,.52-.52h0c.29,0,.52,.23,.52,.52,0,.17-.02,4.37-2.08,21.82-1.58,8.96-4.38,14.72-8.31,17.14-1.5,.93-2.92,1.2-4.09,1.2Z"/><g><path d="M1545.94,1687.28c-.53,0-.9-.12-.94-.13-.14-.05-.21-.19-.16-.33,.04-.14,.19-.21,.33-.16,.01,0,1.27,.4,2.4-.42,1.26-.91,1.92-3.01,1.92-6.07,0-.96-.14-1.83-.43-2.6-1.88-5.07-6.81-3.93-7.02-3.88-.14,.03-.28-.05-.31-.19s.05-.28,.19-.31c.05-.01,5.59-1.3,7.63,4.2,.31,.83,.46,1.76,.46,2.78,0,3.29-.72,5.47-2.14,6.5-.68,.49-1.38,.61-1.93,.61Z"/><path d="M1543.02,1679.91c-.07,0-.13-.03-.18-.08-.1-.1-.1-.27,0-.37,3.75-3.75,6.94-.99,6.97-.97,.11,.1,.12,.26,.02,.36-.1,.11-.26,.12-.37,.02-.11-.1-2.86-2.45-6.26,.95-.05,.05-.12,.08-.18,.08Z"/></g><path d="M1519.71,1706.46c-.08,0-.15-.02-.22-.07-.18-.12-.22-.36-.1-.54,.09-.13,9.1-13.45,2.04-27.58-7.02-14.04-28.34-8.15-28.55-8.09-.21,.06-.42-.06-.48-.27-.06-.21,.06-.42,.27-.48,.22-.06,22.15-6.13,29.46,8.49,7.27,14.54-2.01,28.23-2.1,28.36-.08,.11-.2,.17-.32,.17Z"/><path d="M1456.52,1723.16c-.07,0-.13-.01-.2-.04l-5.69-2.38c-15.05-6.83-22.42-17.03-23.04-24.11-.26-2.9,.62-5.21,2.48-6.48,6.13-4.22,14.89-.21,15.26-.04,.26,.12,.37,.43,.25,.69-.12,.26-.43,.37-.69,.25-.09-.04-8.6-3.93-14.24-.04-1.54,1.06-2.26,3.02-2.04,5.54,.6,6.78,7.77,16.6,22.43,23.25l5.67,2.37c.26,.11,.39,.41,.28,.68-.08,.2-.28,.32-.48,.32Z"/></g><g><path d="M1336.18,1821.17c-1.41,0-2.91-.33-3.91-1.33-1.62-1.62-1.45-4.42,.51-8.33,5.26-10.52,24.01-10.71,24.81-10.71,.23,.03,3.46,.62,4.61,4.01l-.98,.33c-.95-2.79-3.6-3.3-3.71-3.32-.1,0-18.82,.19-23.79,10.14-1.71,3.42-1.95,5.89-.7,7.14,1.57,1.57,5.07,1.03,6.22,.45,.64-.32,2.11-1.39,3.81-2.63,3.84-2.79,8.62-6.27,10.86-6.47l.09,1.03c-1.96,.18-7.01,3.85-10.35,6.28-1.81,1.32-3.24,2.36-3.96,2.71-.65,.33-2.04,.68-3.5,.68Z"/><path d="M1332.59,1813.63c-4.4-.18-9.34-4.95-9.55-5.15l.72-.74s4.86,4.69,8.87,4.86l-.04,1.03Z"/><path d="M1337.13,1807.46c-2.83-1.2-4.29-5.8-4.35-6l.99-.31s1.37,4.34,3.76,5.35l-.4,.95Z"/><path d="M1320.29,1825.2v-1.04c.11,0,11.32-.02,17.37-2,.65-.77,.41-1.63,.4-1.67l.99-.31c.02,.06,.47,1.54-.72,2.78l-.09,.09-.12,.04c-6.17,2.07-17.35,2.1-17.83,2.1Z"/><path d="M1328.79,1816.34c-2.38,0-5.02-.4-5.47-.47l.16-1.02c1.79,.28,6.74,.84,8.15,.06l.5,.91c-.72,.4-1.99,.53-3.35,.53Z"/><path d="M1320.35,1832.42h-.05v-1.04h0c.47,0,20.57-.04,24.49-3.96,.69-.69,1.45-1.66,1.15-2.39-.49-1.18-3.54-1.91-7.98-1.91v-1.04c3.6,0,8.07,.44,8.94,2.55,.42,1.01-.04,2.19-1.37,3.52-4.18,4.18-23.76,4.26-25.18,4.26Z"/><path d="M1336.1,1841.31c-.29,0-.58-.02-.86-.06-3.17-.45-10.03-3.16-12.02-3.96l-3.45-.7,1.04-1.04,2.27,.56c.09,.04,8.79,3.61,12.31,4.11,3.36,.49,7.54-2.55,8.41-3.96,.78-1.26-.31-3.6-1.18-4.78-.47-.64-4.12-.54-7.22-.05l-.16-1.02c1.66-.26,7.14-1.01,8.22,.46,.92,1.25,2.37,4.09,1.23,5.93-.93,1.5-4.94,4.5-8.57,4.5Z"/></g></g><g><g><path class="ab" d="M1358.04,1716.25l-22.88,87.91,1.97,3.31,2.02-2.29,23.05-87.47s-.07-2.68-4.15-1.46Z"/><path class="ab" d="M1326.79,1838.67l-8.05,40.39s1.04,2.07,3.11,1.04c1.04-2.07,9.33-39.9,9.33-39.9"/></g><g><path class="au" d="M1362.19,1717.71s11.45,2.87,15.6,9.08c4.14,6.22,10.36,22.79,18.65,26.93,8.29,4.14,21.75,6.73,32.11,3.88,1.04,15.28,0,18.89,0,30.81s.46,22.27,.46,22.27c-7.71,5.19-28.43,15.55-41.9,7.27s-18.78-25.85-42.02-36.75c5.31-18.7,17.1-63.49,17.1-63.49Z"/><path class="n" d="M1352.48,1754.57s11.38,9.75,13.17,14.81,1.78,12.31,6.96,18.53c6.57,7.88,18.55,14.5,39.84,7.25,21.28-7.25,16.1-6.74,16.1-6.74l.46,22.27s-19.74,14.3-32.37,10.26c-5.38-.93-13.79-1.24-27.19-20.76-11.27-10.05-10.43-11.19-24.35-18.98,2.2-9.37,7.39-26.63,7.39-26.63Z"/></g></g><g><g><g><path class="ar" d="M1528.03,1738.95s12.4,1.31,11.36,16.85c-2.07,10.36-4.14,16.57-4.14,16.57l-14.61-10.5s11.5-7.11,11.5-11.25-3.04-10.91-4.11-11.67Z"/><path class="ar" d="M1515.31,1763.94l-8.04,16.71s-16.57-5.2-10.36-32.13c3.11,3.12,9.86,16.31,18.4,15.41Z"/></g><g><path class="ar" d="M1545.07,1954.81l-1.01-.24c4.07-17.31-27.54-189.5-27.86-191.23l1.02-.19c1.31,7.1,31.97,174.14,27.85,191.66Z"/><g><ellipse class="ar" cx="1518.67" cy="1774.44" rx="2.07" ry="3.11"/><ellipse class="ar" cx="1521.78" cy="1791.02" rx="2.07" ry="4.14"/><circle class="ar" cx="1525.92" cy="1813.81" r="3.11"/><circle class="ar" cx="1529.03" cy="1836.6" r="3.11"/><ellipse class="ar" cx="1533.18" cy="1860.42" rx="3.11" ry="4.14"/><ellipse class="ar" cx="1537.32" cy="1884.25" rx="2.07" ry="5.18"/><circle class="ar" cx="1539.39" cy="1903.93" r="3.11"/><ellipse class="ar" cx="1543.53" cy="1925.68" rx="2.07" ry="3.11"/><ellipse class="ar" cx="1544.57" cy="1941.22" rx="3.11" ry="4.14"/></g></g></g><g><path class="ar" d="M1516.24,1941.37c-2.03-4.87-4.73-10.22-5.55-10.35l-.65-.33c.2-.4,.51-.45,.68-.45,1.58,.05,4.89,7.59,6.24,10.83l-.72,.3Z"/><path class="ar" d="M1612.58,1944.81c-.12,0-.23-.09-.25-.22-.02-.14,.07-.27,.21-.3,.01,0,1.36-.23,3.27-1.89,1.33-1.15-1.82-6.32-4.12-9.31-.09-.11-.07-.28,.05-.36,.11-.09,.28-.07,.36,.05,.64,.83,6.18,8.18,4.05,10.02-2.04,1.76-3.47,2-3.53,2.01-.01,0-.03,0-.04,0Z"/></g></g><path class="av" d="M1596.98,1962.23s2.49,20.43,8.71,25.61,10.46,5.49,13.52,4.3c-.05-2.23-.05-29.16-2.12-35.38-4.14,1.04-20.1,5.47-20.1,5.47Z"/><path class="av" d="M1510.99,1987.11s16.68-3.81,16.33-19.15c-5.89-.64-17.97-.84-17.97-.84l1.64,19.99Z"/><g><line class="av" x1="1557.71" y1="1969.46" x2="1560.11" y2="1994.06"/><rect class="af" x="1556.84" y="1969.41" width="4.14" height="24.71" transform="translate(-185.14 160.8) rotate(-5.57)"/></g><g id="g" class="l"><path d="M1462.42,1527.73s-16.65,5.21-10.84,25.93c.06,.2,.35,.16,.35-.04,0-4.52,.78-19.54,10.48-25.88Z"/><path d="M1468.66,1538.33s.3-14.45,13.55-17.06c0,0-5.39,3.9-8.5,9.45s-3.9,9.32-5.06,13.65,0-6.04,0-6.04Z"/><path d="M1442.62,1543.5s-5.89,4.17-3.97,14.53l1.76,7.25s-1.13-9.5,.03-12.52c1.16-3.02,4.6-11.18,7.02-11.24"/><path d="M1432.83,1558.03s-11.95-1.04-7.8,18.65c-4.14,6.22-12.08,20.16,5.36,27.69,2.93,.28,8.11,.28,12.25-8.01-8.29,7.25-14.5,5.18-17.61,0-3.11-5.18,5.23-19.81,5.23-19.81,0,0-4.56-7.13-2.82-11.27s5.39-7.25,5.39-7.25Z"/><path d="M1441.61,1583.93s.02,5.39,8.82,5.8c7.23-1.25,5.97-2.12,5.97-2.12,0,0-5.13,1.09-8.92-.78-3.79-1.87-7.36-6.49-7.65-8.32s1.78,5.42,1.78,5.42Z"/><path d="M1456.47,1574.4s-.12,10.13,11.67,8.79c4.93-1.64,6.1-2.44,6.35-2.92s-4.81,2.41-9.01,.96c-4.2-1.45-10.41-10.77-10.41-12.84l1.4,6.02Z"/><path d="M1473.21,1581.23s6.83-4.56,5.23-12.84c0,0-3.67,10-5.23,10.7,.51,1.73-5.06,2.55-5.06,2.55l5.06-.4Z"/><path d="M1492.18,1556.27s.35,9.2,8.04,11.18c5.01,.85,8.13-.27,8.13-.27,0,0-6.99,.17-9.93-1.9s-6.87-13.27-6.98-13.89,.75,4.87,.75,4.87Z"/><path d="M1523.38,1568.39s-2.46,11.48,.36,15.58,6.59,6.72,6.59,6.72c0,0-5.85-6.77-5.85-9.87s0-18.65,1.04-19.68l-2.14,7.25Z"/><path d="M1504.8,1531.1s16.57-9.32,24.86,7.25c2.07,6.22,.67,6.03,.67,6.03,0,0-3.55-10.79-11.03-13.28-6.22-2.07-10.65-.66-16.2,2.26l1.7-2.26Z"/><path d="M1535.87,1587.04s-8.73,11.46-2.81,22.31c5.62,10.29,11.69,9.81,16.06,10.84-7.84-4.14-12.21-6.22-14.28-12.43s-2.07-13.47,1.04-20.72Z"/><path d="M1433.4,1603.58s-2.16,62.75,1.98,84.74c0,0,2.15-.15,4.15,.24,2.09,.41,4.14,1.04,4.43,1.25,.32,.24-1.89-22.09-1.89-44.83-2.54-3.03-3.42-9.74-3.58-14.43,.23-3.85,1.83-6.98,2.07-10.36,.87-12.09,.45-21.14,1.31-22.25"/><path d="M1438.73,1689.54s-10.59-1.51-10.59,6c0,5.71,5.21,15.17,20.22,23.25-5.21-5.58-16.92-15.98-17.01-20.52-.19-4.94-.66-6.72,7.39-8.74Z"/><path d="M1442.64,1716.73s12.44,42.24,53.87,31.9c10.36-3.1,16.58-9.26,16.58-9.26,0,0-24.87,11.97-40.93,3.37-16.06-8.6-23.81-23.94-23.81-23.94l-5.72-2.07Z"/><path d="M1496.51,1748.63s8.29,13.48,15.54,15.55c5.08,1.45,8.24-2.09,10.34-3.63s4.59-3.47,4.59-3.47c0,0-8.62,4.04-12.81,3.5-2.36-.31-10.36-10.79-14.55-14.01-3.24-2.49-3.11,2.06-3.11,2.06Z"/><path d="M1455.07,1689.94s13,2.76,19.97-2.42,9.06-7.26,9.06-7.26c0,0-8.31,10.37-13.49,11.4-5.18,1.04-15.54-1.72-15.54-1.72Z"/><path d="M1467.5,1723.78s13.57,2.92,17.66,1.46c0,0-7.76,1.92-11.67,1.26s-10.06-3.24-10.06-3.24l4.07,.52Z"/><path d="M1448.06,1611.81s-14.27,1.33-11.92,24.02c2.35,22.68,18.76,19.69,22.47,12.9,1.64-4.72,.97-4.86,.97-4.86,0,0-4.36,6.29-8.06,6.32s-11.1-1.62-13.1-15.3c.15-12.85,2.63-20.06,9.64-23.09Z"/><path d="M1457.14,1649.77s-3.38,13.58-4.8,15.31-3.63,14.75-2.01,16.53,5.5,4.51,8.22,3.66,5.28-5.02,5.28-5.02c0,0-4.63,3.64-6.7,2.87s-4.71-2.85-4.43-6.99-.19-7.73,.56-8.53,5.08-12.8,5.28-15.09c.65-7.45-1.42-2.73-1.42-2.73Z"/><path d="M1488.16,1603.58s-20.29,6.19-16.84,25.9,6.95,21.78,21.77,24.89c12.03-3.11,13.76-6.72,13.76-6.72,0,0-5.74,4.9-14.77,3.74s-16.28-6.4-18.35-21.91c0-11.34,2.98-19.71,14.44-25.9Z"/><path d="M1462.67,1631.45s2.47-1.57,7.94,1.16c2.07,1.04,2.3,1.53,4.12,2.63l-1.32,1.77s-2.8-1.29-5.91-2.32-5.18,0-5.18,0l.35-3.23Z"/><polygon points="1510.51 1637.53 1510.51 1639.44 1545.2 1665.77 1545.2 1663.81 1510.51 1637.53"/><path d="M1541.32,1673.6s5.4-.5,6.19,4.12c.79,4.62,.95,7.24-2.75,9.04,0,0,1.47,.76,2.51-.27s2.07-3.11,2.07-5.18,0-5.59-3.11-6.94-4.91-.77-4.91-.77Z"/><path d="M1542.79,1679.93s.73-.86,3.12-.78,2.57,.78,2.57,.78l-.18-1.74s-2.74-1.71-5.51,1.74Z"/><path d="M1541.31,1690.96s-1.94,26.4-16.12,42.04l-4.54,3.31s18.84-28.45,20.66-45.35Z"/><path d="M1443.64,1590.49s-.37,1.19,4.49,1.97,9.95-6.89,9.95-6.89c0,0-1.91,4.78-9.19,4.15-5.24-1.25-5.05-1.73-5.05-1.73l-.2,2.49Z"/><path d="M1459.41,1583.32s14.02,7.19,16.24-4.39c-.89,.85-5.43,6.63-15.59,2.7l-.64,1.47v.21Z"/><path d="M1529.53,1590.09s-5.47,15.3,1.47,23.22c6.94,7.91,14.19,5.84,14.19,5.84l-.54,.15s-10.24-1.24-13.66-15.72c.42-8.23,1.76-11.37,1.76-11.37l-3.24-2.13Z"/><path d="M1527.48,1588.6s-8.98-.82-7.03-16.73c.8,.29,1.93,1.84,1.93,1.84,0,0-2.25,8.17,5.1,14.89Z"/><path d="M1492.7,1565.54s5.69,6.87,16.14,1.75c-.85,.12-7.84,1.12-10.09,.07s-4.26-4.01-4.26-4.01c0,0-1.46,1.41-1.8,2.18Z"/><path d="M1496.51,1748.63s-30.04,14.51-38.33,35.23c-6.22,23.83-25.83,86.74-25.35,96.2-1.1,10.64-1.49,9.46-1.49,9.46,0,0,16.48-54.9,31.2-98.41,0,0,6.28-15.3,14.43-21.64l18.5-15.09,1.04-5.76Z"/><path d="M1478.31,1817.01s12.65,11.19,32,113.33c-2.74,5.39-4.75,19.15-4.75,19.15l4.53,5.46,24.76,.96s-20.8-42.84-24.86-63.26c-.23-1.16-1.04-4.14-2.07-8.29-4.55-18.21-12.79-56.99-12.79-56.99l-17.25-19.52h-5.97l6.41,9.18Z"/><path d="M1379.45,1826.33s-9.83,2.01-10.09,4.12c1.54,2.13,6.99,8.32,6.99,8.32,0,0,8.29-9.32,3.11-12.43Z"/><path d="M1355.72,1842.09s-9.85,12.88,2.28,13.58l7.68-5.85-3.9,.34-6.06-8.07Z"/><path d="M1376.34,1838.76s-12.86,14.14-18.34,16.91c2.5,2.44,53.75,60.71,73.34,63.33,5.46,.56,10.03-1.53,13.65-4.48,6.62-5.39,10.08-13.61,10.08-13.61,0,0-12.43,15.54-24.86,12.43-5.41-1.35-51.9-48.53-54.96-51.72-3.06-3.19-7.71-5.62-5.9-9.07,1.81-3.44,6.99-13.8,6.99-13.8Z"/><path d="M1495.11,1757.21s-6.85,18.52,9.68,25.61c-.05-2.23,2.07-2.07,2.07-2.07h0s-13.15-4.6-11.75-23.54Z"/><polygon points="1517.09 1764.04 1529.66 1771.43 1534.84 1772.46 1520.11 1761.89 1517.09 1764.04"/><path d="M1516.62,1772.65s-3.01,3.65,1.91,5.87l-.16-.88s-3.39-.66-1.75-4.99Z"/><path d="M1519.3,1790.08s-3.52,5.22,2.38,6.23l-.19-1.06s-.85,.21-1.53-.93-.67-3.2-.67-4.24Z"/><path d="M1522.41,1813.48s-2.19,3.44,3.05,4.52l-.17-.99s-2.88,.2-2.88-3.53Z"/><path d="M1525.54,1836.29s-1.66,3.92,3.82,4.75l-.21-1.24s-3.58,.24-3.61-3.5Z"/><path d="M1529.77,1859.44s-2.97,5.41,3.64,6.35l-.18-1.13s-4.39-.08-3.46-5.22Z"/><path d="M1535.15,1881.64s-3.68,6.45,2.15,9.24l-.2-1.35s-2.68,.8-1.95-7.89Z"/><path d="M1535.93,1903.45s-1.54,4.76,3.86,4.74l-.16-1.13s-3.65,.99-3.71-3.61Z"/><polygon points="1360.02 1716.06 1335.87 1806.13 1334.75 1804.25 1357.63 1716.34 1360.02 1716.06"/><polygon points="1328.47 1839.53 1319.88 1880.49 1318.33 1879.16 1326.38 1838.77 1328.47 1839.53"/><path d="M1330.77,1796.8s-10.36-2.58-11.4,6.74c0,6.22,0,4.29,0,4.29,0,0,0-11.56,11.4-11.03Z"/><path d="M1314.67,1806.66s-3.59,2.6-1.52,8.03c2.07,4.64,2.07,4.39,2.07,4.39,0,0-1.68-5.41-1.36-7.37s2.42-6.16,2.42-6.16l-1.62,1.1Z"/><path d="M1312.11,1819.08s-1.64,5.98,2.29,9.21c2.69,2.3,1.89,1.27,1.89,1.27,0,0-3.29-3.91-3.21-5.12,.08-2.25-.97-5.35-.97-5.35Z"/><path d="M1310.38,1827.35s-1.37,13.4,9.5,9.82c0,0-2.59,1.6-6.73-3.58-1.04-3.11-2.66-6.35-1.85-7.84l-.92,1.61Z"/><path d="M1350.53,1801.48s-23.11,6.33-18.73,18.64c1.51,1.84,4.27,.37,6.22,0s3.78-2.49,3.78-2.49c0,0-5.86,2.49-7.93,.41-2.07-2.07,1.2-10.34,16.66-16.57Z"/><path d="M1332.37,1811.6s-9.02-4.02-9.46-6.04,.17,2.55,.17,2.55c0,0,6.58,5.38,8.17,5.06s1.44-.86,1.44-.86l-.31-.72Z"/><path d="M1318.33,1833.65s7.06,5.42,14.93,6.3c1.22,.73,2.98,.66,2.98,.66l2.89-1.07s-8.24-.93-11.41-2.41-10.06-4.62-10.06-4.62l.67,1.14Z"/><polygon points="1361.78 1850.16 1349.41 1833.58 1350.53 1833.58 1365.68 1849.82 1361.78 1850.16"/><path d="M1353.18,1811.66s-5.97,5.35-8.5,7.42-2.65,2.68-2.65,2.68l1.06,.95-4.59-.51-.48-2.08,1.87-.6,6.39-4.57,4.33-3.28h2.57Z"/><path d="M1549.34,1736.21c3.11-2.07,4.14-2.07,6.48-3.52,9.59-7.67,74.32-78.32,89.74-99.03,16.69-36.26,48.81-143.99,48.81-145.03s5.2-6.37,5.2-6.37c0,0-.62,6.66,3.69,8.16-4.57,37.01-33.29,107.25-50.8,147.12-20.15,39.1-82.38,97.62-86.55,101.79l-23.38-.76,6.81-2.35Z"/><path d="M1668.08,1441.57s-5.83,3.54,.39,7.69c5.18,1.04,11.4,2.07,12.43,3.11s9.32,10.36,9.32,10.36c0,0,7.76,1.99,8.54,3.59-.25-2.55-5.43-4.62-5.43-4.62l-6.22-6.22s-2.61-4.74-4.93-5.48-15.53-.57-14.1-8.43Z"/><path d="M1695.03,1395.43s-8.09,6.56-5.41,26.57c2.26,20.33,2.96,24.2,5.41,27.8,0,0-4.8-28.51-3.77-33.69,1.04-5.18,1.32-16.34,3.77-17.49s3.35-.23,3.35-.23c0,0-.62-2.91-3.35-2.95Z"/><path d="M1710.94,1389.17s-13.14,.85-9.68,44.45c0,0,.35-39.27,9.68-44.45Z"/><path d="M1719.74,1378.83s-8.17,12-7.45,47.95c0,0,2.54-26.44,3.7-29.43,1.16-2.99,2.2-15.43,4.27-16.46s3.11-2.07,3.11-2.07l-3.63,.02Z"/><path d="M1731.57,1398.62s-4.05-9.44-8.19,34.07c0,0,2.89-16.67,4.55-21.28,1.66-4.62,2.73-9.26,3.64-9.96,1.13-.87,3.2,.16,3.2,.16,0,0,.85-.8-3.2-2.99Z"/><path d="M1740.99,1407.82s-6.22,2.07-8.29,23.83c0,0,4.14-14.5,5.18-16.57s2.07-4.14,3.11-4.66,2.39-1.2,2.39-1.2l-2.39-1.39Z"/><path d="M1723.38,1439.27s-9.81,2.06-11.12,16.38l.49-.36s4.42-12.54,10.63-16.02Z"/><path d="M1714.81,1446.55s-9.04-2.47-12.15,2.71c0,0,10.81-2.26,11.62-1.65s.53-1.06,.53-1.06Z"/><path d="M1510.08,1954.94s-3.21,3.99-1.14,12.28c2.07,0,24.86,1.04,24.86,1.04,0,0-24.86-2.07-17.25-13.02l-6.47-.3Z"/><path d="M1552.77,1955.24s-1.35,.59-1.35,2.66-1.04,8.73,.52,10.06,4.06,1.7,4.06,1.7c0,0-4.22,.37-4.92,0s-1.7-.85-1.72-5.79c-.03-4.7-2.49-8.18,3.41-8.63Z"/><path d="M1548.83,1958.16s-.53-.26-1.56,.77,.02,10.89,1.56,11.66,19.16,.77,20.19-.26,2.94-1.89,2.94-1.89c0,0-19.16,1.58-20.89,1.22s-1.73-8.65-2.24-11.5Z"/><path d="M1508.94,1967.22s2.07,40.4,4.14,42.47c-1.04,4.14-25.9,70.01-30.04,73.85-3.11,8.72-27.97,71.18-27.97,76.36s-9.32,175.45,0,193.91c0,0,6.85,4.33,13.27,3.11-15.34-8.48-1.39-188.32,.44-194.74,1.83-6.42,58.5-145.74,58.13-154.29-.36-8.55-2.48-40.05-2.48-40.05l-15.5-.62Z"/><path d="M1557.3,2021.48s16.53-12.13,32.77,61.08c20.05,69.75,30.51,106.55,37.88,113.7,8.53-.2,7.11,3.53,20.71-4.5s11.03-6.51,11.03-6.51c0,0-19.19,5.73-23.33,4.69s-41.06-186.72-79.06-168.46Z"/><path d="M1642.57,2126.75s8.29,36.26,11.4,38.33l3.11,2.07s-13.41,16.93-14.5-40.4Z"/><path d="M1725.45,2095.67s6.8-1.13,5.99,.99-80.55,61.6-80.55,61.6l-1.5-4.85s30.47-20.45,76.05-57.74Z"/></g></g><g id="h"><path class="w" d="M358.17,337.87s18.6-6.73,31.92,12.64c9.69,20.58,49.64,110.19,49.64,110.19l39.96-43.59s-12.11-15.74-9.69-21.8c2.42-6.05,1.21-4.84,4.84-7.27,1.21-2.42,1.21-10.9,3.63-12.11,2.42-1.21,4.84-1.21,7.27,2.42,1.21-2.42,2.42-6.05,3.63-6.05s4.84,1.21,6.05,1.21,2.42-49.64,2.42-49.64c0,0,1.21-6.05,4.84-6.05s4.84,6.05,4.84,7.27,2.42,31.48,2.42,46.01c2.42,0,3.63-1.21,6.05,0s2.42,2.42,3.63,3.63,3.63-6.05,4.84-6.05,6.05-1.21,9.69,3.63c1.21,7.27,0,21.8-1.21,25.43-1.21,3.63-73.79,118.61-86.54,121.66-12.75,3.05-24.86,5.48-30.91-13.9-8.48-15.74-21.8-44.8-21.8-44.8,0,0-15.74-48.43-15.74-49.64s-19.81-73.18-19.81-73.18Z"/><path class="o" d="M186.83,339.87s25.27,4.59,18,53.02c-7.27,48.43-24.22,41.17-24.22,41.17l6.05,193.73s61.75,41.17,201-2.42c0,0,4.84-144.09,8.48-158.62-3.63-14.53-13.32-81.13-10.9-85.97-2.42-13.32-2.42-37.54-8.48-44.8-9.69-3.63-38.75,0-38.75,0,0,0-10.9,32.69-59.33,44.8-26.64-3.63-33.9-19.37-60.54-33.9-14.53-9.69-31.32-7.01-31.32-7.01Z"/><g><path class="w" d="M266.58,88.37c-73.89,0-133.8,59.9-133.8,133.8,0,7.51,.63,14.86,1.82,22.03-10.55,3.7-18.16,14.12-18.16,26.4,0,15.38,11.93,27.85,26.64,27.85,4.19,0,8.15-1.01,11.68-2.81,23.92,36.34,65.07,60.33,111.83,60.33,73.89,0,133.8-59.9,133.8-133.8s-59.9-133.8-133.8-133.8Z"/><path class="w" d="M338.02,338.41c6.21-15.52-28.71-20.58-61.15-20.58s-55.09,13.55-55.09,30.27,27.85,35.11,56.91,35.11c30.27-4.84,52.07-26.64,59.33-44.8Z"/></g><g><rect class="t" x="241.53" y="469.91" width="126.19" height="75.36" rx="6.73" ry="6.73" transform="translate(-30.95 19.91) rotate(-3.56)"/><rect class="a`" x="242.55" y="502.85" width="126.19" height="42.39" rx="6.73" ry="6.73" transform="translate(-31.97 20) rotate(-3.56)"/><polygon class="ay" points="242.31 525.86 368.21 516.33 366.74 489.93 240.84 499.52 242.31 525.86"/></g><path class="w" d="M197.56,344.46c-3.19-2.12-18.16-15.74-33.9,16.95-3.63,18.16-12.11,25.43,14.53,71.44,26.64,46.01,38.75,106.55,52.07,115.03,4.84,6.05,10.9,10.9,14.53,10.9s82.34-96.87,83.55-98.08,19.37-10.9,20.58-14.53c1.21-3.63,4.84-15.74-4.84-21.8-3.63,1.21-6.05,2.42-6.05,7.27,0,0,0-7.27-6.05-7.27s-7.27,7.27-7.27,7.27l1.21-55.7s0-6.05-4.84-6.05c-10.9,0-8.48,59.33-8.48,59.33,0,0-1.21-7.27-4.84-7.27s-7.27,3.63-6.05,9.69c0,0-2.42-7.27-6.05-6.05-3.63,1.21-6.05,3.63-6.05,8.48-1.21,0-13.34,3.1-11.51,14.26,3.04,7.53,11.51,12.37,11.51,12.37,0,0-30.27,37.54-37.54,39.96-2.42-3.63-44.8-101.71-46.01-107.77,1.21-10.9,1.21-24.22,1.21-24.22,0,0-6.05-21.8-9.69-24.22Z"/><g><path class="ao" d="M341.65,945.04s-23.01,10.9-20.58,23.01c2.42,12.11,8.48,23.59,20.58,30.56,12.11,6.97,33.9,31.19,42.38,32.4,8.48,1.21,15.74-4.84,16.95-10.9,1.21-6.05-6.57-43.76-21.8-66.6-4.84-7.27-8.48,1.21-12.11-2.42s-25.43-6.05-25.43-6.05Z"/><path class="ao" d="M128.56,735.44c.1-.78,.67-5.23,.93-9.73,.34-5.94-4.13-11.13-10.08-11.51-6.38-.41-15.02,.24-22.29,5.06-3.09,2.05-4.92,5.54-4.9,9.24,.08,18.1,.97,49.21,10.68,75.52,.14,.37,.34,.73,.6,1.03,3.98,4.38,8.8,1.15,10.31-.06,.31-.25,.56-.55,.75-.9,1.68-2.98,10.46-18.96,11.55-30.99,1.16-12.77,2.32-35.57,2.42-37.42,0-.09,.01-.15,.02-.24Z"/></g><path class="y" d="M190.87,657.18s10.32,25.11,10.32,36-6.17,63.07-17.61,88.44c-5.94,13.22-11.45,29.01-11.45,29.01,0,0-38.75-73.86-42.38-78.7s-15.74-3.63-16.95,6.05c2.42,8.48,13.32,48.43,16.95,55.7,3.63,7.27,23.01,55.7,35.11,65.39,7.27,3.63,10.9,2.51,21.8-1.77,0,0,38.75-53.93,41.17-82.99,8.48-26.64,16.95-52.07,23.01-55.7s16.95-15.74,72.65-10.9c9.69,4.84,21.8,23.01,23.01,30.27,1.21,7.27,16.95,77.49,19.37,90.81,2.42,13.32-4.84,59.33-27.85,117.45,1.21,9.69,6.05,10.9,14.53,13.32,8.48,2.42,16.95-3.63,18.16-4.84s37.54-108.98,36.33-122.3c-1.21-13.32-20.58-136.83-23.01-146.51-1.21-12.11,3.63-29.06,3.63-29.06,0,0-185.32,5.49-196.79,.32Z"/><path class="am" d="M186.66,627.8s1.21,25.43,6.05,33.9c7.27,3.63,56.91,18.16,92.02,16.95s102.92-21.8,102.92-21.8c0,0,4.84-20.58,0-31.48-10.9,3.63-80.87,19.09-108.24,19.84-27.37,.75-72.17-2.89-92.76-17.42Z"/><g><path class="p" d="M149.13,243.96s15.74-73.86,94.45-56.91,142.88-21.76,142.88-102.92c-6.05,6.05-12.11,21.8-15.74,23.01-1.21-4.84-2.14-17.56-2.14-17.56,0,0-8.76,16.35-13.6,18.77-6.05-4.84-96.87-47.22-173.15-12.11-76.28,35.11-55.7,154.99-55.7,154.99,0,0,4.84-4.84,10.9-6.05,4.9-.98,12.11-1.21,12.11-1.21Z"/><path class="p" d="M358.17,159.4s27.07,22.81,33.13,38.55c2.42,3.63,7.27,3.63,7.27,3.63,0,0,.19-7.51-2.42-20.59-3.63-18.16-8.3-32.05-20.5-45.08-12.28-.64-17.47,23.48-17.47,23.48Z"/></g><path class="al" d="M251.96,235.32s-7.18,8.64-9.6,11.06c-2.42,2.42-3.74,12.38-2.48,14.67,1.27,2.28,5.48,8.1,5.79,11.85,.32,3.75-2.74,16.22,0,18.46,2.74,2.24,6.26,8.73,9.35,9.12,3.08,.39,6.32-1.6,8.33,0s9.98,5.85,12.05,4.33,15.39-8.78,17.81-7.57c2.42,1.21,13.32-9.69,14.53-12.11,1.21-2.42,4.84-9.69,7.27-12.11,2.42-2.42,3.63-14.53,2.42-18.16-1.21-3.63-1.21-14.53-3.63-15.74s-9.69-6.05-9.69-7.27-3.92-8.48-6.8-8.48-43.02,4.51-45.35,11.94Z"/><path class="t" d="M373.13,251.23c-1.21,8.48-9.69,16.95-18.16,18.16-9.93,1.42-18.16-8.13-18.16-18.16s8.13-18.16,18.16-18.16,19.58,8.23,18.16,18.16Z"/><path class="t" d="M302.9,262.12c0,13.37-12.11,24.22-25.43,24.22-16.15,0-23.01-10.84-23.01-24.22s8.96-24.22,23.01-24.22,25.43,8.48,25.43,24.22Z"/><path class="ak" d="M254.47,266.41s15.74,1.77,25.43-1.86c9.69-3.63,21.09-10.65,21.09-12.65,0-5.51-10.81-18.42-30.05-13.13-18.89,5.2-16.47,25.87-16.47,27.64Z"/><g><path class="p" d="M331.96,220.96s9.69,10.9,24.22,8.48c14.53-3.63,20.58-10.9,20.58-10.9,0,0,4.84-8.48,2.42-12.11-2.42-3.63-7.27-3.63-8.48-1.21s-2.95,10.77-14.8,11.44c-4.58,.67-10.63,1.88-14.26-.54s-7.27-8.48-9.69-6.97c-2.2,1.37-2.42,9.39,0,11.81Z"/><path class="p" d="M283.53,213.69s14.53-6.05,19.37-6.05c6.05,.53,14.53,7.27,0,15.74-12.11,3.63-30.27,4.84-33.9,4.84s-21.61,9.69-22.91,9.69-14.62-1.21,2.33-18.16c9.69-3.63,24.22-4.84,35.11-6.05Z"/></g><path class="r" d="M308.94,297.24s.66,4.28-.57,7.89c-1.23,3.61-.92,7.16,.75,7.2s2.87-2.38,2.87-4.8v-10.29h-3.05Z"/><g><g><line class="t" x1="358.36" y1="252.44" x2="358.97" y2="247.59"/><path d="M358.74,252.44l.53-4.24,.08-.6c.03-.2-.19-.38-.38-.38-.22,0-.35,.17-.38,.38l-.53,4.24-.08,.6c-.03,.2,.19,.38,.38,.38,.22,0,.35-.17,.38-.38h0Z"/></g><g><line class="t" x1="355.94" y1="249.41" x2="361.39" y2="250.66"/><path d="M355.84,249.77l4.77,1.09,.68,.16c.47,.11,.67-.62,.2-.72l-4.77-1.09-.68-.16c-.47-.11-.67,.62-.2,.72h0Z"/></g><g><line class="t" x1="357.46" y1="247.59" x2="360.18" y2="252.44"/><path d="M357.13,247.78l2.39,4.24,.34,.6c.24,.42,.88,.04,.65-.38l-2.39-4.24-.34-.6c-.24-.42-.88-.04-.65,.38h0Z"/></g><g><line class="t" x1="360.48" y1="248.5" x2="356.85" y2="251.53"/><path d="M360.22,248.24l-3.18,2.65-.45,.37c-.16,.13-.13,.4,0,.53,.15,.15,.37,.13,.53,0l3.18-2.65,.45-.37c.16-.13,.13-.4,0-.53-.15-.15-.37-.13-.53,0h0Z"/></g><g><line class="t" x1="360.77" y1="251.91" x2="357.19" y2="248.6"/><path d="M361.04,251.65l-3.14-2.91-.44-.41c-.35-.33-.89,.2-.53,.53l3.14,2.91,.44,.41c.35,.33,.89-.2,.53-.53h0Z"/></g><g><line class="t" x1="359.7" y1="248.3" x2="357.05" y2="252.21"/><path d="M359.38,248.11l-2.32,3.43-.33,.48c-.27,.4,.38,.78,.65,.38l2.32-3.43,.33-.48c.27-.4-.38-.78-.65-.38h0Z"/></g><g><line class="t" x1="355.7" y1="251.07" x2="361.05" y2="249.44"/><path d="M355.8,251.43l4.67-1.42,.68-.21c.46-.14,.26-.86-.2-.72l-4.67,1.42-.68,.21c-.46,.14-.26,.86,.2,.72h0Z"/></g></g><g><g><line class="t" x1="288.13" y1="271.81" x2="288.74" y2="266.97"/><path d="M288.51,271.81l.53-4.24,.08-.6c.03-.2-.19-.38-.38-.38-.22,0-.35,.17-.38,.38l-.53,4.24-.08,.6c-.03,.2,.19,.38,.38,.38,.22,0,.35-.17,.38-.38h0Z"/></g><g><line class="t" x1="285.71" y1="268.78" x2="291.16" y2="270.03"/><path d="M285.61,269.15l4.77,1.09,.68,.16c.47,.11,.67-.62,.2-.72l-4.77-1.09-.68-.16c-.47-.11-.67,.62-.2,.72h0Z"/></g><g><line class="t" x1="287.23" y1="266.97" x2="289.95" y2="271.81"/><path d="M286.9,267.16l2.39,4.24,.34,.6c.24,.42,.88,.04,.65-.38l-2.39-4.24-.34-.6c-.24-.42-.88-.04-.65,.38h0Z"/></g><g><line class="t" x1="290.25" y1="267.88" x2="286.62" y2="270.9"/><path d="M289.99,267.61l-3.18,2.65-.45,.37c-.16,.13-.13,.4,0,.53,.15,.15,.37,.13,.53,0l3.18-2.65,.45-.37c.16-.13,.13-.4,0-.53-.15-.15-.37-.13-.53,0h0Z"/></g><g><line class="t" x1="290.54" y1="271.29" x2="286.96" y2="267.97"/><path d="M290.81,271.02l-3.14-2.91-.44-.41c-.35-.33-.89,.2-.53,.53l3.14,2.91,.44,.41c.35,.33,.89-.2,.53-.53h0Z"/></g><g><line class="t" x1="289.47" y1="267.67" x2="286.82" y2="271.59"/><path d="M289.15,267.48l-2.32,3.43-.33,.48c-.27,.4,.38,.78,.65,.38l2.32-3.43,.33-.48c.27-.4-.38-.78-.65-.38h0Z"/></g><g><line class="t" x1="285.47" y1="270.44" x2="290.82" y2="268.82"/><path d="M285.57,270.8l4.67-1.42,.68-.21c.46-.14,.26-.86-.2-.72l-4.67,1.42-.68,.21c-.46,.14-.26,.86,.2,.72h0Z"/></g></g><path class="r" d="M296.85,397.74s-6.05,3.63-4.84,6.05c1.21,2.42,1.21,4.84,1.21,4.84,0,0,1.21,1.21,2.42,0,1.21-1.21,3.63-1.21,6.05-2.42s4.84-3.63,4.84-4.84-1.05-2.42-1.13-3.63,3.55-3.63,3.55-4.84-2.42-8.48-7.27-7.27c-2.42,1.21-6.05,2.42-4.84,12.11Z"/><path class="r" d="M310.17,378.36c0,1-.54,2.42-1.21,2.42s-1.21-.21-1.21-1.21,.54-2.42,1.21-2.42,1.21,.21,1.21,1.21Z"/><path class="r" d="M292.01,395.32c0,1.34-.81,1.21-1.82,1.21s-1.82,0-1.82-2.42c0-1.71,.81-2.42,1.82-2.42,.61,0,1.82,2.3,1.82,3.63Z"/><path class="r" d="M307.75,410.37c.07,1-.59,1.45-1.08,1.9-1.34,1.22-.79-.88-1.33-1.73-1.21-1.9,0-3.11,1.08-1.9,.45,.5,1.26,.73,1.33,1.73Z"/><g><path d="M306.18,297.85c-.47,0-.78,0-.87,0l.03-1.21c.21,0,21.75,.37,24.32-6.84,1.14-3.21-.33-6.92-1.76-10.52-.48-1.2-.97-2.45-1.36-3.65-2.3-7.18-3.93-13.29-3.95-13.35l1.17-.31c.02,.06,1.64,6.14,3.93,13.29,.37,1.16,.84,2.33,1.33,3.57,1.51,3.8,3.07,7.73,1.77,11.37-2.58,7.22-20.39,7.65-24.62,7.65Z"/><path d="M293.82,323.27s2.42,1.21,4.84,1.21,32.69-9.69,32.69-9.69c0,0,3.63-2.42,2.42-3.63-1.21-1.21-38.75,9.69-39.96,12.11Z"/><path d="M334.28,319.78l-.49-1.11c3-1.34,10.6-5.61,9.7-9.18-1.1-4.4-9.46-5.72-9.55-5.74l.18-1.2c.38,.06,9.25,1.46,10.54,6.64,1.32,5.27-9.91,10.37-10.39,10.58Z"/><path d="M288.45,332.03c-3.77,0-8.17-.69-8.79-3.8-.98-4.91,3.61-13.03,7.19-14.2l.38,1.15c-2.84,.93-7.3,8.17-6.38,12.81,.7,3.51,9.53,2.94,12.88,2.43l.18,1.2c-.55,.08-2.86,.41-5.46,.41Z"/><g><path d="M135.94,277.63c-.11-.14-2.74-3.57-3.2-7.95-.46-4.43,1.53-8.27,5.76-11.09l.67,1.01c-3.89,2.59-5.65,5.95-5.23,9.96,.42,4.02,2.93,7.3,2.95,7.33l-.96,.74Z"/><path d="M141.86,273.65s-.28-3.76-8.5-3.42l-.05-1.21c3.96-.16,6.8,.54,8.45,2.08,1.27,1.19,1.31,2.47,1.32,2.52l-1.21,.03h0Z"/></g></g><g><path class="x" d="M285.95,658.07v4.66h-9.81v-6.02s1.33-15.59,13.44-16.8c12.11-1.21,21.8,10.9,21.8,21.8-2.42,10.9-8.48,21.8-24.22,20.58,0-3.63,12.11-9.69,12.11-9.69,0,0,4.84-4.84,4.84-7.27s3.88-8.39-4.72-16.3c-3.88-2.51-9.81-5.49-14.65-.65-3.63,3.63-3.63,8.48-3.63,8.48h4.84v1.21Z"/><path class="x" d="M289.59,639.91s-20.3-1.21-23.47,20.58c-3.17,21.8,22.33,21.87,22.33,21.87l9.61-4.91v-13.32h-9.69v4.84h4.84s-2.36,6.93-8.48,6.05c-8.48-1.21-12.11-3.63-12.11-10.9s-3.63-14.53,16.95-24.22Z"/></g><g><path class="ae" d="M308.14,145.14l-.78-.93c1.24-1.04,30.4-25.52,34.1-26.75,3.49-1.16,23.28-15.71,26.53-28.04l1.17,.31c-3.41,12.96-23.6,27.63-27.32,28.87-2.89,.96-25.31,19.48-33.71,26.53Z"/><path class="ae" d="M365.87,114.4s20.58-26.64,20.58-30.27"/><path class="ae" d="M280.35,149.92l-.91-.8c.79-.89,19.61-21.96,32.89-28,13.22-6.01,42.19-13.28,42.48-13.36l.29,1.17c-.29,.07-29.16,7.32-42.28,13.28-13.05,5.93-32.3,27.48-32.49,27.7Z"/><path class="ae" d="M287.46,130.61l-.62-1.04c.41-.24,10.21-5.99,19.27-5.37l-.08,1.21c-8.67-.59-18.47,5.14-18.57,5.2Z"/><path class="ae" d="M293.2,127.72c-.1-.04-9.91-4.23-19.35-4.23v-1.21c9.7,0,19.42,4.16,19.83,4.33l-.48,1.11Z"/></g><g id="i" class="m"><path d="M317.21,94.42S96.83,19.35,125.89,251.83c0,0,12.11-9.69,23.01-7.27,2.02-6.06-8.67-60.12,23.01-99.29,25.3-31.28,85.08-49.78,145.3-50.86Z"/><path d="M148.9,244.56s-41.74-3.18-31.16,35.95c4.2,16.5,24.25,25.02,36.79,15.73-10.03-1.64-31.49-6.83-31.27-21.99,.44-8.52,.22-24.84,25.65-29.69Z"/><path d="M148.9,271.89s-3.69,26.87,33.27,54.87c13.38,9.98,24.85,17.1,39.38,21.94,14.53,4.84,56.91,7.27,56.91,7.27,0,0-21.59-3.31-43.59-10.9s-44.41-19.44-51.4-26.69c-13.98-14.48-27.3-21.59-34.57-46.49Z"/><path d="M260.12,217.26l-11.93,3.09s-10.08,8.84-8.07,15.32c1.61,3.27,6.34,2.46,9.28,1.64l6.25-3.25s-7.46,2.04-9.88,2.04-4.84-1.21-3.63-3.63c1.21-2.42,2.06-9.81,17.98-15.2Z"/><path d="M334.41,210.27s-2.5-3.19-4.4,2.84,3.73,11.98,10,14.45c-2.21-2.37-5.84-4.79-7.05-7.21-1.21-2.42-2.57-4.41-1.89-6.44,.68-2.03,1.17-2.82,3.35-3.64Z"/><path d="M273.57,238.71s-21.75,2.31-19.32,28.3c6.05,.56,23.01,.56,25.43-1.86,0,0-18.52-.48-19.55-3.27-1.03-2.79-2.34-16.92,13.45-23.17Z"/><path d="M254.24,267.01s-2.24,39.44,39.44,13.94c0,0-16.44,8.41-24.91,1.15-8.48-7.27-14.53-15.09-14.53-15.09Z"/><path d="M286.39,315.33s-15.07,16.63,.61,16.52c4.78-.11,6.5-.83,6.5-.83,0,0-8.99-1.7-10.2-2.91s-1.09-7.4,3.09-12.78Z"/><path d="M293.6,323.88s3.03,3.03,4.24,3.03,27.85-7.27,33.3-11.5c1.82-1.82-20.83,4.98-20.83,4.98l-16.71,3.49Z"/><path d="M336.58,253.01s-3.6,15.17,10.31,18.49c6.64,.91,11.12,.74,17.36-5.84s-5.81-4.47-5.81-4.47l-21.86-8.19Z"/><path d="M330.57,290.8s-1.26,8.25-14.58,9.46h-15.95l5.06-3.03s20.67,1.06,25.46-6.43Z"/><path d="M307.39,300.26s.13,6.05-1.09,7.27-1.21,5.67,0,5.86,1.69,1.05,3.27-.59c-.85,.78-3.27-.43-2.06-4.06,1.21-4.84,1.51-7.27,1.36-8.48s-1.49,0-1.49,0Z"/><path d="M304.91,125.98s-15.55-1.28-30.08,13.25c7.27-3.63,19-11.96,30.08-13.25Z"/><path d="M321.97,119.18s-19.43,2.97-42.36,30.88c10.97-7.2,29.13-22.94,37.61-26.58,8.48-3.63,35.2-13.3,35.2-13.3,0,0-13.1,2.41-19.31,4.83-6.2,2.42-11.13,4.17-11.13,4.17Z"/><path d="M367.53,91.67s-1.28,12.14-23.38,26.21c-22.4,14.83-36.24,27.86-36.24,27.86l-4.02,4.38s33.76-26.64,35.65-27.24,27.45-14.58,27.99-31.2Z"/><path d="M382.89,115s-4.66,39.06-44.86,61.91c-15.01,6.95-32.95,12.15-32.95,12.15,0,0,32.87-15.86,47.32-30.43,14.45-14.57,28.36-31.52,30.49-43.63Z"/><path d="M184.95,340.5s-10.62-1.49-21.52,21.52c-3.63,21.8-7.26,15.54-1.21,38.65,6.05,23.1,21.79,34,45.89,101.99,0,0,11.24,33.22,15.37,37.71,1.7,2.07,2.91,6.91,6.54,8.12,0,0,7.27,9.69,14.53,10.9-7.27-7.27-24.22-25.43-37.54-72.65-13.32-47.22-36.33-81.13-37.54-85.97s-16.3-30.92,15.46-60.26Z"/><path d="M270.87,483.14s-9.37,13.28-19.05,18.12c-9.69,4.84-18.16,8.48-18.16,8.48,0,0,15.74-1.21,25.43-8.48,9.69-7.27,32.53-38.81,32.53-38.81l-2.26-1.15-18.48,21.84Z"/><path d="M378.81,340.73s6.2,27.35,6.2,40.66,3.63,50.86,10.9,85.97l19.37,38.75s3.03,18.29,20.89,15.81c8.17-1.28,11.95-1.19,17.93-8.5-7.34,2.38-12.18,4.8-18.23,3.59s-6.79,1.15-13.08-8.51c-6.29-9.66-22.03-36.63-26.87-63.71-4.84-27.07-8.52-83.98-9.71-88.22-1.19-4.24-7.39-15.84-7.39-15.84Z"/><path d="M479.46,417.72l-54.49,59.33s27.25-19.37,35.42-29.67c8.17-10.29,23.59-29.67,23.59-29.67h-4.52Z"/><path d="M221.55,348.7s0,31.48,56.91,35.11c-15.74-2.42-24.22-6.52-33.9-13.55-9.69-7.03-13.32-8.24-23.01-21.56Z"/><path d="M295.97,426.07s-7.22,1.39-6.92,8.63c.3,4.81,1.52,12.08,1.52,12.08,0,0-1.3-18.4,5.4-20.7Z"/><path d="M306.06,422.76s-5.8,1.01-4.59,9.49l1.21,10.9s-.5-20.18,3.38-20.38Z"/><path d="M320.36,370.53s-7.84,.65-7.92,31.18c-.02,6.29-.07,11.46-.08,16-.02,17.51,0,24.22,0,24.22,0,0,1.21-35.11,2.42-46.01s1.46-21.71,5.58-25.39Z"/><path d="M330.99,425.02s-5.3-.04-6.52,7.22c-1.21,7.27,0,8.48,0,8.48,0,0,3.34-15.65,6.52-15.7Z"/><path d="M343.85,424.98s-6.21,1.61-6.13,6.25c.08,4.64,.08,8.28,.08,8.28,0,0,2.42-10.9,3.63-12.11l2.42-2.42Z"/><path d="M480.08,375.9s-3.04-.56-4.2,6.84c-1.31,8.21-1.26,13.18-1.26,14.39s1.52-13.17,2.42-15.74,1.25-4.2,3.04-4.52,3.72-.02,3.37-.17-.27-.35-2.13-.85l-1.24,.06Z"/><path d="M489.15,372.91s-5.48,3.02-5.16,17.86c1.53-6.96,1.2-8.18,2.58-10.6,1.38-2.42,2.59-7.26,2.59-7.26Z"/><path d="M502.47,318.43s-3.63,0-4.84,6.05c0,7.27-1.21,42.38-2.42,49.64-1.21,7.27-3.18,16.65-3.18,16.65,0,0,6.82-20.28,6.82-39.65s0-25.43,1.21-27.85l2.42-4.84Z"/><path d="M514.83,371.33s-8.33-2.35-9.14,10.51c-.81,12.87,0,4.68,0,4.68,0,0,.41-7.56,2.83-9.98,2.42-2.42,4.14-5.59,6.31-5.22Z"/><path d="M528.21,369.29s-5.01-1.21-5.08,0c-.08,1.21-6.13,13.32-7.34,18.16,0,0,5.68-13.32,7.69-14.53s5.06-3.63,4.74-3.63Z"/><path d="M213.63,413.49s-12.95-32.29-13.41-37.64c-.46-5.35-1.28,2.49,1.55,10.68,2.83,8.19,13.83,36.24,13.83,36.24l4.86,7.01-6.83-16.28Z"/><path d="M184.95,340.5s26.23-3.91,20.52,51.79c4.32,10.9,4.64,12.24,4.64,12.24,0,0,10.13-20.7,3.53-40.08-6.61-19.38-10.22-23.02-10.22-23.02,0,0-10.27-3.07-18.46-.93Z"/><path d="M180.38,438.5l6.05,189.91s8.37,5.42,16.95,8.48c7.84,2.79,15.83,3.22,18.16,3.63-3.6-8.83-15.76-21.59-15.74-31.48,0-4.17-3.32-31.36-4.84-62.96-2.08-43.32-13.45-93.55-13.45-93.55l-7.14-14.02Z"/><path d="M235.71,554.52s-5.68,6.08-10.53,1.23c-4.84-4.84-34.13-61.75-36.44-78.7-2.31-16.95-3.34-29.67-3.34-29.67l14.34,25.56,18.25,53.52,13.9,22.83,3.81,5.22Z"/><path d="M186.44,628.4s-1.21,26.64,6.05,33.9c8.48,2.42,21.19,6.79,21.19,6.79,0,0-9.99-5.58-16.19-11.63-6.2-6.05-1.89-23.94-1.89-23.94l-9.16-5.12Z"/><path d="M288.65,640.43s-23.77,.04-23.04,26.7c1.95,12.13,15.24,15.9,25.54,15.83,0,0-21.18-2.49-23.6-15.81,0,0-1.41-24.38,21.09-26.72Z"/><path d="M288.15,664.73v4.84h6.77s-4.35,0-5.56-1.21-1.21-3.63-1.21-3.63Z"/><path d="M292.99,669.57s.38,5.83-5.86,5.94c2.23-1.1,5.86-3.52,5.86-5.94Z"/><path d="M304.67,661.73s-2.02,14.24-13.51,15.88c7.29-1.55,10.66-.72,13.51-15.88Z"/><path d="M270.94,648.75s-23.75,18.59,2.78,34.24c9.47,4.66,19.41,4.16,29.03-4.63,0,0-12.6,10.93-31.16-.74-7.66-5.62-6.45-21.36-.65-28.87Z"/><path d="M280.28,645.59s-6.66,8.24-6.66,16.72v3.11l4.84,.52h4.32l.06-2.6s-5.04-1.29-3.5-6.61c.33-.47-.96,.74-.96,.74v5.87s1.53-12.6,3.34-16.49c6.9-9.41,21.02-1.92,21.02-1.92,0,0-1.28-1.99-9.21-4.31-18.83-2.32-17.62,22.72-17.62,22.72l4.36-17.75Z"/><path d="M288.15,665.53h-1.6v5.19h4.62s-.94,4.97-9.85,4.33c0,0,10.46,2.99,11.68-5.48h-4.84v-4.04Z"/><path d="M289.24,646.49s23.28,6.09,8.67,27.3c0,0,5.11-1.74,6.75-12.06,.86-7.32-4.65-15.31-15.43-15.24Z"/><path d="M192.49,662.31c16.95,38.75,3.63,59.33,1.21,81.13-2.42,21.8-29.06,84.76-29.06,84.76,55.7-89.6,39.58-162.25,39.58-162.25"/><path d="M112.58,738.59s29.46,106,51.06,120.2c8.07,2.98,6.43,3.96,21.88,0-15.1-3.08-13.61,8.15-30.56-23.33-16.95-31.48-42.38-96.87-42.38-96.87Z"/><path d="M323.26,708.32s13.05,6.81,22.27,27.62c5.11,23.46,18.39,87.42,20.46,96.49-.7,12.1-3.62,40.26-9.85,59.78-6.23,19.52-18.34,54.64-18.34,54.64,0,0-.86,9.35,6.83,11.33l7.7,1.99s-9.69-4.84-10.9-9.69c0-4.84,35.11-83.55,32.69-110.19-2.42-26.64-9.69-128.35-50.86-131.98Z"/></g></g><g id="j"><path class="ax" d="M2260.27,56.4s-7.99,7.07-19.98,3.38c-11.99-3.69-27.66-4-27.66-4,0,0-27.66-1.23-40.57,2.46-12.91,3.69-25.51,14.44-25.51,26.12s-14.14,16.6-8.91,27.35c5.22,10.76,14.44,5.84,15.37,18.44,.92,12.6-7.68,26.43-2.15,35.04,5.53,8.61,12.29,5.84,12.29,5.84l.61,23.36s-3.07,16.29,6.15,20.9,8.91,9.22,17.21,4.3,6.15-6.76,21.21-7.68,26.43-4.92,32.27,.92c5.84,5.84,.92,4.61,13.52,7.38s24.59-2.77,33.81-1.84,7.38,8.91,25.51,9.83,29.5-9.53,37.8-7.07-2.15,11.06,14.75,7.68,13.52-11.37,26.12-9.83,4.3,6.45,19.05,5.22,14.75-10.14,27.35-7.07c12.6,3.07-1.54,8.3,25.2,5.84s30.43,1.23,39.95-7.38,2.15-8.91,14.75-15.67c12.6-6.76,32.58-5.84,36.57-12.91,4-7.07,2.77-4.92,4.61-13.22s11.99-7.99,2.77-17.83c-9.22-9.83-20.9,4.61-21.82-13.83-.92-18.44,25.51-58.09,20.59-68.54s-15.06-11.68-17.21-19.98c-2.15-8.3,8.91-8.3-8.3-4.3-17.21,4-27.35,11.68-33.19,16.6-5.84,4.92-34.11,21.82-51.63,9.22-17.52-12.6-13.22-33.19-29.2-25.51-15.98,7.68-7.68,15.98-24.28,10.76s-6.76-13.52-28.89-11.06-37.19-2.46-47.64,3.38c-10.45,5.84-21.51,11.68-32.88,7.07-11.37-4.61-27.66-3.38-27.66-3.38Z"/></g><g id="k"><path class="an" d="M2205.3,115.91s13.57-4.84,9.6-11.3c-3.97-6.46-13.75-10.55-16.1-6.08s-5.65,15.89-3.2,19.19c2.45,3.3,5.65,2.56,4.8,7.14s-3.62,3.3-2.67,7.68c.96,4.37,3.84,1.17,3.2,7.36-.64,6.18-4.16,4.26-3.2,13.33,.96,9.06,2.77,4.69,3.3,8.53s-1.35,3.86-.21,6.4c3.09,6.93,4.8-2.56,4.8,2.03s-9.28,6.82-1.6,8.53,9.06,4.8,13.33,.53,11.09,.32,6.93-6.4-6.19-4.21-8.21-8.74c-3.52-7.89-5.65-3.3-5.65-8.32s7.04-6.08,5.86-11.3-4.26-2.45-3.41-7.14,7.57-4.05,3.09-9.49,2.49-4.02-10.66-11.94Z"/><path class="an" d="M2298.05,132.86s3.94,.53,3.3-2.56-3.73-.11-3.2-4.58c.53-4.48,6.61-5.01,1.92-13.97s-4.26-4.58-10.66-9.06c-6.4-4.48-6.29-7.04-12.79-6.18s-3.94,5.65-7.89,5.65-3.3-6.82-9.17,.32c-5.86,7.14-11.94,6.18-10.87,13.33s1.71,6.18-1.28,10.13-6.71,7.39-4.9,13.01c1.8,5.62,7.89-3.3,8.1,1.28s1.83-1.38,1.71,2.45-12.25,9.81-11.41,23.03c.84,13.22,2.4,6,5.76,7.78s13.43,7.36,17.16,6.29,2.35-.32,6.72-.96,2.41,2.8,8.32,2.13c9.38-1.07,11.41-4.8,11.41-4.8,0,0-5.65,5.97-1.81,12.69s7.77,8.72,11.62,5.54c5.44-4.48,7.46-4.37,5.33-10.98-2.13-6.61-.96-9.17,.64-14.07,1.6-4.9,2.67-4.37,1.07-11.09-1.6-6.72-5.65-8.64-10.66-9.91s-20.04-.85-21.86,1.92-2.35,5.97,2.03,8.64,5.97,5.76,5.97,5.76l2.88-2.45s-5.12,4.9-10.02,3.52-9.38,2.77-11.73-.75c-2.35-3.52-3.3-.85-4.05-8.32s-2.88-7.46,.43-11.62,5.22-8,7.04-8.53,4.05-1.77,3.84-4.69c-.75-10.45-3.73-5.44-3.73-5.44,0,0-.21-7.36,6.4-7.36s7.46-.64,9.91,1.49,3.52,2.24,7.04,5.76l7.46,6.61Z"/><path class="an" d="M2380.07,106.18s-5.15-7.69-9.22-8.86-9.75,2.3-15.19,.72,0-5.61-8.23-4.97-5.79,1.09-9.22,3.07-5.06,.18-7.78-.99-5.7-4.34-7.32,1.81c-1.63,6.15-5.61,7.69-3.8,11.85,1.81,4.16,2.13,5.98,3.62,9.4,1.49,3.42,3.62,5.88,1.45,9.13s-4.43,5.33-3.26,9.13c1.18,3.8,.9,2.89,1.36,7.05,.45,4.16-1.36,.27,.36,7.51,1.72,7.23,2.89,5.61,1.9,10.58-.99,4.97-2.17,.99-1.9,7.05s-1.81,10.76,1.9,12.93,5.33,6.33,9.22,3.53,6.96-1.09,6.96-1.09c0,0,3.07-.18,5.33,2.08s-.27,2.17,6.06,.9,5.97,1.45,8.41-2.26,.18-4.52,5.15-4.07,8.5,.18,8.5-3.98,4.15-5.42,.99-6.6c-6.78-2.53-13.56-3.71-13.56-3.71,0,0-2.26-3.98-4.52,1.45s-3.94,2.16-7.23,.45c-6.78-3.53-7.41-1.72-9.22,.09s-5.52,3.8-4.97-.54c.54-4.34,2.94-1.83,1.99-7.23-1.36-7.69-3.07-8.41-1.54-11.03s.18-5.88,1.99-5.43-.09-.36,4.16,1.27,5.15,3.26,7.05,.99,1.63-2.98,5.33-2.8,5.7-1.72,7.51,.81-.99,4.7,3.8,.72,5.7-2.26,3.71-5.79-1.27-8.05-4.79-6.6-3.31,.18-6.6-.99c-6.33-2.26-10.04-7.23-11.21-3.71-1.18,3.53,0,5.15-4.34,5.15s-3.57-.86-6.24-3.53-1.96-1.39-1.09-5.52c1.63-7.69-1.63-7.87,2.26-10.04s3.89-2.44,5.33-.45,3.79-2.05,5.88,.81c2.09,2.87,3.89,5.24,5.52,2.98s2.17-.9,6.15-2.53,3.44-3.16,6.87-1.09,5.33,.9,7.41,3.62,3.16,5.97,4.97-.36c1.81-6.33,.54-7.96,.09-10.94Z"/><path class="an" d="M2401.86,98.57s-4.15-1.42-5.87,4.05-4.15,9.92-2.23,9.92,4.05,1.11,2.63,5.16c-1.42,4.05-1.11,4.76-2.43,9.51-1.32,4.76-1.52,9.61-.81,12.24s1.32,7.49-1.01,9.11-1.52,.1-4.05,5.46-3.64,6.07-.1,9.11,3.95,4.86,6.38,6.48,1.52,5.77,3.04,8.91c1.52,3.14,0,5.57,5.46,4.76s8.7,4.25,9.41-.71,5.57-8.91,1.11-12.75c-4.45-3.85-2.02-3.34-4.25-8.3-2.23-4.96-4.53-4.65-3.34-7.89,1.82-4.96,4.35-.51,4.35-.51,0,0,1.01,.3,3.14,3.74,2.13,3.44,.91,5.16,3.85,5.26s6.07,4.25,6.07,4.25c0,0,2.83-.2,1.82,3.44s-1.42,3.14,1.52,5.46,8.04,4.91,10.42,2.53,8.8-3.14,8.1-9.01,.3-3.34,1.52-5.97,2.02-2.02,3.54-3.85,4.01,2.68,1.82-4.05c-3.85-11.84-6.26-11.94-5.87-16.9,.71-9.11,1.92-11.33-.61-13.26s-4.15,1.82-3.24-3.85c.91-5.67-2.02-6.88-.2-9.01s3.66-4.36,.51-7.29c-5.46-5.06-8.8-7.79-10.12-4.35s-6.07,6.68-4.76,9.11,2.93,7.18,2.93,7.18l.1,3.74s-.91,1.21-.4,4.25-1.11,4.86,.3,6.48,2.49,1.73,1.82,4.65c-.76,3.3,1.43,4.52,.1,6.48-5.36,7.89-9.51,3.24-8.4,1.01s1.42-2.83-.1-5.26,2.92-2.82-1.21-4.76c-7.79-3.64-9.92-5.16-7.59-7.69s1.72-2.73,1.72-5.16,3.34-3.34,.3-5.36-1.42-5.57-3.34-6.68-1.82-2.23-2.13-4.76-2.73-4.76-2.73-4.76l-7.18-.2Z"/><path class="an" d="M2471.69,123.3c-1.99,1.99-5.64,5.83-8.36,1.36-2.72-4.47-3.06-.73-5.64-3.31s-2.63-.68-1.26-4.76c1.36-4.08,.29-4.08,3.31-7.58,3.01-3.5,4.67-4.28,6.03-7.1s-.39-5.06,4.08-4.38,6.42,1.26,9.04,.88,5.54,.39,8.65-3.4,3.4-5.35,7.97-6.03,10.02-1.46,11.09,2.82c1.07,4.28,.78,1.36,3.89,6.61s6.13,10.99,8.75,12.06,6.13-3.99,4.67,3.7c-1.46,7.68-2.82,15.66-6.42,17.21s-5.25,11.47-9.82,12.84-2.63,6.13-7,5.15-4.67-2.72-7.49,1.85-4.57,8.17-1.65,9.43,3.7-.4,3.7,4.28c0,8.75-1.26,8.27,.58,10.89s7.61,4.02,2.43,4.38c-11.47,.78-7-5.83-13.03-3.21s-7.1,.29-7.1,.29l-5.45-1.17s-2.72-6.9-.19-7.68,4.67-1.26,3.7-3.89-2.43-6.03-4.28-8.85-.78-7,3.21-9.82c3.99-2.82,14.39-7.29,17.6-7.97s4.38-1.36,6.42-6.13c2.04-4.76,2.72-3.7,2.24-7.78s-2.24-4.86,.19-7.97c2.43-3.11,7.56-2.31,2.24-5.93-10.99-7.49-10.99-9.72-13.71-6.42-2.72,3.31-6.03-1.65-8.17,2.72s-.64,8.22-5.93,7.88c-6.03-.39-6.9-.19-5.64,2.92s1.36,6.13,1.36,6.13Z"/><path class="an" d="M2486.47,191.76c-3.3,2.2-1.41-3.35-3.6-5.54s.97-8.07-4.57-3.89c-5.54,4.18-9.72,7-7.2,9.53s5.15,2.53,4.67,4.96-1.56,3.7,3.21,2.82,5.06-1.65,7.49,.97,3.09,5.02,4.86,2.43c3.79-5.54,4.47-5.74,3.21-9.14s1.13-8.18-1.94-6.71c-4.28,2.04-5.25,3.99-6.13,4.57Z"/></g></g></g></svg>