<?xml version="1.0" encoding="UTF-8"?><svg xmlns="http://www.w3.org/2000/svg" width="460" height="840" xmlns:xlink="http://www.w3.org/1999/xlink" viewBox="0 0 460 840"><defs><style>.f{mask:url(#b);}.g{mix-blend-mode:overlay;opacity:.46;}.h{fill:#f6f6f6;}.i{fill:#fff;}.j{fill:#f2c3a7;}.k{fill:#734d2c;}.l{fill:#735856;}.m{fill:#c4947c;}.n{fill:#d9c791;}.o{fill:#5f7336;}.p{fill:#4f5e2b;}.q{filter:url(#d);}.r{fill:none;stroke:#000;stroke-miterlimit:10;}.s{isolation:isolate;}</style><filter id="d" x="56.02" y="226.58" width="306.12" height="128.45" color-interpolation-filters="sRGB" filterUnits="userSpaceOnUse"><feFlood flood-color="#fff" result="bg"/><feBlend in="SourceGraphic" in2="bg"/></filter><mask id="b" x="56.02" y="226.58" width="306.12" height="128.45" maskUnits="userSpaceOnUse"><g class="q"><path d="M177.5,269.23s-45-6-35,24c6.4,19.21,23,28,30,28s42,1,46-31-41-21-41-21Z"/></g></mask></defs><g class="s"><g id="a"><g><path class="o" d="M49.98,835.42l-19.48-124.18S2.5,539.23,2.5,505.23s13-69,13-69c0,0,93.54-99.72,107.77-103.86s178.95-3,192.23-1.14,61-2,79,12,42,27,48,152c2,125-3,263,6,294l9,31-407.52,15.18Z"/><path class="n" d="M136.99,350.09s117.06,29.94,152.28,3.04c-6.77,6.11-8.77,6.11-22.77,50.11-19,38-34.03,83.15-41,125l-1,6-11.37-2.1s-3.63-40.9-36.63-82.9c-19-40-39.51-99.15-39.51-99.15Z"/><path class="p" d="M39.5,460.19c-2.97,2.24-7.22,1.35-8.92-1.96-5.07-9.82-14.3-25.92-23.08-32-13-9,94-82,99-88,7,0,7.72,2.26,7.72,2.26l-11.19,47.93,25.23,13.81,6.23,7s-24,9-36,24c-10.07,8.39-45.51,16.79-59,26.95Z"/><path class="p" d="M324.5,326.23s96,4,103,49c-5,7-11.74,6.79-16.87,16.9-5.13,10.1-6.13,22.1-9.13,21.1s-24-28-73-33c-9-10,2-28,2-36s-9-16-9-16l3-2Z"/><path class="o" d="M321.5,315.36s25,44.87,5,69.87c-4,3-14.31-5.94-15.16-15.47-7.84,2.47-32.84,9.47-44.84,33.47,0,0,17-67.74,55-87.87Z"/><path class="o" d="M116.69,326.23s-15.19,40-16.19,56c-2,16-7.02,28.12-7.01,31.06,0,2.94-.99,7.94,2.01,8.94s25-30,56-2l25,29s-9-43-27-72c-6-10-9.13-22-9.13-22,0,0-1.49-27-23.68-29Z"/><g><ellipse class="j" cx="213" cy="199.23" rx="162.5" ry="156"/><path class="j" d="M358.5,188.23s52.26-32,52.13,19.5c-2.26,19-16.57,42.06-43.85,47.78-27.28,5.72-23.28-29.28-23.28-29.28l15-38Z"/></g><g><path class="k" d="M228.69,4.62S62.46,4.25,54.98,162.74c0,0,9.2-14.18,14.36-35.34,7.16-12.16,31.16-12.16,31.16-12.16l20-10-7-12L190.5,23.23,228.69,4.62Z"/><path class="k" d="M358.5,188.23s6-55-45-77c-3-10-8-31-31-34-12,11-53,34-108,34s-88.59-5.48-98.29,3.76c0,0,3.29-20.76,15.29-25.76-7-3-13-1-13-1,0,0,5-21,31-19-7-2-8-6-8-6,0,0,14-6,17-5-6-1-11-4-11-4,0,0,19-15,32-14-13,0-17.09-.05-17.09-.05,0,0,15.09-17.95,37.09-13.95-16-2-29.19-.58-29.19-.58,0,0,235.85-104.76,261.52,152.91-7.33-.33-24.33,4.67-33.33,9.67Z"/></g><path class="j" d="M128.27,332.37s20.23,59.86,76.23,55.86,84.98-26.55,103.99-62.77-111.99,10.77-111.99,10.77l-68.23-3.86Z"/><path class="o" d="M214.5,554.23h7s1,11.66-3.5,11.83-3.5-11.83-3.5-11.83Z"/><path class="l" d="M227.53,829.11c-6.45-40.22-12.06-248.99-12.3-257.86l5-.13c.06,2.17,5.83,217.3,12.24,257.2l-4.94,.79Z"/><path class="l" d="M223.5,539.23l-1.46-5.43c1.08-6.15,26.99-150.74,74.01-161l.12-.02c1.6-.27,3.24-.58,4.88-.89,10.72-2.03,22.88-4.33,31.81,3.41l-3.27,3.78c-7.11-6.16-17.53-4.18-27.61-2.28-1.66,.31-3.3,.62-4.92,.9-17.83,3.94-35.58,32.12-51.34,81.51-12.09,37.9-22.15,79.65-22.21,80.02Z"/><path class="l" d="M210.77,534.23s6.73-4,13.73,0c1,3-2,7-2,10s10.47,27.89-4.77,26.94c-6.47,.11-8.23-2.94-7.23-16.94s.27-20,.27-20Z"/><path class="l" d="M211.52,536.08c-.07-.53-7.76-53.14-36.87-85.17-2.26-2.62-4.39-5.15-6.46-7.61-21.03-24.99-34.92-41.51-71.37-18.94l-2.63-4.25c40.12-24.84,56.76-5.06,77.83,19.98,2.06,2.45,4.17,4.96,6.38,7.52,30.13,33.14,37.77,85.57,38.08,87.79l-4.95,.69Z"/><ellipse class="h" cx="228.5" cy="197.23" rx="38" ry="32"/><ellipse class="h" cx="124.5" cy="188.23" rx="31" ry="33"/><path class="m" d="M190.5,197.23s18-20,34-21,33.79,3,39.9,10.5c0,0-7.4-24.63-42.15-21.06-34.75,3.56-31.75,31.56-31.75,31.56Z"/><path class="m" d="M94.9,178.41s12.62-14.17,27.11-13.17,25.57,3.2,31.03,10.1c0,0-7.54-20.1-28.54-20.1-11.35,0-20.45,6.09-25,12-3.87,5.02-3.96,9.88-4.6,11.17Z"/><g><g><line class="i" x1="123.5" y1="195.23" x2="124.45" y2="187.63"/><path d="M123.87,195.23l.83-6.66,.12-.95c.06-.48-.69-.47-.75,0l-.83,6.66-.12,.95c-.06,.48,.69,.47,.75,0h0Z"/></g><g><line class="i" x1="119.7" y1="190.48" x2="128.25" y2="192.44"/><path d="M119.6,190.85l7.48,1.71,1.07,.24c.47,.11,.67-.62,.2-.72l-7.48-1.71-1.07-.24c-.47-.11-.67,.62-.2,.72h0Z"/></g><g><line class="i" x1="122.08" y1="187.63" x2="126.35" y2="195.23"/><path d="M121.75,187.82l3.75,6.66,.53,.94c.24,.42,.88,.04,.65-.38l-3.75-6.66-.53-.94c-.24-.42-.88-.04-.65,.38h0Z"/></g><g><line class="i" x1="126.83" y1="189.06" x2="121.12" y2="193.81"/><path d="M126.56,188.79l-5,4.16-.7,.59c-.37,.31,.16,.84,.53,.53l5-4.16,.7-.59c.37-.31-.16-.84-.53-.53h0Z"/></g><g><line class="i" x1="127.28" y1="194.41" x2="121.66" y2="189.21"/><path d="M127.54,194.15l-4.93-4.56-.69-.64c-.35-.33-.89,.2-.53,.53l4.93,4.56,.69,.64c.35,.33,.89-.2,.53-.53h0Z"/></g><g><line class="i" x1="125.6" y1="188.74" x2="121.44" y2="194.88"/><path d="M125.27,188.55l-3.65,5.39-.51,.76c-.27,.4,.38,.78,.65,.38l3.65-5.39,.51-.76c.27-.4-.38-.78-.65-.38h0Z"/></g><g><line class="i" x1="119.32" y1="193.08" x2="127.71" y2="190.54"/><path d="M119.42,193.44l7.32-2.22,1.06-.32c.46-.14,.26-.86-.2-.72l-7.32,2.22-1.06,.32c-.46,.14-.26,.86,.2,.72h0Z"/></g></g><g><g><line class="i" x1="227.5" y1="201.23" x2="228.45" y2="193.63"/><path d="M227.87,201.23l.83-6.66,.12-.95c.06-.48-.69-.47-.75,0l-.83,6.66-.12,.95c-.06,.48,.69,.47,.75,0h0Z"/></g><g><line class="i" x1="223.7" y1="196.48" x2="232.25" y2="198.44"/><path d="M223.6,196.85l7.48,1.71,1.07,.24c.47,.11,.67-.62,.2-.72l-7.48-1.71-1.07-.24c-.47-.11-.67,.62-.2,.72h0Z"/></g><g><line class="i" x1="226.08" y1="193.63" x2="230.35" y2="201.23"/><path d="M225.75,193.82l3.75,6.66,.53,.94c.24,.42,.88,.04,.65-.38l-3.75-6.66-.53-.94c-.24-.42-.88-.04-.65,.38h0Z"/></g><g><line class="i" x1="230.83" y1="195.06" x2="225.12" y2="199.81"/><path d="M230.56,194.79l-5,4.16-.7,.59c-.37,.31,.16,.84,.53,.53l5-4.16,.7-.59c.37-.31-.16-.84-.53-.53h0Z"/></g><g><line class="i" x1="231.28" y1="200.41" x2="225.66" y2="195.21"/><path d="M231.54,200.15l-4.93-4.56-.69-.64c-.35-.33-.89,.2-.53,.53l4.93,4.56,.69,.64c.35,.33,.89-.2,.53-.53h0Z"/></g><g><line class="i" x1="229.6" y1="194.74" x2="225.44" y2="200.88"/><path d="M229.27,194.55l-3.65,5.39-.51,.76c-.27,.4,.38,.78,.65,.38l3.65-5.39,.51-.76c.27-.4-.38-.78-.65-.38h0Z"/></g><g><line class="i" x1="223.32" y1="199.08" x2="231.71" y2="196.54"/><path d="M223.42,199.44l7.32-2.22,1.06-.32c.46-.14,.26-.86-.2-.72l-7.32,2.22-1.06,.32c-.46,.14-.26,.86,.2,.72h0Z"/></g></g><path class="k" d="M269.5,139.23s-20.57-12.51-41.29-10.26-33.71,16.26-33.71,17.26,2,6,4,6,18.25-13.84,26.62-13.92,32.38-3.08,44.38,.92Z"/><path class="k" d="M123.52,132.09s28.98,4.14,34.98,18.14c2,5-8.3-3.14-32.15-9.07-19.85-.93-24.85,4.07-28.85,4.07s-7.11-.59-7.56-3.29c-.44-2.71,23.59-10.99,33.57-9.85Z"/><g><g><path class="r" d="M380.5,231.23s9.66-2.33,11.33-23.16c1.67-20.84-17.33-13.01-17.33-13.01"/><path class="r" d="M375.5,215.71s5.68-8.47,16.09-5.22"/></g><path d="M177.89,252.14c-2.28-1.55-22.34-15.23-22.88-18.85-.53-3.56,12.11-29.34,13.56-32.27l.96,.42c-5.62,11.39-13.84,29.23-13.47,31.7,.36,2.42,13.62,12.2,22.45,18.18l-.61,.81Z"/><path d="M145.5,284.23s5,4,8,4,15-3,20-3,18,0,22,2c5,1,15-2,15-2,0,0,4-2,4-5l-5,1s-10,1-14,1-5,1-9-1-21.43-3-31.72,2.5c-1.57,0-5.28-.5-6.28-1.5s-3,2-3,2Z"/><g><path class="j" d="M169.5,298.23s10-3,14-1"/><path d="M169.64,298.71l-.29-.96c.42-.12,10.24-3.03,14.37-.97l-.45,.89c-3.78-1.89-13.53,1-13.63,1.03Z"/></g></g><g class="f"><path class="k" d="M360.63,226.58s27.42,123.25-151.36,128.45c-39.55-.6-118.74-15.94-153.26-115.37,0,0,40.48,58.57,57.48,61.57s21-45,25-47,14-6,23-5,39,1,41-1,22.83,10.56,24.92,17.78c2.08,7.22,3.08,34.22,18.08,35.22s77.26,2.69,115.13-74.65Z"/></g><path d="M75.78,115.96l-.08-.93c-.67-8.23,3.62-19.24,14.61-25.7-2.33-.81-8.22-2.52-11.57-.66l-1.63,.91,.96-1.6c.36-.59,.72-1.3,1.13-2.13,2.81-5.53,7.91-15.59,27.12-16.97-2.54-.92-5.66-2.68-5.32-5.7l.03-.3,.28-.11c.45-.19,9.28-3.77,14.46-4.79-2.97-.82-6.62-1.74-7.77-1.74h-1.05l.66-.82c.12-.14,10.42-12.61,25.55-15.22-4.7-.29-9.36-.32-10.49,.41l-1.82,1.17,1.12-1.85c.09-.15,8.09-12.92,26.9-14.49-6.82-.63-15.03-.95-18.35,.67-.97,.48-1.05,.51-1.31,.29l-.25-.21,.1-.31s.12-.12,.34-.24l-.03-.08c.06-.02,.3-.13,.71-.34,.24-.12,.51-.23,.8-.33,7.55-3.54,38.05-15.47,82.06-19.94l.1,1c-38.69,3.94-66.46,13.63-77.71,18.13,8.96-.74,23.48,1.56,24.23,1.68l-.14,.99c-21.83-2.88-32.8,8.74-35.76,12.54,4.33-.75,14.56,.32,15.88,.46l-.07,1c-15.76-.43-27.68,11.52-30.47,14.6,2.95,.46,9.32,2.33,9.63,2.42l-.21,.97c-2.62-.38-11.73,2.94-16.45,4.85-.04,3.77,7.53,5.15,7.61,5.16l-.08,.99c-21.23,.43-26.35,10.53-29.41,16.57-.17,.33-.32,.64-.47,.93,4.77-1.42,11.74,1.41,12.07,1.54l.97,.4-.92,.5c-10.88,5.94-15.36,16.34-15.09,24.37,12.56-8.54,50.03-4.51,51.65-4.34l-.11,.99c-.4-.05-40.26-4.33-51.67,4.68l-.73,.58Z"/></g><g class="g"><path d="M54.77,162.62s-11.44,39.35,1.04,76.92l29.48,39.57s-16.4-26.69-20-63c-3.77-37.94,5.4-85.8,12.71-96.35,0,0-6.8,3.46-7.75,5.91s-9.99,31.46-15.47,36.95Z"/><path d="M55.81,239.54s29.48,105.43,138.48,114.5c0,0,16.5,2.46,34,1.07,19.27-1.54,39.76-6.99,41-8,0,0-50.89-.54-91-9-26.69-5.63-45.82-18.82-52.15-22.87-15.85-10.13-62.81-57.27-70.33-75.7Z"/><path d="M119.11,155.11s-20.03,4.35-24.43,23.17c0,0,4.82-9.17,12.21-13.17s13.94-10.76,20.17-9.88l-7.95-.12Z"/><path d="M223.11,165.2s-34.82,1.92-32.82,31.92c0,0,6-15,10-18s9.65-9.83,22.82-13.92Z"/><path d="M102.66,135.43s-12.49,4.98-12.93,6.33c-.44,1.35,3.42,4.29,7.99,3.32s5.26-1.79,6.42-1.88-6.84,.91-8.84-.09-3.26-1.36,7.37-7.68Z"/><path d="M198.29,152.11s-3-1-4-6c0,0,5.64-6.9,12.82-10.45,0,0-9.82,8.45-9.82,10.45s0,3,1,4,15.05-7.48,15.05-7.48c0,0-14.05,9.48-15.05,9.48Z"/><path d="M146.45,282.71s-4.16,1.4-2.16,3.4,6.96,4.15,7.98,4.57,13.24-2.57,14.63-2.57,13.75-1.4,13.75-1.4l5.81-1.24s-21.23-2.16-27.7,1.24l-12.32-4.01Z"/><path d="M169.15,298.11s-.86,0-.86,1,7.46-1,8.73-1,4.05-1.1,4.05-1.1c0,0-3.78-.84-4.78-.37s-7.14,1.47-7.14,1.47Z"/><path d="M374.29,194.94s10-1.82,11,13.18c.36,5.34,1.56,12.06-5,23,0,0,9.18-1.49,11.09-20.74,1.91-19.26-12.09-18.61-17.09-15.43Z"/><path d="M375.29,215.59l3,1.52s6.68-5.5,11-2l2.09-4.74s-9.09-4.3-16.09,5.22Z"/><path d="M156.71,226.46s-6.42,7.65-5.42,9.65,18,14,18,14l5.39-.38s-18.39-12.39-19.39-15.5,1.42-7.77,1.42-7.77Z"/><path d="M75.5,114.91s12.48-9.78,68.64-4.29c17.15,.49,19.4,.42,19.4,.42,0,0-67.83-18.34-88.04,3.87Z"/><path d="M78.29,88.11s4-18,31-19c7,0,12,1,12,1,0,0-31,0-43,18Z"/><path d="M101.29,63.11s.36,3.32,1.18,3.66,15.82-7.66,24.82-8.66l9-1s-22-1-35,6Z"/><path d="M107.72,54.93s17.57-20.82,47.57-13.82c0,0-36,2-47.57,13.82Z"/><path d="M123.51,39.67s10.78-21.56,51.78-10.56l10,3s-43.56-9.88-61.78,7.56Z"/><path d="M132.82,24.39S178.66,1.96,247.47,5.04l21.3,2.92s-76.49-2.84-125.49,16.16l-10.47,.28Z"/><path d="M122.17,329.43s2.8-3.56,2.12,1.68c-2.24,17.37-11.55,62.78-23.31,72"/><path d="M128.49,333.44s7.54,19.68,11.67,21.68,88.02,39.1,137.07-9.95c0,0-134.54,7.6-148.74-11.73Z"/><path d="M282.39,343.57s-66.1,105.54-60.56,188.76c0,0,15.46-90.22,47.31-138.09,6.15-20.13,12.13-31,13.64-35.07,5.51-5.06,14.51-15.06,19.6-23.58l-19.99,7.98Z"/><path d="M329.37,378.96s-4.08,10.15-6.08,9.15-11-10-11-12,10.16-2.3,17.08,2.85Z"/><path d="M309.15,332.08s-12.86,28.03-17.86,30.03c-3,5-10.41,16.72-11.21,19.36s-8.09,8.91-10.94,12.77c-2.85,3.87,13.13-33,13.64-35.07,.51-2.06,16.69-17.1,19.6-23.58,2.91-6.48,6.77-3.51,6.77-3.51Z"/><path d="M104.39,339.85s-25.1,84.27-20.1,88.27,25-8,42-6,57.55,40.71,57.55,40.71c0,0-33.01-48.72-55.78-49.22s-29.77,10.5-29.77,10.5c0,0-1.63,3.06-4.32-2.97s-3.49-13.54,17.91-82.29l-7.5,.99Z"/><path d="M97.75,362.97S14.82,424.09,18.05,437.6c0,0-9.95-8.36-11.86-12.93-.32-.76,1.66-8.07,6.09-12.56,22.36-22.68,94.25-78.48,99.6-73.26-4.6,7.26-14.14,24.11-14.14,24.11Z"/><path d="M15.44,434.64l-2.15,7.4s12.01,24.07,19.01,25.07,27.91-16.47,37.95-16.24c10.05,.24,34.38-16.24,34.38-16.24l7.26-11.61s-10.6,3.08-13.6,10.08-59,21-60,27c-3,3-8,0-8,0l-12.23-22.51"/><path d="M13.28,442.04s-32.03,22.44,36.49,393.26l51.21-1.91S19.29,548.11,32.29,467.11l-19.01-25.07Z"/><path d="M215.03,555.49s-.78,11.35,1.24,11.48,4.55-3.62,4.79-5.74-1.76-8.12-1.76-8.12l-4.26,2.38Z"/></g></g><g id="e"/></g></svg>