<?xml version="1.0" encoding="UTF-8"?><svg xmlns="http://www.w3.org/2000/svg" width="1920" height="1080" xmlns:xlink="http://www.w3.org/1999/xlink" viewBox="0 0 1920 1080"><defs><style>.e{mask:url(#b);}.f{opacity:.72;}.f,.g{mix-blend-mode:overlay;}.g{opacity:.46;}.h{fill:#f6f6f6;}.i{fill:#f2e0d5;}.j{fill:#fff;}.k{fill:#eacbb9;}.l{fill:#f2c3a7;}.m{fill:#734d2c;}.n{fill:#735856;}.o{fill:#c4947c;}.p{fill:#d9c791;}.q{fill:#d8c8bf;}.r{fill:#0df205;}.s{fill:#884c60;}.t{fill:#483839;}.u{fill:#31322d;}.v{fill:#24b0bf;}.w{fill:#35282a;}.x{fill:#5f7336;}.y{fill:#4f5e2b;}.a`{filter:url(#d);}.aa{stroke-linecap:round;}.aa,.ab{fill:none;stroke:#000;stroke-miterlimit:10;}.ac{isolation:isolate;}</style><filter id="d" x="1037.13" y="148.49" width="146.57" height="61.5" color-interpolation-filters="sRGB" filterUnits="userSpaceOnUse"><feFlood flood-color="#fff" result="bg"/><feBlend in="SourceGraphic" in2="bg"/></filter><mask id="b" x="1037.13" y="148.49" width="146.57" height="61.5" maskUnits="userSpaceOnUse"><g class="a`"><path d="M1095.3,168.91s-21.55-2.87-16.76,11.49c3.07,9.2,11.01,13.41,14.36,13.41s20.11,.48,22.02-14.84c1.92-15.32-19.63-10.05-19.63-10.05Z"/></g></mask></defs><g class="ac"><g id="a"><rect class="v" width="1920" height="1080"/><g><path class="x" d="M1034.24,440l-9.33-59.46s-13.41-82.35-13.41-98.63,6.22-33.04,6.22-33.04c0,0,44.79-47.75,51.6-49.73,6.81-1.98,85.68-1.44,92.04-.55s29.21-.96,37.83,5.75c8.62,6.7,20.11,12.93,22.98,72.78,.96,59.85-1.44,125.92,2.87,140.77l4.31,14.84-195.12,7.27Z"/><path class="p" d="M1075.9,207.62s56.05,14.33,72.91,1.46c-3.24,2.92-4.2,2.92-10.9,23.99-9.1,18.19-16.29,39.81-19.63,59.85l-.48,2.87-5.44-1.01s-1.74-19.58-17.54-39.69c-9.1-19.15-18.92-47.47-18.92-47.47Z"/><path class="y" d="M1029.23,260.34c-1.42,1.07-3.46,.65-4.27-.94-2.43-4.7-6.85-12.41-11.05-15.32-6.22-4.31,45.01-39.26,47.4-42.13,3.35,0,3.7,1.08,3.7,1.08l-5.36,22.95,12.08,6.61,2.98,3.35s-11.49,4.31-17.24,11.49c-4.82,4.02-21.79,8.04-28.25,12.91Z"/><path class="y" d="M1165.68,196.2s45.96,1.92,49.32,23.46c-2.39,3.35-5.62,3.25-8.08,8.09-2.46,4.84-2.94,10.58-4.37,10.1s-11.49-13.41-34.95-15.8c-4.31-4.79,.96-13.41,.96-17.24s-4.31-7.66-4.31-7.66l1.44-.96Z"/><path class="x" d="M1164.25,191s11.97,21.48,2.39,33.45c-1.92,1.44-6.85-2.84-7.26-7.41-3.76,1.18-15.73,4.53-21.47,16.03,0,0,8.14-32.43,26.33-42.07Z"/><path class="x" d="M1066.18,196.2s-7.27,19.15-7.75,26.81c-.96,7.66-3.36,13.46-3.36,14.87s-.47,3.8,.96,4.28,11.97-14.36,26.81-.96l11.97,13.89s-4.31-20.59-12.93-34.47c-2.87-4.79-4.37-10.53-4.37-10.53,0,0-.71-12.93-11.34-13.89Z"/><g><ellipse class="l" cx="1112.3" cy="135.4" rx="77.8" ry="74.69"/><path class="l" d="M1181.96,130.13s25.02-15.32,24.96,9.34c-1.08,9.1-7.93,20.14-20.99,22.88-13.06,2.74-11.15-14.02-11.15-14.02l7.18-18.19Z"/></g><g><path class="m" d="M1119.81,42.21s-79.59-.17-83.17,75.71c0,0,4.4-6.79,6.87-16.92,3.43-5.82,14.92-5.82,14.92-5.82l9.58-4.79-3.35-5.75,36.87-33.52,18.29-8.91Z"/><path class="m" d="M1181.96,130.13s2.87-26.33-21.55-36.87c-1.44-4.79-3.83-14.84-14.84-16.28-5.75,5.27-25.38,16.28-51.71,16.28s-42.41-2.63-47.06,1.8c0,0,1.58-9.94,7.32-12.33-3.35-1.44-6.22-.48-6.22-.48,0,0,2.39-10.05,14.84-9.1-3.35-.96-3.83-2.87-3.83-2.87,0,0,6.7-2.87,8.14-2.39-2.87-.48-5.27-1.92-5.27-1.92,0,0,9.1-7.18,15.32-6.7-6.22,0-8.18-.02-8.18-.02,0,0,7.23-8.6,17.76-6.68-7.66-.96-13.98-.28-13.98-.28,0,0,112.93-50.16,125.22,73.21-3.51-.16-11.65,2.24-15.96,4.63Z"/></g><path class="l" d="M1071.73,199.14s9.69,28.66,36.5,26.75c26.81-1.92,40.69-12.71,49.79-30.06,9.1-17.34-53.62,5.16-53.62,5.16l-32.67-1.85Z"/><path class="x" d="M1113.01,305.37h3.35s.48,5.58-1.68,5.66-1.68-5.66-1.68-5.66Z"/><path class="n" d="M1119.25,436.98c-3.09-19.26-5.77-119.22-5.89-123.46l2.39-.06c.03,1.04,2.79,104.05,5.86,123.15l-2.36,.38Z"/><path class="n" d="M1117.32,298.19l-.7-2.6c.52-2.94,12.92-72.17,35.43-77.08h.06c.77-.14,1.55-.29,2.34-.44,5.13-.97,10.95-2.07,15.23,1.63l-1.57,1.81c-3.4-2.95-8.39-2-13.22-1.09-.79,.15-1.58,.3-2.35,.43-8.54,1.89-17.04,15.38-24.58,39.03-5.79,18.14-10.6,38.14-10.64,38.31Z"/><path class="n" d="M1111.23,295.79s3.22-1.92,6.58,0c.48,1.44-.96,3.35-.96,4.79s5.01,13.35-2.28,12.9c-3.1,.05-3.94-1.41-3.46-8.11,.48-6.7,.13-9.58,.13-9.58Z"/><path class="n" d="M1111.59,296.68c-.04-.25-3.71-25.44-17.66-40.78-1.08-1.25-2.1-2.47-3.09-3.65-10.07-11.97-16.72-19.87-34.17-9.07l-1.26-2.04c19.21-11.89,27.18-2.42,37.27,9.56,.99,1.17,2,2.38,3.05,3.6,14.43,15.87,18.08,40.97,18.23,42.03l-2.37,.33Z"/><ellipse class="h" cx="1119.72" cy="134.44" rx="18.19" ry="15.32"/><ellipse class="h" cx="1069.92" cy="130.13" rx="14.84" ry="15.8"/><path class="o" d="M1101.52,134.44s8.62-9.58,16.28-10.05c7.66-.48,16.18,1.44,19.1,5.03,0,0-3.54-11.79-20.18-10.08-16.64,1.71-15.2,15.11-15.2,15.11Z"/><path class="o" d="M1055.75,125.42s6.04-6.79,12.98-6.31c6.94,.48,12.24,1.53,14.86,4.83,0,0-3.61-9.62-13.66-9.62-5.44,0-9.79,2.92-11.97,5.75-1.85,2.4-1.9,4.73-2.2,5.35Z"/><g><g><line class="j" x1="1069.44" y1="133.48" x2="1069.9" y2="129.84"/><path d="M1069.82,133.48l.4-3.19,.06-.45c.03-.2-.19-.38-.38-.38-.22,0-.35,.17-.38,.38l-.4,3.19-.06,.45c-.03,.2,.19,.38,.38,.38,.22,0,.35-.17,.38-.38h0Z"/></g><g><line class="j" x1="1067.62" y1="131.21" x2="1071.71" y2="132.14"/><path d="M1067.52,131.57l3.58,.82,.51,.12c.47,.11,.67-.62,.2-.72l-3.58-.82-.51-.12c-.47-.11-.67,.62-.2,.72h0Z"/></g><g><line class="j" x1="1068.76" y1="129.84" x2="1070.81" y2="133.48"/><path d="M1068.44,130.03l1.79,3.19,.25,.45c.24,.42,.88,.04,.65-.38l-1.79-3.19-.25-.45c-.24-.42-.88-.04-.65,.38h0Z"/></g><g><line class="j" x1="1071.04" y1="130.52" x2="1068.31" y2="132.8"/><path d="M1070.77,130.26l-2.39,1.99-.34,.28c-.16,.13-.13,.4,0,.53,.15,.15,.37,.13,.53,0l2.39-1.99,.34-.28c.16-.13,.13-.4,0-.53-.15-.15-.37-.13-.53,0h0Z"/></g><g><line class="j" x1="1071.25" y1="133.09" x2="1068.56" y2="130.6"/><path d="M1071.52,132.82l-2.36-2.18-.33-.31c-.15-.14-.38-.15-.53,0-.14,.14-.15,.39,0,.53l2.36,2.18,.33,.31c.15,.14,.38,.15,.53,0,.14-.14,.15-.39,0-.53h0Z"/></g><g><line class="j" x1="1070.45" y1="130.37" x2="1068.46" y2="133.31"/><path d="M1070.12,130.18l-1.75,2.58-.25,.36c-.11,.17-.03,.42,.13,.51,.18,.11,.4,.03,.51-.13l1.75-2.58,.25-.36c.11-.17,.03-.42-.13-.51-.18-.11-.4-.03-.51,.13h0Z"/></g><g><line class="j" x1="1067.44" y1="132.45" x2="1071.46" y2="131.23"/><path d="M1067.54,132.81l3.51-1.06,.51-.15c.46-.14,.26-.86-.2-.72l-3.51,1.06-.51,.15c-.46,.14-.26,.86,.2,.72h0Z"/></g></g><g><g><line class="j" x1="1119.24" y1="136.35" x2="1119.69" y2="132.71"/><path d="M1119.61,136.35l.4-3.19,.06-.45c.03-.2-.19-.38-.38-.38-.22,0-.35,.17-.38,.38l-.4,3.19-.06,.45c-.03,.2,.19,.38,.38,.38,.22,0,.35-.17,.38-.38h0Z"/></g><g><line class="j" x1="1117.42" y1="134.08" x2="1121.51" y2="135.02"/><path d="M1117.32,134.44l3.58,.82,.51,.12c.47,.11,.67-.62,.2-.72l-3.58-.82-.51-.12c-.47-.11-.67,.62-.2,.72h0Z"/></g><g><line class="j" x1="1118.56" y1="132.71" x2="1120.6" y2="136.35"/><path d="M1118.23,132.9l1.79,3.19,.25,.45c.24,.42,.88,.04,.65-.38l-1.79-3.19-.25-.45c-.24-.42-.88-.04-.65,.38h0Z"/></g><g><line class="j" x1="1120.83" y1="133.4" x2="1118.1" y2="135.67"/><path d="M1120.56,133.13l-2.39,1.99-.34,.28c-.16,.13-.13,.4,0,.53,.15,.15,.37,.13,.53,0l2.39-1.99,.34-.28c.16-.13,.13-.4,0-.53-.15-.15-.37-.13-.53,0h0Z"/></g><g><line class="j" x1="1121.05" y1="135.96" x2="1118.36" y2="133.47"/><path d="M1121.31,135.69l-2.36-2.18-.33-.31c-.15-.14-.38-.15-.53,0-.14,.14-.15,.39,0,.53l2.36,2.18,.33,.31c.15,.14,.38,.15,.53,0,.14-.14,.15-.39,0-.53h0Z"/></g><g><line class="j" x1="1120.24" y1="133.24" x2="1118.25" y2="136.19"/><path d="M1119.92,133.05l-1.75,2.58-.25,.36c-.11,.17-.03,.42,.13,.51,.18,.11,.4,.03,.51-.13l1.75-2.58,.25-.36c.11-.17,.03-.42-.13-.51-.18-.11-.4-.03-.51,.13h0Z"/></g><g><line class="j" x1="1117.24" y1="135.32" x2="1121.25" y2="134.1"/><path d="M1117.34,135.69l3.51-1.06,.51-.15c.46-.14,.26-.86-.2-.72l-3.51,1.06-.51,.15c-.46,.14-.26,.86,.2,.72h0Z"/></g></g><path class="m" d="M1139.35,106.67s-9.85-5.99-19.77-4.91c-9.92,1.08-16.14,7.78-16.14,8.26s.96,2.87,1.92,2.87,8.74-6.63,12.75-6.67,15.5-1.47,21.25,.44Z"/><path class="m" d="M1069.45,103.25s13.88,1.98,16.75,8.69c.96,2.39-3.97-1.51-15.39-4.34-9.5-.44-11.9,1.95-13.81,1.95s-3.4-.28-3.62-1.58,11.29-5.26,16.07-4.72Z"/><g><g><path class="ab" d="M1192.49,150.72s4.63-1.11,5.43-11.09-8.3-6.23-8.3-6.23"/><path class="ab" d="M1190.1,143.29s2.72-4.05,7.7-2.5"/></g><path d="M1095.48,160.73c-1.09-.74-10.69-7.29-10.96-9.03-.26-1.7,5.8-14.05,6.49-15.45l.46,.2c-2.69,5.45-6.63,14-6.45,15.18,.17,1.16,6.52,5.84,10.75,8.7l-.29,.39Z"/><path d="M1079.98,176.09s2.39,1.92,3.83,1.92,7.18-1.44,9.58-1.44,8.62,0,10.53,.96c2.39,.48,7.18-.96,7.18-.96,0,0,1.92-.96,1.92-2.39l-2.39,.48s-4.79,.48-6.7,.48-2.39,.48-4.31-.48-10.26-1.44-15.19,1.2c-.75,0-2.53-.24-3.01-.72s-1.44,.96-1.44,.96Z"/><g><path class="l" d="M1091.47,182.8s4.79-1.44,6.7-.48"/><path d="M1091.54,183.03l-.14-.46c.2-.06,4.9-1.45,6.88-.46l-.21,.43c-1.81-.91-6.48,.48-6.53,.49Z"/></g></g><g class="e"><path class="m" d="M1182.98,148.49s13.13,59.01-72.47,61.5c-18.94-.28-56.85-7.63-73.38-55.24,0,0,19.38,28.04,27.52,29.48s10.05-21.55,11.97-22.5,6.7-2.87,11.01-2.39,18.67,.48,19.63-.48,10.93,5.06,11.93,8.51,1.48,16.38,8.66,16.86c7.18,.48,36.99,1.29,55.12-35.74Z"/></g><path d="M1046.6,95.53l-.04-.45c-.32-3.94,1.73-9.21,6.99-12.31-1.12-.39-3.93-1.21-5.54-.32l-.78,.43,.46-.77c.17-.28,.34-.62,.54-1.02,1.34-2.65,3.79-7.47,12.99-8.13-1.21-.44-2.71-1.28-2.55-2.73l.02-.14,.13-.05c.22-.09,4.44-1.8,6.92-2.3-1.42-.39-3.17-.83-3.72-.83h-.5l.32-.39c.06-.07,4.99-6.04,12.23-7.29-2.25-.14-4.48-.15-5.02,.2l-.87,.56,.54-.89c.04-.07,3.87-6.19,12.88-6.94-3.27-.3-7.19-.46-8.78,.32-.47,.23-.5,.25-.63,.14l-.12-.1,.05-.15s.06-.06,.16-.11v-.04s.13-.06,.33-.16c.12-.06,.24-.11,.38-.16,3.62-1.7,18.22-7.41,39.29-9.55l.05,.48c-18.52,1.88-31.82,6.53-37.21,8.68,4.29-.35,11.24,.75,11.6,.8l-.07,.47c-10.45-1.38-15.7,4.18-17.12,6.01,2.07-.36,6.97,.15,7.6,.22l-.03,.48c-7.55-.21-13.25,5.52-14.59,6.99,1.41,.22,4.46,1.12,4.61,1.16l-.1,.47c-1.26-.18-5.62,1.41-7.88,2.32-.02,1.8,3.61,2.47,3.64,2.47l-.04,.48c-10.16,.21-12.62,5.04-14.08,7.93-.08,.16-.15,.3-.23,.44,2.28-.68,5.62,.67,5.78,.74l.46,.19-.44,.24c-5.21,2.84-7.35,7.82-7.22,11.67,6.01-4.09,23.95-2.16,24.73-2.08l-.05,.48c-.19-.02-19.28-2.07-24.74,2.24l-.35,.28Z"/></g><g class="g"><path d="M1036.54,117.87s-5.48,18.84,.5,36.83l14.12,18.95s-7.85-12.78-9.58-30.16,2.59-41.08,6.08-46.13c0,0-3.26,1.66-3.71,2.83s-4.78,15.06-7.41,17.69Z"/><path d="M1037.03,154.7s14.12,50.48,66.3,54.82c0,0,7.9,1.18,16.28,.51,9.23-.74,19.03-3.35,19.63-3.83,0,0-24.37-.26-43.57-4.31-12.78-2.69-21.94-9.01-24.97-10.95-7.59-4.85-30.07-27.42-33.67-36.25Z"/><path d="M1067.34,114.27s-9.59,2.08-11.69,11.1c0,0,2.31-4.39,5.85-6.31s6.68-5.15,9.66-4.73l-3.81-.06Z"/><path d="M1117.14,119.1s-16.67,.92-15.72,15.28c0,0,2.87-7.18,4.79-8.62,1.92-1.44,4.62-4.71,10.93-6.66Z"/><path d="M1059.47,104.85s-5.98,2.39-6.19,3.03,1.64,2.05,3.83,1.59,2.52-.86,3.07-.9-3.28,.44-4.23-.04-1.56-.65,3.53-3.68Z"/><path d="M1105.25,112.83s-1.44-.48-1.92-2.87c0,0,2.7-3.3,6.14-5,0,0-4.7,4.05-4.7,5s0,1.44,.48,1.92,7.2-3.58,7.2-3.58c0,0-6.73,4.54-7.2,4.54Z"/><path d="M1080.43,175.36s-1.99,.67-1.03,1.63,3.33,1.98,3.82,2.19,6.34-1.23,7.01-1.23,6.58-.67,6.58-.67l2.78-.59s-10.16-1.03-13.26,.59l-5.9-1.92Z"/><path d="M1091.3,182.74s-.41,0-.41,.48,3.57-.48,4.18-.48,1.94-.52,1.94-.52c0,0-1.81-.4-2.29-.18s-3.42,.7-3.42,.7Z"/><path d="M1189.52,133.34s4.79-.87,5.27,6.31c.17,2.56,.75,5.78-2.39,11.01,0,0,4.4-.71,5.31-9.93,.91-9.22-5.79-8.91-8.18-7.39Z"/><path d="M1190,143.23l1.44,.73s3.2-2.63,5.27-.96l1-2.27s-4.35-2.06-7.7,2.5Z"/><path d="M1085.34,148.43s-3.07,3.66-2.59,4.62,8.62,6.7,8.62,6.7l2.58-.18s-8.81-5.93-9.29-7.42,.68-3.72,.68-3.72Z"/><path d="M1046.46,95.02s5.98-4.68,32.86-2.05c8.21,.23,9.29,.2,9.29,.2,0,0-32.48-8.78-42.15,1.85Z"/><path d="M1047.8,82.19s1.92-8.62,14.84-9.1c3.35,0,5.75,.48,5.75,.48,0,0-14.84,0-20.59,8.62Z"/><path d="M1058.81,70.22s.17,1.59,.57,1.75,7.57-3.67,11.88-4.15l4.31-.48s-10.53-.48-16.76,2.87Z"/><path d="M1061.89,66.3s8.41-9.97,22.78-6.62c0,0-17.24,.96-22.78,6.62Z"/><path d="M1069.45,59s5.16-10.32,24.79-5.06l4.79,1.44s-20.85-4.73-29.58,3.62Z"/><path d="M1073.91,51.68s21.94-10.74,54.89-9.27l10.2,1.4s-36.62-1.36-60.08,7.74l-5.01,.13Z"/><path d="M1068.81,197.73s1.34-1.7,1.01,.8c-1.07,8.32-5.53,30.06-11.16,34.47"/><path d="M1071.83,199.65s3.61,9.42,5.59,10.38,42.14,18.72,65.63-4.76c0,0-64.42,3.64-71.22-5.61Z"/><path d="M1145.52,204.5s-31.65,50.53-29,90.38c0,0,7.4-43.2,22.65-66.12,2.94-9.64,5.81-14.84,6.53-16.79,2.64-2.43,6.95-7.21,9.38-11.29l-9.57,3.82Z"/><path d="M1168.01,221.45s-1.95,4.86-2.91,4.38-5.27-4.79-5.27-5.75,4.86-1.1,8.18,1.36Z"/><path d="M1158.33,199s-6.16,13.42-8.55,14.38c-1.44,2.39-4.99,8.01-5.37,9.27s-3.87,4.26-5.24,6.12,6.29-15.8,6.53-16.79,7.99-8.19,9.38-11.29c1.39-3.1,3.24-1.68,3.24-1.68Z"/><path d="M1060.29,202.72s-12.02,40.35-9.62,42.26,11.97-3.83,20.11-2.87,27.55,19.49,27.55,19.49c0,0-15.8-23.33-26.71-23.56s-14.25,5.03-14.25,5.03c0,0-.78,1.47-2.07-1.42s-1.67-6.48,8.58-39.4l-3.59,.47Z"/><path d="M1057.11,213.79s-39.71,29.27-38.16,35.73c0,0-4.77-4-5.68-6.19-.15-.36,.79-3.86,2.92-6.02,10.71-10.86,45.13-37.58,47.69-35.08-2.2,3.47-6.77,11.54-6.77,11.54Z"/><path d="M1017.7,248.11l-1.03,3.54s5.75,11.53,9.1,12.01,13.36-7.89,18.17-7.77c4.81,.11,16.46-7.77,16.46-7.77l3.48-5.56s-5.07,1.48-6.51,4.83-28.25,10.05-28.73,12.93c-1.44,1.44-3.83,0-3.83,0l-5.86-10.78"/><path d="M1016.67,251.65s-15.34,10.74,17.47,188.29l24.52-.91s-39.12-136.59-32.89-175.37l-9.1-12.01Z"/><path d="M1113.27,305.97s-.38,5.43,.59,5.5,2.18-1.73,2.29-2.75-.84-3.89-.84-3.89l-2.04,1.14Z"/></g><g><path class="t" d="M1211.42,1013.51s4.83-167.78-14.48-208.82c-13.28-16.3-151.09-28.57-168.79,27.96-7.04,45.47-21.93,115.07-5.03,189.91,53.11,2.41,188.84-5.43,188.84-5.43l-.54-3.62Z"/><path class="h" d="M1090.11,836.67s-1.23,181.98-4.84,186.35l60.81-2.63s-11.91-183.72-10.71-191.56-22.04-12.55-22.04-12.55l-23.22,20.39Z"/><path class="w" d="M1130.81,791.06s5.2,55.9,7.58,104.76c1.21,24.74,1.81,48.89,5.43,59.64,0,0,7.85-86.8,22.93-106.72-3.02-3.62-11.24-12.88-16.79-16.09,1.58-2.82,8.94-15.29,8.94-15.29,0,0-26.03-20.62-28.1-26.3Z"/><path class="w" d="M1088.42,794.19s-17.02,35.85-21.85,40.07c3.62,3.62,10.86,9.3,11.47,14.31-6.04,5.19-14.48,14.66-14.48,16.47s8.54,12.4,14.48,26.56c6.35,15.1,10.14,32.93,10.38,34.87,.48,3.76,.48-83.15,1.69-89.79s2.74-12.13,2.74-12.13l1.18-30.99s-5.49,.4-5.61,.63Z"/><g><path class="j" d="M1131.53,793.56s9.28,9.92,3.85,35.27c-4.83-3.62-16.92-10.61-22.04-12.55-1.78-2.06-1.5-1.94-1.5-1.94,0,0,18.11-4.22,18.11-15.09,.6-3.02,1.59-5.7,1.59-5.7Z"/><path class="j" d="M1094.04,793.56s-12.38,14.15-3.93,43.12c9.05-9.05,23.22-20.39,23.22-20.39l-1.5-1.94s-18.1-10.19-17.8-20.79Z"/></g><g><g><path class="i" d="M1192.11,663.46c0,71.26-17.53,121.33-81.78,124.8-58.24,3.15-77.4-61.08-75.66-132.06,2.33-95.34,42.18-126.8,87.13-124.79,44.95,2.01,70.31,30.05,70.31,132.05Z"/><path class="i" d="M1189.09,665.87s10.86-12.07,15.09-9.05c4.22,3.02,3.02,26.56-4.22,33.19-7.24,6.64-13.65,0-13.65,0l2.79-24.14Z"/><path class="i" d="M1039.41,668.29s-9.66-9.05-13.88-7.24-5.43,30.96,13.88,38.72,0-31.47,0-31.47Z"/></g><path class="i" d="M1095.09,787.44s-3.17,16.64-1.96,19.05,6.64,9.66,18.71,7.85,19.92-6.04,21.12-10.26-3.92-18.42-3.92-18.42l-15.71-5.19-19,2.49,.76,4.48Z"/></g><path class="u" d="M1182.3,579.14s-11.31,10.08-6.48,43.88c4.83,33.8,16.3,40.44,16.3,40.44,0,0,1.42-3.39,7.35-6.22-.71-2.83-3.73-34.21-4.33-39.65s1.5-37.67-12.83-38.45Z"/><path class="u" d="M1039.41,668.29s18.11-7.85,16.3-41.04-2.25-39.64-9.27-41.55c-7.02-1.91-10.07,16.95-10.96,46.45-.89,29.5-2.21,31.31-2.21,31.31l6.14,4.83Z"/><path class="s" d="M1101.96,825.79s6.23,10.89,11.37,10.89,10.89-5.44,14.66-12.68c.14,0-14.66-7.72-14.66-7.72l-11.37,9.51Z"/><path class="s" d="M1109.42,834.26s-2.41,3.02-1.21,6.04c-.6,1.21-2.44,5.1,5.12,5.26,7.56,.17,6.95-1.04,6.95-2.25s.63-2.41,.01-2.72,1.19-2.72-.62-6.34c-1.81-3.62-10.26,0-10.26,0Z"/><path class="s" d="M1108.78,844.25l-29.54,123.39s33.8,49.49,36.21,49.49,29.57-54.32,29.57-54.32c0,0-20.7-108.71-25.74-117.43-5.04-8.71-10.51-1.13-10.51-1.13Z"/><g><path class="k" d="M1122.8,663.27s-5.53,4.41-4.32,8.64c0,3.02-.08,5.17,2.07,6.81s3.36,3.45,5.17,3.45,6.21,1.98,9.44,.69,11.68-3.1,14.7-7.33,1.65-6.36,1.65-6.36l-28.72-5.9Z"/><path class="k" d="M1073.31,672.68s2.31,10.69,10.16,13.11c4.22,1.21,9.05-1.21,10.26-1.21s4.46-.77,4.95-1.29,2.84-1.87,2.26-12.66c-.57-10.79-27.63,2.05-27.63,2.05Z"/></g><g><g><g><ellipse class="j" cx="1136.58" cy="667.68" rx="15.09" ry="10.26"/><ellipse class="j" cx="1086.49" cy="667.68" rx="15.09" ry="10.26"/></g><g><path class="q" d="M1121.49,667.68s4.22-5.43,13.88-5.43,16.09,3.07,16.19,4.25-.5-9.08-14.99-9.08-15.09,9.05-15.09,10.26Z"/><path class="q" d="M1071.4,667.68s4.52-5.43,14.03-5.13,16.15,5.13,16.15,5.13c0,0,0-9.66-15.09-10.26s-15.09,10.26-15.09,10.26Z"/></g></g><g><g><line class="j" x1="1136.41" y1="670.63" x2="1136.98" y2="666.04"/><path d="M1136.78,670.63l.5-4.02,.07-.57c.03-.2-.19-.38-.38-.38-.22,0-.35,.17-.38,.38l-.5,4.02-.07,.57c-.03,.2,.19,.38,.38,.38,.22,0,.35-.17,.38-.38h0Z"/></g><g><line class="j" x1="1134.11" y1="667.76" x2="1139.27" y2="668.94"/><path d="M1134.01,668.12l4.51,1.03,.64,.15c.47,.11,.67-.62,.2-.72l-4.51-1.03-.64-.15c-.47-.11-.67,.62-.2,.72h0Z"/></g><g><line class="j" x1="1135.55" y1="666.04" x2="1138.13" y2="670.63"/><path d="M1135.22,666.23l2.26,4.02,.32,.57c.24,.42,.88,.04,.65-.38l-2.26-4.02-.32-.57c-.24-.42-.88-.04-.65,.38h0Z"/></g><g><line class="j" x1="1138.41" y1="666.9" x2="1134.97" y2="669.77"/><path d="M1138.15,666.64l-3.02,2.51-.42,.35c-.16,.13-.13,.4,0,.53,.15,.15,.37,.13,.53,0l3.02-2.51,.42-.35c.16-.13,.13-.4,0-.53-.15-.15-.37-.13-.53,0h0Z"/></g><g><line class="j" x1="1138.69" y1="670.13" x2="1135.29" y2="666.99"/><path d="M1138.95,669.87l-2.97-2.75-.42-.39c-.35-.33-.89,.2-.53,.53l2.97,2.75,.42,.39c.35,.33,.89-.2,.53-.53h0Z"/></g><g><line class="j" x1="1137.67" y1="666.71" x2="1135.16" y2="670.42"/><path d="M1137.35,666.52l-2.2,3.25-.31,.46c-.27,.4,.38,.78,.65,.38l2.2-3.25,.31-.46c.27-.4-.38-.78-.65-.38h0Z"/></g><g><line class="j" x1="1133.89" y1="669.33" x2="1138.95" y2="667.8"/><path d="M1133.99,669.69l4.42-1.34,.64-.2c.46-.14,.26-.86-.2-.72l-4.42,1.34-.64,.2c-.46,.14-.26,.86,.2,.72h0Z"/></g></g><g><g><line class="j" x1="1086.31" y1="671.23" x2="1086.89" y2="666.65"/><path d="M1086.69,671.23l.5-4.02,.07-.57c.03-.2-.19-.38-.38-.38-.22,0-.35,.17-.38,.38l-.5,4.02-.07,.57c-.03,.2,.19,.38,.38,.38,.22,0,.35-.17,.38-.38h0Z"/></g><g><line class="j" x1="1084.02" y1="668.37" x2="1089.18" y2="669.55"/><path d="M1083.92,668.73l4.51,1.03,.64,.15c.47,.11,.67-.62,.2-.72l-4.51-1.03-.64-.15c-.47-.11-.67,.62-.2,.72h0Z"/></g><g><line class="j" x1="1085.45" y1="666.65" x2="1088.03" y2="671.23"/><path d="M1085.13,666.84l2.26,4.02,.32,.57c.24,.42,.88,.04,.65-.38l-2.26-4.02-.32-.57c-.24-.42-.88-.04-.65,.38h0Z"/></g><g><line class="j" x1="1088.32" y1="667.51" x2="1084.88" y2="670.37"/><path d="M1088.05,667.24l-3.02,2.51-.42,.35c-.16,.13-.13,.4,0,.53,.15,.15,.37,.13,.53,0l3.02-2.51,.42-.35c.16-.13,.13-.4,0-.53-.15-.15-.37-.13-.53,0h0Z"/></g><g><line class="j" x1="1088.59" y1="670.74" x2="1085.2" y2="667.6"/><path d="M1088.86,670.47l-2.97-2.75-.42-.39c-.35-.33-.89,.2-.53,.53l2.97,2.75,.42,.39c.35,.33,.89-.2,.53-.53h0Z"/></g><g><line class="j" x1="1087.58" y1="667.31" x2="1085.07" y2="671.02"/><path d="M1087.25,667.12l-2.2,3.25-.31,.46c-.27,.4,.38,.78,.65,.38l2.2-3.25,.31-.46c.27-.4-.38-.78-.65-.38h0Z"/></g><g><line class="j" x1="1083.79" y1="669.93" x2="1088.85" y2="668.4"/><path d="M1083.89,670.3l4.42-1.34,.64-.2c.46-.14,.26-.86-.2-.72l-4.42,1.34-.64,.2c-.46,.14-.26,.86,.2,.72h0Z"/></g></g></g><g><g><g><g><path class="u" d="M1119.08,651.99s9.55-6.69,15.03-7.57c5.49-.88,10.78-.33,12.36,0s4.28-.47,4.28-.47c0,0-3.91-1.01-5.72-1.61s-4.19-2.21-11.15-.5-14.2,8.35-14.81,10.16Z"/><path class="u" d="M1102.78,652.6s-6.13-7.94-13.93-8.8c-7.8-.86-14.44,3.37-14.44,3.37,0,0-1.61-.75-1.11-1.58s9.02-4.96,14.72-4.1,13.54,4.48,14.75,11.12Z"/></g><path d="M1109.18,722.34c-5.15,0-6.36-4.16-7.18-6.97-.24-.81-.44-1.5-.69-1.93-1.22-2.09-1.88-17.43,0-20.37,1.74-2.7,1.17-16.7,1.16-16.84l.6-.03c.02,.58,.59,14.34-1.25,17.19-1.76,2.73-1.14,17.77,0,19.74,.29,.49,.5,1.22,.75,2.07,.86,2.93,2.03,6.94,7.42,6.5,2.6-.22,4.64-1.24,6.07-3.04,1.71-2.15,2.2-5.01,1.93-6.89-.16-1.11-.61-3.12-1.08-5.25-.83-3.73-1.77-7.95-1.77-9.87,0-1.77-.22-7.57-.39-12.22-.13-3.35-.22-5.99-.22-6.49h.6c0,.49,.1,3.26,.22,6.47,.17,4.66,.39,10.46,.39,12.24s.93,6.05,1.75,9.74c.5,2.23,.93,4.16,1.09,5.29,.29,2.01-.24,5.06-2.06,7.35-1.54,1.93-3.72,3.03-6.49,3.26-.3,.03-.59,.04-.87,.04Z"/><path d="M1159.82,727.49c-.03-.13-.61-3.17,1.24-6.25,.82-1.36,1.74-2.35,2.64-3.3,1.09-1.16,2.12-2.26,2.77-3.89,1.16-2.91,3.94-12.21,4.07-14.79,.04-.84-.09-1.6-.23-2.47-.3-1.74-.66-3.9,.24-7.76l.59,.14c-.88,3.75-.54,5.75-.24,7.53,.15,.87,.29,1.7,.24,2.6-.14,2.68-2.91,11.96-4.11,14.98-.69,1.74-1.76,2.88-2.89,4.08-.87,.93-1.78,1.9-2.56,3.2-1.73,2.88-1.18,5.79-1.17,5.82l-.59,.12Z"/><path d="M1071.1,729.59c-.01-.06-1.23-6.34-3.59-11.08-.77-1.55-2.04-2.59-3.51-3.79-3-2.46-6.74-5.51-8.46-14.69l-1.33-5.73,.59-.14,1.33,5.74c1.68,8.97,5.32,11.95,8.25,14.35,1.52,1.25,2.84,2.32,3.67,3.99,2.41,4.81,3.64,11.17,3.65,11.24l-.59,.11Z"/><path d="M1084.19,743.4l-.35-.49c.16-.11,3.86-2.69,8.98-3.2,2.95-.29,6.92,.34,10.43,.9,2.61,.42,4.86,.78,6.13,.67,.39-.03,1.07-.1,1.98-.18,10.62-1,22.98-2.06,24.32-1.43,1.63,.77,4.56,2.52,4.68,2.6l-.31,.52s-3.02-1.81-4.63-2.57c-1.36-.64-18.4,.96-24,1.49-.91,.09-1.59,.15-1.98,.18-1.34,.12-3.63-.25-6.28-.67-3.47-.55-7.4-1.18-10.27-.9-4.96,.49-8.65,3.06-8.69,3.09Z"/><path d="M1143.62,746.73l-.2-.57s4.1-1.49,4.07-4.7c-.04-3.31-2.04-5.74-2.06-5.76l.46-.39c.09,.1,2.16,2.61,2.2,6.14,.04,3.64-4.28,5.21-4.47,5.27Z"/><path d="M1078.75,750.3c-.38-.32-3.73-3.16-3.73-5.06,0-1.4,.36-6.13,5.01-8.12l.24,.55c-4.31,1.85-4.65,6.26-4.65,7.57s2.54,3.78,3.51,4.6l-.39,.46Z"/></g><path class="ab" d="M1088.9,767.27s10.26,5.43,19.31,4.83c9.05-.6,17.5-6.04,18.71-6.64"/></g><g><path class="ab" d="M1194.69,669.33s2.24-2.7,3.75-1.57,4.65,7.6-2.95,15.53"/><path class="ab" d="M1194.24,676.21s3.85-3.66,6.14-2.93"/></g></g><g><path class="ab" d="M1034.56,672.06s-1.48-2.26-3.29-1.66-4.22,7.24,1.21,13.88"/><path class="ab" d="M1033.68,678.25s-2.22-1.31-4.43-.96"/></g><g><path class="aa" d="M1120.14,579.14s-4.41-4.45-10.73,1.16"/><g><path class="aa" d="M1156.2,552.71s-50.09-34.4-83.29,4.83"/><path class="aa" d="M1156.2,548.15s-66.71-31.65-78.92,9.39"/><path class="aa" d="M1158.01,561.16s-48.28-31.99-80.27-1.81"/><path class="aa" d="M1154.69,553.77s-55.83-29.43-69.11,2.56"/><path class="aa" d="M1154.69,566.22s-78.77-40.67-80.58,1.57"/><path class="aa" d="M1153.18,561.76s-59.75-28.97-70.01,4.83"/><path class="aa" d="M1148.81,567.8s-34.23-24.74-52.05-6.64"/><path class="aa" d="M1142.05,566.59s-55.26-25.35-61.29,6.64"/><path class="aa" d="M1141.11,572.02s-39.83-27.76-55.53,1.21"/><path class="aa" d="M1138.41,573.23s-34.72-28.37-43.78,1.81"/><path class="aa" d="M1133.89,573.23s-35.63-17.71-45.89,4.72"/><path class="aa" d="M1100.14,575.04c18.18-13.28,29.93,0,29.93,0"/><path class="aa" d="M1125.13,577.95s-9.84-10.37-19.26,0"/><path class="aa" d="M1126.69,575.04s-13.95-12.28-25.11,2.91"/></g></g></g><g class="f"><path d="M1025.45,661.01s-1.67,.42-2.41,4.22c-1.54,7.86-1.01,23.51,13.25,32.99l4.36,2.51s-12.18-12.57-13.39-21.02c-1.21-8.45-2.41-15.69-.6-16.3s6.94,.32,6.94,.32c0,0-3.92-3.34-8.15-2.74Z"/><path d="M1037.69,677.19s-8.91,95.99,57.32,110.21c10.71,2.16,10.46,.93,10.46,.93,0,0-39.93-13.9-49.72-41.64-9.78-27.75-17.9-59.35-18.07-69.5Z"/><path d="M1033.6,663.75s0-.75,.02-2.1c.15-12.14,1.36-72.89,10.85-76.11,0,0,5.26-.14,6.4,3.27,0,0-6.08-.82-6.4,2.2s-5.74,41.65-5.74,41.65c0,0-.84,25.64,.6,27.16,2.04,1.52,6.69,3.09,6.69,3.09,0,0-5.48,5.36-6.69,5.36l-6.14-4.83,.41,.32Z"/><path d="M1096.68,534.13s-35.62,10.4-49.5,49.63l-.81,1.91s4.68,.99,5.76,5.88c0,0,24.02-55.38,65.96-60.25,0,0-17.17,1.48-21.41,2.83Z"/><path d="M1054.13,694.27s-.91,13.81,2.1,16.83,8.45,5.43,9.05,8.45,4.83,14.9,4.83,14.9c0,0,1.43-1.57,.71-5.82s-2.49-9.61-4.02-11.15-6.96-6.97-8.77-9.99c0,0-4.21-11.33-3.92-13.21Z"/><path d="M1077.31,738.89s-6.59,1.18-5.99,6.61c.36,3.23,8.87,7.59,8.87,7.59l-1.63-3.37s-3.62-3.02-3.62-4.22,1.11-5.38,2.37-6.61Z"/><path d="M1102.4,676.2l-1.45,3.06s.64,8.81-1.27,10.72c-4.22,4.22-3.62,28.97-.6,30.78s8.02,7.65,16.38-.7c0,0-7.33,3.72-10.35,.7s-5.43-11.47-4.83-18.71,3.62-20.92,2.11-25.85Z"/><path d="M1088.82,767.23s1.26,3.71,3.95,4.88,12.92,4.61,16.56,4.4,14.23-9.27,14.23-9.27c0,0-10.26,5.66-17.37,4.64s-15.56-2.83-17.37-4.64Z"/><path d="M1081.58,744.9s6.02-5.4,10.25-5.11,13.89,1.13,16,1.61,17.09-1.77,17.45-1.55,7.78,.18,7.78,.18c0,0-.26,.89-2.34,1.37s-10.18,1.63-14.28,1.96-9.13,1.54-9.13,1.54c0,0-10.82-2.47-15.26-1.54s-10.48,1.54-10.48,1.54Z"/><path d="M1100.89,671.2s-2.76,9.74-14.66,8.83c-11.9-.91-16.71-9.14-15.21-12.27,1.5-3.13,11.5,9.3,14.35,9.12s15.52-5.68,15.52-5.68Z"/><path d="M1071.02,667.76s8.65-9.74,15.64-10.36c0,0-8.24-.53-12.09,3.35s-3.54,7.01-3.54,7.01Z"/><path d="M1151.43,669.13s-.23,10.64-14.52,10.61-16.1-8.47-15.5-12.1,12.39,7.06,12.39,7.06l17.63-5.57Z"/><path d="M1140.21,657.64s-17.59-3.27-18.8,10.01c0,0,4.22-6.64,7.85-7.24s13.3-2.16,13.3-2.16l-2.35-.61Z"/><path d="M1087.09,641.33s-11.55,3.39-11.55,3.99,7.66-1.39,7.66-1.39l-9.07,3.09s-1-.52-1.01-1.41,9.81-4.65,13.96-4.28Z"/><path d="M1132.18,642.29l-9.56,6.65,5.28-2.3-8.9,5.32s5.23-7.87,13.18-9.67Z"/><path d="M1198.67,657.55s-8.84,4.13-8.64,12.55c.18,7.81,.18,2.38,.18,2.38,0,0,4.83-14.48,12.07-13.88,0,0,2.88,1.71,3.55,3.87,0,0,.97-4.6-2.5-6.05-3.47,.36-4.67,1.13-4.67,1.13Z"/><path d="M1194.92,668.96s1.8-2.15,3.08-1.43,2.73,3.47,2.3,5.71-1.65,6.42-4.66,9.76l-2.41,1.54s4.97-7.31,3.99-10.9c-.98-3.59-4.6-1.78-4.6-1.78,0,0,.35-1.6,2.29-2.91Z"/><path d="M1198.66,673.08s-6.65,3.5-6.95,5.97c0,0,5.74-3.98,6.95-4.07s0-1.9,0-1.9Z"/><path d="M1090.03,793.87s-36.25,.95-60.98,31.22c-6.6,43.03-22.31,166.67-6.02,197.45l26.99,.46s-16.03-164.57-2.2-183.91c13.83-19.34,42.2-45.21,42.2-45.21Z"/><path d="M1093.26,793.36l-3.23,.51s-20.52,36.74-23.54,40.36c3.62,3.62,11.47,8.7,11.47,14.31,0,0-14.48,14.84-14.48,15.66s20.77,31.32,24.87,62.24c0,0-3.75-30.04-10.99-43.92-7.24-13.88-9.66-18.11-9.66-18.11l13.28-14.48s-1.81-11.47-7.24-15.09c0,0,17.33-39.49,19.53-41.47Z"/><path d="M1095.01,787.41s-3.17,17.24-1.96,19.05,6.52,8.92,16.54,8.08,12.21-2.58,12.21-2.58c0,0-16.07,2.34-22.71-4.9-6.64-7.24-.44-19.06-.44-19.06l-3.63-.6Z"/><path d="M1101.88,825.75s5.59,8.82,7.13,8.95,4.56-.36,4.56-.36c0,0-4.9-2.1-6.07-3.22s-3.78-6.9-3.78-6.9l-1.84,1.54Z"/><path d="M1109.01,834.7s-2.04,3.44-.85,5.5c.32,.56,.88,1.01,1.78,1.27,0,0-1.6-.73-.8-3.38s1.53-3.41,1.53-3.41l-1.66,.02Z"/><path d="M1108.05,839.99s-1.73,3.89,1.29,5.1c0,0-2.59-2.59-.99-4.62l-.3-.49Z"/><path d="M1112.21,841.47s3.59,.6,5.19,0c0,0-2.62,.6-3.23,.6s-1.96-.6-1.96-.6Z"/><path d="M1111.39,845.54s4.08,.45,5.24,0c0,0-1.86,.76-2.46,.76s-2.78-.76-2.78-.76Z"/><path d="M1108.59,844.67l-29.43,122.94,34.85,48.36s-14.33-39.91-14.93-55c-.6-15.09,12.31-115.43,12.31-115.43l-2.8-.87Z"/><polygon points="1134.37 834.68 1110.67 818.4 1113.25 816.25 1133.06 827.22 1134.37 834.68"/><path d="M1142.89,952.08l-9.82-124.85-1.62-33.7,8.18,7.49s3.61,52.85,3.26,59.02c-.35,6.18,2.06,85.61,2.06,85.61l-2.06,6.43Z"/></g><g><path d="M1317.81,209.16v35.25h33.9v9h-33.9v35.55h-9.6v-35.55h-33.9v-9h33.9v-35.25h9.6Z"/><path d="M1393.11,203.76h-.3l-16.95,9.15-2.55-10.05,21.3-11.4h11.25v97.5h-12.75v-85.2Z"/><path d="M1477.4,240.06c0-9.3-.3-16.8-.6-23.7h11.85l.6,12.45h.3c5.4-8.85,13.95-14.1,25.8-14.1,17.55,0,30.75,14.85,30.75,36.9,0,26.1-15.9,39-33,39-9.6,0-18-4.2-22.35-11.4h-.3v39.45h-13.05v-78.6Zm13.05,19.35c0,1.95,.3,3.75,.6,5.4,2.4,9.15,10.35,15.45,19.8,15.45,13.95,0,22.05-11.4,22.05-28.05,0-14.55-7.65-27-21.6-27-9,0-17.4,6.45-19.95,16.35-.45,1.65-.9,3.6-.9,5.4v12.45Z"/><path d="M1628.45,252.06c0,26.85-18.6,38.55-36.15,38.55-19.65,0-34.8-14.4-34.8-37.35,0-24.3,15.9-38.55,36-38.55s34.95,15.15,34.95,37.35Zm-57.6,.75c0,15.9,9.15,27.9,22.05,27.9s22.05-11.85,22.05-28.2c0-12.3-6.15-27.9-21.75-27.9s-22.35,14.4-22.35,28.2Z"/><path d="M1659.8,195.96c.15,4.5-3.15,8.1-8.4,8.1-4.65,0-7.95-3.6-7.95-8.1s3.45-8.25,8.25-8.25,8.1,3.6,8.1,8.25Zm-14.7,93v-72.6h13.2v72.6h-13.2Z"/><path d="M1680.2,236.01c0-7.5-.15-13.65-.6-19.65h11.7l.75,12h.3c3.6-6.9,12-13.65,24-13.65,10.05,0,25.65,6,25.65,30.9v43.35h-13.2v-41.85c0-11.7-4.35-21.45-16.8-21.45-8.7,0-15.45,6.15-17.7,13.5-.6,1.65-.9,3.9-.9,6.15v43.65h-13.2v-52.95Z"/><path d="M1778.75,195.51v20.85h18.9v10.05h-18.9v39.15c0,9,2.55,14.1,9.9,14.1,3.45,0,6-.45,7.65-.9l.6,9.9c-2.55,1.05-6.6,1.8-11.7,1.8-6.15,0-11.1-1.95-14.25-5.55-3.75-3.9-5.1-10.35-5.1-18.9v-39.6h-11.25v-10.05h11.25v-17.4l12.9-3.45Z"/></g><g><path d="M1310.04,796.08v9.75h-37.05v-9.75h37.05Z"/><path d="M1381.74,756.33h-.3l-16.95,9.15-2.55-10.05,21.3-11.4h11.25v97.5h-12.75v-85.2Z"/><path d="M1466.48,740.43h13.05v90.15h43.2v10.95h-56.25v-101.1Z"/><path d="M1551.53,748.53c.15,4.5-3.15,8.1-8.4,8.1-4.65,0-7.95-3.6-7.95-8.1s3.45-8.25,8.25-8.25,8.1,3.6,8.1,8.25Zm-14.7,93v-72.6h13.2v72.6h-13.2Z"/><path d="M1577.03,768.93l14.25,40.8c2.4,6.6,4.35,12.6,5.85,18.6h.45c1.65-6,3.75-12,6.15-18.6l14.1-40.8h13.8l-28.5,72.6h-12.6l-27.6-72.6h14.1Z"/></g><path class="r" d="M907,1005c-31,30-18.99,8-54,0s-19,25-68,40-58.35-37-92.67-40-30.33,27-76.33,30-77.27-30-77.27-30c0,0-29.73-39-61.73-29s-111.53,58-97.76,29-49.16-18-95.7,0-43.59-49-85.07,0-64.56,30-94.52,0-56.96,0-56.96,0c0,0-24-57,0-66s53-9,27-41-26-62-26-62c0,0,6-31.77-1-98.89s29-66.11,29-66.11c0,0-47-46.29-29-74.15s-47-15.85-21-50.85,2-90,21-106-56-68.35-10-109,10-48.42,10-48.42c0,0-29-24.09,0-80.34s0-76.88,0-76.88c0,0-32-65.37,0-69.37s60.5,0,60.5,0c0,0,65.19-30,67.34,0s72.07,0,72.07,0c0,0,70.04-24,85.07,0s52.3-10.03,52.3-10.03c13.7-2.63,27.77-2.72,41.5-.27,0,0,23.23-32.71,57.23-21.71s76.62,32,101.81,32,89.19-16,103.19-32,55.88,32,79.94,32,46.06-55,65.06-32,45,36,74,32-3,19.7,0,48.85,42,19.15,42,45.15-53,82.87-42,110.93,64,28.07,53,67.07-64,45.73-53,70.37-48,34.63-31,48.63,3,95,31,89.5,31-14.5,42,17.5-56,86.52-42,113.76-54,68.24-41,99.24-5,92.45,41,99.23,47,29.77,18,53.77,13,55-18,85Z"/><g><path d="M81.15,125.12c3.28,2.02,8.06,3.7,13.1,3.7,7.48,0,11.84-3.95,11.84-9.66,0-5.29-3.02-8.32-10.67-11.26-9.24-3.28-14.95-8.06-14.95-16.04,0-8.82,7.31-15.37,18.31-15.37,5.8,0,10,1.34,12.52,2.77l-2.02,5.96c-1.85-1.01-5.63-2.69-10.75-2.69-7.73,0-10.67,4.62-10.67,8.48,0,5.29,3.44,7.9,11.26,10.92,9.58,3.7,14.45,8.32,14.45,16.63,0,8.74-6.47,16.3-19.82,16.3-5.46,0-11.42-1.6-14.45-3.61l1.85-6.13Z"/><path d="M131.54,81.94c.08,2.52-1.76,4.54-4.7,4.54-2.6,0-4.45-2.02-4.45-4.54s1.93-4.62,4.62-4.62,4.54,2.02,4.54,4.62Zm-8.23,52.08v-40.66h7.39v40.66h-7.39Z"/><path d="M151.87,81.69v11.68h10.58v5.63h-10.58v21.92c0,5.04,1.43,7.9,5.54,7.9,1.93,0,3.36-.25,4.28-.5l.34,5.54c-1.43,.59-3.7,1.01-6.55,1.01-3.44,0-6.22-1.09-7.98-3.11-2.1-2.18-2.86-5.8-2.86-10.58v-22.18h-6.3v-5.63h6.3v-9.74l7.22-1.93Z"/><path d="M204.79,122.94c0,4.2,.08,7.9,.34,11.09h-6.55l-.42-6.64h-.17c-1.93,3.28-6.22,7.56-13.44,7.56-6.38,0-14.03-3.53-14.03-17.81v-23.77h7.39v22.51c0,7.73,2.35,12.94,9.07,12.94,4.96,0,8.4-3.44,9.74-6.72,.42-1.09,.67-2.44,.67-3.78v-24.95h7.39v29.57Z"/><path d="M239.57,134.02l-.59-5.12h-.25c-2.27,3.19-6.64,6.05-12.43,6.05-8.23,0-12.43-5.8-12.43-11.68,0-9.83,8.74-15.2,24.44-15.12v-.84c0-3.36-.92-9.41-9.24-9.41-3.78,0-7.73,1.18-10.58,3.02l-1.68-4.87c3.36-2.18,8.23-3.61,13.36-3.61,12.43,0,15.46,8.48,15.46,16.63v15.2c0,3.53,.17,6.97,.67,9.74h-6.72Zm-1.09-20.75c-8.06-.17-17.22,1.26-17.22,9.16,0,4.79,3.19,7.06,6.97,7.06,5.29,0,8.65-3.36,9.83-6.8,.25-.76,.42-1.6,.42-2.35v-7.06Z"/><path d="M266.11,81.69v11.68h10.58v5.63h-10.58v21.92c0,5.04,1.43,7.9,5.54,7.9,1.93,0,3.36-.25,4.28-.5l.34,5.54c-1.43,.59-3.7,1.01-6.55,1.01-3.44,0-6.22-1.09-7.98-3.11-2.1-2.18-2.86-5.8-2.86-10.58v-22.18h-6.3v-5.63h6.3v-9.74l7.22-1.93Z"/><path d="M293.24,81.94c.08,2.52-1.76,4.54-4.7,4.54-2.6,0-4.45-2.02-4.45-4.54s1.93-4.62,4.62-4.62,4.54,2.02,4.54,4.62Zm-8.23,52.08v-40.66h7.39v40.66h-7.39Z"/><path d="M341.46,113.36c0,15.04-10.42,21.59-20.24,21.59-11,0-19.49-8.06-19.49-20.92,0-13.61,8.9-21.59,20.16-21.59s19.57,8.48,19.57,20.92Zm-32.26,.42c0,8.9,5.12,15.62,12.35,15.62s12.35-6.64,12.35-15.79c0-6.89-3.44-15.62-12.18-15.62s-12.52,8.06-12.52,15.79Z"/><path d="M350.78,104.37c0-4.2-.08-7.64-.34-11h6.55l.42,6.72h.17c2.02-3.86,6.72-7.64,13.44-7.64,5.63,0,14.36,3.36,14.36,17.3v24.28h-7.39v-23.44c0-6.55-2.44-12.01-9.41-12.01-4.87,0-8.65,3.44-9.91,7.56-.34,.92-.5,2.18-.5,3.44v24.44h-7.39v-29.65Z"/><path d="M401.52,115.04c.17,10,6.55,14.11,13.94,14.11,5.29,0,8.48-.92,11.26-2.1l1.26,5.29c-2.6,1.18-7.06,2.52-13.52,2.52-12.52,0-19.99-8.23-19.99-20.5s7.22-21.92,19.07-21.92c13.27,0,16.8,11.68,16.8,19.15,0,1.51-.17,2.69-.25,3.44h-28.56Zm21.67-5.29c.08-4.7-1.93-12.01-10.25-12.01-7.48,0-10.75,6.89-11.34,12.01h21.59Z"/><path d="M439.48,104.37c0-4.2-.08-7.64-.34-11h6.55l.42,6.72h.17c2.02-3.86,6.72-7.64,13.44-7.64,5.63,0,14.36,3.36,14.36,17.3v24.28h-7.39v-23.44c0-6.55-2.44-12.01-9.41-12.01-4.87,0-8.65,3.44-9.91,7.56-.34,.92-.5,2.18-.5,3.44v24.44h-7.39v-29.65Z"/><path d="M512.14,81.94c.08,2.52-1.76,4.54-4.7,4.54-2.6,0-4.45-2.02-4.45-4.54s1.93-4.62,4.62-4.62,4.54,2.02,4.54,4.62Zm-8.23,52.08v-40.66h7.39v40.66h-7.39Z"/><path d="M548.93,77.41v33.52c0,12.68,5.63,18.06,13.19,18.06,8.4,0,13.78-5.54,13.78-18.06v-33.52h7.39v33.01c0,17.39-9.16,24.53-21.42,24.53-11.59,0-20.33-6.64-20.33-24.19v-33.35h7.39Z"/><path d="M603.03,112.02h.17c1.01-1.43,2.44-3.19,3.61-4.62l11.93-14.03h8.9l-15.71,16.72,17.89,23.94h-8.99l-14.03-19.49-3.78,4.2v15.29h-7.31v-59.64h7.31v37.63Z"/><path d="M636.54,106.05c0-4.79-.08-8.9-.34-12.68h6.47l.25,7.98h.34c1.85-5.46,6.3-8.9,11.26-8.9,.84,0,1.43,.08,2.1,.25v6.97c-.76-.17-1.51-.25-2.52-.25-5.21,0-8.9,3.95-9.91,9.49-.17,1.01-.34,2.18-.34,3.44v21.67h-7.31v-27.97Z"/><path d="M686.11,134.02l-.59-5.12h-.25c-2.27,3.19-6.64,6.05-12.43,6.05-8.23,0-12.43-5.8-12.43-11.68,0-9.83,8.74-15.2,24.44-15.12v-.84c0-3.36-.92-9.41-9.24-9.41-3.78,0-7.73,1.18-10.58,3.02l-1.68-4.87c3.36-2.18,8.23-3.61,13.36-3.61,12.43,0,15.46,8.48,15.46,16.63v15.2c0,3.53,.17,6.97,.67,9.74h-6.72Zm-1.09-20.75c-8.06-.17-17.22,1.26-17.22,9.16,0,4.79,3.19,7.06,6.97,7.06,5.29,0,8.65-3.36,9.83-6.8,.25-.76,.42-1.6,.42-2.35v-7.06Z"/><path d="M712.31,81.94c.08,2.52-1.76,4.54-4.7,4.54-2.6,0-4.45-2.02-4.45-4.54s1.93-4.62,4.62-4.62,4.54,2.02,4.54,4.62Zm-8.23,52.08v-40.66h7.39v40.66h-7.39Z"/><path d="M723.74,104.37c0-4.2-.08-7.64-.34-11h6.55l.42,6.72h.17c2.02-3.86,6.72-7.64,13.44-7.64,5.63,0,14.36,3.36,14.36,17.3v24.28h-7.39v-23.44c0-6.55-2.44-12.01-9.41-12.01-4.87,0-8.65,3.44-9.91,7.56-.34,.92-.5,2.18-.5,3.44v24.44h-7.39v-29.65Z"/><path d="M774.47,115.04c.17,10,6.55,14.11,13.94,14.11,5.29,0,8.48-.92,11.26-2.1l1.26,5.29c-2.6,1.18-7.06,2.52-13.52,2.52-12.52,0-19.99-8.23-19.99-20.5s7.22-21.92,19.07-21.92c13.27,0,16.8,11.68,16.8,19.15,0,1.51-.17,2.69-.25,3.44h-28.56Zm21.67-5.29c.08-4.7-1.93-12.01-10.25-12.01-7.48,0-10.75,6.89-11.34,12.01h21.59Z"/><path d="M86.02,215.84c.17,10,6.55,14.11,13.94,14.11,5.29,0,8.48-.92,11.26-2.1l1.26,5.29c-2.6,1.18-7.06,2.52-13.52,2.52-12.52,0-19.99-8.23-19.99-20.5s7.22-21.92,19.07-21.92c13.27,0,16.8,11.68,16.8,19.15,0,1.51-.17,2.69-.25,3.44h-28.56Zm21.67-5.29c.08-4.7-1.93-12.01-10.25-12.01-7.48,0-10.75,6.89-11.34,12.01h21.59Z"/><path d="M123.98,206.85c0-4.79-.08-8.9-.34-12.68h6.47l.25,7.98h.34c1.85-5.46,6.3-8.9,11.26-8.9,.84,0,1.43,.08,2.1,.25v6.97c-.76-.17-1.51-.25-2.52-.25-5.21,0-8.9,3.95-9.91,9.49-.17,1.01-.34,2.18-.34,3.44v21.67h-7.31v-27.97Z"/><path d="M168.25,227.26c2.18,1.43,6.05,2.94,9.74,2.94,5.38,0,7.9-2.69,7.9-6.05,0-3.53-2.1-5.46-7.56-7.48-7.31-2.6-10.75-6.64-10.75-11.51,0-6.55,5.29-11.93,14.03-11.93,4.12,0,7.73,1.18,10,2.52l-1.85,5.38c-1.6-1.01-4.54-2.35-8.32-2.35-4.37,0-6.8,2.52-6.8,5.54,0,3.36,2.44,4.87,7.73,6.89,7.06,2.69,10.67,6.22,10.67,12.26,0,7.14-5.54,12.18-15.2,12.18-4.45,0-8.57-1.09-11.42-2.77l1.85-5.63Z"/><path d="M202.52,207.44c0-5.21-.17-9.41-.34-13.27h6.64l.34,6.97h.17c3.02-4.96,7.81-7.9,14.45-7.9,9.83,0,17.22,8.32,17.22,20.66,0,14.62-8.9,21.84-18.48,21.84-5.38,0-10.08-2.35-12.52-6.38h-.17v22.09h-7.31v-44.02Zm7.31,10.84c0,1.09,.17,2.1,.34,3.02,1.34,5.12,5.8,8.65,11.09,8.65,7.81,0,12.35-6.38,12.35-15.71,0-8.15-4.28-15.12-12.1-15.12-5.04,0-9.74,3.61-11.17,9.16-.25,.92-.5,2.02-.5,3.02v6.97Z"/><path d="M258.55,182.74c.08,2.52-1.76,4.54-4.7,4.54-2.6,0-4.45-2.02-4.45-4.54s1.93-4.62,4.62-4.62,4.54,2.02,4.54,4.62Zm-8.23,52.08v-40.66h7.39v40.66h-7.39Z"/><path d="M305.08,175.18v49.14c0,3.61,.08,7.73,.34,10.5h-6.64l-.34-7.06h-.17c-2.27,4.54-7.22,7.98-13.86,7.98-9.83,0-17.39-8.32-17.39-20.66-.08-13.52,8.32-21.84,18.23-21.84,6.22,0,10.42,2.94,12.26,6.22h.17v-24.28h7.39Zm-7.39,35.53c0-.92-.08-2.18-.34-3.11-1.09-4.7-5.12-8.57-10.67-8.57-7.64,0-12.18,6.72-12.18,15.71,0,8.23,4.03,15.04,12.01,15.04,4.96,0,9.49-3.28,10.84-8.82,.25-1.01,.34-2.02,.34-3.19v-7.06Z"/><path d="M316.34,227.26c2.18,1.43,6.05,2.94,9.74,2.94,5.38,0,7.9-2.69,7.9-6.05,0-3.53-2.1-5.46-7.56-7.48-7.31-2.6-10.75-6.64-10.75-11.51,0-6.55,5.29-11.93,14.03-11.93,4.12,0,7.73,1.18,10,2.52l-1.85,5.38c-1.6-1.01-4.54-2.35-8.32-2.35-4.37,0-6.8,2.52-6.8,5.54,0,3.36,2.44,4.87,7.73,6.89,7.06,2.69,10.67,6.22,10.67,12.26,0,7.14-5.54,12.18-15.2,12.18-4.45,0-8.57-1.09-11.42-2.77l1.85-5.63Z"/><path d="M354.73,215.84c.17,10,6.55,14.11,13.94,14.11,5.29,0,8.48-.92,11.26-2.1l1.26,5.29c-2.6,1.18-7.06,2.52-13.52,2.52-12.52,0-19.99-8.23-19.99-20.5s7.22-21.92,19.07-21.92c13.27,0,16.8,11.68,16.8,19.15,0,1.51-.17,2.69-.25,3.44h-28.56Zm21.67-5.29c.08-4.7-1.93-12.01-10.25-12.01-7.48,0-10.75,6.89-11.34,12.01h21.59Z"/><path d="M401.6,182.49v11.68h10.58v5.63h-10.58v21.92c0,5.04,1.43,7.9,5.54,7.9,1.93,0,3.36-.25,4.28-.5l.34,5.54c-1.43,.59-3.7,1.01-6.55,1.01-3.44,0-6.22-1.09-7.98-3.11-2.1-2.18-2.86-5.8-2.86-10.58v-22.18h-6.3v-5.63h6.3v-9.74l7.22-1.93Z"/><path d="M447.21,182.49v11.68h10.58v5.63h-10.58v21.92c0,5.04,1.43,7.9,5.54,7.9,1.93,0,3.36-.25,4.28-.5l.34,5.54c-1.43,.59-3.7,1.01-6.55,1.01-3.44,0-6.22-1.09-7.98-3.11-2.1-2.18-2.86-5.8-2.86-10.58v-22.18h-6.3v-5.63h6.3v-9.74l7.22-1.93Z"/><path d="M474.34,182.74c.08,2.52-1.76,4.54-4.7,4.54-2.6,0-4.45-2.02-4.45-4.54s1.93-4.62,4.62-4.62,4.54,2.02,4.54,4.62Zm-8.23,52.08v-40.66h7.39v40.66h-7.39Z"/><path d="M485.76,175.18h7.39v59.64h-7.39v-59.64Z"/><path d="M499.96,245.16c1.85-4.96,4.12-13.94,5.04-20.08l8.23-.84c-1.93,7.14-5.63,16.46-7.98,20.41l-5.29,.5Z"/><path d="M576.73,214.16c0,15.04-10.42,21.59-20.24,21.59-11,0-19.49-8.06-19.49-20.92,0-13.61,8.9-21.59,20.16-21.59s19.57,8.48,19.57,20.92Zm-32.26,.42c0,8.9,5.12,15.62,12.35,15.62s12.35-6.64,12.35-15.79c0-6.89-3.44-15.62-12.18-15.62s-12.52,8.06-12.52,15.79Z"/><path d="M621.09,194.17c-.17,2.94-.34,6.22-.34,11.17v23.6c0,9.32-1.85,15.04-5.8,18.56-3.95,3.7-9.66,4.87-14.78,4.87s-10.25-1.18-13.52-3.36l1.85-5.63c2.69,1.68,6.89,3.19,11.93,3.19,7.56,0,13.1-3.95,13.1-14.2v-4.54h-.17c-2.27,3.78-6.64,6.8-12.94,6.8-10.08,0-17.3-8.57-17.3-19.82,0-13.78,8.99-21.59,18.31-21.59,7.06,0,10.92,3.7,12.68,7.06h.17l.34-6.13h6.47Zm-7.64,16.04c0-1.26-.08-2.35-.42-3.36-1.34-4.28-4.96-7.81-10.33-7.81-7.06,0-12.1,5.96-12.1,15.37,0,7.98,4.03,14.62,12.01,14.62,4.54,0,8.65-2.86,10.25-7.56,.42-1.26,.59-2.69,.59-3.95v-7.31Z"/><path d="M685.93,175.18v49.14c0,3.61,.08,7.73,.34,10.5h-6.64l-.34-7.06h-.17c-2.27,4.54-7.22,7.98-13.86,7.98-9.83,0-17.39-8.32-17.39-20.66-.08-13.52,8.32-21.84,18.23-21.84,6.22,0,10.42,2.94,12.26,6.22h.17v-24.28h7.39Zm-7.39,35.53c0-.92-.08-2.18-.34-3.11-1.09-4.7-5.12-8.57-10.67-8.57-7.64,0-12.18,6.72-12.18,15.71,0,8.23,4.03,15.04,12.01,15.04,4.96,0,9.49-3.28,10.84-8.82,.25-1.01,.34-2.02,.34-3.19v-7.06Z"/><path d="M702.31,215.84c.17,10,6.55,14.11,13.94,14.11,5.29,0,8.48-.92,11.26-2.1l1.26,5.29c-2.6,1.18-7.06,2.52-13.52,2.52-12.52,0-19.99-8.23-19.99-20.5s7.22-21.92,19.07-21.92c13.27,0,16.8,11.68,16.8,19.15,0,1.51-.17,2.69-.25,3.44h-28.56Zm21.67-5.29c.08-4.7-1.93-12.01-10.25-12.01-7.48,0-10.75,6.89-11.34,12.01h21.59Z"/><path d="M758.09,175.18h7.39v25.37h.17c1.18-2.1,3.02-3.95,5.29-5.21,2.18-1.26,4.79-2.1,7.56-2.1,5.46,0,14.2,3.36,14.2,17.39v24.19h-7.39v-23.35c0-6.55-2.44-12.1-9.41-12.1-4.79,0-8.57,3.36-9.91,7.39-.42,1.01-.5,2.1-.5,3.53v24.53h-7.39v-59.64Z"/><path d="M827.22,234.82l-.59-5.12h-.25c-2.27,3.19-6.64,6.05-12.43,6.05-8.23,0-12.43-5.8-12.43-11.68,0-9.83,8.74-15.2,24.44-15.12v-.84c0-3.36-.92-9.41-9.24-9.41-3.78,0-7.73,1.18-10.58,3.02l-1.68-4.87c3.36-2.18,8.23-3.61,13.36-3.61,12.43,0,15.46,8.48,15.46,16.63v15.2c0,3.53,.17,6.97,.67,9.74h-6.72Zm-1.09-20.75c-8.06-.17-17.22,1.26-17.22,9.16,0,4.79,3.19,7.06,6.97,7.06,5.29,0,8.65-3.36,9.83-6.8,.25-.76,.42-1.6,.42-2.35v-7.06Z"/><path d="M845.19,206.85c0-4.79-.08-8.9-.34-12.68h6.47l.25,7.98h.34c1.85-5.46,6.3-8.9,11.26-8.9,.84,0,1.43,.08,2.1,.25v6.97c-.76-.17-1.51-.25-2.52-.25-5.21,0-8.9,3.95-9.91,9.49-.17,1.01-.34,2.18-.34,3.44v21.67h-7.31v-27.97Z"/><path d="M81.56,335.62c.17-2.77,.34-6.89,.34-10.5v-49.14h7.31v25.54h.17c2.6-4.54,7.31-7.48,13.86-7.48,10.08,0,17.22,8.4,17.14,20.75,0,14.53-9.16,21.76-18.23,21.76-5.88,0-10.58-2.27-13.61-7.64h-.25l-.34,6.72h-6.38Zm7.64-16.3c0,.92,.17,1.85,.34,2.69,1.43,5.12,5.71,8.65,11.09,8.65,7.73,0,12.35-6.3,12.35-15.62,0-8.15-4.2-15.12-12.1-15.12-5.04,0-9.74,3.44-11.26,9.07-.17,.84-.42,1.85-.42,3.02v7.31Z"/><path d="M129.7,307.65c0-4.79-.08-8.9-.34-12.68h6.47l.25,7.98h.34c1.85-5.46,6.3-8.9,11.26-8.9,.84,0,1.43,.08,2.1,.25v6.97c-.76-.17-1.51-.25-2.52-.25-5.21,0-8.9,3.95-9.91,9.49-.17,1.01-.34,2.18-.34,3.44v21.67h-7.31v-27.97Z"/><path d="M191.18,324.54c0,4.2,.08,7.9,.34,11.09h-6.55l-.42-6.64h-.17c-1.93,3.28-6.22,7.56-13.44,7.56-6.38,0-14.03-3.53-14.03-17.81v-23.77h7.39v22.51c0,7.73,2.35,12.94,9.07,12.94,4.96,0,8.4-3.44,9.74-6.72,.42-1.09,.67-2.44,.67-3.78v-24.95h7.39v29.57Z"/><path d="M238.48,294.97c-.17,2.94-.34,6.22-.34,11.17v23.6c0,9.32-1.85,15.04-5.8,18.56-3.95,3.7-9.66,4.87-14.78,4.87s-10.25-1.18-13.52-3.36l1.85-5.63c2.69,1.68,6.89,3.19,11.93,3.19,7.56,0,13.1-3.95,13.1-14.2v-4.54h-.17c-2.27,3.78-6.64,6.8-12.94,6.8-10.08,0-17.3-8.57-17.3-19.82,0-13.78,8.99-21.59,18.31-21.59,7.06,0,10.92,3.7,12.68,7.06h.17l.34-6.13h6.47Zm-7.64,16.04c0-1.26-.08-2.35-.42-3.36-1.34-4.28-4.96-7.81-10.33-7.81-7.06,0-12.1,5.96-12.1,15.37,0,7.98,4.03,14.62,12.01,14.62,4.54,0,8.65-2.86,10.25-7.56,.42-1.26,.59-2.69,.59-3.95v-7.31Z"/><path d="M268.97,335.62v-35.03h-5.71v-5.63h5.71v-1.93c0-5.71,1.26-10.92,4.7-14.2,2.77-2.69,6.47-3.78,9.91-3.78,2.6,0,4.87,.59,6.3,1.18l-1.01,5.71c-1.09-.5-2.6-.92-4.7-.92-6.3,0-7.9,5.54-7.9,11.76v2.18h9.83v5.63h-9.83v35.03h-7.31Z"/><path d="M328.44,314.96c0,15.04-10.42,21.59-20.24,21.59-11,0-19.49-8.06-19.49-20.92,0-13.61,8.9-21.59,20.16-21.59s19.57,8.48,19.57,20.92Zm-32.26,.42c0,8.9,5.12,15.62,12.35,15.62s12.35-6.64,12.35-15.79c0-6.89-3.44-15.62-12.18-15.62s-12.52,8.06-12.52,15.79Z"/><path d="M337.76,307.65c0-4.79-.08-8.9-.34-12.68h6.47l.25,7.98h.34c1.85-5.46,6.3-8.9,11.26-8.9,.84,0,1.43,.08,2.1,.25v6.97c-.76-.17-1.51-.25-2.52-.25-5.21,0-8.9,3.95-9.91,9.49-.17,1.01-.34,2.18-.34,3.44v21.67h-7.31v-27.97Z"/><path d="M418.15,275.98v49.14c0,3.61,.08,7.73,.34,10.5h-6.64l-.34-7.06h-.17c-2.27,4.54-7.22,7.98-13.86,7.98-9.83,0-17.39-8.32-17.39-20.66-.08-13.52,8.32-21.84,18.23-21.84,6.22,0,10.42,2.94,12.26,6.22h.17v-24.28h7.39Zm-7.39,35.53c0-.92-.08-2.18-.34-3.11-1.09-4.7-5.12-8.57-10.67-8.57-7.64,0-12.18,6.72-12.18,15.71,0,8.23,4.03,15.04,12.01,15.04,4.96,0,9.49-3.28,10.84-8.82,.25-1.01,.34-2.02,.34-3.19v-7.06Z"/><path d="M438.64,283.54c.08,2.52-1.76,4.54-4.7,4.54-2.6,0-4.45-2.02-4.45-4.54s1.93-4.62,4.62-4.62,4.54,2.02,4.54,4.62Zm-8.23,52.08v-40.66h7.39v40.66h-7.39Z"/><path d="M450.07,305.97c0-4.2-.08-7.64-.34-11h6.55l.42,6.72h.17c2.02-3.86,6.72-7.64,13.44-7.64,5.63,0,14.36,3.36,14.36,17.3v24.28h-7.39v-23.44c0-6.55-2.44-12.01-9.41-12.01-4.87,0-8.65,3.44-9.91,7.56-.34,.92-.5,2.18-.5,3.44v24.44h-7.39v-29.65Z"/><path d="M537.01,335.62l-.59-5.12h-.25c-2.27,3.19-6.64,6.05-12.43,6.05-8.23,0-12.43-5.8-12.43-11.68,0-9.83,8.74-15.2,24.44-15.12v-.84c0-3.36-.92-9.41-9.24-9.41-3.78,0-7.73,1.18-10.58,3.02l-1.68-4.87c3.36-2.18,8.23-3.61,13.36-3.61,12.43,0,15.46,8.48,15.46,16.63v15.2c0,3.53,.17,6.97,.67,9.74h-6.72Zm-1.09-20.75c-8.06-.17-17.22,1.26-17.22,9.16,0,4.79,3.19,7.06,6.97,7.06,5.29,0,8.65-3.36,9.83-6.8,.25-.76,.42-1.6,.42-2.35v-7.06Z"/><path d="M553.97,328.06c2.18,1.43,6.05,2.94,9.74,2.94,5.38,0,7.9-2.69,7.9-6.05,0-3.53-2.1-5.46-7.56-7.48-7.31-2.6-10.75-6.64-10.75-11.51,0-6.55,5.29-11.93,14.03-11.93,4.12,0,7.73,1.18,10,2.52l-1.85,5.38c-1.6-1.01-4.54-2.35-8.32-2.35-4.37,0-6.8,2.52-6.8,5.54,0,3.36,2.44,4.87,7.73,6.89,7.06,2.69,10.67,6.22,10.67,12.26,0,7.14-5.54,12.18-15.2,12.18-4.45,0-8.57-1.09-11.42-2.77l1.85-5.63Z"/><path d="M587.24,328.06c2.18,1.43,6.05,2.94,9.74,2.94,5.38,0,7.9-2.69,7.9-6.05,0-3.53-2.1-5.46-7.56-7.48-7.31-2.6-10.75-6.64-10.75-11.51,0-6.55,5.29-11.93,14.03-11.93,4.12,0,7.73,1.18,10,2.52l-1.85,5.38c-1.6-1.01-4.54-2.35-8.32-2.35-4.37,0-6.8,2.52-6.8,5.54,0,3.36,2.44,4.87,7.73,6.89,7.06,2.69,10.67,6.22,10.67,12.26,0,7.14-5.54,12.18-15.2,12.18-4.45,0-8.57-1.09-11.42-2.77l1.85-5.63Z"/><path d="M629.74,283.54c.08,2.52-1.76,4.54-4.7,4.54-2.6,0-4.45-2.02-4.45-4.54s1.93-4.62,4.62-4.62,4.54,2.02,4.54,4.62Zm-8.23,52.08v-40.66h7.39v40.66h-7.39Z"/><path d="M640.16,328.06c2.18,1.43,6.05,2.94,9.74,2.94,5.38,0,7.9-2.69,7.9-6.05,0-3.53-2.1-5.46-7.56-7.48-7.31-2.6-10.75-6.64-10.75-11.51,0-6.55,5.29-11.93,14.03-11.93,4.12,0,7.73,1.18,10,2.52l-1.85,5.38c-1.6-1.01-4.54-2.35-8.32-2.35-4.37,0-6.8,2.52-6.8,5.54,0,3.36,2.44,4.87,7.73,6.89,7.06,2.69,10.67,6.22,10.67,12.26,0,7.14-5.54,12.18-15.2,12.18-4.45,0-8.57-1.09-11.42-2.77l1.85-5.63Z"/><path d="M683.33,283.29v11.68h10.58v5.63h-10.58v21.92c0,5.04,1.43,7.9,5.54,7.9,1.93,0,3.36-.25,4.28-.5l.34,5.54c-1.43,.59-3.7,1.01-6.55,1.01-3.44,0-6.22-1.09-7.98-3.11-2.1-2.18-2.86-5.8-2.86-10.58v-22.18h-6.3v-5.63h6.3v-9.74l7.22-1.93Z"/><path d="M724.74,335.62l-.59-5.12h-.25c-2.27,3.19-6.64,6.05-12.43,6.05-8.23,0-12.43-5.8-12.43-11.68,0-9.83,8.74-15.2,24.44-15.12v-.84c0-3.36-.92-9.41-9.24-9.41-3.78,0-7.73,1.18-10.58,3.02l-1.68-4.87c3.36-2.18,8.23-3.61,13.36-3.61,12.43,0,15.46,8.48,15.46,16.63v15.2c0,3.53,.17,6.97,.67,9.74h-6.72Zm-1.09-20.75c-8.06-.17-17.22,1.26-17.22,9.16,0,4.79,3.19,7.06,6.97,7.06,5.29,0,8.65-3.36,9.83-6.8,.25-.76,.42-1.6,.42-2.35v-7.06Z"/><path d="M742.72,305.97c0-4.2-.08-7.64-.34-11h6.55l.42,6.72h.17c2.02-3.86,6.72-7.64,13.44-7.64,5.63,0,14.36,3.36,14.36,17.3v24.28h-7.39v-23.44c0-6.55-2.44-12.01-9.41-12.01-4.87,0-8.65,3.44-9.91,7.56-.34,.92-.5,2.18-.5,3.44v24.44h-7.39v-29.65Z"/><path d="M818.32,334.11c-1.93,1.01-6.22,2.35-11.68,2.35-12.26,0-20.24-8.32-20.24-20.75s8.57-21.59,21.84-21.59c4.37,0,8.23,1.09,10.25,2.1l-1.68,5.71c-1.76-1.01-4.54-1.93-8.57-1.93-9.32,0-14.36,6.89-14.36,15.37,0,9.41,6.05,15.2,14.11,15.2,4.2,0,6.97-1.09,9.07-2.02l1.26,5.54Z"/><path d="M830.58,316.64c.17,10,6.55,14.11,13.94,14.11,5.29,0,8.48-.92,11.26-2.1l1.26,5.29c-2.6,1.18-7.06,2.52-13.52,2.52-12.52,0-19.99-8.23-19.99-20.5s7.22-21.92,19.07-21.92c13.27,0,16.8,11.68,16.8,19.15,0,1.51-.17,2.69-.25,3.44h-28.56Zm21.67-5.29c.08-4.7-1.93-12.01-10.25-12.01-7.48,0-10.75,6.89-11.34,12.01h21.59Z"/><path d="M865.78,331.26c0-3.11,2.1-5.29,5.04-5.29s4.96,2.18,4.96,5.29-1.93,5.29-5.04,5.29c-2.94,0-4.96-2.27-4.96-5.29Z"/><path d="M89.46,480.61v23.69h27.38v-23.69h7.39v56.62h-7.39v-26.54h-27.38v26.54h-7.31v-56.62h7.31Z"/><path d="M127.43,548.98c3.36-.25,6.3-1.18,8.06-3.11,2.02-2.35,2.77-5.54,2.77-15.29v-34.02h7.39v36.88c0,7.9-1.26,13.02-4.87,16.72-3.28,3.28-8.65,4.62-12.6,4.62l-.76-5.8Zm19.07-63.84c.08,2.44-1.68,4.54-4.62,4.54-2.77,0-4.54-2.1-4.54-4.54,0-2.6,1.93-4.62,4.7-4.62s4.45,2.02,4.45,4.62Z"/><path d="M186.06,517.65c-.25,9.66,5.29,14.78,12.94,14.78,5.63,0,8.82-1.26,11.09-2.35l1.34,5.21c-3.28,1.76-7.98,2.86-13.36,2.86-6.89,0-13.1-3.28-15.46-8.99h-.17c-2.6,5.63-8.15,8.99-15.12,8.99-8.48,0-12.68-5.71-12.68-11.59,0-9.41,8.74-14.87,24.53-14.7v-1.68c0-2.02-1.26-9.07-9.49-9.07-3.86,0-7.98,1.43-10.42,3.11l-1.76-4.87c3.61-2.27,8.65-3.7,12.68-3.7,7.31,0,11.42,3.44,13.1,8.65h.17c2.77-5.38,7.81-8.65,14.2-8.65,12.43,0,15.88,12.01,15.88,18.73,0,1.26-.08,2.52-.25,3.28h-27.22Zm-6.8-.84c-7.81-.17-17.3,1.18-17.3,9.16,0,4.28,3.19,6.72,7.06,6.72,5.29,0,8.65-3.28,9.83-6.97,.34-.92,.42-1.93,.42-2.94v-5.96Zm27.13-4.45c.25-4.12-2.02-11.42-9.49-11.42s-10.67,6.8-10.92,11.42h20.41Z"/><path d="M222.68,477.58h7.39v59.64h-7.39v-59.64Z"/><path d="M242.51,509.84c0-5.21-.17-9.41-.34-13.27h6.64l.34,6.97h.17c3.02-4.96,7.81-7.9,14.45-7.9,9.83,0,17.22,8.32,17.22,20.66,0,14.62-8.9,21.84-18.48,21.84-5.38,0-10.08-2.35-12.52-6.38h-.17v22.09h-7.31v-44.02Zm7.31,10.84c0,1.09,.17,2.1,.34,3.02,1.34,5.12,5.8,8.65,11.09,8.65,7.81,0,12.35-6.38,12.35-15.71,0-8.15-4.28-15.12-12.1-15.12-5.04,0-9.74,3.61-11.17,9.16-.25,.92-.5,2.02-.5,3.02v6.97Z"/><path d="M304.5,532.94l31.42-45.95v-.25h-28.73v-6.13h38.22v4.45l-31.25,45.78v.25h31.67v6.13h-41.33v-4.28Z"/><path d="M357.67,518.24c.17,10,6.55,14.11,13.94,14.11,5.29,0,8.48-.92,11.26-2.1l1.26,5.29c-2.6,1.18-7.06,2.52-13.52,2.52-12.52,0-19.99-8.23-19.99-20.5s7.22-21.92,19.07-21.92c13.27,0,16.8,11.68,16.8,19.15,0,1.51-.17,2.69-.25,3.44h-28.56Zm21.67-5.29c.08-4.7-1.93-12.01-10.25-12.01-7.48,0-10.75,6.89-11.34,12.01h21.59Z"/><path d="M395.64,477.58h7.39v59.64h-7.39v-59.64Z"/><path d="M419.58,518.24c.17,10,6.55,14.11,13.94,14.11,5.29,0,8.48-.92,11.26-2.1l1.26,5.29c-2.6,1.18-7.06,2.52-13.52,2.52-12.52,0-19.99-8.23-19.99-20.5s7.22-21.92,19.07-21.92c13.27,0,16.8,11.68,16.8,19.15,0,1.51-.17,2.69-.25,3.44h-28.56Zm21.67-5.29c.08-4.7-1.93-12.01-10.25-12.01-7.48,0-10.75,6.89-11.34,12.01h21.59Z"/><path d="M457.54,507.57c0-4.2-.08-7.64-.34-11h6.55l.42,6.72h.17c2.02-3.86,6.72-7.64,13.44-7.64,5.63,0,14.36,3.36,14.36,17.3v24.28h-7.39v-23.44c0-6.55-2.44-12.01-9.41-12.01-4.87,0-8.65,3.44-9.91,7.56-.34,.92-.5,2.18-.5,3.44v24.44h-7.39v-29.65Z"/><path d="M503.15,529.66c2.18,1.43,6.05,2.94,9.74,2.94,5.38,0,7.9-2.69,7.9-6.05,0-3.53-2.1-5.46-7.56-7.48-7.31-2.6-10.75-6.64-10.75-11.51,0-6.55,5.29-11.93,14.03-11.93,4.12,0,7.73,1.18,10,2.52l-1.85,5.38c-1.6-1.01-4.54-2.35-8.32-2.35-4.37,0-6.8,2.52-6.8,5.54,0,3.36,2.44,4.87,7.73,6.89,7.06,2.69,10.67,6.22,10.67,12.26,0,7.14-5.54,12.18-15.2,12.18-4.45,0-8.57-1.09-11.42-2.77l1.85-5.63Z"/><path d="M544.73,515.22h.17c1.01-1.43,2.44-3.19,3.61-4.62l11.93-14.03h8.9l-15.71,16.72,17.89,23.94h-8.99l-14.03-19.49-3.78,4.2v15.29h-7.31v-59.64h7.31v37.63Z"/><path d="M580.6,496.57l8.9,24.02c.92,2.69,1.93,5.88,2.6,8.32h.17c.76-2.44,1.6-5.54,2.6-8.48l8.06-23.86h7.81l-11.09,28.98c-5.29,13.94-8.9,21.08-13.94,25.45-3.61,3.19-7.22,4.45-9.07,4.79l-1.85-6.22c1.85-.59,4.28-1.76,6.47-3.61,2.02-1.6,4.54-4.45,6.22-8.23,.34-.76,.59-1.34,.59-1.76s-.17-1.01-.5-1.93l-15.04-37.46h8.06Z"/><path d="M607.56,548.98c3.36-.25,6.3-1.18,8.06-3.11,2.02-2.35,2.77-5.54,2.77-15.29v-34.02h7.39v36.88c0,7.9-1.26,13.02-4.87,16.72-3.28,3.28-8.65,4.62-12.6,4.62l-.76-5.8Zm19.07-63.84c.08,2.44-1.68,4.54-4.62,4.54-2.77,0-4.54-2.1-4.54-4.54,0-2.6,1.93-4.62,4.7-4.62s4.45,2.02,4.45,4.62Z"/><path d="M655.69,507.57c0-4.2-.08-7.64-.34-11h6.47l.34,6.55h.25c2.27-3.86,6.05-7.48,12.77-7.48,5.54,0,9.74,3.36,11.51,8.15h.17c1.26-2.27,2.86-4.03,4.54-5.29,2.44-1.85,5.12-2.86,8.99-2.86,5.38,0,13.36,3.53,13.36,17.64v23.94h-7.22v-23.02c0-7.81-2.86-12.52-8.82-12.52-4.2,0-7.48,3.11-8.74,6.72-.34,1.01-.59,2.35-.59,3.7v25.12h-7.22v-24.36c0-6.47-2.86-11.17-8.48-11.17-4.62,0-7.98,3.7-9.16,7.39-.42,1.09-.59,2.35-.59,3.61v24.53h-7.22v-29.65Z"/><path d="M729.87,518.24c.17,10,6.55,14.11,13.94,14.11,5.29,0,8.48-.92,11.26-2.1l1.26,5.29c-2.6,1.18-7.06,2.52-13.52,2.52-12.52,0-19.99-8.23-19.99-20.5s7.22-21.92,19.07-21.92c13.27,0,16.8,11.68,16.8,19.15,0,1.51-.17,2.69-.25,3.44h-28.56Zm21.67-5.29c.08-4.7-1.93-12.01-10.25-12.01-7.48,0-10.75,6.89-11.34,12.01h21.59Z"/><path d="M802.95,477.58v49.14c0,3.61,.08,7.73,.34,10.5h-6.64l-.34-7.06h-.17c-2.27,4.54-7.22,7.98-13.86,7.98-9.83,0-17.39-8.32-17.39-20.66-.08-13.52,8.32-21.84,18.23-21.84,6.22,0,10.42,2.94,12.26,6.22h.17v-24.28h7.39Zm-7.39,35.53c0-.92-.08-2.18-.34-3.11-1.09-4.7-5.12-8.57-10.67-8.57-7.64,0-12.18,6.72-12.18,15.71,0,8.23,4.03,15.04,12.01,15.04,4.96,0,9.49-3.28,10.84-8.82,.25-1.01,.34-2.02,.34-3.19v-7.06Z"/><path d="M104.41,638.02l-.59-5.12h-.25c-2.27,3.19-6.64,6.05-12.43,6.05-8.23,0-12.43-5.8-12.43-11.68,0-9.83,8.74-15.2,24.44-15.12v-.84c0-3.36-.92-9.41-9.24-9.41-3.78,0-7.73,1.18-10.58,3.02l-1.68-4.87c3.36-2.18,8.23-3.61,13.36-3.61,12.43,0,15.46,8.48,15.46,16.63v15.2c0,3.53,.17,6.97,.67,9.74h-6.72Zm-1.09-20.75c-8.06-.17-17.22,1.26-17.22,9.16,0,4.79,3.19,7.06,6.97,7.06,5.29,0,8.65-3.36,9.83-6.8,.25-.76,.42-1.6,.42-2.35v-7.06Z"/><path d="M130.96,585.69v11.68h10.58v5.63h-10.58v21.92c0,5.04,1.43,7.9,5.54,7.9,1.93,0,3.36-.25,4.28-.5l.34,5.54c-1.43,.59-3.7,1.01-6.55,1.01-3.44,0-6.22-1.09-7.98-3.11-2.1-2.18-2.86-5.8-2.86-10.58v-22.18h-6.3v-5.63h6.3v-9.74l7.22-1.93Z"/><path d="M166.66,630.46c2.18,1.43,6.05,2.94,9.74,2.94,5.38,0,7.9-2.69,7.9-6.05,0-3.53-2.1-5.46-7.56-7.48-7.31-2.6-10.75-6.64-10.75-11.51,0-6.55,5.29-11.93,14.03-11.93,4.12,0,7.73,1.18,10,2.52l-1.85,5.38c-1.6-1.01-4.54-2.35-8.32-2.35-4.37,0-6.8,2.52-6.8,5.54,0,3.36,2.44,4.87,7.73,6.89,7.06,2.69,10.67,6.22,10.67,12.26,0,7.14-5.54,12.18-15.2,12.18-4.45,0-8.57-1.09-11.42-2.77l1.85-5.63Z"/><path d="M200.93,578.38h7.39v59.64h-7.39v-59.64Z"/><path d="M243.26,638.02l-.59-5.12h-.25c-2.27,3.19-6.64,6.05-12.43,6.05-8.23,0-12.43-5.8-12.43-11.68,0-9.83,8.74-15.2,24.44-15.12v-.84c0-3.36-.92-9.41-9.24-9.41-3.78,0-7.73,1.18-10.58,3.02l-1.68-4.87c3.36-2.18,8.23-3.61,13.36-3.61,12.43,0,15.46,8.48,15.46,16.63v15.2c0,3.53,.17,6.97,.67,9.74h-6.72Zm-1.09-20.75c-8.06-.17-17.22,1.26-17.22,9.16,0,4.79,3.19,7.06,6.97,7.06,5.29,0,8.65-3.36,9.83-6.8,.25-.76,.42-1.6,.42-2.35v-7.06Zm-15.88-32c0-4.45,3.28-7.98,8.57-7.98s8.32,3.44,8.32,7.9-3.61,7.73-8.4,7.73c-5.04,0-8.48-3.36-8.48-7.64Zm12.77-.17c0-2.52-1.68-4.62-4.37-4.62s-4.12,2.18-4.12,4.79c0,2.18,1.68,4.54,4.12,4.54,2.69,0,4.37-2.18,4.37-4.7Z"/><path d="M279.05,610.64c0-5.21-.17-9.41-.34-13.27h6.64l.34,6.97h.17c3.02-4.96,7.81-7.9,14.45-7.9,9.83,0,17.22,8.32,17.22,20.66,0,14.62-8.9,21.84-18.48,21.84-5.38,0-10.08-2.35-12.52-6.38h-.17v22.09h-7.31v-44.02Zm7.31,10.84c0,1.09,.17,2.1,.34,3.02,1.34,5.12,5.8,8.65,11.09,8.65,7.81,0,12.35-6.38,12.35-15.71,0-8.15-4.28-15.12-12.1-15.12-5.04,0-9.74,3.61-11.17,9.16-.25,.92-.5,2.02-.5,3.02v6.97Z"/><path d="M360.86,626.94c0,4.2,.08,7.9,.34,11.09h-6.55l-.42-6.64h-.17c-1.93,3.28-6.22,7.56-13.44,7.56-6.38,0-14.03-3.53-14.03-17.81v-23.77h7.39v22.51c0,7.73,2.35,12.94,9.07,12.94,4.96,0,8.4-3.44,9.74-6.72,.42-1.09,.67-2.44,.67-3.78v-24.95h7.39v29.57Z"/><path d="M382.03,585.69v11.68h10.58v5.63h-10.58v21.92c0,5.04,1.43,7.9,5.54,7.9,1.93,0,3.36-.25,4.28-.5l.34,5.54c-1.43,.59-3.7,1.01-6.55,1.01-3.44,0-6.22-1.09-7.98-3.11-2.1-2.18-2.86-5.8-2.86-10.58v-22.18h-6.3v-5.63h6.3v-9.74l7.22-1.93Z"/><path d="M409.16,585.94c.08,2.52-1.76,4.54-4.7,4.54-2.6,0-4.45-2.02-4.45-4.54s1.93-4.62,4.62-4.62,4.54,2.02,4.54,4.62Zm-8.23,52.08v-40.66h7.39v40.66h-7.39Z"/><path d="M420.58,608.37c0-4.2-.08-7.64-.34-11h6.55l.42,6.72h.17c2.02-3.86,6.72-7.64,13.44-7.64,5.63,0,14.36,3.36,14.36,17.3v24.28h-7.39v-23.44c0-6.55-2.44-12.01-9.41-12.01-4.87,0-8.65,3.44-9.91,7.56-.34,.92-.5,2.18-.5,3.44v24.44h-7.39v-29.65Z"/><path d="M485.01,608.37c0-4.2-.08-7.64-.34-11h6.55l.42,6.72h.17c2.02-3.86,6.72-7.64,13.44-7.64,5.63,0,14.36,3.36,14.36,17.3v24.28h-7.39v-23.44c0-6.55-2.44-12.01-9.41-12.01-4.87,0-8.65,3.44-9.91,7.56-.34,.92-.5,2.18-.5,3.44v24.44h-7.39v-29.65Z"/><path d="M535.75,619.04c.17,10,6.55,14.11,13.94,14.11,5.29,0,8.48-.92,11.26-2.1l1.26,5.29c-2.6,1.18-7.06,2.52-13.52,2.52-12.52,0-19.99-8.23-19.99-20.5s7.22-21.92,19.07-21.92c13.27,0,16.8,11.68,16.8,19.15,0,1.51-.17,2.69-.25,3.44h-28.56Zm21.67-5.29c.08-4.7-1.93-12.01-10.25-12.01-7.48,0-10.75,6.89-11.34,12.01h21.59Z"/><path d="M608.82,578.38v49.14c0,3.61,.08,7.73,.34,10.5h-6.64l-.34-7.06h-.17c-2.27,4.54-7.22,7.98-13.86,7.98-9.83,0-17.39-8.32-17.39-20.66-.08-13.52,8.32-21.84,18.23-21.84,6.22,0,10.42,2.94,12.26,6.22h.17v-24.28h7.39Zm-7.39,35.53c0-.92-.08-2.18-.34-3.11-1.09-4.7-5.12-8.57-10.67-8.57-7.64,0-12.18,6.72-12.18,15.71,0,8.23,4.03,15.04,12.01,15.04,4.96,0,9.49-3.28,10.84-8.82,.25-1.01,.34-2.02,.34-3.19v-7.06Z"/><path d="M615.46,648.36c1.85-4.96,4.12-13.94,5.04-20.08l8.23-.84c-1.93,7.14-5.63,16.46-7.98,20.41l-5.29,.5Z"/><path d="M655.44,608.37c0-4.2-.08-7.64-.34-11h6.47l.34,6.55h.25c2.27-3.86,6.05-7.48,12.77-7.48,5.54,0,9.74,3.36,11.51,8.15h.17c1.26-2.27,2.86-4.03,4.54-5.29,2.44-1.85,5.12-2.86,8.99-2.86,5.38,0,13.36,3.53,13.36,17.64v23.94h-7.22v-23.02c0-7.81-2.86-12.52-8.82-12.52-4.2,0-7.48,3.11-8.74,6.72-.34,1.01-.59,2.35-.59,3.7v25.12h-7.22v-24.36c0-6.47-2.86-11.17-8.48-11.17-4.62,0-7.98,3.7-9.16,7.39-.42,1.09-.59,2.35-.59,3.61v24.53h-7.22v-29.65Z"/><path d="M729.61,619.04c.17,10,6.55,14.11,13.94,14.11,5.29,0,8.48-.92,11.26-2.1l1.26,5.29c-2.6,1.18-7.06,2.52-13.52,2.52-12.52,0-19.99-8.23-19.99-20.5s7.22-21.92,19.07-21.92c13.27,0,16.8,11.68,16.8,19.15,0,1.51-.17,2.69-.25,3.44h-28.56Zm21.67-5.29c.08-4.7-1.93-12.01-10.25-12.01-7.48,0-10.75,6.89-11.34,12.01h21.59Z"/><path d="M767.58,608.37c0-4.2-.08-7.64-.34-11h6.55l.42,6.72h.17c2.02-3.86,6.72-7.64,13.44-7.64,5.63,0,14.36,3.36,14.36,17.3v24.28h-7.39v-23.44c0-6.55-2.44-12.01-9.41-12.01-4.87,0-8.65,3.44-9.91,7.56-.34,.92-.5,2.18-.5,3.44v24.44h-7.39v-29.65Z"/><path d="M81.9,711.44c0-5.21-.17-9.41-.34-13.27h6.64l.34,6.97h.17c3.02-4.96,7.81-7.9,14.45-7.9,9.83,0,17.22,8.32,17.22,20.66,0,14.62-8.9,21.84-18.48,21.84-5.38,0-10.08-2.35-12.52-6.38h-.17v22.09h-7.31v-44.02Zm7.31,10.84c0,1.09,.17,2.1,.34,3.02,1.34,5.12,5.8,8.65,11.09,8.65,7.81,0,12.35-6.38,12.35-15.71,0-8.15-4.28-15.12-12.1-15.12-5.04,0-9.74,3.61-11.17,9.16-.25,.92-.5,2.02-.5,3.02v6.97Z"/><path d="M152.21,738.82l-.59-5.12h-.25c-2.27,3.19-6.64,6.05-12.43,6.05-8.23,0-12.43-5.8-12.43-11.68,0-9.83,8.74-15.2,24.44-15.12v-.84c0-3.36-.92-9.41-9.24-9.41-3.78,0-7.73,1.18-10.58,3.02l-1.68-4.87c3.36-2.18,8.23-3.61,13.36-3.61,12.43,0,15.46,8.48,15.46,16.63v15.2c0,3.53,.17,6.97,.67,9.74h-6.72Zm-1.09-20.75c-8.06-.17-17.22,1.26-17.22,9.16,0,4.79,3.19,7.06,6.97,7.06,5.29,0,8.65-3.36,9.83-6.8,.25-.76,.42-1.6,.42-2.35v-7.06Z"/><path d="M169.18,731.26c2.18,1.43,6.05,2.94,9.74,2.94,5.38,0,7.9-2.69,7.9-6.05,0-3.53-2.1-5.46-7.56-7.48-7.31-2.6-10.75-6.64-10.75-11.51,0-6.55,5.29-11.93,14.03-11.93,4.12,0,7.73,1.18,10,2.52l-1.85,5.38c-1.6-1.01-4.54-2.35-8.32-2.35-4.37,0-6.8,2.52-6.8,5.54,0,3.36,2.44,4.87,7.73,6.89,7.06,2.69,10.67,6.22,10.67,12.26,0,7.14-5.54,12.18-15.2,12.18-4.45,0-8.57-1.09-11.42-2.77l1.85-5.63Z"/><path d="M221.25,711.44c0-5.21-.17-9.41-.34-13.27h6.64l.34,6.97h.17c3.02-4.96,7.81-7.9,14.45-7.9,9.83,0,17.22,8.32,17.22,20.66,0,14.62-8.9,21.84-18.48,21.84-5.38,0-10.08-2.35-12.52-6.38h-.17v22.09h-7.31v-44.02Zm7.31,10.84c0,1.09,.17,2.1,.34,3.02,1.34,5.12,5.8,8.65,11.09,8.65,7.81,0,12.35-6.38,12.35-15.71,0-8.15-4.28-15.12-12.1-15.12-5.04,0-9.74,3.61-11.17,9.16-.25,.92-.5,2.02-.5,3.02v6.97Z"/><path d="M291.56,738.82l-.59-5.12h-.25c-2.27,3.19-6.64,6.05-12.43,6.05-8.23,0-12.43-5.8-12.43-11.68,0-9.83,8.74-15.2,24.44-15.12v-.84c0-3.36-.92-9.41-9.24-9.41-3.78,0-7.73,1.18-10.58,3.02l-1.68-4.87c3.36-2.18,8.23-3.61,13.36-3.61,12.43,0,15.46,8.48,15.46,16.63v15.2c0,3.53,.17,6.97,.67,9.74h-6.72Zm-1.09-20.75c-8.06-.17-17.22,1.26-17.22,9.16,0,4.79,3.19,7.06,6.97,7.06,5.29,0,8.65-3.36,9.83-6.8,.25-.76,.42-1.6,.42-2.35v-7.06Zm-15.88-32c0-4.45,3.28-7.98,8.57-7.98s8.32,3.44,8.32,7.9-3.61,7.73-8.4,7.73c-5.04,0-8.48-3.36-8.48-7.64Zm12.77-.17c0-2.52-1.68-4.62-4.37-4.62s-4.12,2.18-4.12,4.79c0,2.18,1.68,4.54,4.12,4.54,2.69,0,4.37-2.18,4.37-4.7Z"/><path d="M304.75,749.16c1.85-4.96,4.12-13.94,5.04-20.08l8.23-.84c-1.93,7.14-5.63,16.46-7.98,20.41l-5.29,.5Z"/><path d="M345.49,738.82v-35.03h-5.71v-5.63h5.71v-1.93c0-5.71,1.26-10.92,4.7-14.2,2.77-2.69,6.47-3.78,9.91-3.78,2.6,0,4.87,.59,6.3,1.18l-1.01,5.71c-1.09-.5-2.6-.92-4.7-.92-6.3,0-7.9,5.54-7.9,11.76v2.18h9.83v5.63h-9.83v35.03h-7.31Z"/><path d="M404.96,718.16c0,15.04-10.42,21.59-20.24,21.59-11,0-19.49-8.06-19.49-20.92,0-13.61,8.9-21.59,20.16-21.59s19.57,8.48,19.57,20.92Zm-32.26,.42c0,8.9,5.12,15.62,12.35,15.62s12.35-6.64,12.35-15.79c0-6.89-3.44-15.62-12.18-15.62s-12.52,8.06-12.52,15.79Z"/><path d="M414.28,710.85c0-4.79-.08-8.9-.34-12.68h6.47l.25,7.98h.34c1.85-5.46,6.3-8.9,11.26-8.9,.84,0,1.43,.08,2.1,.25v6.97c-.76-.17-1.51-.25-2.52-.25-5.21,0-8.9,3.95-9.91,9.49-.17,1.01-.34,2.18-.34,3.44v21.67h-7.31v-27.97Z"/><path d="M449.4,716.82h.17c1.01-1.43,2.44-3.19,3.61-4.62l11.93-14.03h8.9l-15.71,16.72,17.89,23.94h-8.99l-14.03-19.49-3.78,4.2v15.29h-7.31v-59.64h7.31v37.63Z"/><path d="M485.6,719.84c.17,10,6.55,14.11,13.94,14.11,5.29,0,8.48-.92,11.26-2.1l1.26,5.29c-2.6,1.18-7.06,2.52-13.52,2.52-12.52,0-19.99-8.23-19.99-20.5s7.22-21.92,19.07-21.92c13.27,0,16.8,11.68,16.8,19.15,0,1.51-.17,2.69-.25,3.44h-28.56Zm21.67-5.29c.08-4.7-1.93-12.01-10.25-12.01-7.48,0-10.75,6.89-11.34,12.01h21.59Z"/><path d="M523.57,710.85c0-4.79-.08-8.9-.34-12.68h6.47l.25,7.98h.34c1.85-5.46,6.3-8.9,11.26-8.9,.84,0,1.43,.08,2.1,.25v6.97c-.76-.17-1.51-.25-2.52-.25-5.21,0-8.9,3.95-9.91,9.49-.17,1.01-.34,2.18-.34,3.44v21.67h-7.31v-27.97Z"/><path d="M561.95,686.49v11.68h10.58v5.63h-10.58v21.92c0,5.04,1.43,7.9,5.54,7.9,1.93,0,3.36-.25,4.28-.5l.34,5.54c-1.43,.59-3.7,1.01-6.55,1.01-3.44,0-6.22-1.09-7.98-3.11-2.1-2.18-2.86-5.8-2.86-10.58v-22.18h-6.3v-5.63h6.3v-9.74l7.22-1.93Z"/><path d="M584.46,719.84c.17,10,6.55,14.11,13.94,14.11,5.29,0,8.48-.92,11.26-2.1l1.26,5.29c-2.6,1.18-7.06,2.52-13.52,2.52-12.52,0-19.99-8.23-19.99-20.5s7.22-21.92,19.07-21.92c13.27,0,16.8,11.68,16.8,19.15,0,1.51-.17,2.69-.25,3.44h-28.56Zm21.67-5.29c.08-4.7-1.93-12.01-10.25-12.01-7.48,0-10.75,6.89-11.34,12.01h21.59Z"/><path d="M639.23,731.26c2.18,1.43,6.05,2.94,9.74,2.94,5.38,0,7.9-2.69,7.9-6.05,0-3.53-2.1-5.46-7.56-7.48-7.31-2.6-10.75-6.64-10.75-11.51,0-6.55,5.29-11.93,14.03-11.93,4.12,0,7.73,1.18,10,2.52l-1.85,5.38c-1.6-1.01-4.54-2.35-8.32-2.35-4.37,0-6.8,2.52-6.8,5.54,0,3.36,2.44,4.87,7.73,6.89,7.06,2.69,10.67,6.22,10.67,12.26,0,7.14-5.54,12.18-15.2,12.18-4.45,0-8.57-1.09-11.42-2.77l1.85-5.63Z"/><path d="M673.5,679.18h7.39v59.64h-7.39v-59.64Z"/><path d="M715.84,738.82l-.59-5.12h-.25c-2.27,3.19-6.64,6.05-12.43,6.05-8.23,0-12.43-5.8-12.43-11.68,0-9.83,8.74-15.2,24.44-15.12v-.84c0-3.36-.92-9.41-9.24-9.41-3.78,0-7.73,1.18-10.58,3.02l-1.68-4.87c3.36-2.18,8.23-3.61,13.36-3.61,12.43,0,15.46,8.48,15.46,16.63v15.2c0,3.53,.17,6.97,.67,9.74h-6.72Zm-1.09-20.75c-8.06-.17-17.22,1.26-17.22,9.16,0,4.79,3.19,7.06,6.97,7.06,5.29,0,8.65-3.36,9.83-6.8,.25-.76,.42-1.6,.42-2.35v-7.06Z"/><path d="M768.84,698.17c-.17,2.94-.34,6.22-.34,11.17v23.6c0,9.32-1.85,15.04-5.8,18.56-3.95,3.7-9.66,4.87-14.78,4.87s-10.25-1.18-13.52-3.36l1.85-5.63c2.69,1.68,6.89,3.19,11.93,3.19,7.56,0,13.1-3.95,13.1-14.2v-4.54h-.17c-2.27,3.78-6.64,6.8-12.94,6.8-10.08,0-17.3-8.57-17.3-19.82,0-13.78,8.99-21.59,18.31-21.59,7.06,0,10.92,3.7,12.68,7.06h.17l.34-6.13h6.47Zm-7.64,16.04c0-1.26-.08-2.35-.42-3.36-1.34-4.28-4.96-7.81-10.33-7.81-7.06,0-12.1,5.96-12.1,15.37,0,7.98,4.03,14.62,12.01,14.62,4.54,0,8.65-2.86,10.25-7.56,.42-1.26,.59-2.69,.59-3.95v-7.31Z"/><path d="M89.21,817.62h.17c1.01-1.43,2.44-3.19,3.61-4.62l11.93-14.03h8.9l-15.71,16.72,17.89,23.94h-8.99l-14.03-19.49-3.78,4.2v15.29h-7.31v-59.64h7.31v37.63Z"/><path d="M158.09,818.96c0,15.04-10.42,21.59-20.24,21.59-11,0-19.49-8.06-19.49-20.92,0-13.61,8.9-21.59,20.16-21.59s19.57,8.48,19.57,20.92Zm-32.26,.42c0,8.9,5.12,15.62,12.35,15.62s12.35-6.64,12.35-15.79c0-6.89-3.44-15.62-12.18-15.62s-12.52,8.06-12.52,15.79Z"/><path d="M166.4,832.06c2.18,1.43,6.05,2.94,9.74,2.94,5.38,0,7.9-2.69,7.9-6.05,0-3.53-2.1-5.46-7.56-7.48-7.31-2.6-10.75-6.64-10.75-11.51,0-6.55,5.29-11.93,14.03-11.93,4.12,0,7.73,1.18,10,2.52l-1.85,5.38c-1.6-1.01-4.54-2.35-8.32-2.35-4.37,0-6.8,2.52-6.8,5.54,0,3.36,2.44,4.87,7.73,6.89,7.06,2.69,10.67,6.22,10.67,12.26,0,7.14-5.54,12.18-15.2,12.18-4.45,0-8.57-1.09-11.42-2.77l1.85-5.63Z"/><path d="M209.58,787.29v11.68h10.58v5.63h-10.58v21.92c0,5.04,1.43,7.9,5.54,7.9,1.93,0,3.36-.25,4.28-.5l.34,5.54c-1.43,.59-3.7,1.01-6.55,1.01-3.44,0-6.22-1.09-7.98-3.11-2.1-2.18-2.86-5.8-2.86-10.58v-22.18h-6.3v-5.63h6.3v-9.74l7.22-1.93Z"/><path d="M232.09,820.64c.17,10,6.55,14.11,13.94,14.11,5.29,0,8.48-.92,11.26-2.1l1.26,5.29c-2.6,1.18-7.06,2.52-13.52,2.52-12.52,0-19.99-8.23-19.99-20.5s7.22-21.92,19.07-21.92c13.27,0,16.8,11.68,16.8,19.15,0,1.51-.17,2.69-.25,3.44h-28.56Zm21.67-5.29c.08-4.7-1.93-12.01-10.25-12.01-7.48,0-10.75,6.89-11.34,12.01h21.59Z"/><path d="M270.06,811.65c0-4.79-.08-8.9-.34-12.68h6.47l.25,7.98h.34c1.85-5.46,6.3-8.9,11.26-8.9,.84,0,1.43,.08,2.1,.25v6.97c-.76-.17-1.51-.25-2.52-.25-5.21,0-8.9,3.95-9.91,9.49-.17,1.01-.34,2.18-.34,3.44v21.67h-7.31v-27.97Z"/><path d="M315.33,779.98h7.39v59.64h-7.39v-59.64Z"/><path d="M343.39,787.54c.08,2.52-1.76,4.54-4.7,4.54-2.6,0-4.45-2.02-4.45-4.54s1.93-4.62,4.62-4.62,4.54,2.02,4.54,4.62Zm-8.23,52.08v-40.66h7.39v40.66h-7.39Z"/><path d="M357.67,798.97l7.98,22.85c1.34,3.7,2.44,7.06,3.28,10.42h.25c.92-3.36,2.1-6.72,3.44-10.42l7.9-22.85h7.73l-15.96,40.66h-7.06l-15.46-40.66h7.9Z"/><path d="M390.18,835.26c0-3.11,2.1-5.29,5.04-5.29s4.96,2.18,4.96,5.29-1.93,5.29-5.04,5.29c-2.94,0-4.96-2.27-4.96-5.29Z"/></g></g></g></svg>