<?xml version="1.0" encoding="UTF-8"?><svg xmlns="http://www.w3.org/2000/svg" width="410" height="950" viewBox="0 0 410 950"><defs><style>.d{mix-blend-mode:overlay;opacity:.61;}.e{fill:#f2dd72;}.f{fill:#eae6bb;}.g{fill:#fff;}.h{fill:#e8e8e8;}.i{fill:#728c6d;}.j{fill:#933f00;}.k{fill:#8fbf60;}.l{fill:#333;}.m{fill:#a67c58;}.n{fill:#bfba6f;}.o{fill:#db5531;}.p{fill:#afafaf;}.q{fill:#0d0d0d;}.r{fill:#364233;}.s{fill:#373740;}.t{fill:#443f3d;}.u{fill:#483ac9;}.v{fill:#2d2a29;}.w{fill:#7a6b5e;}.x{isolation:isolate;}</style></defs><g class="x"><g id="a"/><g id="b"><g><path class="m" d="M217.31,253.99c0,49.99-15.09,87.71-52.82,87.71s-49.04-39.27-49.04-87.71-8.49-87.71,49.04-87.71c52.82,0,52.82,39.27,52.82,87.71Z"/><circle class="m" cx="218.25" cy="279.46" r="13.2"/><path class="m" d="M122.05,284.18s-4.25,.35-7.55,1.72c-2.08,.86-3.77,2.12-3.77,3.94,0,4.72,2.39,14.92,15.34,21.13s-4.02-26.79-4.02-26.79Z"/></g><path class="s" d="M124.88,193.63s.94,15.09-11.32,15.09c-9.43-2.83-15.09-12.26-5.66-25.46-.94-4.72-4.43-18.86,12.4-16.98-.28-5.66-.14-16.03,11.18-15.09,0-2.83,7.55-16.98,18.86-12.26,.94-1.89,10.37-10.37,16.98-3.77,2.83-.94,13.2-8.49,19.81,3.77,3.77,.94,10.37-1.89,16.03,9.43,5.66,3.77,11.32,9.43,9.43,19.81,1.89,.94,16.03,6.6,9.43,22.64,1.89,1.89,8.03,7.55,3.07,17.92,1.41,2.83,3.53,9.43-3.07,14.15-5.66,0-9.43-1.89-11.32-3.77s-9.43-9.43-4.72-21.69c-2.83-1.89-11.32-5.66-9.43-16.98-.94-1.89-5.66-2.83-5.66-3.77s-5.66-.94-6.6-1.89-10.37,2.83-13.2-3.77c-1.89,1.89-4.72,9.43-14.15,9.43-.94,2.83-5.66,12.26-16.98,7.55-1.89,2.83-3.77,10.37-15.09,5.66Z"/><g><g><path class="i" d="M168.8,341.53s-23.17,13.38-30.71,30.36c-3.77,19.81-24.46,81.8-23.08,87.59-1.95-1.63-47.66-46.09-48.6-48.92-4.72-.94-28.29,15.09-24.52,23.58,3.77,5.66,4.72,2.83,4.72,2.83,0,0,53.82,60.21,68.41,57.93,11.26-.79,12.7-1.34,14.59-4.17s25.46-46.21,33.95-79.22c2.83-16.03,14.15-20.75,14.15-20.75l-8.9-49.22Z"/><path class="i" d="M160.72,405.84s26.41,80.17,24.52,99.97c-2.83,9.43-4.72,16.03-4.72,16.03l4.81,5.8,3.68,1.75s21.69,3.77,42.44,1.89,44.33-10.37,44.33-10.37c0,0,6.6-4.72,6.6-5.66s3.77-6.6,3.77-8.49-3.77-10.37-5.66-14.15c-1.89-3.77-31.12-131.1-30.18-142.42-18.86-8.49-82.05,31.12-82.05,31.12l-7.55,24.52Z"/></g><path class="i" d="M168.8,341.53s28.86-12.34,36.33-10.32,21.62-4.21,26.33-9.59c4.72-5.38,74.51-78.94,78.28-88.37,3.77-9.43,42.39-113.18,43.38-130.15,1.89-4.72,16.98-20.75,32.07,1.89-1.89,13.2-31.12,107.52-46.21,129.21s-43.38,64.13-50.93,71.68c-7.55,7.55-38.67,37.73-37.73,44.33s-8.49,12.26-8.49,12.26l-58.48,21.69-15.09-2.83,.53-39.79Z"/></g><path class="m" d="M172.98,338.88s6.6,11.32,10.37,14.15,18.86-1.89,21.69-11.32c.94-6.6-7.12-14.74-7.12-14.74l-19.29,5.31-5.66,6.6Z"/><path class="m" d="M374.82,105.92s0-19.81,2.83-22.64c2.83-2.83,15.09-15.09,16.03-19.81,.94-4.72,3.77-17.92,4.72-19.81,.94-1.89,1.89-14.15-2.83-14.15s-6.6,19.81-6.6,19.81c0,0,6.43-27.14-1.97-28.19-3.69-1.05-7.46,31.02-7.46,31.02,0,0,3.77-49.04,0-49.04s-7.55-6.6-10.37,48.1c0,0,2.83-38.67-.94-38.67s-9.99,4.47-8.77,41.85c-.38-.69,1.22-36.19-5.38-36.19s-7.55,38.35,0,47.94c-4.72-3.45-16.98-13.99-26.41-4.56-1.89,3.77,1.89,5.66,1.89,5.66,0,0,4.72,0,11.32,2.83,4.72,4.72,6.6,8.49,8.49,9.43s7.55,.94,8.49,4.72c.94,3.77,0,16.98-.94,18.86,.94,.94,5.91,1.89,8.14,2.83,2.23,.94,4.12,3.77,6.95,1.89l2.83-1.89Z"/><path class="m" d="M63.58,421.87s-11.32-13.2-11.32-14.15-.94-16.98-3.77-18.86-9.43-1.89-9.43-1.89c0,0-4.72-4.72-6.6-4.72s-6.6,1.89-6.6,1.89c0,0-10.37-1.89-12.26,.94s-1.89,3.77-1.89,4.72-4.72,1.89-5.66,4.72,0,5.43,0,5.43c0,0-1.89,5.89-.94,8.71,0,.94-2.83,2.83-1.89,6.6,.94,2.83,2.83,5.66,4.72,5.66s6.6-.94,6.6-.94c0,0,8.49,3.77,11.32,3.77s9.43-4.72,9.43-4.72l5.66,.94s9.43,12.26,10.37,12.26h2.42"/><g><path class="q" d="M379.53,664.26s-1.89-10.48,0-12.79,15.09-9.85,21.69-7.02c5.66,4.72,11.8,42.61-6.36,67.05-6.14,1.71-11.56-9.52-11.56-9.52,0,0-5.45-28.68-4.61-33.2l.84-4.52Z"/><path class="q" d="M135.26,890.79s-25.46,30.01-38.67,35.67c-3.77,6.6-5.66,12.26-4.72,15.09s3.77,8.49,31.12,3.77c21.69-12.26,41.5-21.69,44.33-33.01,2.83-12.26,0-19.46-.95-21.52s-6.45-10.92-8.41-12.15-8.9,0-8.9,0l-13.81,12.15Z"/></g><path class="s" d="M184.3,538.82s2.83,36.78,3.77,38.67c-.94,3.77-16.03,46.76-27.35,67.24-7.55,20.2-24.52,63.86-25.46,69.52s-8.49,164.45,0,176.54c6.6,5.31,16.98,2.66,21.69-3.94,1.89-6.6,11.32-148.07,9.43-160.33,3.77-7.55,48.1-87.71,59.42-134.87,0,0,.43-4.38,6.34-4.08s18.18,13.51,25.72,55.01c9.43,39.61,30.18,103.75,35.84,105.63s41.22-6.81,95.26-81.11c.94-5.66,.94-12.26-7.55-11.32-7.55,5.66-66.02,52.82-68.85,52.82-1.89-1.89-20.75-87.71-21.69-95.26-.94-7.55-7.55-52.82-6.6-55.65,.94-2.83-1.89-28.29-1.89-28.29l-56.59,6.6-41.5,2.83Z"/><path class="n" d="M185.34,527.65s34.8,1.75,45.17,.8,48.15-9.18,50.01-11.19c.9,2.58,2.81,11.19,1.86,12.13s-42.44,11.32-50.93,11.32-47.16-1.89-47.16-1.89c0,0-1.69-7.27,1.04-11.18Z"/><rect class="t" x="221" y="527.36" width="22.29" height="13.31" rx="2.71" ry="2.71" transform="translate(-38.19 18.28) rotate(-4.17)"/><g><g><path class="p" d="M166.91,207.78s23.05-1.89,21.16,27.35c-.94,12.26-8.49,16.98-19.33,16.03,.47-4.72,4.24-7.55,4.24-7.55l2.83-12.26-.94-12.26s-2.83-5.66-3.77-6.6-4.19-4.72-4.19-4.72Z"/><path class="p" d="M133.11,214.37s12.49-1.28,9.67,13.05-4.63,9.57-4.63,9.57l-2.9-16-2.14-6.62Z"/></g><g><ellipse class="h" cx="168.74" cy="229.47" rx="16.51" ry="21.69"/><path class="h" d="M141.86,233.25c-.66,9.89-4.63,17.36-11.12,16.93-6.5-.43-11.23-8.8-10.58-18.69,.66-9.89,6.46-17.55,12.96-17.12,6.5,.43,9.4,8.99,8.75,18.88Z"/></g></g><g><g><line class="g" x1="168.36" y1="230.42" x2="169.04" y2="224.99"/><path d="M168.74,230.42l.59-4.75,.08-.68c.03-.2-.19-.37-.38-.38-.22,0-.35,.17-.38,.38l-.59,4.75-.08,.68c-.03,.2,.19,.37,.38,.38,.22,0,.35-.17,.38-.38h0Z"/></g><g><line class="g" x1="165.65" y1="227.02" x2="171.75" y2="228.42"/><path d="M165.55,227.38l5.34,1.22,.76,.17c.47,.11,.67-.62,.2-.72l-5.34-1.22-.76-.17c-.47-.11-.67,.62-.2,.72h0Z"/></g><g><line class="g" x1="167.35" y1="224.99" x2="170.4" y2="230.42"/><path d="M167.02,225.18l2.68,4.76,.38,.67c.24,.42,.88,.04,.65-.38l-2.68-4.76-.38-.67c-.24-.42-.88-.04-.65,.38h0Z"/></g><g><line class="g" x1="170.74" y1="226" x2="166.67" y2="229.4"/><path d="M170.48,225.74l-3.57,2.98-.5,.42c-.16,.13-.13,.4,0,.53,.15,.15,.37,.13,.53,0l3.57-2.98,.5-.42c.16-.13,.13-.4,0-.53-.15-.15-.37-.13-.53,0h0Z"/></g><g><line class="g" x1="171.06" y1="229.83" x2="167.05" y2="226.11"/><path d="M171.33,229.56l-3.52-3.26-.5-.46c-.35-.33-.89,.2-.53,.53l3.52,3.26,.5,.46c.35,.33,.89-.2,.53-.53h0Z"/></g><g><line class="g" x1="169.86" y1="225.77" x2="166.89" y2="230.16"/><path d="M169.54,225.59l-2.6,3.85-.37,.54c-.27,.4,.38,.78,.65,.38l2.6-3.85,.37-.54c.27-.4-.38-.78-.65-.38h0Z"/></g><g><line class="g" x1="165.38" y1="228.88" x2="171.37" y2="227.06"/><path d="M165.48,229.24l5.23-1.59,.76-.23c.46-.14,.26-.86-.2-.72l-5.23,1.59-.76,.23c-.46,.14-.26,.86,.2,.72h0Z"/></g></g><g><g><line class="g" x1="126.84" y1="240.9" x2="127.52" y2="235.47"/><path d="M127.21,240.9l.59-4.75,.08-.68c.03-.2-.19-.37-.38-.38-.22,0-.35,.17-.38,.38l-.59,4.75-.08,.68c-.03,.2,.19,.37,.38,.38,.22,0,.35-.17,.38-.38h0Z"/></g><g><line class="g" x1="124.12" y1="237.51" x2="130.23" y2="238.91"/><path d="M124.02,237.87l5.34,1.22,.76,.17c.47,.11,.67-.62,.2-.72l-5.34-1.22-.76-.17c-.47-.11-.67,.62-.2,.72h0Z"/></g><g><line class="g" x1="125.82" y1="235.47" x2="128.87" y2="240.9"/><path d="M125.5,235.66l2.68,4.76,.38,.67c.24,.42,.88,.04,.65-.38l-2.68-4.76-.38-.67c-.24-.42-.88-.04-.65,.38h0Z"/></g><g><line class="g" x1="129.21" y1="236.49" x2="125.14" y2="239.89"/><path d="M128.95,236.23l-3.57,2.98-.5,.42c-.16,.13-.13,.4,0,.53,.15,.15,.37,.13,.53,0l3.57-2.98,.5-.42c.16-.13,.13-.4,0-.53-.15-.15-.37-.13-.53,0h0Z"/></g><g><line class="g" x1="129.54" y1="240.32" x2="125.52" y2="236.6"/><path d="M129.8,240.05l-3.52-3.26-.5-.46c-.35-.33-.89,.2-.53,.53l3.52,3.26,.5,.46c.35,.33,.89-.2,.53-.53h0Z"/></g><g><line class="g" x1="128.33" y1="236.26" x2="125.36" y2="240.65"/><path d="M128.01,236.07l-2.6,3.85-.37,.54c-.27,.4,.38,.78,.65,.38l2.6-3.85,.37-.54c.27-.4-.38-.78-.65-.38h0Z"/></g><g><line class="g" x1="123.85" y1="239.37" x2="129.85" y2="237.55"/><path d="M123.95,239.73l5.23-1.59,.76-.23c.46-.14,.26-.86-.2-.72l-5.23,1.59-.76,.23c-.46,.14-.26,.86,.2,.72h0Z"/></g></g><g><path class="s" d="M186.19,235.13v1.98c0,.85-.46,1.55-.46,1.55l31.58,23.93s.94-.49,.94-1.24v-1.6l-32.07-24.62Z"/><path class="s" d="M142.11,231.65s8.24-1.35,10.13,1.54,.91,3.41,.91,3.41c0,0-6.57-5.24-11.29-3.35"/><path class="s" d="M120.95,239.89l-6.44,7.51v2.41l7.03-8.08-.59-1.84Z"/></g><path class="k" d="M165.75,313.95s1.06,6.98,2.73,7.93,3.56-2.81,3.56-4.7c0,1.89,4.72,15.09,6.6,14.15s1.56-4.79-1.11-15.13c0,0,.16,2.87,2.99,1.92s3.51-4.18,3.51-4.18l-1.65-8.3-16.64,8.3Z"/><g><path class="w" d="M172.98,273.8s29.26-.69,12.75,28.42c-8.97,11.19-27.84,14.02-40.1,12.13-12.26-1.89-23.61-16.57-23.59-20.08s1.9-5.39,3.79-5.39,11.32,2.83,13.2,2.83c1.49,0,6.5,.59,11.79-1.48,1.42-.55,2.85-1.3,4.24-2.29,5.78-4.13,10.83-9.7,15.8-12.92,.71-.46,1.42-.87,2.12-1.23Z"/><g><path class="o" d="M172.98,301.05s-2.83-6.5-6.6-6.5-7.55,4.97-7.55,6.26,6.17,.43,7.33-1.03c1.16,1.37,1.4,3.66,2.7,4.4"/><g><g><path class="f" d="M172.98,286.06c-1.89,1.89-5.57,2.58-10.33-4.37,4.67-4.12,5.61-4.79,5.61-4.79,0,0,9.43,4.45,4.72,9.16Z"/><path class="f" d="M165.38,291.69c-2.26,1.41-6.3,3.16-9.37-4.69,4.72-3.77,6.84-5.3,6.84-5.3,0,0,8.19,6.46,2.53,9.99Z"/><path class="f" d="M159.78,289.83s.94,5.66-1.89,6.6-6.6-2.96-7.07-6.2c.47-.41,6.64-3.86,6.64-3.86l2.32,3.45Z"/><path class="f" d="M142.87,291.78s.87,7.48,5.59,6.54,4.33-5.41,4.33-5.41l-.85-3.38s-1.28,1-4.43,1.25-4.65,1-4.65,1Z"/><path class="f" d="M144.27,294.35s-.53,5.86-3.36,5.86-5.66-1.89-5.66-3.77,.34-5.35,.34-5.35c0,0,2.49,.64,3.44,.64s4.65,.12,4.65,.12l.6,2.51Z"/><path class="f" d="M130.25,289.76s-.92,7.84,2.05,8.2,4.38-1.38,4.38-1.38l.47-3.92-.47-1.58-3.9-.69-2.53-.63Z"/></g><g><path class="f" d="M133.63,308.76s3.52-4.78,6.35-3.84,3.91,6.27,2.9,8.79c-2.03-.61-.74,.14-4.65-1.97s-4.59-2.98-4.59-2.98Z"/><path class="f" d="M153.44,314.9s-.33-7.14-4.1-7.14-6.53,3.99-6.53,3.99v1.97s1.89,.64,4.97,.92c3.5,.32,5.67,.26,5.67,.26Z"/><path class="f" d="M152.23,312.47s4.72-5.66,8.49-6.6,7.78,4.32,8.13,5.46l.35,1.14s-.94,1.89-9.75,2.07c-3.53,.07-3.87,.9-6.02,.36s-1.2-2.43-1.2-2.43Z"/><path class="f" d="M179.9,307.55s-5.06-8.52-8.82-6.05-2.81,7.52-2.81,8.77,.94,2.19,.94,2.19c0,0,3.83-.4,5.69-1.14s5-3.77,5-3.77Z"/><path class="f" d="M187.22,299.42s-5.14-6.33-8.06-2.84c-2.92,3.49-.96,8.1-1.21,8.22s1.95,2.75,1.95,2.75c0,0,3.41-1.97,4.85-4.19,2.38-2.21,2.57-1.9,2.47-3.95Z"/></g></g></g></g><g><g><path d="M137.64,280.18c-.78,0-1.43-.14-1.89-.27-3.79-1.14-3.2-9.76-2.32-13.76,.01-.06,.03-.11,.06-.16,4.19-6.44,9.46-42.83,9.52-43.2,.04-.26,.27-.43,.53-.4,.26,.04,.44,.28,.4,.53-.22,1.5-5.32,36.7-9.61,43.5-1.01,4.66-.98,11.77,1.69,12.57,.92,.28,2.78,.55,4.84-.72,2.3-1.42,5.41-5.16,7.13-14.94,1.85-15.76,1.88-19.69,1.88-19.72,0-.26,.21-.47,.47-.47h0c.26,0,.47,.21,.47,.47,0,.16-.02,3.98-1.89,19.86-1.44,8.16-3.98,13.4-7.57,15.61-1.37,.84-2.66,1.09-3.72,1.09Z"/><g><path d="M217.62,284.05c-.48,0-.82-.11-.85-.12-.12-.04-.19-.17-.15-.3,.04-.12,.17-.19,.3-.15,.01,0,1.16,.37,2.19-.38,1.14-.83,1.75-2.74,1.75-5.53,0-.87-.13-1.67-.39-2.37-1.71-4.62-6.2-3.58-6.39-3.53-.13,.03-.25-.05-.29-.17s.05-.25,.17-.28c.05-.01,5.09-1.19,6.95,3.83,.28,.75,.42,1.6,.42,2.53,0,2.99-.66,4.98-1.95,5.91-.62,.45-1.26,.56-1.75,.56Z"/><path d="M214.95,277.34c-.06,0-.12-.02-.17-.07-.09-.09-.09-.24,0-.33,3.42-3.41,6.31-.9,6.34-.88,.1,.09,.11,.23,.02,.33-.09,.1-.23,.11-.33,.02-.1-.09-2.6-2.23-5.7,.86-.05,.05-.11,.07-.17,.07Z"/></g><path d="M193.73,301.51c-.07,0-.14-.02-.2-.06-.16-.11-.2-.33-.09-.49,.08-.12,8.29-12.25,1.86-25.11-6.39-12.79-25.8-7.42-25.99-7.36-.19,.06-.38-.06-.44-.24-.05-.19,.05-.38,.24-.44,.2-.06,20.16-5.58,26.82,7.73,6.62,13.24-1.83,25.7-1.91,25.82-.07,.1-.18,.15-.29,.15Z"/><path d="M136.2,316.71c-.06,0-.12-.01-.18-.04l-5.18-2.17c-13.71-6.22-20.41-15.51-20.98-21.95-.23-2.64,.57-4.74,2.26-5.9,5.58-3.84,13.56-.2,13.9-.04,.24,.11,.34,.39,.23,.63-.11,.24-.39,.34-.63,.23-.08-.04-7.83-3.57-12.96-.04-1.4,.96-2.06,2.75-1.85,5.04,.55,6.17,7.07,15.11,20.42,21.17l5.16,2.16c.24,.1,.35,.38,.25,.62-.08,.18-.25,.29-.44,.29Z"/></g><g><path d="M26.64,405.94c-1.29,0-2.65-.3-3.56-1.21-1.47-1.47-1.32-4.03,.46-7.59,4.79-9.58,21.86-9.75,22.58-9.75,.21,.03,3.15,.56,4.19,3.65l-.89,.3c-.86-2.54-3.28-3-3.38-3.02-.09,0-17.13,.17-21.66,9.24-1.56,3.11-1.78,5.36-.64,6.5,1.43,1.43,4.62,.94,5.66,.41,.58-.29,1.92-1.26,3.47-2.39,3.5-2.54,7.85-5.71,9.89-5.89l.08,.94c-1.78,.16-6.38,3.5-9.42,5.71-1.65,1.2-2.95,2.15-3.6,2.47-.6,.3-1.85,.62-3.19,.62Z"/><path d="M23.37,399.08c-4.01-.16-8.51-4.51-8.69-4.69l.66-.68s4.43,4.27,8.07,4.42l-.04,.94Z"/><path d="M27.5,393.46c-2.58-1.09-3.9-5.28-3.96-5.46l.9-.28s1.25,3.95,3.43,4.87l-.37,.87Z"/><path d="M12.18,409.61v-.94c.1,0,10.31-.02,15.81-1.82,.59-.7,.37-1.48,.36-1.52l.9-.28c.02,.06,.42,1.4-.65,2.53l-.08,.08-.11,.04c-5.62,1.89-15.8,1.91-16.23,1.91Z"/><path d="M19.91,401.55c-2.16,0-4.57-.36-4.98-.43l.15-.93c1.63,.26,6.13,.76,7.42,.05l.46,.83c-.65,.36-1.81,.48-3.05,.48Z"/><path d="M12.22,416.18h-.05v-.94h0c.43,0,18.73-.03,22.3-3.6,.63-.63,1.32-1.51,1.04-2.17-.44-1.07-3.23-1.74-7.27-1.74v-.94c3.27,0,7.34,.4,8.14,2.32,.38,.92-.04,1.99-1.25,3.2-3.81,3.81-21.64,3.88-22.92,3.88Z"/><path d="M26.57,424.28c-.26,0-.53-.02-.78-.05-2.89-.41-9.13-2.88-10.94-3.6l-3.14-.63,.94-.94,2.07,.51c.08,.03,8,3.28,11.2,3.74,3.06,.44,6.86-2.32,7.65-3.6,.71-1.15-.29-3.28-1.08-4.35-.43-.58-3.75-.49-6.58-.04l-.15-.93c1.51-.24,6.5-.92,7.48,.41,.84,1.14,2.15,3.73,1.12,5.4-.84,1.37-4.5,4.1-7.8,4.1Z"/></g></g><g><g><path class="j" d="M46.54,310.42l-20.83,80.04,1.8,3.01,1.84-2.08,20.98-79.63s-.07-2.44-3.78-1.33Z"/><path class="j" d="M18.09,421.88l-7.33,36.78s.94,1.89,2.83,.94c.94-1.89,8.49-36.33,8.49-36.33"/></g><g><path class="u" d="M50.32,311.75s10.43,2.61,14.2,8.27,9.43,20.75,16.98,24.52,19.81,6.13,29.24,3.54c.94,13.92,0,17.19,0,28.05,0,10.86,.42,20.27,.42,20.27-7.02,4.73-25.88,14.16-38.15,6.61s-17.1-23.53-38.26-33.46c4.83-17.02,15.57-57.81,15.57-57.81Z"/><path class="e" d="M41.48,345.31s10.36,8.87,11.99,13.48,1.62,11.21,6.34,16.87c5.98,7.17,16.89,13.2,36.27,6.6,19.38-6.6,14.66-6.14,14.66-6.14l.42,20.27s-17.98,13.02-29.47,9.34c-4.9-.84-12.55-1.13-24.76-18.9-10.26-9.15-9.5-10.19-22.17-17.28,2.01-8.54,6.73-24.24,6.73-24.24Z"/></g></g><g><g><g><path class="r" d="M201.31,331.08s11.29,1.19,10.34,15.34c-1.89,9.43-3.77,15.09-3.77,15.09l-13.3-9.56s10.47-6.47,10.47-10.25-2.77-9.93-3.74-10.62Z"/><path class="r" d="M189.73,353.84l-7.32,15.22s-15.09-4.74-9.43-29.25c2.83,2.84,8.98,14.85,16.75,14.03Z"/></g><g><path class="r" d="M216.83,527.61l-.92-.22c3.71-15.76-25.08-172.52-25.37-174.11l.93-.17c1.19,6.47,29.11,158.55,25.36,174.49Z"/><g><ellipse class="r" cx="192.79" cy="363.4" rx="1.89" ry="2.83"/><ellipse class="r" cx="195.62" cy="378.49" rx="1.89" ry="3.77"/><circle class="r" cx="199.39" cy="399.24" r="2.83"/><circle class="r" cx="202.22" cy="419.99" r="2.83"/><ellipse class="r" cx="205.99" cy="441.68" rx="2.83" ry="3.77"/><ellipse class="r" cx="209.77" cy="463.37" rx="1.89" ry="4.72"/><circle class="r" cx="211.65" cy="481.29" r="2.83"/><ellipse class="r" cx="215.42" cy="501.1" rx="1.89" ry="2.83"/><ellipse class="r" cx="216.37" cy="515.25" rx="2.83" ry="3.77"/></g></g></g><g><path class="r" d="M190.58,515.38c-1.85-4.44-4.31-9.3-5.06-9.43l-.59-.3c.18-.37,.47-.41,.62-.41,1.44,.05,4.45,6.91,5.68,9.86l-.65,.27Z"/><path class="r" d="M278.29,518.51c-.11,0-.21-.08-.23-.2-.02-.13,.07-.25,.2-.27,.01,0,1.24-.21,2.98-1.72,1.21-1.04-1.66-5.75-3.75-8.47-.08-.1-.06-.25,.04-.33,.1-.08,.25-.06,.33,.04,.58,.76,5.63,7.44,3.68,9.12-1.86,1.6-3.16,1.82-3.22,1.83-.01,0-.02,0-.04,0Z"/></g></g><path class="v" d="M264.09,534.37s2.27,18.6,7.93,23.31c5.66,4.72,9.52,5,12.31,3.91-.04-2.03-.04-26.55-1.93-32.21-3.77,.94-18.3,4.98-18.3,4.98Z"/><path class="v" d="M185.8,557.02s15.19-3.47,14.86-17.43c-5.37-.58-16.36-.76-16.36-.76l1.5,18.2Z"/><g><line class="v" x1="228.33" y1="540.96" x2="230.52" y2="563.35"/><rect class="l" x="227.54" y="540.9" width="3.77" height="22.5" transform="translate(-52.55 24.9) rotate(-5.57)"/></g><g id="c" class="d"><path d="M141.58,138.78s-15.16,4.74-9.87,23.6c.05,.18,.32,.15,.32-.04,0-4.12,.71-17.79,9.54-23.56Z"/><path d="M147.26,148.43s.27-13.15,12.34-15.53c0,0-4.91,3.55-7.74,8.6s-3.55,8.48-4.61,12.43,0-5.5,0-5.5Z"/><path d="M123.55,153.14s-5.36,3.79-3.61,13.23l1.6,6.6s-1.03-8.65,.03-11.4,4.19-10.18,6.4-10.24"/><path d="M114.64,166.37s-10.88-.94-7.1,16.98c-3.77,5.66-11,18.35,4.88,25.21,2.67,.25,7.38,.25,11.16-7.29-7.55,6.6-13.2,4.72-16.03,0-2.83-4.72,4.76-18.03,4.76-18.03,0,0-4.15-6.49-2.57-10.26s4.91-6.6,4.91-6.6Z"/><path d="M122.62,189.95s.02,4.91,8.03,5.28c6.58-1.14,5.43-1.93,5.43-1.93,0,0-4.67,.99-8.12-.71s-6.7-5.91-6.96-7.58,1.62,4.94,1.62,4.94Z"/><path d="M136.16,181.28s-.1,9.22,10.63,8c4.49-1.5,5.55-2.22,5.78-2.66s-4.38,2.19-8.21,.88-9.48-9.81-9.48-11.69l1.28,5.48Z"/><path d="M151.39,187.5s6.22-4.15,4.76-11.69c0,0-3.34,9.1-4.76,9.74,.47,1.58-4.61,2.32-4.61,2.32l4.61-.37Z"/><path d="M168.67,164.77s.32,8.38,7.32,10.18c4.56,.77,7.4-.24,7.4-.24,0,0-6.36,.16-9.04-1.73s-6.26-12.08-6.36-12.64,.68,4.44,.68,4.44Z"/><path d="M197.07,175.8s-2.24,10.45,.33,14.19,6,6.12,6,6.12c0,0-5.33-6.16-5.33-8.99s0-16.98,.94-17.92l-1.95,6.6Z"/><path d="M180.16,141.85s15.09-8.49,22.64,6.6c1.89,5.66,.61,5.49,.61,5.49,0,0-3.23-9.82-10.04-12.09-5.66-1.89-9.69-.6-14.75,2.06l1.55-2.06Z"/><path d="M208.45,192.78s-7.95,10.44-2.56,20.31c5.12,9.37,10.64,8.93,14.62,9.87-7.14-3.77-11.11-5.66-13-11.32s-1.89-12.26,.94-18.86Z"/><path d="M115.16,207.84s-1.97,57.13,1.81,77.15c0,0,1.96-.14,3.77,.21,1.91,.37,3.77,.94,4.03,1.14,.29,.21-1.72-20.11-1.72-40.81-2.31-2.76-3.11-8.86-3.26-13.14,.21-3.5,1.67-6.36,1.89-9.43,.79-11,.41-19.25,1.19-20.26"/><path d="M120.01,286.1s-9.64-1.38-9.64,5.46c0,5.2,4.74,13.81,18.41,21.17-4.74-5.08-15.41-14.55-15.49-18.68-.17-4.5-.61-6.11,6.73-7.95Z"/><path d="M123.56,310.86s11.32,38.46,49.05,29.04c9.43-2.82,15.1-8.43,15.1-8.43,0,0-22.64,10.9-37.26,3.07-14.62-7.83-21.68-21.79-21.68-21.79l-5.21-1.88Z"/><path d="M172.61,339.9s7.55,12.27,14.15,14.16c4.62,1.32,7.5-1.9,9.41-3.31s4.18-3.16,4.18-3.16c0,0-7.85,3.68-11.66,3.19-2.15-.28-9.43-9.82-13.24-12.76-2.95-2.27-2.83,1.88-2.83,1.88Z"/><path d="M134.88,286.47s11.84,2.51,18.18-2.2,8.25-6.61,8.25-6.61c0,0-7.57,9.44-12.28,10.38s-14.15-1.57-14.15-1.57Z"/><path d="M146.2,317.27s12.35,2.66,16.08,1.33c0,0-7.06,1.75-10.63,1.15s-9.16-2.95-9.16-2.95l3.7,.47Z"/><path d="M128.5,215.33s-12.99,1.21-10.85,21.87c2.14,20.65,17.08,17.93,20.46,11.75,1.49-4.3,.88-4.43,.88-4.43,0,0-3.97,5.72-7.34,5.76s-10.11-1.48-11.93-13.93c.14-11.7,2.39-18.27,8.78-21.02Z"/><path d="M136.77,249.89s-3.08,12.37-4.37,13.94-3.31,13.43-1.83,15.05,5.01,4.1,7.49,3.33,4.81-4.57,4.81-4.57c0,0-4.21,3.32-6.1,2.61s-4.29-2.59-4.03-6.36-.17-7.04,.51-7.76,4.63-11.65,4.81-13.74c.59-6.79-1.29-2.49-1.29-2.49Z"/><path d="M165.01,207.84s-18.47,5.63-15.34,23.58,6.32,19.83,19.82,22.66c10.96-2.83,12.53-6.12,12.53-6.12,0,0-5.23,4.46-13.45,3.4s-14.82-5.83-16.71-19.95c0-10.32,2.71-17.94,13.15-23.58Z"/><path d="M141.81,233.22s2.25-1.43,7.23,1.06c1.89,.94,2.1,1.4,3.75,2.39l-1.2,1.61s-2.55-1.17-5.38-2.12-4.72,0-4.72,0l.32-2.94Z"/><polygon points="185.36 238.75 185.36 240.49 216.94 264.46 216.94 262.68 185.36 238.75"/><path d="M213.41,271.59s4.92-.46,5.64,3.75c.72,4.21,.87,6.59-2.51,8.23,0,0,1.34,.7,2.28-.25s1.89-2.83,1.89-4.72,0-5.09-2.83-6.32-4.47-.7-4.47-.7Z"/><path d="M214.75,277.36s.67-.78,2.84-.71,2.34,.71,2.34,.71l-.16-1.58s-2.5-1.55-5.02,1.58Z"/><path d="M213.4,287.39s-1.77,24.03-14.68,38.27l-4.13,3.02s17.16-25.9,18.81-41.29Z"/><path d="M124.48,195.93s-.34,1.08,4.09,1.8,9.06-6.27,9.06-6.27c0,0-1.74,4.35-8.37,3.78-4.78-1.14-4.59-1.57-4.59-1.57l-.19,2.26Z"/><path d="M138.83,189.39s12.76,6.55,14.78-3.99c-.81,.78-4.94,6.04-14.19,2.46l-.58,1.34v.19Z"/><path d="M202.68,195.56s-4.98,13.93,1.34,21.14,12.92,5.32,12.92,5.32l-.49,.14s-9.32-1.13-12.43-14.31c.38-7.5,1.6-10.35,1.6-10.35l-2.95-1.94Z"/><path d="M200.81,194.2s-8.18-.75-6.4-15.23c.73,.26,1.76,1.68,1.76,1.68,0,0-2.05,7.44,4.64,13.56Z"/><path d="M169.15,173.21s5.18,6.25,14.7,1.59c-.78,.11-7.14,1.02-9.18,.07s-3.88-3.65-3.88-3.65c0,0-1.33,1.28-1.64,1.99Z"/><path d="M172.61,339.9s-27.35,13.21-34.9,32.08c-5.66,21.69-23.52,78.97-23.08,87.59-1,9.68-1.36,8.61-1.36,8.61,0,0,15.01-49.99,28.41-89.6,0,0,5.72-13.93,13.14-19.7l16.85-13.74,.94-5.25Z"/><path d="M156.04,402.16s11.52,10.19,29.14,103.18c-2.49,4.9-4.33,17.43-4.33,17.43l4.12,4.97,22.54,.87s-18.94-39.01-22.64-57.6c-.21-1.06-.94-3.77-1.89-7.55-4.14-16.58-11.64-51.89-11.64-51.89l-15.71-17.77h-5.43l5.83,8.35Z"/><path d="M66.04,410.64s-8.95,1.83-9.19,3.75c1.4,1.94,6.36,7.57,6.36,7.57,0,0,7.55-8.49,2.83-11.32Z"/><path d="M44.43,424.99s-8.97,11.73,2.07,12.37l7-5.33-3.55,.31-5.52-7.34Z"/><path d="M63.21,421.96s-11.71,12.87-16.7,15.4c2.28,2.22,48.94,55.27,66.77,57.66,4.97,.51,9.13-1.4,12.43-4.08,6.03-4.9,9.18-12.39,9.18-12.39,0,0-11.32,14.15-22.64,11.32-4.93-1.23-47.25-44.18-50.03-47.08-2.78-2.9-7.02-5.12-5.37-8.26,1.64-3.14,6.36-12.57,6.36-12.57Z"/><path d="M171.34,347.72s-6.23,16.86,8.81,23.32c-.04-2.03,1.89-1.89,1.89-1.89h0s-11.97-4.19-10.7-21.43Z"/><polygon points="191.35 353.93 202.79 360.66 207.51 361.6 194.1 351.98 191.35 353.93"/><path d="M190.92,361.77s-2.74,3.32,1.74,5.35l-.14-.8s-3.09-.6-1.59-4.55Z"/><path d="M193.36,377.64s-3.2,4.75,2.17,5.67l-.17-.97s-.78,.19-1.39-.85-.61-2.91-.61-3.86Z"/><path d="M196.19,398.95s-1.99,3.13,2.78,4.12l-.16-.9s-2.62,.18-2.62-3.21Z"/><path d="M199.04,419.71s-1.51,3.57,3.48,4.32l-.19-1.13s-3.26,.22-3.29-3.19Z"/><path d="M202.89,440.79s-2.7,4.93,3.31,5.78l-.16-1.03s-3.99-.07-3.15-4.75Z"/><path d="M207.79,460.99s-3.35,5.88,1.96,8.42l-.18-1.23s-2.44,.73-1.77-7.18Z"/><path d="M208.5,480.86s-1.41,4.34,3.52,4.31l-.14-1.03s-3.32,.91-3.37-3.29Z"/><polygon points="48.35 310.25 26.36 392.25 25.34 390.54 46.17 310.5 48.35 310.25"/><polygon points="19.62 422.66 11.8 459.95 10.39 458.74 17.72 421.97 19.62 422.66"/><path d="M21.71,383.76s-9.43-2.35-10.38,6.14c0,5.66,0,3.91,0,3.91,0,0,0-10.53,10.38-10.05Z"/><path d="M7.05,392.73s-3.27,2.37-1.38,7.31c1.89,4.23,1.89,4,1.89,4,0,0-1.53-4.92-1.24-6.71s2.2-5.6,2.2-5.6l-1.47,1Z"/><path d="M4.72,404.04s-1.5,5.45,2.09,8.38c2.45,2.09,1.72,1.15,1.72,1.15,0,0-2.99-3.56-2.92-4.66,.07-2.05-.88-4.87-.88-4.87Z"/><path d="M3.15,411.57s-1.25,12.2,8.65,8.94c0,0-2.36,1.45-6.13-3.26-.94-2.83-2.42-5.79-1.68-7.14l-.84,1.46Z"/><path d="M39.7,388.02s-21.04,5.76-17.05,16.97c1.37,1.67,3.89,.33,5.66,0s3.44-2.26,3.44-2.26c0,0-5.33,2.26-7.22,.38s1.09-9.42,15.16-15.08Z"/><path d="M23.17,397.23s-8.21-3.66-8.61-5.5,.15,2.33,.15,2.33c0,0,5.99,4.89,7.43,4.61s1.31-.78,1.31-.78l-.28-.66Z"/><path d="M10.39,417.31s6.43,4.94,13.59,5.74c1.11,.66,2.71,.6,2.71,.6l2.64-.98s-7.5-.85-10.39-2.19-9.16-4.21-9.16-4.21l.61,1.04Z"/><polygon points="49.95 432.34 38.68 417.25 39.7 417.25 53.5 432.03 49.95 432.34"/><path d="M42.12,397.29s-5.44,4.87-7.74,6.76-2.41,2.44-2.41,2.44l.96,.86-4.18-.46-.44-1.9,1.71-.55,5.82-4.16,3.95-2.99h2.34Z"/><path d="M220.71,328.59c2.83-1.89,3.77-1.89,5.9-3.21,8.73-6.98,67.66-71.3,81.7-90.17,15.2-33.01,44.43-131.1,44.43-132.04s4.73-5.8,4.73-5.8c0,0-.57,6.06,3.36,7.43-4.17,33.69-30.31,97.65-46.25,133.95-18.35,35.6-75.01,88.88-78.8,92.67l-21.29-.69,6.2-2.14Z"/><path d="M328.82,60.34s-5.3,3.23,.35,7c4.72,.94,10.37,1.89,11.32,2.83s8.49,9.43,8.49,9.43c0,0,7.07,1.81,7.78,3.26-.23-2.32-4.95-4.21-4.95-4.21l-5.66-5.66s-2.38-4.31-4.49-4.99-14.14-.52-12.84-7.67Z"/><path d="M353.35,18.33s-7.37,5.98-4.93,24.19c2.05,18.51,2.7,22.03,4.93,25.31,0,0-4.37-25.96-3.43-30.68,.94-4.72,1.2-14.88,3.43-15.93s3.05-.21,3.05-.21c0,0-.56-2.65-3.05-2.69Z"/><path d="M367.84,12.64s-11.96,.78-8.81,40.47c0,0,.32-35.76,8.81-40.47Z"/><path d="M375.85,3.22s-7.43,10.93-6.78,43.65c0,0,2.31-24.07,3.37-26.8,1.06-2.73,2-14.04,3.89-14.99s2.83-1.89,2.83-1.89l-3.31,.02Z"/><path d="M386.62,21.23s-3.69-8.6-7.46,31.02c0,0,2.63-15.17,4.15-19.38,1.51-4.2,2.49-8.43,3.31-9.07,1.03-.8,2.92,.15,2.92,.15,0,0,.77-.73-2.92-2.72Z"/><path d="M395.19,29.61s-5.66,1.89-7.55,21.69c0,0,3.77-13.2,4.72-15.09s1.89-3.77,2.83-4.24,2.18-1.09,2.18-1.09l-2.18-1.27Z"/><path d="M379.16,58.25s-8.94,1.87-10.13,14.91l.45-.33s4.02-11.42,9.68-14.59Z"/><path d="M371.36,64.87s-8.23-2.25-11.06,2.47c0,0,9.84-2.06,10.58-1.5s.48-.97,.48-.97Z"/><path d="M184.97,527.73s-2.93,3.63-1.04,11.18c1.89,0,22.64,.94,22.64,.94,0,0-22.64-1.89-15.71-11.85l-5.89-.27Z"/><path d="M223.83,528s-1.23,.53-1.23,2.42-.94,7.95,.47,9.16,3.7,1.55,3.7,1.55c0,0-3.84,.33-4.48,0s-1.55-.77-1.56-5.27c-.03-4.28-2.26-7.45,3.1-7.86Z"/><path d="M220.25,530.66s-.48-.24-1.42,.71,.01,9.91,1.42,10.61,17.44,.7,18.38-.24,2.68-1.72,2.68-1.72c0,0-17.44,1.44-19.02,1.11s-1.58-7.88-2.04-10.47Z"/><path d="M183.93,538.91s1.89,36.78,3.77,38.67c-.94,3.77-23.58,63.74-27.35,67.24-2.83,7.94-25.46,64.8-25.46,69.52s-8.49,159.74,0,176.54c0,0,6.24,3.94,12.08,2.83-13.97-7.72-1.27-171.45,.4-177.3,1.67-5.84,53.26-132.69,52.93-140.47s-2.26-36.46-2.26-36.46l-14.11-.56Z"/><path d="M227.96,588.31s15.05-11.04,29.84,55.61c18.26,63.5,27.77,97.01,34.49,103.52,7.76-.18,6.48,3.21,18.85-4.1s10.04-5.93,10.04-5.93c0,0-17.47,5.22-21.24,4.27s-37.38-170-71.98-153.38Z"/><path d="M305.59,684.16s7.55,33.01,10.37,34.9l2.83,1.89s-12.21,15.41-13.2-36.78Z"/><path d="M381.05,655.86s6.19-1.03,5.46,.9-73.33,56.08-73.33,56.08l-1.36-4.41s27.74-18.62,69.24-52.57Z"/></g></g></g></svg>