<svg xmlns="http://www.w3.org/2000/svg" xmlns:xlink="http://www.w3.org/1999/xlink" width="460" height="840" viewBox="0 0 460 840"><defs><style>.cls-1{filter:url(#luminosity-noclip);}.cls-2{isolation:isolate;}.cls-3{fill:#5f7336;}.cls-4{fill:#d9c791;}.cls-5{fill:#4f5e2b;}.cls-6{fill:#f2c3a7;}.cls-7{fill:#734d2c;}.cls-8{fill:#735856;}.cls-9{fill:#f6f6f6;}.cls-10{fill:#c4947c;}.cls-11{fill:#fff;}.cls-12{fill:none;stroke:#000;stroke-miterlimit:10;}.cls-13{mask:url(#mask);}.cls-14{mix-blend-mode:overlay;opacity:0.46;}</style><filter id="luminosity-noclip" x="56.02" y="226.58" width="306.12" height="128.45" filterUnits="userSpaceOnUse" color-interpolation-filters="sRGB"><feFlood flood-color="#fff" result="bg"/><feBlend in="SourceGraphic" in2="bg"/></filter><mask id="mask" x="56.02" y="226.58" width="306.12" height="128.45" maskUnits="userSpaceOnUse"><path class="cls-1" d="M177.5,269.23s-45-6-35,24c6.4,19.21,23,28,30,28s42,1,46-31S177.5,269.23,177.5,269.23Z"/></mask></defs><g class="cls-2"><g id="zrelisnki"><path class="cls-3" d="M50,835.42,30.5,711.23s-28-172-28-206,13-69,13-69S109,336.51,123.27,332.37s179-3,192.23-1.14,61-2,79,12,42,27,48,152c2,125-3,263,6,294l9,31Z"/><path class="cls-4" d="M137,350.09s117.06,29.93,152.28,3c-6.77,6.1-8.77,6.1-22.77,50.1-19,38-34,83.15-41,125l-1,6-11.37-2.1s-3.63-40.9-36.63-82.9C157.5,409.23,137,350.09,137,350.09Z"/><path class="cls-5" d="M39.5,460.19a6,6,0,0,1-8.92-2c-5.07-9.82-14.31-25.92-23.08-32-13-9,94-82,99-88,7,0,7.72,2.27,7.72,2.27L103,388.43l25.23,13.8,6.23,7s-24,9-36,24C88.43,441.63,53,450,39.5,460.19Z"/><path class="cls-5" d="M324.5,326.23s96,4,103,49c-5,7-11.74,6.8-16.87,16.9s-6.13,22.1-9.13,21.1-24-28-73-33c-9-10,2-28,2-36s-9-16-9-16Z"/><path class="cls-3" d="M321.5,315.36s25,44.87,5,69.87c-4,3-14.31-5.94-15.16-15.47-7.84,2.47-32.84,9.47-44.84,33.47C266.5,403.23,283.5,335.49,321.5,315.36Z"/><path class="cls-3" d="M116.69,326.23s-15.19,40-16.19,56c-2,16-7,28.12-7,31.06s-1,7.94,2,8.94,25-30,56-2l25,29s-9-43-27-72a96.49,96.49,0,0,1-9.13-22S138.89,328.23,116.69,326.23Z"/><ellipse class="cls-6" cx="213" cy="199.23" rx="162.5" ry="156"/><path class="cls-6" d="M358.5,188.23s52.26-32,52.13,19.5c-2.26,19-16.57,42.07-43.85,47.78s-23.28-29.28-23.28-29.28Z"/><path class="cls-7" d="M228.69,4.62S62.46,4.25,55,162.74A125.81,125.81,0,0,0,69.34,127.4c7.16-12.17,31.16-12.17,31.16-12.17l20-10-7-12,77-70Z"/><path class="cls-7" d="M358.5,188.23s6-55-45-77c-3-10-8-31-31-34-12,11-53,34-108,34S85.91,105.75,76.21,115c0,0,3.29-20.76,15.29-25.76a19.76,19.76,0,0,0-13-1s5-21,31-19c-7-2-8-6-8-6s14-6,17-5a35.36,35.36,0,0,1-11-4s19-15,32-14c-13,0-17.09,0-17.09,0s15.09-18,37.09-14a140.72,140.72,0,0,0-29.19-.58S366.16-79.11,391.83,178.56C384.5,178.23,367.5,183.23,358.5,188.23Z"/><path class="cls-6" d="M128.27,332.37s20.23,59.86,76.23,55.86,85-26.55,104-62.77-112,10.77-112,10.77Z"/><path class="cls-3" d="M214.5,554.23h7s1,11.66-3.5,11.83S214.5,554.23,214.5,554.23Z"/><path class="cls-8" d="M227.53,829.11c-6.45-40.23-12.06-249-12.29-257.87l5-.13c.06,2.17,5.84,217.31,12.24,257.2Z"/><path class="cls-8" d="M223.5,539.23,222,533.8c1.08-6.15,27-150.74,74-161l.12,0c1.6-.27,3.24-.58,4.88-.89,10.72-2,22.88-4.33,31.81,3.41l-3.27,3.78c-7.11-6.16-17.53-4.18-27.61-2.27-1.66.31-3.3.62-4.92.89-17.82,3.94-35.58,32.12-51.34,81.51C233.62,497.11,223.57,538.86,223.5,539.23Z"/><path class="cls-8" d="M210.77,534.23s6.73-4,13.73,0c1,3-2,7-2,10s10.47,27.89-4.77,26.95c-6.46.11-8.23-2.95-7.23-16.95S210.77,534.23,210.77,534.23Z"/><path class="cls-8" d="M211.52,536.08c-.07-.53-7.75-53.14-36.87-85.16-2.26-2.62-4.39-5.16-6.46-7.62-21-25-34.92-41.5-71.37-18.94l-2.64-4.25c40.13-24.84,56.77-5.07,77.84,20,2,2.45,4.17,5,6.37,7.52,30.13,33.14,37.78,85.57,38.09,87.79Z"/><ellipse class="cls-9" cx="228.5" cy="197.23" rx="38" ry="32"/><ellipse class="cls-9" cx="124.5" cy="188.23" rx="31" ry="33"/><path class="cls-10" d="M190.5,197.23s18-20,34-21,33.79,3,39.9,10.5c0,0-7.4-24.62-42.15-21.06S190.5,197.23,190.5,197.23Z"/><path class="cls-10" d="M94.9,178.41s12.61-14.18,27.11-13.18,25.57,3.2,31,10.1c0,0-7.54-20.1-28.54-20.1a32.28,32.28,0,0,0-25,12C95.63,172.26,95.54,177.11,94.9,178.41Z"/><line class="cls-11" x1="123.5" y1="195.23" x2="124.45" y2="187.63"/><path d="M123.87,195.23l.84-6.65.12-1c0-.47-.7-.47-.75,0l-.84,6.66-.12.94c-.05.48.7.48.75,0Z"/><line class="cls-11" x1="119.7" y1="190.48" x2="128.25" y2="192.44"/><path d="M119.6,190.85l7.48,1.71,1.07.24c.47.11.67-.61.2-.72l-7.49-1.71-1.06-.25c-.47-.11-.67.62-.2.73Z"/><line class="cls-11" x1="122.08" y1="187.63" x2="126.35" y2="195.23"/><path d="M121.75,187.82l3.75,6.66.53.94c.23.42.88.05.64-.38l-3.74-6.66-.53-.94a.38.38,0,0,0-.65.38Z"/><line class="cls-11" x1="126.83" y1="189.06" x2="121.12" y2="193.81"/><path d="M126.56,188.79l-5,4.17-.7.58c-.37.31.16.84.53.53l5-4.16.7-.59c.37-.31-.16-.83-.53-.53Z"/><line class="cls-11" x1="127.28" y1="194.41" x2="121.66" y2="189.21"/><path d="M127.54,194.15l-4.92-4.57-.7-.64c-.35-.33-.88.2-.53.53l4.93,4.56.69.65c.36.32.89-.2.53-.53Z"/><line class="cls-11" x1="125.6" y1="188.74" x2="121.44" y2="194.88"/><path d="M125.27,188.55l-3.64,5.38-.52.76c-.27.4.38.78.65.38l3.65-5.38.51-.76c.27-.4-.38-.78-.65-.38Z"/><line class="cls-11" x1="119.32" y1="193.08" x2="127.71" y2="190.54"/><path d="M119.42,193.44l7.33-2.22,1.06-.32c.46-.14.27-.87-.2-.72l-7.32,2.22-1.07.32a.37.37,0,0,0,.2.72Z"/><line class="cls-11" x1="227.5" y1="201.23" x2="228.45" y2="193.63"/><path d="M227.87,201.23l.84-6.65.12-1c0-.47-.7-.47-.75,0l-.84,6.66-.12.94c-.05.48.7.48.75,0Z"/><line class="cls-11" x1="223.7" y1="196.48" x2="232.25" y2="198.44"/><path d="M223.6,196.85l7.48,1.71,1.07.24c.47.11.67-.61.2-.72l-7.49-1.71-1.06-.25c-.47-.11-.67.62-.2.73Z"/><line class="cls-11" x1="226.08" y1="193.63" x2="230.35" y2="201.23"/><path d="M225.75,193.82l3.75,6.66.53.94c.23.42.88.05.64-.38l-3.74-6.66-.53-.94a.38.38,0,0,0-.65.38Z"/><line class="cls-11" x1="230.83" y1="195.06" x2="225.12" y2="199.81"/><path d="M230.56,194.79l-5,4.17-.7.58c-.37.31.16.84.53.53l5-4.16.7-.59c.37-.31-.16-.83-.53-.53Z"/><line class="cls-11" x1="231.28" y1="200.41" x2="225.66" y2="195.21"/><path d="M231.54,200.15l-4.92-4.57-.7-.64c-.35-.33-.88.2-.53.53l4.93,4.56.69.65c.36.32.89-.2.53-.53Z"/><line class="cls-11" x1="229.6" y1="194.74" x2="225.44" y2="200.88"/><path d="M229.27,194.55l-3.64,5.38-.52.76c-.27.4.38.78.65.38l3.65-5.38.51-.76c.27-.4-.38-.78-.65-.38Z"/><line class="cls-11" x1="223.32" y1="199.08" x2="231.71" y2="196.54"/><path d="M223.42,199.44l7.33-2.22,1.06-.32c.46-.14.27-.87-.2-.72l-7.32,2.22-1.07.32a.37.37,0,0,0,.2.72Z"/><path class="cls-7" d="M269.5,139.23S248.93,126.72,228.21,129s-33.71,16.25-33.71,17.25,2,6,4,6,18.25-13.84,26.62-13.92S257.5,135.23,269.5,139.23Z"/><path class="cls-7" d="M123.52,132.09s29,4.14,35,18.14c2,5-8.3-3.14-32.15-9.07-19.85-.93-24.85,4.07-28.85,4.07s-7.11-.58-7.56-3.29S113.53,131,123.52,132.09Z"/><path class="cls-12" d="M380.5,231.23s9.66-2.32,11.33-23.16-17.33-13-17.33-13"/><path class="cls-12" d="M375.5,215.71a14.37,14.37,0,0,1,16.09-5.22"/><path d="M177.89,252.14c-2.29-1.55-22.34-15.23-22.88-18.85S167.12,204,168.56,201l1,.43c-5.62,11.39-13.84,29.23-13.47,31.7s13.62,12.2,22.45,18.18Z"/><path d="M145.5,284.23s5,4,8,4,15-3,20-3,18,0,22,2c5,1,15-2,15-2s4-2,4-5l-5,1s-10,1-14,1-5,1-9-1-21.43-3-31.72,2.5c-1.56,0-5.28-.5-6.28-1.5S145.5,284.23,145.5,284.23Z"/><path class="cls-6" d="M169.5,298.23s10-3,14-1"/><path d="M169.64,298.71l-.28-.95c.41-.13,10.23-3,14.36-1l-.44.89C179.5,295.79,169.74,298.68,169.64,298.71Z"/><g class="cls-13"><path class="cls-7" d="M360.63,226.58S388.05,349.83,209.28,355C169.72,354.44,90.54,339.09,56,239.66c0,0,40.48,58.57,57.48,61.57s21-45,25-47,14-6,23-5,39,1,41-1S225.33,258.8,227.42,266s3.08,34.21,18.08,35.21S322.76,303.93,360.63,226.58Z"/></g><path d="M75.78,116l-.07-.93c-.67-8.23,3.61-19.24,14.61-25.7-2.33-.81-8.22-2.52-11.58-.66l-1.63.91,1-1.6c.36-.6.72-1.31,1.14-2.13,2.8-5.53,7.91-15.59,27.12-17-2.54-.92-5.66-2.68-5.33-5.7l0-.3.27-.11c.46-.18,9.28-3.77,14.46-4.79A51.14,51.14,0,0,0,108,56.23h-1l.66-.81c.12-.14,10.42-12.61,25.55-15.22-4.7-.29-9.35-.32-10.48.41l-1.82,1.17L122,39.93c.09-.15,8.09-12.92,26.9-14.5-6.82-.63-15-.95-18.35.67-1,.48-1.05.52-1.31.29l-.25-.21.1-.32a1.06,1.06,0,0,1,.33-.24l0-.08.71-.34a6.66,6.66,0,0,1,.8-.32C138.44,21.33,168.94,9.41,213,4.93l.1,1c-38.69,3.93-66.46,13.63-77.71,18.13,9-.73,23.48,1.56,24.24,1.68l-.15,1c-21.82-2.88-32.79,8.73-35.76,12.54,4.34-.75,14.57.32,15.88.47l-.06,1C123.73,40.3,111.81,52.26,109,55.34c2.95.45,9.32,2.32,9.63,2.41l-.21,1c-2.62-.38-11.73,2.94-16.45,4.85,0,3.77,7.53,5.15,7.61,5.16l-.08,1C88.28,70.17,83.16,80.27,80.1,86.3l-.48.93c4.77-1.42,11.75,1.41,12.07,1.54l1,.4-.92.5C80.86,95.61,76.38,106,76.65,114.05c12.56-8.54,50-4.52,51.65-4.34l-.11,1c-.4,0-40.26-4.33-51.67,4.68Z"/><g class="cls-14"><path d="M54.77,162.62s-11.44,39.35,1,76.92l29.48,39.57s-16.4-26.68-20-63c-3.77-37.94,5.4-85.8,12.71-96.35,0,0-6.8,3.46-7.76,5.91S60.25,157.13,54.77,162.62Z"/><path d="M55.81,239.54S85.29,345,194.29,354a169,169,0,0,0,34,1.07c19.27-1.53,39.76-7,41-8,0,0-50.89-.54-91-9-26.69-5.63-45.82-18.82-52.15-22.87C110.29,305.11,63.33,258,55.81,239.54Z"/><path d="M119.11,155.11s-20,4.35-24.42,23.18c0,0,4.82-9.18,12.21-13.18s13.94-10.75,20.17-9.88Z"/><path d="M223.11,165.2s-34.82,1.91-32.82,31.91c0,0,6-15,10-18S209.94,169.28,223.11,165.2Z"/><path d="M102.66,135.43s-12.49,5-12.93,6.33,3.42,4.29,8,3.32,5.26-1.79,6.41-1.88-6.84.91-8.84-.09S92,141.76,102.66,135.43Z"/><path d="M198.29,152.11s-3-1-4-6c0,0,5.64-6.9,12.82-10.45,0,0-9.82,8.45-9.82,10.45s0,3,1,4,15.05-7.48,15.05-7.48S199.29,152.11,198.29,152.11Z"/><path d="M146.45,282.71s-4.16,1.4-2.16,3.4,7,4.15,8,4.57,13.24-2.57,14.63-2.57,13.75-1.39,13.75-1.39l5.81-1.24s-21.23-2.16-27.7,1.24Z"/><path d="M169.15,298.11a.89.89,0,0,0-.86,1c0,1,7.46-1,8.73-1a17,17,0,0,0,4-1.09s-3.78-.84-4.78-.38A67.69,67.69,0,0,1,169.15,298.11Z"/><path d="M374.29,194.94s10-1.83,11,13.17c.36,5.34,1.56,12.06-5,23,0,0,9.18-1.49,11.09-20.74S379.29,191.76,374.29,194.94Z"/><path d="M375.29,215.59l3,1.52s6.68-5.5,11-2l2.09-4.74S382.29,206.07,375.29,215.59Z"/><path d="M156.71,226.46s-6.42,7.65-5.42,9.65,18,14,18,14l5.39-.38s-18.39-12.39-19.39-15.5S156.71,226.46,156.71,226.46Z"/><path d="M75.5,114.91s12.48-9.78,68.64-4.29c17.15.49,19.4.42,19.4.42S95.71,92.71,75.5,114.91Z"/><path d="M78.29,88.11s4-18,31-19a67.61,67.61,0,0,1,12,1S90.29,70.11,78.29,88.11Z"/><path d="M101.29,63.11s.36,3.32,1.18,3.66,15.82-7.66,24.82-8.66l9-1S114.29,56.11,101.29,63.11Z"/><path d="M107.72,54.93a49.11,49.11,0,0,1,47.57-13.82S119.29,43.11,107.72,54.93Z"/><path d="M123.51,39.67s10.78-21.56,51.78-10.56l10,3S141.73,22.23,123.51,39.67Z"/><path d="M132.82,24.39S178.66,2,247.47,5L268.78,8S192.29,5.11,143.29,24.11Z"/><path d="M122.17,329.43s2.8-3.56,2.12,1.68c-2.24,17.37-11.55,62.78-23.31,72"/><path d="M128.49,333.44s7.54,19.67,11.67,21.67,88,39.1,137.08-9.95C277.24,345.16,142.7,352.76,128.49,333.44Z"/><path d="M282.39,343.57s-66.1,105.54-60.56,188.76c0,0,15.46-90.22,47.31-138.08,6.15-20.14,12.13-31,13.64-35.07,5.51-5.07,14.51-15.07,19.6-23.59Z"/><path d="M329.37,379s-4.08,10.15-6.08,9.15-11-10-11-12S322.45,373.81,329.37,379Z"/><path d="M309.15,332.08s-12.86,28-17.86,30c-3,5-10.41,16.73-11.21,19.36s-8.08,8.91-10.94,12.78,13.13-33,13.64-35.07,16.69-17.1,19.6-23.59S309.15,332.08,309.15,332.08Z"/><path d="M104.39,339.85s-25.1,84.26-20.1,88.26,25-8,42-6,57.55,40.72,57.55,40.72-33-48.72-55.78-49.22-29.77,10.5-29.77,10.5-1.63,3.06-4.32-3-3.49-13.54,17.92-82.28Z"/><path d="M97.75,363s-82.93,61.12-79.7,74.63c0,0-10-8.36-11.85-12.92-.32-.76,1.65-8.07,6.09-12.57,22.36-22.68,94.25-78.48,99.6-73.25C107.29,346.11,97.75,363,97.75,363Z"/><path d="M15.44,434.64,13.28,442s12,24.07,19,25.07,27.91-16.47,37.95-16.24,34.39-16.23,34.39-16.23L111.89,423s-10.6,3.08-13.6,10.08-59,21-60,27c-3,3-8,0-8,0L18.05,437.6"/><path d="M13.28,442s-32,22.44,36.49,393.26L101,833.39S19.29,548.11,32.29,467.11Z"/><path d="M215,555.49s-.79,11.35,1.24,11.49,4.55-3.62,4.78-5.75-1.76-8.12-1.76-8.12Z"/></g></g></g></svg>