<?xml version="1.0" encoding="UTF-8"?><svg xmlns="http://www.w3.org/2000/svg" width="1920" height="1080" viewBox="0 0 1920 1080"><defs><style>.k{mix-blend-mode:overlay;opacity:.61;}.l{fill:#f2dd72;}.m{fill:#eae6bb;}.n{fill:#e6fae6;}.o{fill:#fff;}.p{fill:#e8e8e8;}.q{fill:#e8e54a;}.r{fill:#728c6d;}.s{fill:#933f00;}.t{fill:#8fbf60;}.u{fill:#333;}.v{fill:#a67c58;}.w{fill:#bfba6f;}.x{fill:#db5531;}.y{fill:#afafaf;}.a`{fill:#0d0d0d;}.aa{fill:#19d413;}.ab{fill:#1d44b8;}.ac{fill:#364233;}.ad{fill:#373740;}.ae{fill:#443f3d;}.af{fill:#483ac9;}.ag{fill:#2d2a29;}.ah{fill:#2d852d;}.ai{fill:#7a6b5e;}.aj{isolation:isolate;}</style></defs><g class="aj"><g id="a"/><g id="b"><rect class="ab" width="1920" height="540"/><rect class="q" y="537.02" width="1920" height="540"/></g><g id="c"/><g id="d"/><g id="e"><g><path class="aa" d="M324.21,85.72c-15.43,4.63-43.94,9.07-59.15,32.92s-47.15,39.6-64.8,48.34-19.26,15.94-26.23,29.32-25.25,27.46-38.06,29.83c-12.81,2.37-25.66,12.42-33.94,52.97s-2.77,41.54-7.71,60.69-17,20.73-12.34,46.29,25.73,19.77,19.03,42.17c-6.7,22.41-15.43,10.28-15.43,40.12s-14.4,47.83,4.11,60.17,31.89,7.71,27.26,29.83-21.6,.46-21.6,21.6-11.83,32.92,10.29,49.37,24.17-2.06,28.29,30.86,1.54,28.29,16.46,55.03,45.54,39.68,34.46,61.2c-9.27,17.99-6.42,14.22,3.09,27.26s2.76-14.71,14.91,0-9.15,17.19-1.54,28.29,25.19-2.07,37.03,16.97,7.62,31.94,20.06,40.63,23.39-1.42,34.46,4.63,4.2,4.93,12.8,14.15,13.21,3.52,23.09,3.17,11.32,2.42,16.08,6.79,4.96,1.46,12.68,2.04,.54-1.31,6.34,8.15,12.74,17.43,21.74,17.43,9.46,14.37,25.58,9.28,15.85-5.43,24-4.3,6.57,3.85,15.85,.23,3.85-20.09,16.75-2.49,5.84,23.55,18.79,28.98,16.25-1.91,25.08,5.41,6.74,14.93,18.45,20.37,21.81,11.5,34.99,10.31,10.78-5.75,24.45-6.23,13.66,6.47,28.76,.96,21.81-11.5,34.03-14.62,45.9-1.27,59.44,3,12.67,13.56,25.65,11.03,35.73-19.63,49.38-22.29,14.62,4.79,29.01-4.79,22.06-37.4,40.99-38.6,7.67,5.99,22.29,4.55,18.22-12.23,29.01-8.87,12.47,12.23,23.73-.96,35.11-11.89,41.11-42.55,35.27-66.91,51.78-71.68,41.05-3.02,53.7-17.5,33.87-28.58,41.71-44.83-5.05-17.12-1.44-30.45-3.6-23.53,18.39-50.05,34.49-20.63,32.95-56.35-13.24-38.8-11.7-70.21,38.12-89.11,32.03-106.7c-6.1-17.59-23.4-19.71-28.95-32.95s-16.01-11.7-12.93-24.02,12.63-16.63,.31-26.18c-12.32-9.55-16.01-1.54-9.85-19.09s4.26-12.51,6.13-30.58,6.54-29.47,9.35-47.04,8.72-15.27-12.77-27.73-28.66-21.81-43.62-25.24-46.73,6.85-55.15-11.22,0-22.43-12.15-31.78-29.91-7.79-34.89-25.24-2.26-55.2-25.83-69.68-73.72-2.02-88.19-9.09c-14.47-7.07-16.83-10.43-29.96-12.79-13.13-2.36-48.47,16.49-62.94,8.08s-12.45-21.88-29.28-23.56c-16.83-1.68-39.08,3.14-57.15,7.19s-47.58-2.21-66.76-2.95-37.62-3.32-58.64,9.59-22.13,55.32-37.99,42.41c-15.86-12.91-3.69-40.94-21.76-42.41s-30.61-16.6-42.41,7.01c-11.8,23.6-18.44,41.31-33.56,23.6-15.12-17.7,5.16-27.29-14.02-29.14s-40.2-20.28-44.26,12.17-11.43,14.02-25.45,17.7-8.85-12.54-18.81-15.12-14.6,17.18-14.6,17.18Z"/><g><path class="ah" d="M279.14,475.81s-47.16,74.76-49.66,102.71,5.65,76.77,12.92,78.68,5.9-3.17,5.9-3.17c0,0-7.03-7.71-8.16-17.91s.45-34.71,1.81-46.48,4.99-5.67,4.99-5.67c0,0,8.14-1.43,7.71-10.2s.91-26.3,.91-26.3c0,0,.45-5.9,4.76-16.1s18.82-55.55,18.82-55.55Z"/><path class="ah" d="M266.79,673.18s7.58,34.06,12.47,32.2,.45-42.17,.45-42.17c0,0,10.66,30.37,13.6,35.6s7.71,19.27,7.71,19.27l9.3-4.08s1.92-.07,4.31,12.24,9.64,17.71,16.55,20.18,8.97,13.84,14.06,17.46,9.3-.91,14.28,10.88,10.48,42.55,11.42,50.07,.47,18.33,7.29,27.73,9.17,17.16,22.09,22.8,10.58,4.7,18.1,13.16,10.81,7.29,23.03,11.99c2.36,.91,4.55,1.81,6.54,2.67,8.31,3.59,13.2,6.5,13.2,6.5,0,0-6.7,9.99-12.22,4.47s-3.29-11.28-16.45-10.34-33.14,14.34-52.64-7.05-30.08-14.1-35.25-42.3-8.7-38.54-8.7-38.54c0,0,.24,.47-4.23-14.81s-1.18-21.39-12.93-25.15-26.79,3.29-34.08-8.93-21.15-35.25-19.74-54.52,1.84-39.31,1.84-39.31Z"/><path class="ah" d="M418.81,159.25s-70.13-.28-94.83,20.16-26.97,33.5-49.12,64.17-29.81,23-53.38,49.69c-23.57,26.69-39.18,42.02-44.29,71.55s-7.67,80.92-4.83,103.92,7.67,62.18,13.06,75.53,3.41-14.2,1.42-20.73,7.1-9.09,7.1-9.09l2.27-34.64s3.98,1.99-3.41-24.42c-7.38-26.41-8.23-31.23-1.42-56.22,6.81-24.99,17.89-49.4,17.89-49.4,0,0,10.22-28.68,29.53-34.36,19.31-5.68,32.08-14.48,32.08-14.48,0,0,8.23-2.84,10.51-18.17s3.12-17.6,10.51-24.13,12.49,8.23,23.57-5.39c11.07-13.63,55.37-44.58,70.98-46,4.88-.44,8.48-1.53,11.13-2.8,5.83-2.81,7.04-6.57,7.04-6.57l-21.86,3.41s-34.64,18.17-43.44,15.05,16.47-23.85,16.47-23.85c0,0-5.96-2.84,3.98-11.36,9.94-8.52,41.07-24.82,59.06-21.86Z"/><path class="ah" d="M492.85,327.02s-61.52,93.58-67.48,135.71-10.63,52.01-3.73,58.91,8.2,11.56,6.34,23.12-9.32,15.29-5.22,35.05,12.68,34.67,15.66,41.76-8.04,6.96-19.76-20.88c-11.72-27.84-11.56-43.62-11.56-61.52s2.61-33.93-8.2-48.1-30.2-21.25-22-52.57,26.84-62.26,42.88-66.74c16.03-4.47,19.39-20.88,30.95-26.84s19.76-19.39,19.76-19.39l27.22-12.68,15.29-4.85,12.3,3.73-32.44,15.29Z"/><path class="ah" d="M549.92,156.83s12.13-17.34,30-14.95,19.73,5.42,25.46,4.84c5.73-.59,27.59-2.69,42.77,2.04s36.92,8.66,38.95,16.29,35.79,2.54,43.87,4.01c8.08,1.47,23.51,8.33,30.37,13.22,6.86,4.9,23.51,7.59,28.9,6.12s-18.61-15.43-25.96-20.82-26.45-19.1-35.02-21.55c-8.57-2.45-9.8,2.45-18.12-1.96s-30.61-6.12-41.14-7.35-23.75,2.2-34.53,0c-10.77-2.2-15.24-6.77-25.22-7.84-46.28-4.95-60.33,27.93-60.33,27.93Z"/><path class="ah" d="M773.74,139.19s51.2,8.75,58.98,24.3,2.59,26.57,21.71,43.75c19.12,17.18,11.99,21.39,23.98,38.24s7.13,23.66,17.18,25.93,20.09,17.82,22.68,29.49-2.27,30.46,7.45,31.43c9.72,.97,19.44-5.19,19.44-5.19,0,0-3.24,10.05-.65,24.3s.65,46.67,.65,46.67c0,0-11.02,26.9,4.54,29.49,15.56,2.59,30.79,6.16,30.79,6.16l6.16-15.56,4.86,12.31,11.02,12.64s5.83-2.92,3.24,9.07,2.59,18.15,2.59,18.15c0,0,7.78,7.45,9.72-8.1s0-32.73,0-32.73l-10.69-19.77s-2.92,5.19-5.19,12.96-16.07-30.02-16.07-30.02l-12.77-5.95s-11.99,21.06-4.86-6.48c7.13-27.55,11.99-46.99,11.99-46.99,0,0,15.43-16.03,.97-27.87-14.46-11.84-23.33-6.81-23.33-6.81,0,0-10.37,1.3-19.12-11.34s-20.09-34.03-20.09-34.03l-4.86-18.47s-2.59-19.12-14.58-23.01c-11.99-3.89-21.06-10.69-21.06-10.69l-15.23-11.99s-9.4-20.42-11.99-29.49-13.29-14.58-13.29-14.58l-64.16-5.83Z"/><path class="ah" d="M641.67,258.84l-18.77-3.98s9.81-16.78,30.71-16.78,36.64-3.89,52.89,4.55c16.25,8.44,24.45,13.65,24.45,13.65,0,0,6.26-2.27-.28-9.38-6.54-7.11-16.49-10.24-16.49-10.24,0,0,30.14,5.69,38.1,11.94s9.95,10.24,18.77,15.64c8.81,5.4,21.9,5.4,21.9,5.4l-16.49,9.1s-9.89-.39,1.14,8.81c11.03,9.21,17.35,15.07,25.59,27.01s15.07,27.87,15.92,36.68,7.96,20.47,7.96,20.47l-2.56,13.08-7.39-15.36s-3.41,5.4-4.27,14.79,1.99,23.03-7.96,20.19c-9.95-2.84-9.1-16.21-9.1-16.21,0,0,9.95-9.38,4.27-26.16s-11.09-32.13-17.35-39.81c-6.26-7.68-9.95-3.7-18.77-22.75s-4.83-20.47-14.79-25.88c-9.95-5.4-10.81-14.79-27.87-11.66s-36.4,13.65-48.34,13.65-34.41-.28-31.28-16.78Z"/><path class="ah" d="M643.78,437.87s4.91-2.19,14.46,7.37c9.56,9.56,10.64,16.1,10.64,16.1l5.46,.27s4.49-9.95,2.46,2.18-1.36,36.57-1.36,36.57l6.55,6.28s4.37,16.65,9.55-8.73,10.64-45.85,10.64-45.85c0,0,3-17.74-12.28-20.19s-21.83-5.18-21.83-5.18l-15.01,.55-9.28,10.64Z"/><path class="ah" d="M616.22,457.79s-23.47,39.84-19.92,51.3,1.39,28.87,27.02,38.2-6.74,12.4-.27,19.65,15.83,3.55,15.83,3.55l9.01-3.55-9.01,22.38,31.66,8.73s27.83-4.91,45.85-27.02,15.96-28.45,39.02-44.75c9.65-6.82,1.64-17.47,1.64-17.47,0,0-2.33-.94-9.82,7.91-7.49,8.86-27.56,24.29-27.56,24.29l-24.29,14.46s-19.1,20.19-22.1,6.55-7.91-18.01-7.91-18.01c0,0-13.64,6.82-20.47,3.55s-7.1-17.47-7.1-17.47l4.91-12.55-5.46-11.19s2.91-1.29-2.73-6c-16.65-13.92-18.28-42.57-18.28-42.57Z"/><path class="ah" d="M938.65,541.45s-20.87,52.87-52.68,70.79-5.04,6.27-13.58,14.82,1.23,4.53-20.58,13.17-26.34,21.4-45.27,16.46-16.05-13.17-30.04-19.34-15.11,2.88-24.69,2.88-1.65-9.88-13.99-10.7-48.97,18.93-48.97,18.93c0,0-24.3,12.19-40.74,14.82s25.52,7,25.52,7c0,0-5.35-.41,16.46,3.7s43.62,2.88,57.62-5.76,8.64-10.7,25.52-7,12.75,21.81,32.51,21.81,48.56,1.65,55.97-21.81,7.82-12.76,18.11-22.22,13.58,2.06,28.4-25.93,30.45-71.61,30.45-71.61Z"/><path class="ah" d="M957.58,692.48s18.94,.44,7.41,16.46c-9.6,13.34,1.65,42.8-13.58,56.79s-41.16,17.7-41.16,17.7c0,0-13.58-.82-26.34,4.53s-20.17,21.81-41.16,27.57-43.62,17.29-61.32-.41-15.23-7.82-23.05-7-78.61-11.52-99.18-22.22-28.81-4.94-48.97-7-48.97-31.69-54.32-41.57,12.19,4.53,24.28,5.76,25.52-2.76,32.92,5.35c17.29,18.93,33.34,28.4,44.45,21.4s13.17,0,22.64-4.94c2.19-1.14,4.58-1.18,6.96-.57,7.9,2.04,15.67,11.27,15.67,11.27,0,0,12.71-5.39-5.35-23.46-11.48-11.48,27.16,7.41,27.16,7.41,0,0,43.36-8.29,52.27,4.94s7,20.58,18.52,21.81,32.51-5.76,47.74-8.23,40.33-4.12,52.68-12.35,30.45-18.93,30.45-18.93l5.37-24.44s14.23-26.98,25.91-29.88Z"/><path class="ah" d="M887.77,867.75s-30.76,28.53-31.64,38.42,.12,19.93-6.61,20.89-9.17-1.71-13.96-1.39-24.72,9.06-29.41,11.08-12.47,7.99-12.47,1.6,6.61-6.82,4.48-11.72-3.67-4.88-15.57-4.88-27.58-2.12-41.35-2.12-27.03,1.47-37.36,.16-12.71,.1-24.48-3.08-59.49-14-72.53-25.45c-13.04-11.45-21.32-18.77-27.68-32.77h0c-6.36-14,3.5-17.18-10.82-21.63s21,17.82,21,17.82c0,0,3.5-2.55-.95-9.86s9.86,6.36,9.86,6.36c0,0,8.59,5.63,12.41,15.27s9.23,21.95,9.23,21.95c0,0,10.82,13.04,17.18,4.14s0-15.91,0-15.91l16.54,13.36,5.41,7.95s5.09,6.36,15.59,5.41,21.63-4.45,28.63-3.5,22.91,0,33.4,.64,13.36-4.14,20.36-7.95,10.5-3.82,19.72-3.5,23.54-2.55,26.41,4.77-3.82,12.09,1.59,14.95,13.23,.5,13.23,.5"/></g><g><path class="n" d="M258.01,366.32l-7.25,16.24-7.31,16.37,.58,32.62,12.81-9.9s-21.81-5.99,5.24-20.97c27.05-14.97,8.74-20.97,8.74-20.97l15.14-14.56-18.64-15.73-9.32,16.89Z"/><path class="n" d="M312.76,527.66l-13.98,19.22s-13.98,26.21-2.33,29.12,8.13-5.51,8.13-5.51l-.73-8.26s-1.38-10.19,2.2-13.77,9.91-14.69,9.91-14.69l-3.21-6.12Z"/><path class="n" d="M480.58,434.58l-1,2-4.33,26.77s2.16,27.04,9.2,15.96,11.9-21.09,11.9-21.09l-11.63,6.22s-8.98-8.98,2.97-25.96,1.35-17.58,1.35-17.58c3.35,8.83-8.47,13.69-8.47,13.69Z"/><path class="n" d="M919.51,379.26s11.82,18.75,1.77,22.99c-10.06,4.24-14.92,2.54-14.92,2.54,0,0,7.11-1.22,9.84-5.64s-4.97-5.86-4.97-5.86c0,0,1.66,4.52,3.98-2.54s1.22-11.28,1.22-11.28c0,0,1.17-2.79,3.1-.22Z"/><path class="n" d="M915.42,453.88s-25.32,22.66-28.63,15.15-6.41-9.06-1.66-10.39,11.73,4.1,11.73,4.1l18.56-8.85Z"/><path class="n" d="M502.59,188.36s-4.68-.3-10.27-.12c-9.5,.3-21.61,1.96-17.76,8.74,6.11,10.78,11.24,2.47,11.24,2.47l16.78-11.09Z"/><path class="n" d="M954.91,632.18c7.54,.77,4.6,38.46-3.76,30.1s-12.27,.49-12.27,.49l5.07-13.25s-.87,.87,2.94,1.15,3.27,4.09,3.27,4.09c0,0-.33-8.02,.82-11.12s.92-11.76,3.93-11.45Z"/><path class="n" d="M747.81,702.03s-.16-9.49,6.05-15.05,8.83,1.64,8.83,1.64c0,0,1.47,12.11-1.47,8.51s-7.03-1.8-7.03-1.8l-6.38,6.71Z"/><path class="n" d="M476.5,879.48s.02,.95,.11,2.54c.43,7.81,2.4,30.99,10.63,30.99,9.9,0,7.74-11.6,7.74-11.6l-9.46-5.16-9.03-16.76Z"/><path class="n" d="M424.23,664.19s8.7,33.85,11.52,22.37c2.49-10.15,24.74-2.03,24.74-2.03l-20.33-16.27s2.37-4.07-7.79-12.88-17.28-3.05-17.28-3.05l9.15,11.86Z"/></g></g></g><g id="f"><g><path class="v" d="M1545.61,294.27c0,54.9-16.57,96.34-58.01,96.34s-53.87-43.13-53.87-96.34-9.32-96.34,53.87-96.34c58.01,0,58.01,43.13,58.01,96.34Z"/><circle class="v" cx="1546.64" cy="322.24" r="14.5"/><path class="v" d="M1440.98,327.42s-4.67,.39-8.29,1.88c-2.28,.94-4.14,2.33-4.14,4.33,0,5.18,2.62,16.38,16.85,23.21,14.23,6.83-4.42-29.43-4.42-29.43Z"/></g><path class="ad" d="M1444.09,227.97s1.04,16.57-12.43,16.57c-10.36-3.11-16.57-13.47-6.22-27.97-1.04-5.18-4.87-20.72,13.62-18.65-.31-6.22-.15-17.61,12.28-16.57,0-3.11,8.29-18.65,20.72-13.47,1.04-2.07,11.4-11.4,18.65-4.14,3.11-1.04,14.5-9.32,21.75,4.14,4.14,1.04,11.4-2.07,17.61,10.36,6.22,4.14,12.43,10.36,10.36,21.75,2.07,1.04,17.61,7.25,10.36,24.86,2.07,2.07,8.82,8.29,3.37,19.68,1.54,3.11,3.88,10.36-3.37,15.54-6.22,0-10.36-2.07-12.43-4.14-2.07-2.07-10.36-10.36-5.18-23.83-3.11-2.07-12.43-6.22-10.36-18.65-1.04-2.07-6.22-3.11-6.22-4.14s-6.22-1.04-7.25-2.07-11.4,3.11-14.5-4.14c-2.07,2.07-5.18,10.36-15.54,10.36-1.04,3.11-6.22,13.47-18.65,8.29-2.07,3.11-4.14,11.4-16.57,6.22Z"/><g><g><path class="r" d="M1492.32,390.42s-25.44,14.7-33.73,33.34c-4.14,21.75-26.87,89.85-25.35,96.2-2.14-1.79-52.35-50.62-53.38-53.73-5.18-1.04-31.08,16.57-26.93,25.9,4.14,6.22,5.18,3.11,5.18,3.11,0,0,59.12,66.13,75.14,63.62,12.36-.87,13.95-1.47,16.02-4.58s27.97-50.76,37.29-87.02c3.11-17.61,15.54-22.79,15.54-22.79l-9.78-54.06Z"/><path class="r" d="M1483.45,461.06s29.01,88.05,26.93,109.81c-3.11,10.36-5.18,17.61-5.18,17.61l5.29,6.37,4.04,1.92s23.83,4.14,46.62,2.07,48.69-11.4,48.69-11.4c0,0,7.25-5.18,7.25-6.22s4.14-7.25,4.14-9.32-4.14-11.4-6.22-15.54c-2.07-4.14-34.19-143.99-33.15-156.42-20.72-9.32-90.13,34.19-90.13,34.19l-8.29,26.93Z"/></g><path class="r" d="M1492.32,390.42s31.7-13.55,39.9-11.34c8.2,2.21,23.74-4.62,28.92-10.53s81.84-86.71,85.98-97.07c4.14-10.36,46.56-124.31,47.65-142.96,2.07-5.18,18.65-22.79,35.22,2.07-2.07,14.5-34.19,118.1-50.76,141.92-16.57,23.83-47.65,70.44-55.94,78.73-8.29,8.29-42.47,41.44-41.44,48.69,1.04,7.25-9.32,13.47-9.32,13.47l-64.23,23.83-16.57-3.11,.58-43.7Z"/></g><path class="v" d="M1496.92,387.51s7.25,12.43,11.4,15.54c4.14,3.11,20.72-2.07,23.83-12.43,1.04-7.25-7.82-16.19-7.82-16.19l-21.18,5.83-6.22,7.25Z"/><path class="v" d="M1718.61,131.63s0-21.75,3.11-24.86c3.11-3.11,16.57-16.57,17.61-21.75,1.04-5.18,4.14-19.68,5.18-21.75,1.04-2.07,2.07-15.54-3.11-15.54s-7.25,21.75-7.25,21.75c0,0,7.06-29.81-2.17-30.96-4.05-1.15-8.19,34.07-8.19,34.07,0,0,4.14-53.87,0-53.87s-8.29-7.25-11.4,52.83c0,0,3.11-42.47-1.04-42.47s-10.98,4.91-9.63,45.96c-.42-.76,1.35-39.75-5.91-39.75s-8.29,42.12,0,52.66c-5.18-3.79-18.65-15.36-29.01-5-2.07,4.14,2.07,6.22,2.07,6.22,0,0,5.18,0,12.43,3.11,5.18,5.18,7.25,9.32,9.32,10.36s8.29,1.04,9.32,5.18c1.04,4.14,0,18.65-1.04,20.72,1.04,1.04,6.49,2.07,8.94,3.11,2.45,1.04,4.53,4.14,7.63,2.07l3.11-2.07Z"/><path class="v" d="M1376.75,478.67s-12.43-14.5-12.43-15.54-1.04-18.65-4.14-20.72-10.36-2.07-10.36-2.07c0,0-5.18-5.18-7.25-5.18s-7.25,2.07-7.25,2.07c0,0-11.4-2.07-13.47,1.04s-2.07,4.14-2.07,5.18-5.18,2.07-6.22,5.18,0,5.97,0,5.97c0,0-2.07,6.46-1.04,9.57,0,1.04-3.11,3.11-2.07,7.25,1.04,3.11,3.11,6.22,5.18,6.22s7.25-1.04,7.25-1.04c0,0,9.32,4.14,12.43,4.14s10.36-5.18,10.36-5.18l6.22,1.04s10.36,13.47,11.4,13.47h2.65"/><g><path class="a`" d="M1723.78,744.9s-2.07-11.52,0-14.05,16.57-10.82,23.83-7.71c6.22,5.18,12.96,46.81-6.99,73.64-6.74,1.88-12.69-10.45-12.69-10.45,0,0-5.99-31.5-5.06-36.47l.92-4.97Z"/><path class="a`" d="M1455.48,993.71s-27.97,32.96-42.47,39.18c-4.14,7.25-6.22,13.47-5.18,16.57,1.04,3.11,4.14,9.32,34.19,4.14,23.83-13.47,45.58-23.83,48.69-36.26,3.11-13.47,0-21.38-1.04-23.64s-7.09-12-9.24-13.35-9.77,0-9.77,0l-15.17,13.35Z"/></g><path class="ad" d="M1509.35,607.12s3.11,40.4,4.14,42.47c-1.04,4.14-17.61,51.36-30.04,73.85-8.29,22.19-26.93,70.14-27.97,76.36-1.04,6.22-9.32,180.63,0,193.91,7.25,5.84,18.65,2.92,23.83-4.33,2.07-7.25,12.43-162.64,10.36-176.11,4.14-8.29,52.83-96.34,65.26-148.14,0,0,.47-4.81,6.97-4.48s19.97,14.84,28.25,60.42c10.36,43.51,33.15,113.95,39.37,116.02s45.27-7.47,104.63-89.09c1.04-6.22,1.04-13.47-8.29-12.43-8.29,6.22-72.51,58.01-75.62,58.01-2.07-2.07-22.79-96.34-23.83-104.63-1.04-8.29-8.29-58.01-7.25-61.12,1.04-3.11-2.07-31.08-2.07-31.08l-62.16,7.25-45.58,3.11Z"/><path class="w" d="M1510.49,594.84s38.22,1.92,49.62,.88c11.4-1.04,52.88-10.08,54.93-12.29,.98,2.83,3.08,12.29,2.05,13.33-1.04,1.04-46.62,12.43-55.94,12.43s-51.8-2.07-51.8-2.07c0,0-1.86-7.98,1.14-12.28Z"/><rect class="ae" x="1549.66" y="594.53" width="24.48" height="14.62" rx="2.71" ry="2.71" transform="translate(-39.6 115.08) rotate(-4.17)"/><g><g><path class="y" d="M1490.25,243.51s25.32-2.07,23.25,30.04c-1.04,13.47-9.32,18.65-21.24,17.61,.52-5.18,4.66-8.29,4.66-8.29l3.11-13.47-1.04-13.47s-3.11-6.22-4.14-7.25-4.6-5.18-4.6-5.18Z"/><path class="y" d="M1453.13,250.75s13.72-1.4,10.63,14.33-5.09,10.51-5.09,10.51l-3.19-17.57-2.35-7.27Z"/></g><g><ellipse class="p" cx="1492.26" cy="267.34" rx="18.13" ry="23.83"/><path class="p" d="M1462.73,271.48c-.72,10.86-5.08,19.07-12.22,18.59-7.14-.47-12.34-9.66-11.62-20.52,.72-10.86,7.09-19.28,14.23-18.81s10.33,9.88,9.61,20.74Z"/></g></g><g><g><line class="o" x1="1491.85" y1="268.38" x2="1492.59" y2="262.41"/><path d="M1492.22,268.38l.65-5.22,.09-.74c.03-.2-.19-.37-.38-.38-.22,0-.35,.17-.38,.38l-.65,5.22-.09,.74c-.03,.2,.19,.37,.38,.38,.22,0,.35-.17,.38-.38h0Z"/></g><g><line class="o" x1="1488.86" y1="264.65" x2="1495.57" y2="266.18"/><path d="M1488.76,265.01l5.87,1.34,.84,.19c.47,.11,.67-.62,.2-.72l-5.87-1.34-.84-.19c-.47-.11-.67,.62-.2,.72h0Z"/></g><g><line class="o" x1="1490.73" y1="262.41" x2="1494.08" y2="268.38"/><path d="M1490.4,262.6l2.94,5.23,.41,.74c.24,.42,.88,.04,.65-.38l-2.94-5.23-.41-.74c-.24-.42-.88-.04-.65,.38h0Z"/></g><g><line class="o" x1="1494.45" y1="263.53" x2="1489.98" y2="267.26"/><path d="M1494.19,263.26l-3.92,3.27-.55,.46c-.16,.13-.13,.4,0,.53,.15,.15,.37,.13,.53,0l3.92-3.27,.55-.46c.16-.13,.13-.4,0-.53-.15-.15-.37-.13-.53,0h0Z"/></g><g><line class="o" x1="1494.81" y1="267.73" x2="1490.4" y2="263.65"/><path d="M1495.07,267.47l-3.87-3.58-.54-.5c-.35-.33-.89,.2-.53,.53l3.87,3.58,.54,.5c.35,.33,.89-.2,.53-.53h0Z"/></g><g><line class="o" x1="1493.49" y1="263.28" x2="1490.23" y2="268.1"/><path d="M1493.17,263.09l-2.86,4.23-.4,.6c-.27,.4,.38,.78,.65,.38l2.86-4.23,.4-.6c.27-.4-.38-.78-.65-.38h0Z"/></g><g><line class="o" x1="1488.57" y1="266.69" x2="1495.15" y2="264.69"/><path d="M1488.67,267.05l5.75-1.74,.84-.25c.46-.14,.26-.86-.2-.72l-5.75,1.74-.84,.25c-.46,.14-.26,.86,.2,.72h0Z"/></g></g><g><g><line class="o" x1="1446.23" y1="279.9" x2="1446.98" y2="273.93"/><path d="M1446.61,279.9l.65-5.22,.09-.74c.03-.2-.19-.37-.38-.38-.22,0-.35,.17-.38,.38l-.65,5.22-.09,.74c-.03,.2,.19,.37,.38,.38,.22,0,.35-.17,.38-.38h0Z"/></g><g><line class="o" x1="1443.25" y1="276.17" x2="1449.96" y2="277.7"/><path d="M1443.15,276.53l5.87,1.34,.84,.19c.47,.11,.67-.62,.2-.72l-5.87-1.34-.84-.19c-.47-.11-.67,.62-.2,.72h0Z"/></g><g><line class="o" x1="1445.11" y1="273.93" x2="1448.47" y2="279.9"/><path d="M1444.79,274.12l2.94,5.23,.41,.74c.24,.42,.88,.04,.65-.38l-2.94-5.23-.41-.74c-.24-.42-.88-.04-.65,.38h0Z"/></g><g><line class="o" x1="1448.84" y1="275.05" x2="1444.37" y2="278.78"/><path d="M1448.58,274.79l-3.92,3.27-.55,.46c-.16,.13-.13,.4,0,.53,.15,.15,.37,.13,.53,0l3.92-3.27,.55-.46c.16-.13,.13-.4,0-.53-.15-.15-.37-.13-.53,0h0Z"/></g><g><line class="o" x1="1449.2" y1="279.25" x2="1444.79" y2="275.17"/><path d="M1449.46,278.99l-3.87-3.58-.54-.5c-.35-.33-.89,.2-.53,.53l3.87,3.58,.54,.5c.35,.33,.89-.2,.53-.53h0Z"/></g><g><line class="o" x1="1447.88" y1="274.8" x2="1444.61" y2="279.62"/><path d="M1447.55,274.61l-2.86,4.23-.4,.6c-.27,.4,.38,.78,.65,.38l2.86-4.23,.4-.6c.27-.4-.38-.78-.65-.38h0Z"/></g><g><line class="o" x1="1442.95" y1="278.21" x2="1449.54" y2="276.21"/><path d="M1443.05,278.57l5.75-1.74,.84-.25c.46-.14,.26-.86-.2-.72l-5.75,1.74-.84,.25c-.46,.14-.26,.86,.2,.72h0Z"/></g></g><g><path class="ad" d="M1511.42,273.56v2.18c0,.93-.5,1.7-.5,1.7l34.69,26.28s1.04-.54,1.04-1.36v-1.75l-35.22-27.04Z"/><path class="ad" d="M1463.01,269.73s9.05-1.48,11.12,1.69,1,3.75,1,3.75c0,0-7.22-5.76-12.4-3.68"/><path class="ad" d="M1439.77,278.78l-7.07,8.24v2.65l7.72-8.87-.65-2.02Z"/></g><path class="t" d="M1488.97,360.13s1.16,7.66,3,8.72,3.91-3.09,3.91-5.16c0,2.07,5.18,16.57,7.25,15.54s1.71-5.26-1.22-16.62c0,0,.18,3.15,3.29,2.11,3.11-1.04,3.86-4.59,3.86-4.59l-1.82-9.12-18.28,9.12Z"/><g><path class="ai" d="M1496.92,316.03s32.14-.75,14,31.22c-9.86,12.29-30.57,15.4-44.04,13.33-13.47-2.07-25.93-18.21-25.91-22.05s2.09-5.92,4.16-5.92,12.43,3.11,14.5,3.11c1.63,0,7.14,.64,12.95-1.63,1.55-.61,3.13-1.42,4.66-2.52,6.35-4.53,11.9-10.65,17.35-14.19,.78-.51,1.56-.96,2.33-1.35Z"/><g><path class="x" d="M1496.92,345.96s-3.11-7.14-7.25-7.14-8.3,5.46-8.29,6.87,6.77,.48,8.05-1.13c1.28,1.5,1.54,4.02,2.96,4.83"/><g><g><path class="m" d="M1496.92,329.49c-2.07,2.07-6.11,2.83-11.34-4.8,5.13-4.52,6.16-5.27,6.16-5.27,0,0,10.36,4.89,5.18,10.07Z"/><path class="m" d="M1488.56,335.68c-2.49,1.55-6.92,3.47-10.29-5.15,5.18-4.14,7.51-5.83,7.51-5.83,0,0,8.99,7.1,2.78,10.97Z"/><path class="m" d="M1482.42,333.64s1.04,6.22-2.07,7.25-7.25-3.25-7.77-6.81c.52-.45,7.29-4.24,7.29-4.24l2.55,3.79Z"/><path class="m" d="M1463.85,335.78s.96,8.22,6.14,7.18,4.76-5.94,4.76-5.94l-.94-3.71s-1.4,1.1-4.86,1.37-5.1,1.1-5.1,1.1Z"/><path class="m" d="M1465.39,338.6s-.58,6.44-3.69,6.44-6.22-2.07-6.22-4.14,.37-5.88,.37-5.88c0,0,2.74,.7,3.77,.7s5.1,.13,5.1,.13l.66,2.76Z"/><path class="m" d="M1449.98,333.56s-1.01,8.61,2.25,9,4.81-1.52,4.81-1.52l.52-4.3-.52-1.74-4.28-.76-2.78-.69Z"/></g><g><path class="m" d="M1453.69,354.43s3.86-5.25,6.97-4.22,4.3,6.88,3.18,9.66c-2.23-.67-.82,.15-5.11-2.16-4.29-2.31-5.05-3.28-5.05-3.28Z"/><path class="m" d="M1475.45,361.17s-.36-7.84-4.51-7.84-7.17,4.39-7.17,4.39v2.16s2.07,.7,5.45,1.01c3.85,.35,6.23,.29,6.23,.29Z"/><path class="m" d="M1474.13,358.5s5.18-6.22,9.32-7.25,8.55,4.74,8.93,6l.39,1.26s-1.04,2.07-10.71,2.27c-3.88,.08-4.25,.99-6.61,.39s-1.32-2.66-1.32-2.66Z"/><path class="m" d="M1504.52,353.1s-5.56-9.36-9.69-6.64-3.09,8.26-3.09,9.63,1.04,2.41,1.04,2.41c0,0,4.21-.44,6.25-1.26s5.5-4.15,5.5-4.15Z"/><path class="m" d="M1512.56,344.17s-5.65-6.95-8.86-3.12c-3.21,3.83-1.05,8.9-1.33,9.03s2.14,3.02,2.14,3.02c0,0,3.75-2.17,5.33-4.6,2.61-2.43,2.82-2.09,2.72-4.33Z"/></g></g></g></g><g><g><path d="M1458.1,323.04c-.86,0-1.57-.15-2.07-.3-4.16-1.25-3.52-10.72-2.55-15.11,.01-.06,.04-.12,.07-.17,4.6-7.07,10.39-47.04,10.45-47.44,.04-.28,.3-.48,.59-.44,.28,.04,.48,.3,.44,.59-.24,1.65-5.85,40.31-10.56,47.78-1.1,5.12-1.08,12.93,1.86,13.81,1.01,.3,3.05,.61,5.32-.79,2.53-1.56,5.94-5.67,7.83-16.41,2.03-17.31,2.06-21.62,2.06-21.66,0-.29,.23-.52,.52-.52h0c.29,0,.52,.23,.52,.52,0,.17-.02,4.37-2.08,21.82-1.58,8.96-4.38,14.72-8.31,17.14-1.5,.93-2.92,1.2-4.09,1.2Z"/><g><path d="M1545.94,327.28c-.53,0-.9-.12-.94-.13-.14-.05-.21-.19-.16-.33,.04-.14,.19-.21,.33-.16,.01,0,1.27,.4,2.4-.42,1.26-.91,1.92-3.01,1.92-6.07,0-.96-.14-1.83-.43-2.6-1.88-5.07-6.81-3.93-7.02-3.88-.14,.03-.28-.05-.31-.19s.05-.28,.19-.31c.05-.01,5.59-1.3,7.63,4.2,.31,.83,.46,1.76,.46,2.78,0,3.29-.72,5.47-2.14,6.5-.68,.49-1.38,.61-1.93,.61Z"/><path d="M1543.02,319.91c-.07,0-.13-.03-.18-.08-.1-.1-.1-.27,0-.37,3.75-3.75,6.94-.99,6.97-.97,.11,.1,.12,.26,.02,.36-.1,.11-.26,.12-.37,.02-.11-.1-2.86-2.45-6.26,.95-.05,.05-.12,.08-.18,.08Z"/></g><path d="M1519.71,346.46c-.08,0-.15-.02-.22-.07-.18-.12-.22-.36-.1-.54,.09-.13,9.1-13.45,2.04-27.58-7.02-14.04-28.34-8.15-28.55-8.09-.21,.06-.42-.06-.48-.27-.06-.21,.06-.42,.27-.48,.22-.06,22.15-6.13,29.46,8.49,7.27,14.54-2.01,28.23-2.1,28.36-.08,.11-.2,.17-.32,.17Z"/><path d="M1456.52,363.16c-.07,0-.13-.01-.2-.04l-5.69-2.38c-15.05-6.83-22.42-17.03-23.04-24.11-.26-2.9,.62-5.21,2.48-6.48,6.13-4.22,14.89-.21,15.26-.04,.26,.12,.37,.43,.25,.69-.12,.26-.43,.37-.69,.25-.09-.04-8.6-3.93-14.24-.04-1.54,1.06-2.26,3.02-2.04,5.54,.6,6.78,7.77,16.6,22.43,23.25l5.67,2.37c.26,.11,.39,.41,.28,.68-.08,.2-.28,.32-.48,.32Z"/></g><g><path d="M1336.18,461.17c-1.41,0-2.91-.33-3.91-1.33-1.62-1.62-1.45-4.42,.51-8.33,5.26-10.52,24.01-10.71,24.81-10.71,.23,.03,3.46,.62,4.61,4.01l-.98,.33c-.95-2.79-3.6-3.3-3.71-3.32-.1,0-18.82,.19-23.79,10.14-1.71,3.42-1.95,5.89-.7,7.14,1.57,1.57,5.07,1.03,6.22,.45,.64-.32,2.11-1.39,3.81-2.63,3.84-2.79,8.62-6.27,10.86-6.47l.09,1.03c-1.96,.18-7.01,3.85-10.35,6.28-1.81,1.32-3.24,2.36-3.96,2.71-.65,.33-2.04,.68-3.5,.68Z"/><path d="M1332.59,453.63c-4.4-.18-9.34-4.95-9.55-5.15l.72-.74s4.86,4.69,8.87,4.86l-.04,1.03Z"/><path d="M1337.13,447.46c-2.83-1.2-4.29-5.8-4.35-6l.99-.31s1.37,4.34,3.76,5.35l-.4,.95Z"/><path d="M1320.29,465.2v-1.04c.11,0,11.32-.02,17.37-2,.65-.77,.41-1.63,.4-1.67l.99-.31c.02,.06,.47,1.54-.72,2.78l-.09,.09-.12,.04c-6.17,2.07-17.35,2.1-17.83,2.1Z"/><path d="M1328.79,456.34c-2.38,0-5.02-.4-5.47-.47l.16-1.02c1.79,.28,6.74,.84,8.15,.06l.5,.91c-.72,.4-1.99,.53-3.35,.53Z"/><path d="M1320.35,472.42h-.05v-1.04h0c.47,0,20.57-.04,24.49-3.96,.69-.69,1.45-1.66,1.15-2.39-.49-1.18-3.54-1.91-7.98-1.91v-1.04c3.6,0,8.07,.44,8.94,2.55,.42,1.01-.04,2.19-1.37,3.52-4.18,4.18-23.76,4.26-25.18,4.26Z"/><path d="M1336.1,481.31c-.29,0-.58-.02-.86-.06-3.17-.45-10.03-3.16-12.02-3.96l-3.45-.7,1.04-1.04,2.27,.56c.09,.04,8.79,3.61,12.31,4.11,3.36,.49,7.54-2.55,8.41-3.96,.78-1.26-.31-3.6-1.18-4.78-.47-.64-4.12-.54-7.22-.05l-.16-1.02c1.66-.26,7.14-1.01,8.22,.46,.92,1.25,2.37,4.09,1.23,5.93-.93,1.5-4.94,4.5-8.57,4.5Z"/></g></g><g><g><path class="s" d="M1358.04,356.25l-22.88,87.91,1.97,3.31,2.02-2.29,23.05-87.47s-.07-2.68-4.15-1.46Z"/><path class="s" d="M1326.79,478.67l-8.05,40.39s1.04,2.07,3.11,1.04c1.04-2.07,9.33-39.9,9.33-39.9"/></g><g><path class="af" d="M1362.19,357.71s11.45,2.87,15.6,9.08c4.14,6.22,10.36,22.79,18.65,26.93,8.29,4.14,21.75,6.73,32.11,3.88,1.04,15.28,0,18.89,0,30.81s.46,22.27,.46,22.27c-7.71,5.19-28.43,15.55-41.9,7.27s-18.78-25.85-42.02-36.75c5.31-18.7,17.1-63.49,17.1-63.49Z"/><path class="l" d="M1352.48,394.57s11.38,9.75,13.17,14.81,1.78,12.31,6.96,18.53c6.57,7.88,18.55,14.5,39.84,7.25,21.28-7.25,16.1-6.74,16.1-6.74l.46,22.27s-19.74,14.3-32.37,10.26c-5.38-.93-13.79-1.24-27.19-20.76-11.27-10.05-10.43-11.19-24.35-18.98,2.2-9.37,7.39-26.63,7.39-26.63Z"/></g></g><g><g><g><path class="ac" d="M1528.03,378.95s12.4,1.31,11.36,16.85c-2.07,10.36-4.14,16.57-4.14,16.57l-14.61-10.5s11.5-7.11,11.5-11.25-3.04-10.91-4.11-11.67Z"/><path class="ac" d="M1515.31,403.94l-8.04,16.71s-16.57-5.2-10.36-32.13c3.11,3.12,9.86,16.31,18.4,15.41Z"/></g><g><path class="ac" d="M1545.07,594.81l-1.01-.24c4.07-17.31-27.54-189.5-27.86-191.23l1.02-.19c1.31,7.1,31.97,174.14,27.85,191.66Z"/><g><ellipse class="ac" cx="1518.67" cy="414.44" rx="2.07" ry="3.11"/><ellipse class="ac" cx="1521.78" cy="431.02" rx="2.07" ry="4.14"/><circle class="ac" cx="1525.92" cy="453.81" r="3.11"/><circle class="ac" cx="1529.03" cy="476.6" r="3.11"/><ellipse class="ac" cx="1533.18" cy="500.42" rx="3.11" ry="4.14"/><ellipse class="ac" cx="1537.32" cy="524.25" rx="2.07" ry="5.18"/><circle class="ac" cx="1539.39" cy="543.93" r="3.11"/><ellipse class="ac" cx="1543.53" cy="565.68" rx="2.07" ry="3.11"/><ellipse class="ac" cx="1544.57" cy="581.22" rx="3.11" ry="4.14"/></g></g></g><g><path class="ac" d="M1516.24,581.37c-2.03-4.87-4.73-10.22-5.55-10.35l-.65-.33c.2-.4,.51-.45,.68-.45,1.58,.05,4.89,7.59,6.24,10.83l-.72,.3Z"/><path class="ac" d="M1612.58,584.81c-.12,0-.23-.09-.25-.22-.02-.14,.07-.27,.21-.3,.01,0,1.36-.23,3.27-1.89,1.33-1.15-1.82-6.32-4.12-9.31-.09-.11-.07-.28,.05-.36,.11-.09,.28-.07,.36,.05,.64,.83,6.18,8.18,4.05,10.02-2.04,1.76-3.47,2-3.53,2.01-.01,0-.03,0-.04,0Z"/></g></g><path class="ag" d="M1596.98,602.23s2.49,20.43,8.71,25.61,10.46,5.49,13.52,4.3c-.05-2.23-.05-29.16-2.12-35.38-4.14,1.04-20.1,5.47-20.1,5.47Z"/><path class="ag" d="M1510.99,627.11s16.68-3.81,16.33-19.15c-5.89-.64-17.97-.84-17.97-.84l1.64,19.99Z"/><g><line class="ag" x1="1557.71" y1="609.46" x2="1560.11" y2="634.06"/><rect class="u" x="1556.84" y="609.41" width="4.14" height="24.71" transform="translate(-53.03 154.37) rotate(-5.57)"/></g><g id="g" class="k"><path d="M1462.42,167.73s-16.65,5.21-10.84,25.93c.06,.2,.35,.16,.35-.04,0-4.52,.78-19.54,10.48-25.88Z"/><path d="M1468.66,178.33s.3-14.45,13.55-17.06c0,0-5.39,3.9-8.5,9.45s-3.9,9.32-5.06,13.65,0-6.04,0-6.04Z"/><path d="M1442.62,183.5s-5.89,4.17-3.97,14.53l1.76,7.25s-1.13-9.5,.03-12.52c1.16-3.02,4.6-11.18,7.02-11.24"/><path d="M1432.83,198.03s-11.95-1.04-7.8,18.65c-4.14,6.22-12.08,20.16,5.36,27.69,2.93,.28,8.11,.28,12.25-8.01-8.29,7.25-14.5,5.18-17.61,0-3.11-5.18,5.23-19.81,5.23-19.81,0,0-4.56-7.13-2.82-11.27s5.39-7.25,5.39-7.25Z"/><path d="M1441.61,223.93s.02,5.39,8.82,5.8c7.23-1.25,5.97-2.12,5.97-2.12,0,0-5.13,1.09-8.92-.78-3.79-1.87-7.36-6.49-7.65-8.32s1.78,5.42,1.78,5.42Z"/><path d="M1456.47,214.4s-.12,10.13,11.67,8.79c4.93-1.64,6.1-2.44,6.35-2.92s-4.81,2.41-9.01,.96c-4.2-1.45-10.41-10.77-10.41-12.84l1.4,6.02Z"/><path d="M1473.21,221.23s6.83-4.56,5.23-12.84c0,0-3.67,10-5.23,10.7,.51,1.73-5.06,2.55-5.06,2.55l5.06-.4Z"/><path d="M1492.18,196.27s.35,9.2,8.04,11.18c5.01,.85,8.13-.27,8.13-.27,0,0-6.99,.17-9.93-1.9s-6.87-13.27-6.98-13.89,.75,4.87,.75,4.87Z"/><path d="M1523.38,208.39s-2.46,11.48,.36,15.58,6.59,6.72,6.59,6.72c0,0-5.85-6.77-5.85-9.87s0-18.65,1.04-19.68l-2.14,7.25Z"/><path d="M1504.8,171.1s16.57-9.32,24.86,7.25c2.07,6.22,.67,6.03,.67,6.03,0,0-3.55-10.79-11.03-13.28-6.22-2.07-10.65-.66-16.2,2.26l1.7-2.26Z"/><path d="M1535.87,227.04s-8.73,11.46-2.81,22.31c5.62,10.29,11.69,9.81,16.06,10.84-7.84-4.14-12.21-6.22-14.28-12.43s-2.07-13.47,1.04-20.72Z"/><path d="M1433.4,243.58s-2.16,62.75,1.98,84.74c0,0,2.15-.15,4.15,.24,2.09,.41,4.14,1.04,4.43,1.25,.32,.24-1.89-22.09-1.89-44.83-2.54-3.03-3.42-9.74-3.58-14.43,.23-3.85,1.83-6.98,2.07-10.36,.87-12.09,.45-21.14,1.31-22.25"/><path d="M1438.73,329.54s-10.59-1.51-10.59,6c0,5.71,5.21,15.17,20.22,23.25-5.21-5.58-16.92-15.98-17.01-20.52-.19-4.94-.66-6.72,7.39-8.74Z"/><path d="M1442.64,356.73s12.44,42.24,53.87,31.9c10.36-3.1,16.58-9.26,16.58-9.26,0,0-24.87,11.97-40.93,3.37-16.06-8.6-23.81-23.94-23.81-23.94l-5.72-2.07Z"/><path d="M1496.51,388.63s8.29,13.48,15.54,15.55c5.08,1.45,8.24-2.09,10.34-3.63s4.59-3.47,4.59-3.47c0,0-8.62,4.04-12.81,3.5-2.36-.31-10.36-10.79-14.55-14.01-3.24-2.49-3.11,2.06-3.11,2.06Z"/><path d="M1455.07,329.94s13,2.76,19.97-2.42,9.06-7.26,9.06-7.26c0,0-8.31,10.37-13.49,11.4-5.18,1.04-15.54-1.72-15.54-1.72Z"/><path d="M1467.5,363.78s13.57,2.92,17.66,1.46c0,0-7.76,1.92-11.67,1.26s-10.06-3.24-10.06-3.24l4.07,.52Z"/><path d="M1448.06,251.81s-14.27,1.33-11.92,24.02c2.35,22.68,18.76,19.69,22.47,12.9,1.64-4.72,.97-4.86,.97-4.86,0,0-4.36,6.29-8.06,6.32s-11.1-1.62-13.1-15.3c.15-12.85,2.63-20.06,9.64-23.09Z"/><path d="M1457.14,289.77s-3.38,13.58-4.8,15.31-3.63,14.75-2.01,16.53,5.5,4.51,8.22,3.66,5.28-5.02,5.28-5.02c0,0-4.63,3.64-6.7,2.87s-4.71-2.85-4.43-6.99-.19-7.73,.56-8.53,5.08-12.8,5.28-15.09c.65-7.45-1.42-2.73-1.42-2.73Z"/><path d="M1488.16,243.58s-20.29,6.19-16.84,25.9,6.95,21.78,21.77,24.89c12.03-3.11,13.76-6.72,13.76-6.72,0,0-5.74,4.9-14.77,3.74s-16.28-6.4-18.35-21.91c0-11.34,2.98-19.71,14.44-25.9Z"/><path d="M1462.67,271.45s2.47-1.57,7.94,1.16c2.07,1.04,2.3,1.53,4.12,2.63l-1.32,1.77s-2.8-1.29-5.91-2.32-5.18,0-5.18,0l.35-3.23Z"/><polygon points="1510.51 277.53 1510.51 279.44 1545.2 305.77 1545.2 303.81 1510.51 277.53"/><path d="M1541.32,313.6s5.4-.5,6.19,4.12c.79,4.62,.95,7.24-2.75,9.04,0,0,1.47,.76,2.51-.27s2.07-3.11,2.07-5.18,0-5.59-3.11-6.94-4.91-.77-4.91-.77Z"/><path d="M1542.79,319.93s.73-.86,3.12-.78,2.57,.78,2.57,.78l-.18-1.74s-2.74-1.71-5.51,1.74Z"/><path d="M1541.31,330.96s-1.94,26.4-16.12,42.04l-4.54,3.31s18.84-28.45,20.66-45.35Z"/><path d="M1443.64,230.49s-.37,1.19,4.49,1.97,9.95-6.89,9.95-6.89c0,0-1.91,4.78-9.19,4.15-5.24-1.25-5.05-1.73-5.05-1.73l-.2,2.49Z"/><path d="M1459.41,223.32s14.02,7.19,16.24-4.39c-.89,.85-5.43,6.63-15.59,2.7l-.64,1.47v.21Z"/><path d="M1529.53,230.09s-5.47,15.3,1.47,23.22c6.94,7.91,14.19,5.84,14.19,5.84l-.54,.15s-10.24-1.24-13.66-15.72c.42-8.23,1.76-11.37,1.76-11.37l-3.24-2.13Z"/><path d="M1527.48,228.6s-8.98-.82-7.03-16.73c.8,.29,1.93,1.84,1.93,1.84,0,0-2.25,8.17,5.1,14.89Z"/><path d="M1492.7,205.54s5.69,6.87,16.14,1.75c-.85,.12-7.84,1.12-10.09,.07s-4.26-4.01-4.26-4.01c0,0-1.46,1.41-1.8,2.18Z"/><path d="M1496.51,388.63s-30.04,14.51-38.33,35.23c-6.22,23.83-25.83,86.74-25.35,96.2-1.1,10.64-1.49,9.46-1.49,9.46,0,0,16.48-54.9,31.2-98.41,0,0,6.28-15.3,14.43-21.64l18.5-15.09,1.04-5.76Z"/><path d="M1478.31,457.01s12.65,11.19,32,113.33c-2.74,5.39-4.75,19.15-4.75,19.15l4.53,5.46,24.76,.96s-20.8-42.84-24.86-63.26c-.23-1.16-1.04-4.14-2.07-8.29-4.55-18.21-12.79-56.99-12.79-56.99l-17.25-19.52h-5.97l6.41,9.18Z"/><path d="M1379.45,466.33s-9.83,2.01-10.09,4.12c1.54,2.13,6.99,8.32,6.99,8.32,0,0,8.29-9.32,3.11-12.43Z"/><path d="M1355.72,482.09s-9.85,12.88,2.28,13.58l7.68-5.85-3.9,.34-6.06-8.07Z"/><path d="M1376.34,478.76s-12.86,14.14-18.34,16.91c2.5,2.44,53.75,60.71,73.34,63.33,5.46,.56,10.03-1.53,13.65-4.48,6.62-5.39,10.08-13.61,10.08-13.61,0,0-12.43,15.54-24.86,12.43-5.41-1.35-51.9-48.53-54.96-51.72-3.06-3.19-7.71-5.62-5.9-9.07,1.81-3.44,6.99-13.8,6.99-13.8Z"/><path d="M1495.11,397.21s-6.85,18.52,9.68,25.61c-.05-2.23,2.07-2.07,2.07-2.07h0s-13.15-4.6-11.75-23.54Z"/><polygon points="1517.09 404.04 1529.66 411.43 1534.84 412.46 1520.11 401.89 1517.09 404.04"/><path d="M1516.62,412.65s-3.01,3.65,1.91,5.87l-.16-.88s-3.39-.66-1.75-4.99Z"/><path d="M1519.3,430.08s-3.52,5.22,2.38,6.23l-.19-1.06s-.85,.21-1.53-.93-.67-3.2-.67-4.24Z"/><path d="M1522.41,453.48s-2.19,3.44,3.05,4.52l-.17-.99s-2.88,.2-2.88-3.53Z"/><path d="M1525.54,476.29s-1.66,3.92,3.82,4.75l-.21-1.24s-3.58,.24-3.61-3.5Z"/><path d="M1529.77,499.44s-2.97,5.41,3.64,6.35l-.18-1.13s-4.39-.08-3.46-5.22Z"/><path d="M1535.15,521.64s-3.68,6.45,2.15,9.24l-.2-1.35s-2.68,.8-1.95-7.89Z"/><path d="M1535.93,543.45s-1.54,4.76,3.86,4.74l-.16-1.13s-3.65,.99-3.71-3.61Z"/><polygon points="1360.02 356.06 1335.87 446.13 1334.75 444.25 1357.63 356.34 1360.02 356.06"/><polygon points="1328.47 479.53 1319.88 520.49 1318.33 519.16 1326.38 478.77 1328.47 479.53"/><path d="M1330.77,436.8s-10.36-2.58-11.4,6.74c0,6.22,0,4.29,0,4.29,0,0,0-11.56,11.4-11.03Z"/><path d="M1314.67,446.66s-3.59,2.6-1.52,8.03c2.07,4.64,2.07,4.39,2.07,4.39,0,0-1.68-5.41-1.36-7.37s2.42-6.16,2.42-6.16l-1.62,1.1Z"/><path d="M1312.11,459.08s-1.64,5.98,2.29,9.21c2.69,2.3,1.89,1.27,1.89,1.27,0,0-3.29-3.91-3.21-5.12,.08-2.25-.97-5.35-.97-5.35Z"/><path d="M1310.38,467.35s-1.37,13.4,9.5,9.82c0,0-2.59,1.6-6.73-3.58-1.04-3.11-2.66-6.35-1.85-7.84l-.92,1.61Z"/><path d="M1350.53,441.48s-23.11,6.33-18.73,18.64c1.51,1.84,4.27,.37,6.22,0s3.78-2.49,3.78-2.49c0,0-5.86,2.49-7.93,.41-2.07-2.07,1.2-10.34,16.66-16.57Z"/><path d="M1332.37,451.6s-9.02-4.02-9.46-6.04,.17,2.55,.17,2.55c0,0,6.58,5.38,8.17,5.06s1.44-.86,1.44-.86l-.31-.72Z"/><path d="M1318.33,473.65s7.06,5.42,14.93,6.3c1.22,.73,2.98,.66,2.98,.66l2.89-1.07s-8.24-.93-11.41-2.41-10.06-4.62-10.06-4.62l.67,1.14Z"/><polygon points="1361.78 490.16 1349.41 473.58 1350.53 473.58 1365.68 489.82 1361.78 490.16"/><path d="M1353.18,451.66s-5.97,5.35-8.5,7.42-2.65,2.68-2.65,2.68l1.06,.95-4.59-.51-.48-2.08,1.87-.6,6.39-4.57,4.33-3.28h2.57Z"/><path d="M1549.34,376.21c3.11-2.07,4.14-2.07,6.48-3.52,9.59-7.67,74.32-78.32,89.74-99.03,16.69-36.26,48.81-143.99,48.81-145.03s5.2-6.37,5.2-6.37c0,0-.62,6.66,3.69,8.16-4.57,37.01-33.29,107.25-50.8,147.12-20.15,39.1-82.38,97.62-86.55,101.79l-23.38-.76,6.81-2.35Z"/><path d="M1668.08,81.57s-5.83,3.54,.39,7.69c5.18,1.04,11.4,2.07,12.43,3.11s9.32,10.36,9.32,10.36c0,0,7.76,1.99,8.54,3.59-.25-2.55-5.43-4.62-5.43-4.62l-6.22-6.22s-2.61-4.74-4.93-5.48-15.53-.57-14.1-8.43Z"/><path d="M1695.03,35.43s-8.09,6.56-5.41,26.57c2.26,20.33,2.96,24.2,5.41,27.8,0,0-4.8-28.51-3.77-33.69,1.04-5.18,1.32-16.34,3.77-17.49s3.35-.23,3.35-.23c0,0-.62-2.91-3.35-2.95Z"/><path d="M1710.94,29.17s-13.14,.85-9.68,44.45c0,0,.35-39.27,9.68-44.45Z"/><path d="M1719.74,18.83s-8.17,12-7.45,47.95c0,0,2.54-26.44,3.7-29.43,1.16-2.99,2.2-15.43,4.27-16.46s3.11-2.07,3.11-2.07l-3.63,.02Z"/><path d="M1731.57,38.62s-4.05-9.44-8.19,34.07c0,0,2.89-16.67,4.55-21.28,1.66-4.62,2.73-9.26,3.64-9.96,1.13-.87,3.2,.16,3.2,.16,0,0,.85-.8-3.2-2.99Z"/><path d="M1740.99,47.82s-6.22,2.07-8.29,23.83c0,0,4.14-14.5,5.18-16.57s2.07-4.14,3.11-4.66,2.39-1.2,2.39-1.2l-2.39-1.39Z"/><path d="M1723.38,79.27s-9.81,2.06-11.12,16.38l.49-.36s4.42-12.54,10.63-16.02Z"/><path d="M1714.81,86.55s-9.04-2.47-12.15,2.71c0,0,10.81-2.26,11.62-1.65s.53-1.06,.53-1.06Z"/><path d="M1510.08,594.94s-3.21,3.99-1.14,12.28c2.07,0,24.86,1.04,24.86,1.04,0,0-24.86-2.07-17.25-13.02l-6.47-.3Z"/><path d="M1552.77,595.24s-1.35,.59-1.35,2.66-1.04,8.73,.52,10.06,4.06,1.7,4.06,1.7c0,0-4.22,.37-4.92,0s-1.7-.85-1.72-5.79c-.03-4.7-2.49-8.18,3.41-8.63Z"/><path d="M1548.83,598.16s-.53-.26-1.56,.77,.02,10.89,1.56,11.66,19.16,.77,20.19-.26,2.94-1.89,2.94-1.89c0,0-19.16,1.58-20.89,1.22s-1.73-8.65-2.24-11.5Z"/><path d="M1508.94,607.22s2.07,40.4,4.14,42.47c-1.04,4.14-25.9,70.01-30.04,73.85-3.11,8.72-27.97,71.18-27.97,76.36s-9.32,175.45,0,193.91c0,0,6.85,4.33,13.27,3.11-15.34-8.48-1.39-188.32,.44-194.74,1.83-6.42,58.5-145.74,58.13-154.29-.36-8.55-2.48-40.05-2.48-40.05l-15.5-.62Z"/><path d="M1557.3,661.48s16.53-12.13,32.77,61.08c20.05,69.75,30.51,106.55,37.88,113.7,8.53-.2,7.11,3.53,20.71-4.5s11.03-6.51,11.03-6.51c0,0-19.19,5.73-23.33,4.69s-41.06-186.72-79.06-168.46Z"/><path d="M1642.57,766.75s8.29,36.26,11.4,38.33l3.11,2.07s-13.41,16.93-14.5-40.4Z"/><path d="M1725.45,735.67s6.8-1.13,5.99,.99-80.55,61.6-80.55,61.6l-1.5-4.85s30.47-20.45,76.05-57.74Z"/></g></g><g id="h"/><g id="i"/><g id="j"/></g></svg>